<svg width="234" height="228" viewBox="0 0 234 228" fill="none" xmlns="http://www.w3.org/2000/svg">
<rect opacity="0.7" x="1.58557" y="1.24683" width="72.4694" height="72.4694" rx="36.2347" fill="#F7CCCC"/>
<path opacity="0.7" d="M189.859 176.132C189.859 164.265 199.554 154.644 211.422 154.644C223.289 154.644 232.984 164.265 232.984 176.132C232.984 188 223.289 197.62 211.422 197.62C199.554 197.62 189.859 188 189.859 176.132Z" fill="#F7CCCC"/>
<path opacity="0.7" d="M180.703 41.4941C180.703 31.7632 188.652 23.8748 198.383 23.8748C208.114 23.8748 216.063 31.7632 216.063 41.4941C216.063 51.2251 208.114 59.1135 198.383 59.1135C188.652 59.1135 180.703 51.2251 180.703 41.4941Z" fill="#F7CCCC"/>
<path opacity="0.7" d="M37.8206 204.335C37.8206 194.881 45.5438 187.217 54.9978 187.217C64.4517 187.217 72.1749 194.881 72.1749 204.335C72.1749 213.789 64.4517 221.453 54.9978 221.453C45.5438 221.453 37.8206 213.789 37.8206 204.335Z" fill="#F7CCCC"/>
<path opacity="0.7" d="M9.32288 197.621C9.32288 191.522 14.3053 186.577 20.4043 186.577C26.5033 186.577 31.4857 191.522 31.4857 197.621C31.4857 203.72 26.5033 208.664 20.4043 208.664C14.3053 208.664 9.32288 203.72 9.32288 197.621Z" fill="#F7CCCC"/>
<path opacity="0.7" d="M118.934 227.623C174.96 227.623 220.378 182.205 220.378 126.179C220.378 70.1527 174.96 24.7346 118.934 24.7346C62.9081 24.7346 17.49 70.1527 17.49 126.179C17.49 182.205 62.9081 227.623 118.934 227.623Z" fill="#F7CCCC"/>
<g filter="url(#filter0_d_4435_57664)">
<path d="M112.923 84.2647C125.701 66.7855 133.634 50.9446 130.642 48.883L127.213 46.5211C124.22 44.4595 111.435 56.9581 98.6568 74.4373C85.8785 91.9166 77.9455 107.757 80.9383 109.819L84.367 112.181C87.3597 114.242 100.144 101.744 112.923 84.2647Z" fill="#E46666"/>
<path d="M109.494 81.9026C122.272 64.4234 130.205 48.5825 127.212 46.5209C124.22 44.4594 111.435 56.9579 98.6567 74.4371C85.8785 91.9163 77.9458 107.757 80.9385 109.819C83.9312 111.88 96.7161 99.3818 109.494 81.9026Z" fill="#4071D1"/>
<path d="M106.641 68.8554C110.196 71.3042 99.7251 85.6277 96.1701 83.1789C92.6152 80.73 92.0774 75.5383 94.969 71.583C97.8606 67.6277 103.087 66.4065 106.641 68.8554Z" fill="#F09393"/>
<path d="M81.442 123.105L90.8268 202.799H90.9285C90.9285 205.516 104.581 207.718 121.421 207.718C138.262 207.718 151.914 205.516 151.914 202.799H152.016L161.401 123.105H81.442Z" fill="#4071D1"/>
<path d="M121.421 129.555C143.501 129.555 161.4 126.668 161.4 123.105C161.4 119.543 143.501 116.656 121.421 116.656C99.3413 116.656 81.442 119.543 81.442 123.105C81.442 126.668 99.3413 129.555 121.421 129.555Z" fill="#E46666"/>
<path d="M123.451 141.004H121.656C121.208 141.004 120.845 141.357 120.845 141.791V198.106C120.845 198.54 121.208 198.893 121.656 198.893H123.451C123.898 198.893 124.261 198.54 124.261 198.106V141.791C124.261 141.357 123.898 141.004 123.451 141.004Z" fill="#F09393"/>
<path d="M140.769 198.97L138.609 198.68C138.264 198.634 138.004 198.049 138.028 197.375L139.966 142.065C139.99 141.39 140.289 140.881 140.633 140.927L142.793 141.217C143.138 141.263 143.398 141.848 143.374 142.522L141.436 197.832C141.412 198.507 141.113 199.016 140.769 198.97ZM103.094 198.97L105.254 198.68C105.598 198.634 105.859 198.049 105.835 197.375L103.896 142.065C103.873 141.39 103.574 140.881 103.229 140.927L101.07 141.217C100.725 141.263 100.465 141.848 100.488 142.522L102.427 197.832C102.451 198.507 102.749 199.016 103.094 198.97Z" fill="#F09393"/>
<path d="M138.976 112.903L136.163 122.16L111.849 115.199C111.72 115.162 111.599 115.1 111.494 115.018C111.389 114.936 111.302 114.834 111.238 114.719C111.173 114.604 111.133 114.478 111.118 114.348C111.104 114.217 111.116 114.086 111.155 113.96L122.533 76.5108C122.572 76.3852 122.635 76.2681 122.72 76.1663C122.804 76.0644 122.909 75.9798 123.027 75.9172C123.146 75.8545 123.276 75.8152 123.41 75.8014C123.544 75.7875 123.68 75.7995 123.809 75.8365L156.714 85.2575C156.843 85.2946 156.964 85.356 157.069 85.4383C157.174 85.5205 157.261 85.6221 157.325 85.7371C157.39 85.8521 157.43 85.9783 157.445 86.1085C157.459 86.2387 157.447 86.3703 157.409 86.4959L148.552 115.644L138.976 112.903Z" fill="#F8F8F8"/>
<path d="M136.163 122.16L138.976 112.903L148.552 115.644L136.163 122.16Z" fill="#E03030"/>
<path d="M124.882 89.2937L126.263 84.7465L137.555 87.9792L136.173 92.5264L124.882 89.2937Z" fill="#E03030" stroke="#E03030" stroke-width="0.859697"/>
<path d="M140.291 91.2337L149.571 93.8909" stroke="#E03030" stroke-width="2.57909" stroke-miterlimit="10"/>
<path d="M118.987 107.637L128.267 110.294" stroke="#E03030" stroke-width="2.57909" stroke-miterlimit="10"/>
<path d="M123.071 93.775L147.484 100.765" stroke="#E03030" stroke-width="2.57909" stroke-miterlimit="10"/>
<path d="M121.67 98.3844L146.083 105.374" stroke="#E03030" stroke-width="2.57909" stroke-miterlimit="10"/>
<path d="M120.269 102.994L144.682 109.984" stroke="#E03030" stroke-width="2.57909" stroke-miterlimit="10"/>
</g>
<defs>
<filter id="filter0_d_4435_57664" x="74.289" y="42" width="98.2877" height="178.614" filterUnits="userSpaceOnUse" color-interpolation-filters="sRGB">
<feFlood flood-opacity="0" result="BackgroundImageFix"/>
<feColorMatrix in="SourceAlpha" type="matrix" values="0 0 0 0 0 0 0 0 0 0 0 0 0 0 0 0 0 0 127 0" result="hardAlpha"/>
<feOffset dx="2.57909" dy="4.29849"/>
<feGaussianBlur stdDeviation="4.29849"/>
<feColorMatrix type="matrix" values="0 0 0 0 0 0 0 0 0 0 0 0 0 0 0 0 0 0 0.3 0"/>
<feBlend mode="normal" in2="BackgroundImageFix" result="effect1_dropShadow_4435_57664"/>
<feBlend mode="normal" in="SourceGraphic" in2="effect1_dropShadow_4435_57664" result="shape"/>
</filter>
</defs>
</svg>
