<svg width="267" height="211" viewBox="0 0 267 211" fill="none" xmlns="http://www.w3.org/2000/svg">
<rect opacity="0.7" x="0.476318" y="131.739" width="74.8763" height="74.8763" rx="37.4381" fill="#F7CCCC"/>
<path opacity="0.7" d="M193.189 24.5192C193.189 12.2575 203.206 2.3175 215.468 2.3175C227.729 2.3175 237.746 12.2575 237.746 24.5192C237.746 36.7808 227.729 46.7209 215.468 46.7209C203.206 46.7209 193.189 36.7808 193.189 24.5192Z" fill="#F7CCCC"/>
<path opacity="0.7" d="M6.20923 125.443C6.20923 115.389 14.4227 107.239 24.4768 107.239C34.5309 107.239 42.7443 115.389 42.7443 125.443C42.7443 135.498 34.5309 143.648 24.4768 143.648C14.4227 143.648 6.20923 135.498 6.20923 125.443Z" fill="#F7CCCC"/>
<path opacity="0.7" d="M222.573 109.717C222.573 99.9492 230.553 92.0307 240.321 92.0307C250.089 92.0307 258.069 99.9492 258.069 109.717C258.069 119.485 250.089 127.404 240.321 127.404C230.553 127.404 222.573 119.485 222.573 109.717Z" fill="#F7CCCC"/>
<path opacity="0.7" d="M243.857 71.442C243.857 65.1405 249.005 60.032 255.306 60.032C261.608 60.032 266.756 65.1405 266.756 71.442C266.756 77.7436 261.608 82.852 255.306 82.852C249.005 82.852 243.857 77.7436 243.857 71.442Z" fill="#F7CCCC"/>
<path opacity="0.7" d="M130.538 210.527C188.424 210.527 235.351 163.6 235.351 105.713C235.351 47.8262 188.424 0.899658 130.538 0.899658C72.6507 0.899658 25.7241 47.8262 25.7241 105.713C25.7241 163.6 72.6507 210.527 130.538 210.527Z" fill="#F7CCCC"/>
<g filter="url(#filter0_d_4435_57493)">
<path d="M191.392 117.238C189.946 115.104 187.537 113.83 184.955 113.83H170.706V159.642L167.505 167.627L173.907 170.174L192.183 124.5C193.147 122.091 192.837 119.406 191.392 117.238Z" fill="#E03030"/>
<path d="M160.896 103.504H105.309V92.765C105.309 87.2923 100.869 82.8522 95.3961 82.8522H80.8024C75.3297 82.8522 70.8896 87.2923 70.8896 92.765V159.091C70.8896 166.388 76.8442 172.342 84.141 172.342H170.705C172.598 172.342 174.147 170.793 174.147 168.9V116.755C174.147 109.458 168.193 103.504 160.896 103.504Z" fill="#E46666"/>
<path d="M103.029 120.601V163.403H142.538V128.832L134.307 120.601H103.029Z" fill="#F8F8F8"/>
<path d="M109.614 143.648H135.953V163.403H109.614V143.648Z" fill="#4071D1"/>
<path d="M129.369 151.879H116.199C115.763 151.879 115.344 151.706 115.035 151.397C114.727 151.088 114.553 150.67 114.553 150.233C114.553 149.796 114.727 149.378 115.035 149.069C115.344 148.76 115.763 148.587 116.199 148.587H129.369C129.806 148.587 130.224 148.76 130.533 149.069C130.842 149.378 131.015 149.796 131.015 150.233C131.015 150.67 130.842 151.088 130.533 151.397C130.224 151.706 129.806 151.879 129.369 151.879ZM129.369 158.464H116.199C115.763 158.464 115.344 158.291 115.035 157.982C114.727 157.673 114.553 157.254 114.553 156.818C114.553 156.381 114.727 155.963 115.035 155.654C115.344 155.345 115.763 155.172 116.199 155.172H129.369C129.806 155.172 130.224 155.345 130.533 155.654C130.842 155.963 131.015 156.381 131.015 156.818C131.015 157.254 130.842 157.673 130.533 157.982C130.224 158.291 129.806 158.464 129.369 158.464Z" fill="#F8F8F8"/>
<path d="M162.644 55.4C161.857 53.5219 160.069 52.3102 158.04 52.3102H147.65V36.1344C147.65 31.6815 144.045 28.0768 139.592 28.0768H125.446C120.993 28.0768 117.388 31.6815 117.388 36.1344V52.3102H106.998C104.969 52.3102 103.151 53.5219 102.394 55.4C101.606 57.2781 102.03 59.3985 103.484 60.8525L130.414 87.7819C131.02 88.3878 131.777 88.6604 132.564 88.6604C133.352 88.6604 134.109 88.3575 134.715 87.7819L161.645 60.8525C163.068 59.4288 163.492 57.2781 162.735 55.4H162.644Z" fill="#4071D1"/>
</g>
<defs>
<filter id="filter0_d_4435_57493" x="66.8896" y="22.0768" width="139.848" height="162.265" filterUnits="userSpaceOnUse" color-interpolation-filters="sRGB">
<feFlood flood-opacity="0" result="BackgroundImageFix"/>
<feColorMatrix in="SourceAlpha" type="matrix" values="0 0 0 0 0 0 0 0 0 0 0 0 0 0 0 0 0 0 127 0" result="hardAlpha"/>
<feOffset dx="5" dy="3"/>
<feGaussianBlur stdDeviation="4.5"/>
<feComposite in2="hardAlpha" operator="out"/>
<feColorMatrix type="matrix" values="0 0 0 0 0 0 0 0 0 0 0 0 0 0 0 0 0 0 0.4 0"/>
<feBlend mode="normal" in2="BackgroundImageFix" result="effect1_dropShadow_4435_57493"/>
<feBlend mode="normal" in="SourceGraphic" in2="effect1_dropShadow_4435_57493" result="shape"/>
</filter>
</defs>
</svg>
