<svg width="597" height="325" viewBox="0 0 597 325" fill="none" xmlns="http://www.w3.org/2000/svg">
<g filter="url(#filter0_d_3055_32820)">
<path d="M7.00049 21.5001C7.00049 12.6635 14.1639 5.50006 23.0005 5.50006H567.5C576.337 5.50006 583.5 12.6635 583.5 21.5001V293.5C583.5 302.337 576.337 309.5 567.5 309.5H23.0005C14.1639 309.5 7.00049 302.337 7.00049 293.5V21.5001Z" fill="#F8F8F8"/>
<path d="M30.9028 34.2813H33.2466L36.8599 44.6329C36.9315 44.8347 36.9901 45.017 37.0356 45.1797C37.0812 45.3425 37.13 45.5183 37.1821 45.7071H37.2603C37.3123 45.5183 37.3644 45.3425 37.4165 45.1797C37.4686 45.0105 37.5272 44.8282 37.5923 44.6329L41.2544 34.2813H43.4224L38.2563 48.5782H36.0786L30.9028 34.2813ZM43.686 43.5977V43.2852C43.686 41.7488 44.119 40.502 44.9849 39.545C45.8573 38.588 46.9966 38.1094 48.4028 38.1094C49.8156 38.1094 50.9061 38.5587 51.6743 39.4571C52.4491 40.349 52.8364 41.5697 52.8364 43.1192V43.9297H45.0239V42.4161H50.7173V42.211C50.7173 41.5339 50.522 40.9577 50.1313 40.4825C49.7472 40.0007 49.1841 39.7598 48.4419 39.7598C47.576 39.7598 46.925 40.0886 46.4888 40.7462C46.0526 41.3972 45.8345 42.224 45.8345 43.2266V43.6465C45.8345 44.6557 46.0656 45.489 46.5278 46.1465C46.9901 46.7976 47.6932 47.1231 48.6372 47.1231C49.2492 47.1231 49.7733 46.9864 50.2095 46.713C50.6522 46.433 51.007 46.1075 51.2739 45.7364L52.729 46.7422C52.41 47.2761 51.9022 47.7514 51.2056 48.168C50.509 48.5782 49.6593 48.7833 48.6567 48.7833C47.0747 48.7833 45.8507 48.3047 44.9849 47.3477C44.119 46.3907 43.686 45.1407 43.686 43.5977ZM54.8579 48.5001V38.4024H56.8403L56.8989 39.6622H56.9575C57.283 39.213 57.7095 38.8581 58.2368 38.5977C58.7642 38.3308 59.3534 38.1973 60.0044 38.1973C61.02 38.1973 61.8371 38.487 62.4556 39.0665C63.0741 39.6459 63.3833 40.629 63.3833 42.0157V48.5001H61.2544V42.0157C61.2544 41.2605 61.0884 40.7234 60.7563 40.4044C60.4243 40.0788 59.9491 39.9161 59.3306 39.9161C58.8162 39.9161 58.354 40.0593 57.9438 40.3458C57.5337 40.6322 57.2147 41.0131 56.9868 41.4883V48.5001H54.8579ZM64.6431 40.004V38.4024H70.5806V40.004H64.6431ZM66.3521 45.8047V39.252V38.9883V35.7852H68.4712V45.7462C68.4712 46.2409 68.5623 46.5827 68.7446 46.7715C68.9269 46.9603 69.2004 47.0547 69.5649 47.0547C69.7342 47.0547 69.9002 47.0385 70.063 47.0059C70.2323 46.9669 70.3983 46.9148 70.561 46.8497V48.5001C70.3983 48.5717 70.1802 48.6368 69.9067 48.6954C69.6398 48.754 69.3436 48.7833 69.0181 48.7833C68.2043 48.7833 67.5565 48.5456 67.0747 48.0704C66.5929 47.5951 66.3521 46.8399 66.3521 45.8047ZM71.811 45.5411C71.811 44.4864 72.2244 43.6758 73.0513 43.1094C73.8781 42.5365 74.9295 42.2501 76.2056 42.2501H78.4224V41.5665C78.4224 41.0001 78.2759 40.5476 77.9829 40.209C77.6899 39.864 77.1886 39.6915 76.479 39.6915C75.7759 39.6915 75.2681 39.8347 74.9556 40.1212C74.6431 40.4076 74.4868 40.7527 74.4868 41.1563V41.2637L72.3872 41.254V41.1465C72.3872 40.3067 72.7648 39.5938 73.52 39.0079C74.2817 38.4154 75.2941 38.1192 76.5571 38.1192C77.8201 38.1192 78.8 38.4057 79.4966 38.9786C80.1997 39.545 80.5513 40.4109 80.5513 41.5762V46.1758C80.5513 46.599 80.5838 46.9962 80.6489 47.3672C80.714 47.7383 80.8084 48.0639 80.9321 48.3438V48.5001H78.8618C78.7707 48.3373 78.6893 48.1322 78.6177 47.8848C78.5526 47.6309 78.507 47.377 78.481 47.1231C78.2596 47.5333 77.8787 47.8978 77.3384 48.2169C76.798 48.5294 76.1079 48.6856 75.2681 48.6856C74.2915 48.6856 73.4712 48.4187 72.8071 47.8848C72.1431 47.351 71.811 46.5697 71.811 45.5411ZM73.9399 45.3946C73.9399 45.9284 74.0962 46.3484 74.4087 46.6544C74.7212 46.9603 75.203 47.1133 75.854 47.1133C76.5246 47.1133 77.1203 46.8887 77.6411 46.4395C78.1619 45.9838 78.4224 45.4825 78.4224 44.9356V43.6563H76.4985C75.6457 43.6563 75.0044 43.8093 74.5747 44.1153C74.1515 44.4213 73.9399 44.8477 73.9399 45.3946ZM82.6118 45.4337L84.7114 45.4434V45.5411C84.7114 46.101 84.9067 46.5144 85.2974 46.7813C85.688 47.0482 86.2121 47.1817 86.8696 47.1817C87.5337 47.1817 88.048 47.0547 88.4126 46.8008C88.7772 46.5469 88.9595 46.2084 88.9595 45.7852C88.9595 45.362 88.7967 45.043 88.4712 44.8282C88.1522 44.6068 87.4491 44.3725 86.3618 44.1251C85.242 43.8712 84.3794 43.5066 83.7739 43.0313C83.175 42.5495 82.8755 41.8985 82.8755 41.0782C82.8755 40.1993 83.2303 39.4864 83.9399 38.9395C84.6561 38.3861 85.6196 38.1094 86.8306 38.1094C88.0285 38.1094 88.992 38.3894 89.7212 38.9493C90.4504 39.5027 90.8149 40.2611 90.8149 41.2247V41.3028H88.7349V41.1856C88.7349 40.7169 88.5754 40.3555 88.2563 40.1016C87.9438 39.8477 87.4653 39.7208 86.8208 39.7208C86.1763 39.7208 85.7043 39.8347 85.4048 40.0626C85.1118 40.2904 84.9653 40.5866 84.9653 40.9512C84.9653 41.3093 85.1379 41.5958 85.4829 41.8106C85.8345 42.0189 86.5539 42.2468 87.6411 42.4942C88.7609 42.7481 89.6105 43.1159 90.1899 43.5977C90.7759 44.073 91.0688 44.7533 91.0688 45.6387C91.0688 46.5827 90.7173 47.3445 90.0142 47.9239C89.311 48.4968 88.2661 48.7833 86.8794 48.7833C85.4992 48.7833 84.4412 48.4936 83.7056 47.9141C82.9764 47.3282 82.6118 46.5307 82.6118 45.5215V45.4337ZM97.9048 52.5919V38.4024H99.8677L99.936 39.6719H99.9849C100.232 39.2618 100.62 38.9135 101.147 38.627C101.681 38.3406 102.29 38.1973 102.973 38.1973C104.262 38.1973 105.291 38.6693 106.059 39.6133C106.834 40.5574 107.221 41.7813 107.221 43.2852V43.5977C107.221 45.1016 106.837 46.3288 106.069 47.2794C105.301 48.2234 104.278 48.6954 103.002 48.6954C102.319 48.6954 101.723 48.5749 101.215 48.334C100.714 48.0932 100.32 47.7676 100.034 47.3575V52.5919H97.9048ZM100.034 45.3946C100.216 45.8178 100.519 46.1954 100.942 46.5274C101.365 46.8529 101.876 47.0157 102.475 47.0157C103.354 47.0157 104.002 46.6999 104.418 46.0684C104.835 45.4369 105.043 44.6296 105.043 43.6465V43.2364C105.043 42.2533 104.835 41.4493 104.418 40.8243C104.002 40.1928 103.354 39.877 102.475 39.877C101.87 39.877 101.359 40.043 100.942 40.3751C100.525 40.7006 100.222 41.0749 100.034 41.4981V45.3946ZM108.725 43.5977V43.2852C108.725 41.7422 109.171 40.4955 110.063 39.545C110.961 38.588 112.153 38.1094 113.637 38.1094C115.115 38.1094 116.303 38.588 117.202 39.545C118.1 40.4955 118.549 41.7422 118.549 43.2852V43.5977C118.549 45.1472 118.1 46.4005 117.202 47.3575C116.303 48.308 115.115 48.7833 113.637 48.7833C112.153 48.7833 110.961 48.308 110.063 47.3575C109.171 46.4005 108.725 45.1472 108.725 43.5977ZM110.903 43.2364V43.6563C110.903 44.6654 111.134 45.4922 111.596 46.1368C112.058 46.7813 112.739 47.1036 113.637 47.1036C114.536 47.1036 115.216 46.7813 115.678 46.1368C116.14 45.4922 116.372 44.6654 116.372 43.6563V43.2364C116.372 42.2273 116.137 41.4037 115.668 40.7657C115.206 40.1212 114.529 39.7989 113.637 39.7989C112.745 39.7989 112.065 40.1212 111.596 40.7657C111.134 41.4037 110.903 42.2273 110.903 43.2364ZM120.639 48.5001V38.4024H122.622L122.69 39.6524H122.739C122.986 39.2357 123.312 38.8777 123.715 38.5782C124.119 38.2722 124.594 38.1192 125.141 38.1192C125.278 38.1192 125.421 38.1355 125.571 38.168C125.727 38.2006 125.838 38.2299 125.903 38.2559V40.1505C125.779 40.1179 125.646 40.0951 125.502 40.0821C125.359 40.0691 125.206 40.0626 125.043 40.0626C124.516 40.0626 124.054 40.209 123.657 40.502C123.26 40.795 122.967 41.1628 122.778 41.6055V48.5001H120.639ZM130.805 34.2813H133.149L136.762 44.6329C136.834 44.8347 136.892 45.017 136.938 45.1797C136.984 45.3425 137.032 45.5183 137.084 45.7071H137.163C137.215 45.5183 137.267 45.3425 137.319 45.1797C137.371 45.0105 137.43 44.8282 137.495 44.6329L141.157 34.2813H143.325L138.159 48.5782H135.981L130.805 34.2813ZM143.588 43.5977V43.2852C143.588 41.7488 144.021 40.502 144.887 39.545C145.76 38.588 146.899 38.1094 148.305 38.1094C149.718 38.1094 150.808 38.5587 151.577 39.4571C152.351 40.349 152.739 41.5697 152.739 43.1192V43.9297H144.926V42.4161H150.62V42.211C150.62 41.5339 150.424 40.9577 150.034 40.4825C149.65 40.0007 149.086 39.7598 148.344 39.7598C147.478 39.7598 146.827 40.0886 146.391 40.7462C145.955 41.3972 145.737 42.224 145.737 43.2266V43.6465C145.737 44.6557 145.968 45.489 146.43 46.1465C146.892 46.7976 147.596 47.1231 148.54 47.1231C149.152 47.1231 149.676 46.9864 150.112 46.713C150.555 46.433 150.909 46.1075 151.176 45.7364L152.631 46.7422C152.312 47.2761 151.805 47.7514 151.108 48.168C150.411 48.5782 149.562 48.7833 148.559 48.7833C146.977 48.7833 145.753 48.3047 144.887 47.3477C144.021 46.3907 143.588 45.1407 143.588 43.5977ZM154.76 48.5001V38.4024H156.743L156.801 39.6622H156.86C157.185 39.213 157.612 38.8581 158.139 38.5977C158.667 38.3308 159.256 38.1973 159.907 38.1973C160.922 38.1973 161.739 38.487 162.358 39.0665C162.976 39.6459 163.286 40.629 163.286 42.0157V48.5001H161.157V42.0157C161.157 41.2605 160.991 40.7234 160.659 40.4044C160.327 40.0788 159.851 39.9161 159.233 39.9161C158.719 39.9161 158.256 40.0593 157.846 40.3458C157.436 40.6322 157.117 41.0131 156.889 41.4883V48.5001H154.76ZM165.288 43.6075V43.295C165.288 41.8106 165.675 40.5932 166.45 39.6426C167.231 38.6856 168.266 38.2071 169.555 38.2071C170.245 38.2071 170.834 38.3308 171.323 38.5782C171.811 38.8191 172.198 39.1381 172.485 39.5352V33.6172H174.604V48.5001H172.631L172.563 47.211H172.514C172.267 47.6277 171.883 47.9792 171.362 48.2657C170.847 48.5521 170.245 48.6954 169.555 48.6954C168.247 48.6954 167.208 48.2169 166.44 47.2598C165.672 46.3028 165.288 45.0853 165.288 43.6075ZM167.456 43.6465C167.456 44.6166 167.667 45.4206 168.09 46.0587C168.514 46.6967 169.168 47.0157 170.053 47.0157C170.646 47.0157 171.15 46.8529 171.567 46.5274C171.984 46.2019 172.286 45.8275 172.475 45.4044V41.4786C172.293 41.0554 171.993 40.6843 171.577 40.3653C171.167 40.0398 170.659 39.877 170.053 39.877C169.168 39.877 168.514 40.1993 168.09 40.8438C167.667 41.4818 167.456 42.2859 167.456 43.2559V43.6465ZM176.694 43.5977V43.2852C176.694 41.7488 177.127 40.502 177.993 39.545C178.865 38.588 180.004 38.1094 181.411 38.1094C182.823 38.1094 183.914 38.5587 184.682 39.4571C185.457 40.349 185.844 41.5697 185.844 43.1192V43.9297H178.032V42.4161H183.725V42.211C183.725 41.5339 183.53 40.9577 183.139 40.4825C182.755 40.0007 182.192 39.7598 181.45 39.7598C180.584 39.7598 179.933 40.0886 179.497 40.7462C179.06 41.3972 178.842 42.224 178.842 43.2266V43.6465C178.842 44.6557 179.073 45.489 179.536 46.1465C179.998 46.7976 180.701 47.1231 181.645 47.1231C182.257 47.1231 182.781 46.9864 183.217 46.713C183.66 46.433 184.015 46.1075 184.282 45.7364L185.737 46.7422C185.418 47.2761 184.91 47.7514 184.213 48.168C183.517 48.5782 182.667 48.7833 181.665 48.7833C180.083 48.7833 178.859 48.3047 177.993 47.3477C177.127 46.3907 176.694 45.1407 176.694 43.5977ZM187.28 43.6075V43.295C187.28 41.8106 187.667 40.5932 188.442 39.6426C189.223 38.6856 190.258 38.2071 191.547 38.2071C192.237 38.2071 192.827 38.3308 193.315 38.5782C193.803 38.8191 194.191 39.1381 194.477 39.5352V33.6172H196.596V48.5001H194.624L194.555 47.211H194.506C194.259 47.6277 193.875 47.9792 193.354 48.2657C192.84 48.5521 192.237 48.6954 191.547 48.6954C190.239 48.6954 189.2 48.2169 188.432 47.2598C187.664 46.3028 187.28 45.0853 187.28 43.6075ZM189.448 43.6465C189.448 44.6166 189.659 45.4206 190.083 46.0587C190.506 46.6967 191.16 47.0157 192.045 47.0157C192.638 47.0157 193.142 46.8529 193.559 46.5274C193.976 46.2019 194.278 45.8275 194.467 45.4044V41.4786C194.285 41.0554 193.986 40.6843 193.569 40.3653C193.159 40.0398 192.651 39.877 192.045 39.877C191.16 39.877 190.506 40.1993 190.083 40.8438C189.659 41.4818 189.448 42.2859 189.448 43.2559V43.6465ZM198.686 43.5977V43.2852C198.686 41.7422 199.132 40.4955 200.024 39.545C200.922 38.588 202.114 38.1094 203.598 38.1094C205.076 38.1094 206.264 38.588 207.163 39.545C208.061 40.4955 208.51 41.7422 208.51 43.2852V43.5977C208.51 45.1472 208.061 46.4005 207.163 47.3575C206.264 48.308 205.076 48.7833 203.598 48.7833C202.114 48.7833 200.922 48.308 200.024 47.3575C199.132 46.4005 198.686 45.1472 198.686 43.5977ZM200.864 43.2364V43.6563C200.864 44.6654 201.095 45.4922 201.557 46.1368C202.019 46.7813 202.7 47.1036 203.598 47.1036C204.497 47.1036 205.177 46.7813 205.639 46.1368C206.101 45.4922 206.333 44.6654 206.333 43.6563V43.2364C206.333 42.2273 206.098 41.4037 205.629 40.7657C205.167 40.1212 204.49 39.7989 203.598 39.7989C202.706 39.7989 202.026 40.1212 201.557 40.7657C201.095 41.4037 200.864 42.2273 200.864 43.2364ZM210.6 48.5001V38.4024H212.583L212.651 39.6524H212.7C212.947 39.2357 213.273 38.8777 213.676 38.5782C214.08 38.2722 214.555 38.1192 215.102 38.1192C215.239 38.1192 215.382 38.1355 215.532 38.168C215.688 38.2006 215.799 38.2299 215.864 38.2559V40.1505C215.74 40.1179 215.607 40.0951 215.463 40.0821C215.32 40.0691 215.167 40.0626 215.004 40.0626C214.477 40.0626 214.015 40.209 213.618 40.502C213.221 40.795 212.928 41.1628 212.739 41.6055V48.5001H210.6ZM216.674 43.5977V43.2852C216.674 41.7488 217.107 40.502 217.973 39.545C218.846 38.588 219.985 38.1094 221.391 38.1094C222.804 38.1094 223.894 38.5587 224.663 39.4571C225.437 40.349 225.825 41.5697 225.825 43.1192V43.9297H218.012V42.4161H223.706V42.211C223.706 41.5339 223.51 40.9577 223.12 40.4825C222.736 40.0007 222.172 39.7598 221.43 39.7598C220.564 39.7598 219.913 40.0886 219.477 40.7462C219.041 41.3972 218.823 42.224 218.823 43.2266V43.6465C218.823 44.6557 219.054 45.489 219.516 46.1465C219.978 46.7976 220.681 47.1231 221.625 47.1231C222.237 47.1231 222.762 46.9864 223.198 46.713C223.64 46.433 223.995 46.1075 224.262 45.7364L225.717 46.7422C225.398 47.2761 224.89 47.7514 224.194 48.168C223.497 48.5782 222.648 48.7833 221.645 48.7833C220.063 48.7833 218.839 48.3047 217.973 47.3477C217.107 46.3907 216.674 45.1407 216.674 43.5977ZM227.241 45.4337L229.34 45.4434V45.5411C229.34 46.101 229.536 46.5144 229.926 46.7813C230.317 47.0482 230.841 47.1817 231.499 47.1817C232.163 47.1817 232.677 47.0547 233.042 46.8008C233.406 46.5469 233.588 46.2084 233.588 45.7852C233.588 45.362 233.426 45.043 233.1 44.8282C232.781 44.6068 232.078 44.3725 230.991 44.1251C229.871 43.8712 229.008 43.5066 228.403 43.0313C227.804 42.5495 227.504 41.8985 227.504 41.0782C227.504 40.1993 227.859 39.4864 228.569 38.9395C229.285 38.3861 230.249 38.1094 231.459 38.1094C232.657 38.1094 233.621 38.3894 234.35 38.9493C235.079 39.5027 235.444 40.2611 235.444 41.2247V41.3028H233.364V41.1856C233.364 40.7169 233.204 40.3555 232.885 40.1016C232.573 39.8477 232.094 39.7208 231.45 39.7208C230.805 39.7208 230.333 39.8347 230.034 40.0626C229.741 40.2904 229.594 40.5866 229.594 40.9512C229.594 41.3093 229.767 41.5958 230.112 41.8106C230.463 42.0189 231.183 42.2468 232.27 42.4942C233.39 42.7481 234.239 43.1159 234.819 43.5977C235.405 44.073 235.698 44.7533 235.698 45.6387C235.698 46.5827 235.346 47.3445 234.643 47.9239C233.94 48.4968 232.895 48.7833 231.508 48.7833C230.128 48.7833 229.07 48.4936 228.334 47.9141C227.605 47.3282 227.241 46.5307 227.241 45.5215V45.4337Z" fill="#140000"/>
<rect x="425" y="30.0001" width="134" height="33" rx="7.5" fill="#F8F8F8"/>
<rect x="425" y="30.0001" width="134" height="33" rx="7.5" stroke="#9F9F9F"/>
<g clip-path="url(#clip0_3055_32820)">
<path d="M435.11 49.8204V49.6329H437.235V49.7891C437.235 50.3933 437.43 50.8464 437.821 51.1485C438.211 51.4506 438.758 51.6016 439.461 51.6016C440.165 51.6016 440.701 51.4558 441.071 51.1641C441.446 50.8725 441.633 50.487 441.633 50.0079C441.633 49.5339 441.454 49.1641 441.094 48.8985C440.74 48.6329 439.998 48.3464 438.868 48.0391C437.665 47.711 436.771 47.2891 436.188 46.7735C435.605 46.2579 435.31 45.5417 435.305 44.6251C435.305 43.6615 435.672 42.8829 436.407 42.2891C437.141 41.6954 438.136 41.3985 439.391 41.3985C440.646 41.3985 441.649 41.7084 442.399 42.3282C443.149 42.9428 443.524 43.7527 443.524 44.7579V44.9297H441.438V44.7813C441.438 44.2553 441.266 43.8334 440.922 43.5157C440.579 43.1928 440.071 43.0313 439.399 43.0313C438.722 43.0313 438.224 43.1641 437.907 43.4297C437.589 43.6902 437.43 44.0443 437.43 44.4922C437.43 44.9193 437.599 45.2475 437.938 45.4766C438.277 45.7058 439.011 45.9766 440.141 46.2891C441.329 46.6172 442.227 47.0495 442.836 47.586C443.446 48.1225 443.75 48.8881 443.75 49.8829C443.75 50.9141 443.36 51.7292 442.579 52.3282C441.803 52.9271 440.766 53.2266 439.469 53.2266C438.178 53.2266 437.128 52.9324 436.321 52.3438C435.514 51.7501 435.11 50.9089 435.11 49.8204ZM444.891 49.0313V48.7813C444.891 47.5261 445.258 46.5131 445.993 45.7422C446.727 44.9662 447.678 44.5782 448.844 44.5782C450.011 44.5782 450.922 44.9402 451.579 45.6641C452.235 46.3881 452.563 47.3803 452.563 48.6407V49.3907H446.227V48.0469H450.547V47.8751C450.547 47.3751 450.402 46.9532 450.11 46.6094C449.818 46.2657 449.402 46.0938 448.86 46.0938C448.219 46.0938 447.735 46.3334 447.407 46.8126C447.084 47.2917 446.922 47.9167 446.922 48.6876V49.1094C446.922 49.8751 447.097 50.4975 447.446 50.9766C447.795 51.4558 448.318 51.6954 449.016 51.6954C449.48 51.6954 449.878 51.586 450.211 51.3672C450.55 51.1485 450.823 50.8933 451.032 50.6016L452.446 51.5469C452.185 52.0105 451.758 52.4089 451.165 52.7422C450.576 53.0704 449.868 53.2344 449.04 53.2344C447.732 53.2344 446.714 52.849 445.985 52.0782C445.256 51.3021 444.891 50.2865 444.891 49.0313ZM454.125 56.2579V44.8126H456.016L456.071 45.7891H456.11C456.292 45.4662 456.594 45.1954 457.016 44.9766C457.443 44.7579 457.925 44.6485 458.461 44.6485C459.508 44.6485 460.349 45.0287 460.985 45.7891C461.62 46.5443 461.938 47.5417 461.938 48.7813V49.0313C461.938 50.2605 461.623 51.2553 460.993 52.0157C460.368 52.7761 459.54 53.1563 458.508 53.1563C457.977 53.1563 457.506 53.0652 457.094 52.8829C456.688 52.7006 456.375 52.4506 456.157 52.1329V56.2579H454.125ZM456.157 50.3751C456.292 50.698 456.519 50.9818 456.836 51.2266C457.159 51.4714 457.542 51.5938 457.985 51.5938C458.625 51.5938 459.099 51.3699 459.407 50.9219C459.714 50.4688 459.868 49.8646 459.868 49.1094V48.6954C459.868 47.9454 459.714 47.3464 459.407 46.8985C459.099 46.4454 458.623 46.2188 457.977 46.2188C457.524 46.2188 457.141 46.3386 456.829 46.5782C456.521 46.8178 456.297 47.0964 456.157 47.4141V50.3751ZM462.532 46.3126V44.8126H467.469V46.3126H462.532ZM463.836 50.6954V45.6016L463.844 45.3829V42.8204H465.86V50.6407C465.86 51.0209 465.93 51.2839 466.071 51.4297C466.217 51.5756 466.425 51.6485 466.696 51.6485C466.821 51.6485 466.946 51.6355 467.071 51.6094C467.201 51.5782 467.326 51.5391 467.446 51.4922V52.9922C467.321 53.0547 467.146 53.1094 466.922 53.1563C466.704 53.2032 466.464 53.2266 466.204 53.2266C465.485 53.2266 464.909 53.0235 464.477 52.6172C464.05 52.211 463.836 51.5704 463.836 50.6954ZM468.899 53.0001V44.8126H470.938V53.0001H468.899ZM468.711 42.4532C468.711 42.1355 468.816 41.8699 469.024 41.6563C469.232 41.4428 469.532 41.336 469.922 41.336C470.313 41.336 470.612 41.4428 470.821 41.6563C471.029 41.8699 471.133 42.1355 471.133 42.4532C471.133 42.7709 471.027 43.0391 470.813 43.2579C470.605 43.4714 470.308 43.5782 469.922 43.5782C469.532 43.5782 469.232 43.4714 469.024 43.2579C468.816 43.0391 468.711 42.7709 468.711 42.4532ZM472.625 49.0313V48.7813C472.625 47.5261 472.993 46.5131 473.727 45.7422C474.461 44.9662 475.412 44.5782 476.579 44.5782C477.745 44.5782 478.657 44.9402 479.313 45.6641C479.969 46.3881 480.297 47.3803 480.297 48.6407V49.3907H473.961V48.0469H478.282V47.8751C478.282 47.3751 478.136 46.9532 477.844 46.6094C477.553 46.2657 477.136 46.0938 476.594 46.0938C475.954 46.0938 475.469 46.3334 475.141 46.8126C474.818 47.2917 474.657 47.9167 474.657 48.6876V49.1094C474.657 49.8751 474.831 50.4975 475.18 50.9766C475.529 51.4558 476.053 51.6954 476.75 51.6954C477.214 51.6954 477.612 51.586 477.946 51.3672C478.284 51.1485 478.558 50.8933 478.766 50.6016L480.18 51.5469C479.92 52.0105 479.493 52.4089 478.899 52.7422C478.31 53.0704 477.602 53.2344 476.774 53.2344C475.467 53.2344 474.448 52.849 473.719 52.0782C472.99 51.3021 472.625 50.2865 472.625 49.0313ZM481.86 53.0001V44.8126H483.766L483.821 45.7969H483.868C484.128 45.4376 484.461 45.1589 484.868 44.961C485.279 44.7579 485.724 44.6563 486.204 44.6563C486.771 44.6563 487.261 44.7735 487.672 45.0079C488.089 45.237 488.394 45.5886 488.586 46.0626H488.625C488.922 45.5886 489.3 45.237 489.758 45.0079C490.222 44.7735 490.722 44.6563 491.258 44.6563C492.086 44.6563 492.748 44.9063 493.243 45.4063C493.737 45.9011 493.985 46.7318 493.985 47.8985V53.0001H491.954V47.8126C491.954 47.2709 491.839 46.8751 491.61 46.6251C491.381 46.3751 491.047 46.2501 490.61 46.2501C490.23 46.2449 489.896 46.349 489.61 46.5626C489.329 46.7761 489.105 47.0626 488.938 47.4219V53.0001H486.907V47.8282C486.907 47.2761 486.79 46.8751 486.555 46.6251C486.326 46.3751 485.99 46.2501 485.547 46.2501C485.172 46.2501 484.844 46.3542 484.563 46.5626C484.282 46.7709 484.058 47.0574 483.891 47.4219V53.0001H481.86ZM496.016 53.0001V41.0547H498.047V45.7032C498.303 45.3751 498.625 45.1172 499.016 44.9297C499.412 44.7422 499.873 44.6485 500.399 44.6485C501.451 44.6485 502.287 45.0339 502.907 45.8047C503.527 46.5756 503.836 47.5652 503.836 48.7735V49.0235C503.836 50.237 503.524 51.2292 502.899 52.0001C502.279 52.7709 501.446 53.1563 500.399 53.1563C499.862 53.1563 499.378 53.0495 498.946 52.836C498.514 52.6225 498.206 52.3542 498.024 52.0313H497.977L497.922 53.0001H496.016ZM498.047 50.3438C498.183 50.6719 498.404 50.9636 498.711 51.2188C499.019 51.4688 499.407 51.5938 499.875 51.5938C500.516 51.5938 500.99 51.3594 501.297 50.8907C501.605 50.4219 501.758 49.823 501.758 49.0938V48.711C501.758 47.9818 501.605 47.3855 501.297 46.9219C500.995 46.4532 500.519 46.2188 499.868 46.2188C499.409 46.2188 499.024 46.3464 498.711 46.6016C498.404 46.8516 498.183 47.1407 498.047 47.4688V50.3438ZM505.469 53.0001V44.8126H507.391L507.438 45.7657H507.485C507.662 45.448 507.904 45.1719 508.211 44.9376C508.524 44.7032 508.878 44.586 509.274 44.586C509.383 44.586 509.495 44.599 509.61 44.6251C509.73 44.6511 509.813 44.6745 509.86 44.6954V46.4766C509.766 46.4506 509.665 46.4324 509.555 46.4219C509.451 46.4115 509.334 46.4063 509.204 46.4063C508.813 46.4063 508.467 46.5183 508.165 46.7422C507.868 46.961 507.649 47.2396 507.508 47.5782V53.0001H505.469ZM510.547 49.0313V48.7813C510.547 47.5261 510.915 46.5131 511.649 45.7422C512.383 44.9662 513.334 44.5782 514.5 44.5782C515.667 44.5782 516.579 44.9402 517.235 45.6641C517.891 46.3881 518.219 47.3803 518.219 48.6407V49.3907H511.883V48.0469H516.204V47.8751C516.204 47.3751 516.058 46.9532 515.766 46.6094C515.474 46.2657 515.058 46.0938 514.516 46.0938C513.875 46.0938 513.391 46.3334 513.063 46.8126C512.74 47.2917 512.579 47.9167 512.579 48.6876V49.1094C512.579 49.8751 512.753 50.4975 513.102 50.9766C513.451 51.4558 513.974 51.6954 514.672 51.6954C515.136 51.6954 515.534 51.586 515.868 51.3672C516.206 51.1485 516.48 50.8933 516.688 50.6016L518.102 51.5469C517.842 52.0105 517.415 52.4089 516.821 52.7422C516.232 53.0704 515.524 53.2344 514.696 53.2344C513.389 53.2344 512.37 52.849 511.641 52.0782C510.912 51.3021 510.547 50.2865 510.547 49.0313Z" fill="#140000"/>
<path fill-rule="evenodd" clip-rule="evenodd" d="M527.969 42.4691C528.039 42.3992 528.122 42.3438 528.213 42.306C528.304 42.2682 528.402 42.2487 528.5 42.2487C528.599 42.2487 528.697 42.2682 528.788 42.306C528.879 42.3438 528.962 42.3992 529.031 42.4691L537.5 50.9396L545.969 42.4691C546.039 42.3993 546.122 42.344 546.213 42.3063C546.304 42.2685 546.402 42.2491 546.5 42.2491C546.599 42.2491 546.697 42.2685 546.788 42.3063C546.879 42.344 546.962 42.3993 547.031 42.4691C547.101 42.5388 547.156 42.6216 547.194 42.7127C547.232 42.8038 547.251 42.9014 547.251 43.0001C547.251 43.0987 547.232 43.1963 547.194 43.2874C547.156 43.3785 547.101 43.4613 547.031 43.5311L538.031 52.5311C537.962 52.6009 537.879 52.6563 537.788 52.6941C537.697 52.7319 537.599 52.7514 537.5 52.7514C537.402 52.7514 537.304 52.7319 537.213 52.6941C537.122 52.6563 537.039 52.6009 536.969 52.5311L527.969 43.5311C527.9 43.4614 527.844 43.3786 527.806 43.2875C527.768 43.1964 527.749 43.0987 527.749 43.0001C527.749 42.9014 527.768 42.8037 527.806 42.7126C527.844 42.6215 527.9 42.5387 527.969 42.4691Z" fill="#140000"/>
</g>
<mask id="mask0_3055_32820" style="mask-type:alpha" maskUnits="userSpaceOnUse" x="97" y="122" width="74" height="121">
<path fill-rule="evenodd" clip-rule="evenodd" d="M97.4837 237.79C97.0482 239.416 98.0334 241.089 99.6863 241.404C103.347 242.102 107.126 242.467 110.99 242.467C144.127 242.467 170.99 215.604 170.99 182.467C170.99 151.046 146.838 125.267 116.085 122.681C114.396 122.539 112.99 123.905 112.99 125.6L112.99 149.724C112.99 151.304 114.221 152.597 115.781 152.848C130.073 155.142 140.99 167.529 140.99 182.467C140.99 199.036 127.559 212.467 110.99 212.467C109.737 212.467 108.503 212.391 107.29 212.241C105.696 212.045 104.132 212.978 103.716 214.529L97.4837 237.79Z" fill="url(#paint0_linear_3055_32820)"/>
</mask>
<g mask="url(#mask0_3055_32820)">
<path fill-rule="evenodd" clip-rule="evenodd" d="M97.4837 237.79C97.0482 239.416 98.0334 241.089 99.6863 241.404C103.347 242.102 107.126 242.467 110.99 242.467C144.127 242.467 170.99 215.604 170.99 182.467C170.99 151.046 146.838 125.267 116.085 122.681C114.396 122.539 112.99 123.905 112.99 125.6L112.99 149.724C112.99 151.304 114.221 152.597 115.781 152.848C130.073 155.142 140.99 167.529 140.99 182.467C140.99 199.036 127.559 212.467 110.99 212.467C109.737 212.467 108.503 212.391 107.29 212.241C105.696 212.045 104.132 212.978 103.716 214.529L97.4837 237.79Z" fill="#4071D1"/>
</g>
<mask id="mask1_3055_32820" style="mask-type:alpha" maskUnits="userSpaceOnUse" x="51" y="168" width="51" height="72">
<path fill-rule="evenodd" clip-rule="evenodd" d="M51.1572 182.908C51.1572 178.975 51.5356 175.131 52.2581 171.409C52.6798 169.236 54.8906 167.965 57.0287 168.538L78.2947 174.236C80.421 174.806 81.659 176.988 81.3876 179.172C81.2356 180.396 81.1572 181.643 81.1572 182.908C81.1572 195.159 88.5001 205.694 99.0246 210.354C101.011 211.233 102.241 213.372 101.679 215.47L95.9696 236.777C95.3932 238.929 93.1634 240.207 91.0647 239.462C67.8092 231.199 51.1572 208.998 51.1572 182.908Z" fill="url(#paint1_linear_3055_32820)"/>
</mask>
<g mask="url(#mask1_3055_32820)">
<path fill-rule="evenodd" clip-rule="evenodd" d="M51.1572 182.908C51.1572 178.975 51.5356 175.131 52.2581 171.409C52.6798 169.236 54.8906 167.965 57.0287 168.538L78.2947 174.236C80.421 174.806 81.659 176.988 81.3876 179.172C81.2356 180.396 81.1572 181.643 81.1572 182.908C81.1572 195.159 88.5001 205.694 99.0246 210.354C101.011 211.233 102.241 213.372 101.679 215.47L95.9696 236.777C95.3932 238.929 93.1634 240.207 91.0647 239.462C67.8092 231.199 51.1572 208.998 51.1572 182.908Z" fill="#E03030"/>
</g>
<mask id="mask2_3055_32820" style="mask-type:alpha" maskUnits="userSpaceOnUse" x="54" y="132" width="41" height="40">
<path fill-rule="evenodd" clip-rule="evenodd" d="M83.1636 133.98C82.0555 132.061 79.5893 131.397 77.754 132.64C67.5791 139.528 59.6311 149.457 55.215 161.122C54.4157 163.233 55.6932 165.511 57.8737 166.096L79.2723 171.829C81.3128 172.376 83.4015 171.226 84.3207 169.324C86.3316 165.163 89.2753 161.537 92.8802 158.717C94.6102 157.364 95.2717 154.952 94.1735 153.05L83.1636 133.98Z" fill="url(#paint2_linear_3055_32820)"/>
</mask>
<g mask="url(#mask2_3055_32820)">
<path fill-rule="evenodd" clip-rule="evenodd" d="M83.1636 133.98C82.0555 132.061 79.5893 131.397 77.754 132.64C67.5791 139.528 59.6311 149.457 55.215 161.122C54.4157 163.233 55.6932 165.511 57.8737 166.096L79.2723 171.829C81.3128 172.376 83.4015 171.226 84.3207 169.324C86.3316 165.163 89.2753 161.537 92.8802 158.717C94.6102 157.364 95.2717 154.952 94.1735 153.05L83.1636 133.98Z" fill="#F09393"/>
</g>
<mask id="mask3_3055_32820" style="mask-type:alpha" maskUnits="userSpaceOnUse" x="83" y="122" width="28" height="33">
<path fill-rule="evenodd" clip-rule="evenodd" d="M95.5702 152.402C96.6292 154.236 98.9277 154.898 100.926 154.194C102.836 153.522 104.835 153.037 106.901 152.763C109.091 152.472 110.889 150.709 110.889 148.5V126.5C110.889 124.291 109.096 122.486 106.892 122.631C99.5287 123.115 92.5283 124.928 86.128 127.832C84.0751 128.763 83.3718 131.273 84.4989 133.226L95.5702 152.402Z" fill="url(#paint3_linear_3055_32820)"/>
</mask>
<g mask="url(#mask3_3055_32820)">
<path fill-rule="evenodd" clip-rule="evenodd" d="M95.5702 152.402C96.6292 154.236 98.9277 154.898 100.926 154.194C102.836 153.522 104.835 153.037 106.901 152.763C109.091 152.472 110.889 150.709 110.889 148.5V126.5C110.889 124.291 109.096 122.486 106.892 122.631C99.5287 123.115 92.5283 124.928 86.128 127.832C84.0751 128.763 83.3718 131.273 84.4989 133.226L95.5702 152.402Z" fill="#F7CCCC"/>
</g>
<path d="M226 134.5C226 136.157 224.657 137.5 223 137.5C221.344 137.5 220 136.157 220 134.5C220 132.843 221.344 131.5 223 131.5C224.657 131.5 226 132.843 226 134.5Z" fill="#4071D1"/>
<path d="M231 129.547H232.176L234.958 137.217C235.018 137.381 235.072 137.538 235.123 137.689C235.177 137.834 235.23 137.987 235.28 138.147H235.334C235.385 137.987 235.435 137.834 235.485 137.689C235.54 137.538 235.597 137.381 235.656 137.217L238.465 129.547H239.586L235.82 139.568H234.76L231 129.547ZM239.962 136.014V135.795C239.962 134.71 240.259 133.824 240.851 133.136C241.444 132.448 242.225 132.104 243.196 132.104C244.167 132.104 244.914 132.42 245.438 133.054C245.962 133.687 246.224 134.56 246.224 135.672V136.116H240.591V135.255H245.151V135.159C245.151 134.503 244.989 133.979 244.666 133.587C244.347 133.19 243.866 132.992 243.223 132.992C242.503 132.992 241.958 133.261 241.589 133.799C241.225 134.332 241.042 134.997 241.042 135.795V136.014C241.042 136.811 241.234 137.479 241.617 138.017C242 138.55 242.599 138.816 243.415 138.816C243.889 138.816 244.294 138.721 244.631 138.529C244.969 138.333 245.249 138.096 245.472 137.818L246.163 138.386C245.935 138.714 245.586 139.017 245.117 139.295C244.652 139.568 244.084 139.705 243.415 139.705C242.303 139.705 241.448 139.361 240.851 138.673C240.259 137.985 239.962 137.098 239.962 136.014ZM247.755 139.5V132.309H248.712L248.76 133.3H248.788C249.061 132.944 249.394 132.669 249.786 132.473C250.182 132.272 250.622 132.172 251.105 132.172C251.83 132.172 252.406 132.377 252.834 132.787C253.263 133.193 253.477 133.872 253.477 134.824V139.5H252.411V134.811C252.411 134.195 252.269 133.753 251.987 133.484C251.704 133.216 251.303 133.081 250.784 133.081C250.342 133.081 249.95 133.2 249.608 133.437C249.271 133.674 249.006 133.974 248.815 134.339V139.5H247.755ZM255.029 136.014V135.795C255.029 134.747 255.3 133.881 255.842 133.197C256.389 132.514 257.125 132.172 258.05 132.172C258.579 132.172 259.03 132.265 259.404 132.452C259.782 132.639 260.085 132.885 260.313 133.19V129H261.379V139.5H260.416L260.375 138.529H260.347C260.147 138.835 259.846 139.097 259.445 139.315C259.044 139.53 258.579 139.637 258.05 139.637C257.125 139.637 256.389 139.295 255.842 138.611C255.3 137.928 255.029 137.062 255.029 136.014ZM256.116 136.014C256.116 136.798 256.291 137.449 256.642 137.969C256.993 138.488 257.542 138.748 258.29 138.748C258.786 138.748 259.208 138.621 259.554 138.365C259.905 138.106 260.158 137.809 260.313 137.477V134.332C260.158 133.999 259.905 133.705 259.554 133.45C259.208 133.19 258.786 133.061 258.29 133.061C257.542 133.061 256.993 133.32 256.642 133.84C256.291 134.359 256.116 135.011 256.116 135.795V136.014ZM263 136.014V135.795C263 134.71 263.296 133.824 263.888 133.136C264.481 132.448 265.262 132.104 266.233 132.104C267.204 132.104 267.951 132.42 268.475 133.054C268.999 133.687 269.261 134.56 269.261 135.672V136.116H263.628V135.255H268.188V135.159C268.188 134.503 268.026 133.979 267.703 133.587C267.384 133.19 266.903 132.992 266.26 132.992C265.54 132.992 264.996 133.261 264.626 133.799C264.262 134.332 264.08 134.997 264.08 135.795V136.014C264.08 136.811 264.271 137.479 264.654 138.017C265.037 138.55 265.636 138.816 266.452 138.816C266.926 138.816 267.331 138.721 267.668 138.529C268.006 138.333 268.286 138.096 268.509 137.818L269.2 138.386C268.972 138.714 268.623 139.017 268.154 139.295C267.689 139.568 267.122 139.705 266.452 139.705C265.34 139.705 264.485 139.361 263.888 138.673C263.296 137.985 263 137.098 263 136.014ZM270.341 136.014V135.795C270.341 134.747 270.612 133.881 271.155 133.197C271.702 132.514 272.438 132.172 273.363 132.172C273.891 132.172 274.343 132.265 274.716 132.452C275.095 132.639 275.398 132.885 275.625 133.19V129H276.692V139.5H275.728L275.687 138.529H275.66C275.459 138.835 275.158 139.097 274.757 139.315C274.356 139.53 273.891 139.637 273.363 139.637C272.438 139.637 271.702 139.295 271.155 138.611C270.612 137.928 270.341 137.062 270.341 136.014ZM271.428 136.014C271.428 136.798 271.604 137.449 271.955 137.969C272.306 138.488 272.855 138.748 273.602 138.748C274.099 138.748 274.52 138.621 274.867 138.365C275.218 138.106 275.471 137.809 275.625 137.477V134.332C275.471 133.999 275.218 133.705 274.867 133.45C274.52 133.19 274.099 133.061 273.602 133.061C272.855 133.061 272.306 133.32 271.955 133.84C271.604 134.359 271.428 135.011 271.428 135.795V136.014ZM278.312 136.014V135.795C278.312 134.71 278.617 133.824 279.228 133.136C279.843 132.448 280.666 132.104 281.696 132.104C282.721 132.104 283.539 132.448 284.15 133.136C284.765 133.824 285.073 134.71 285.073 135.795V136.014C285.073 137.098 284.765 137.985 284.15 138.673C283.539 139.361 282.721 139.705 281.696 139.705C280.666 139.705 279.843 139.361 279.228 138.673C278.617 137.985 278.312 137.098 278.312 136.014ZM279.399 135.795V136.014C279.399 136.807 279.59 137.472 279.973 138.01C280.361 138.548 280.935 138.816 281.696 138.816C282.452 138.816 283.024 138.548 283.412 138.01C283.799 137.472 283.993 136.807 283.993 136.014V135.795C283.993 135.002 283.799 134.337 283.412 133.799C283.024 133.261 282.452 132.992 281.696 132.992C280.935 132.992 280.361 133.261 279.973 133.799C279.59 134.337 279.399 135.002 279.399 135.795ZM286.693 139.5V132.309H287.65L287.698 133.279H287.725C287.926 132.965 288.185 132.691 288.504 132.459C288.828 132.222 289.215 132.104 289.667 132.104C289.771 132.104 289.881 132.115 289.995 132.138C290.113 132.161 290.197 132.181 290.248 132.199V133.19C290.152 133.172 290.049 133.159 289.94 133.149C289.835 133.136 289.721 133.129 289.598 133.129C289.152 133.129 288.771 133.245 288.457 133.478C288.147 133.71 287.912 133.997 287.752 134.339V139.5H286.693ZM297.678 139.5V130.702L295.005 131.762V130.702L298.546 129.41H298.779V139.5H297.678Z" fill="#140000"/>
<g clip-path="url(#clip1_3055_32820)">
<path d="M476 127C476 126.867 476.053 126.74 476.147 126.647C476.241 126.553 476.368 126.5 476.5 126.5H486.5C486.633 126.5 486.76 126.553 486.854 126.647C486.948 126.74 487 126.867 487 127C487 127.538 486.988 128.05 486.966 128.536C487.362 128.602 487.74 128.745 488.078 128.959C488.417 129.173 488.709 129.453 488.938 129.781C489.167 130.11 489.328 130.481 489.411 130.873C489.494 131.265 489.498 131.669 489.422 132.062C489.347 132.456 489.193 132.83 488.97 133.163C488.748 133.496 488.461 133.781 488.126 134.001C487.792 134.222 487.417 134.373 487.023 134.446C486.629 134.519 486.225 134.512 485.833 134.426C485.043 136.291 483.955 137.203 483 137.437V139.61L484.425 139.966C484.619 140.014 484.802 140.101 484.962 140.221L486.8 141.6C486.884 141.663 486.946 141.751 486.978 141.851C487.009 141.951 487.008 142.059 486.975 142.158C486.942 142.258 486.878 142.344 486.793 142.406C486.708 142.467 486.605 142.5 486.5 142.5H476.5C476.395 142.5 476.293 142.467 476.208 142.406C476.123 142.344 476.059 142.258 476.026 142.158C475.993 142.059 475.992 141.951 476.023 141.851C476.054 141.751 476.116 141.663 476.2 141.6L478.038 140.221C478.198 140.101 478.381 140.014 478.575 139.966L480 139.61V137.437C479.045 137.203 477.957 136.291 477.167 134.425C476.776 134.511 476.371 134.518 475.977 134.446C475.583 134.373 475.207 134.222 474.872 134.002C474.538 133.781 474.25 133.496 474.028 133.163C473.805 132.83 473.651 132.455 473.575 132.062C473.5 131.668 473.504 131.263 473.587 130.871C473.671 130.479 473.832 130.108 474.061 129.779C474.29 129.45 474.583 129.171 474.922 128.957C475.261 128.744 475.64 128.6 476.035 128.535C476.012 128.024 476 127.512 476 127ZM476.099 129.54C475.578 129.636 475.115 129.934 474.814 130.371C474.512 130.807 474.396 131.346 474.492 131.868C474.587 132.389 474.886 132.852 475.323 133.153C475.759 133.455 476.298 133.571 476.819 133.475C476.486 132.425 476.231 131.129 476.099 129.54ZM486.182 133.475C486.704 133.571 487.243 133.455 487.679 133.153C488.116 132.852 488.414 132.389 488.51 131.868C488.605 131.346 488.49 130.807 488.188 130.371C487.887 129.934 487.424 129.636 486.902 129.54C486.769 131.13 486.514 132.425 486.182 133.475Z" fill="#E03030"/>
</g>
<path d="M500.047 136.902V136.834H501.107V136.902C501.107 137.499 501.314 137.962 501.729 138.29C502.144 138.618 502.679 138.782 503.335 138.782C503.983 138.782 504.514 138.618 504.928 138.29C505.343 137.962 505.55 137.468 505.55 136.807C505.55 136.119 505.316 135.606 504.846 135.269C504.377 134.931 503.784 134.763 503.069 134.763H502.242V133.86H502.994C503.668 133.86 504.204 133.699 504.6 133.375C504.997 133.047 505.195 132.6 505.195 132.035C505.195 131.447 505.024 131.005 504.682 130.709C504.34 130.408 503.891 130.26 503.335 130.265C502.775 130.265 502.31 130.417 501.941 130.723C501.572 131.028 501.387 131.447 501.387 131.981V132.076H500.328V131.981C500.328 131.242 500.61 130.618 501.175 130.107C501.745 129.597 502.465 129.342 503.335 129.342C504.197 129.342 504.903 129.588 505.455 130.08C506.011 130.572 506.289 131.206 506.289 131.981C506.289 132.445 506.154 132.885 505.885 133.3C505.616 133.715 505.202 134.038 504.641 134.271V134.298C505.234 134.435 505.717 134.719 506.09 135.152C506.469 135.581 506.658 136.135 506.658 136.814C506.658 137.689 506.341 138.39 505.708 138.919C505.079 139.443 504.288 139.705 503.335 139.705C502.36 139.71 501.567 139.454 500.957 138.94C500.35 138.42 500.047 137.741 500.047 136.902ZM508.073 136.875C508.073 136.264 508.248 135.749 508.599 135.33C508.955 134.906 509.403 134.596 509.946 134.4V134.373C509.508 134.191 509.139 133.897 508.838 133.491C508.542 133.086 508.394 132.607 508.394 132.056C508.394 131.24 508.679 130.584 509.249 130.087C509.823 129.59 510.525 129.342 511.354 129.342C512.183 129.342 512.883 129.59 513.453 130.087C514.027 130.579 514.314 131.235 514.314 132.056C514.314 132.607 514.166 133.086 513.87 133.491C513.573 133.897 513.204 134.191 512.762 134.373V134.4C513.314 134.587 513.763 134.895 514.109 135.323C514.46 135.747 514.635 136.264 514.635 136.875C514.635 137.773 514.319 138.47 513.685 138.967C513.056 139.459 512.279 139.705 511.354 139.705C510.433 139.705 509.656 139.459 509.023 138.967C508.389 138.47 508.073 137.773 508.073 136.875ZM509.146 136.82C509.146 137.408 509.349 137.885 509.754 138.249C510.16 138.609 510.693 138.787 511.354 138.782C512.019 138.782 512.553 138.607 512.954 138.256C513.359 137.9 513.562 137.422 513.562 136.82C513.562 136.246 513.359 135.777 512.954 135.412C512.553 135.048 512.019 134.865 511.354 134.865C510.693 134.865 510.16 135.048 509.754 135.412C509.349 135.772 509.146 136.242 509.146 136.82ZM509.447 132.11C509.447 132.639 509.622 133.079 509.973 133.43C510.329 133.776 510.789 133.949 511.354 133.949C511.924 133.949 512.382 133.776 512.728 133.43C513.079 133.079 513.254 132.639 513.254 132.11C513.254 131.568 513.079 131.126 512.728 130.784C512.382 130.438 511.924 130.265 511.354 130.265C510.789 130.26 510.329 130.431 509.973 130.777C509.622 131.124 509.447 131.568 509.447 132.11ZM516.358 138.871C516.358 138.652 516.426 138.468 516.563 138.317C516.704 138.162 516.905 138.085 517.165 138.085C517.424 138.085 517.623 138.162 517.759 138.317C517.901 138.468 517.971 138.65 517.971 138.864C517.971 139.083 517.901 139.27 517.759 139.425C517.623 139.575 517.424 139.65 517.165 139.65C516.905 139.65 516.704 139.575 516.563 139.425C516.426 139.27 516.358 139.085 516.358 138.871ZM519.598 135.303V135.098C519.598 133.361 520.077 131.969 521.034 130.921C521.991 129.868 523.308 129.342 524.985 129.342H525.128V130.265H524.985C523.691 130.265 522.647 130.657 521.854 131.44C521.066 132.224 520.671 133.421 520.671 135.029V135.371C520.671 136.615 520.906 137.495 521.375 138.01C521.845 138.525 522.435 138.782 523.146 138.782C523.857 138.782 524.404 138.568 524.787 138.14C525.169 137.711 525.361 137.107 525.361 136.328C525.361 135.567 525.169 134.982 524.787 134.571C524.404 134.157 523.861 133.949 523.16 133.949C522.49 133.949 521.9 134.163 521.389 134.592C520.883 135.016 520.63 135.594 520.63 136.328H520.213C520.213 135.348 520.505 134.553 521.088 133.942C521.676 133.332 522.442 133.026 523.385 133.026C524.319 133.026 525.062 133.332 525.614 133.942C526.17 134.549 526.448 135.344 526.448 136.328C526.448 137.331 526.14 138.144 525.525 138.769C524.91 139.393 524.117 139.705 523.146 139.705C522.157 139.705 521.319 139.352 520.63 138.646C519.942 137.935 519.598 136.82 519.598 135.303ZM527.398 132.398V131.687C527.398 130.957 527.578 130.37 527.938 129.923C528.303 129.476 528.838 129.253 529.544 129.253C530.251 129.253 530.784 129.476 531.144 129.923C531.509 130.37 531.691 130.957 531.691 131.687V132.398C531.691 133.127 531.509 133.715 531.144 134.161C530.784 134.608 530.251 134.831 529.544 134.831C528.838 134.831 528.303 134.608 527.938 134.161C527.578 133.715 527.398 133.127 527.398 132.398ZM528.348 132.398C528.348 132.853 528.435 133.227 528.608 133.519C528.786 133.81 529.098 133.956 529.544 133.956C529.991 133.956 530.301 133.81 530.474 133.519C530.652 133.227 530.741 132.853 530.741 132.398V131.687C530.741 131.231 530.652 130.857 530.474 130.565C530.301 130.269 529.991 130.121 529.544 130.121C529.098 130.121 528.786 130.269 528.608 130.565C528.435 130.857 528.348 131.231 528.348 131.687V132.398ZM536.626 129.82L530.194 139.719L529.456 139.206L535.888 129.294L536.626 129.82ZM534.425 137.203V136.492C534.425 135.763 534.605 135.175 534.965 134.729C535.33 134.282 535.865 134.059 536.572 134.059C537.278 134.059 537.811 134.282 538.171 134.729C538.536 135.175 538.718 135.763 538.718 136.492V137.203C538.718 137.932 538.536 138.52 538.171 138.967C537.811 139.413 537.278 139.637 536.572 139.637C535.865 139.637 535.33 139.413 534.965 138.967C534.605 138.52 534.425 137.932 534.425 137.203ZM535.375 137.203C535.375 137.659 535.462 138.033 535.635 138.324C535.813 138.616 536.125 138.762 536.572 138.762C537.018 138.762 537.328 138.616 537.501 138.324C537.679 138.033 537.768 137.659 537.768 137.203V136.492C537.768 136.037 537.679 135.663 537.501 135.371C537.328 135.075 537.018 134.927 536.572 134.927C536.125 134.927 535.813 135.075 535.635 135.371C535.462 135.663 535.375 136.037 535.375 136.492V137.203Z" fill="#140000"/>
<path d="M226 166.5C226 168.157 224.657 169.5 223 169.5C221.344 169.5 220 168.157 220 166.5C220 164.843 221.344 163.5 223 163.5C224.657 163.5 226 164.843 226 166.5Z" fill="#E03030"/>
<path d="M231 161.547H232.176L234.958 169.217C235.018 169.381 235.072 169.538 235.123 169.689C235.177 169.834 235.23 169.987 235.28 170.147H235.334C235.385 169.987 235.435 169.834 235.485 169.689C235.54 169.538 235.597 169.381 235.656 169.217L238.465 161.547H239.586L235.82 171.568H234.76L231 161.547ZM239.962 168.014V167.795C239.962 166.71 240.259 165.824 240.851 165.136C241.444 164.448 242.225 164.104 243.196 164.104C244.167 164.104 244.914 164.42 245.438 165.054C245.962 165.687 246.224 166.56 246.224 167.672V168.116H240.591V167.255H245.151V167.159C245.151 166.503 244.989 165.979 244.666 165.587C244.347 165.19 243.866 164.992 243.223 164.992C242.503 164.992 241.958 165.261 241.589 165.799C241.225 166.332 241.042 166.997 241.042 167.795V168.014C241.042 168.811 241.234 169.479 241.617 170.017C242 170.55 242.599 170.816 243.415 170.816C243.889 170.816 244.294 170.721 244.631 170.529C244.969 170.333 245.249 170.096 245.472 169.818L246.163 170.386C245.935 170.714 245.586 171.017 245.117 171.295C244.652 171.568 244.084 171.705 243.415 171.705C242.303 171.705 241.448 171.361 240.851 170.673C240.259 169.985 239.962 169.098 239.962 168.014ZM247.755 171.5V164.309H248.712L248.76 165.3H248.788C249.061 164.944 249.394 164.669 249.786 164.473C250.182 164.272 250.622 164.172 251.105 164.172C251.83 164.172 252.406 164.377 252.834 164.787C253.263 165.193 253.477 165.872 253.477 166.824V171.5H252.411V166.811C252.411 166.195 252.269 165.753 251.987 165.484C251.704 165.216 251.303 165.081 250.784 165.081C250.342 165.081 249.95 165.2 249.608 165.437C249.271 165.674 249.006 165.974 248.815 166.339V171.5H247.755ZM255.029 168.014V167.795C255.029 166.747 255.3 165.881 255.842 165.197C256.389 164.514 257.125 164.172 258.05 164.172C258.579 164.172 259.03 164.265 259.404 164.452C259.782 164.639 260.085 164.885 260.313 165.19V161H261.379V171.5H260.416L260.375 170.529H260.347C260.147 170.835 259.846 171.097 259.445 171.315C259.044 171.53 258.579 171.637 258.05 171.637C257.125 171.637 256.389 171.295 255.842 170.611C255.3 169.928 255.029 169.062 255.029 168.014ZM256.116 168.014C256.116 168.798 256.291 169.449 256.642 169.969C256.993 170.488 257.542 170.748 258.29 170.748C258.786 170.748 259.208 170.621 259.554 170.365C259.905 170.106 260.158 169.809 260.313 169.477V166.332C260.158 165.999 259.905 165.705 259.554 165.45C259.208 165.19 258.786 165.061 258.29 165.061C257.542 165.061 256.993 165.32 256.642 165.84C256.291 166.359 256.116 167.011 256.116 167.795V168.014ZM263 168.014V167.795C263 166.71 263.296 165.824 263.888 165.136C264.481 164.448 265.262 164.104 266.233 164.104C267.204 164.104 267.951 164.42 268.475 165.054C268.999 165.687 269.261 166.56 269.261 167.672V168.116H263.628V167.255H268.188V167.159C268.188 166.503 268.026 165.979 267.703 165.587C267.384 165.19 266.903 164.992 266.26 164.992C265.54 164.992 264.996 165.261 264.626 165.799C264.262 166.332 264.08 166.997 264.08 167.795V168.014C264.08 168.811 264.271 169.479 264.654 170.017C265.037 170.55 265.636 170.816 266.452 170.816C266.926 170.816 267.331 170.721 267.668 170.529C268.006 170.333 268.286 170.096 268.509 169.818L269.2 170.386C268.972 170.714 268.623 171.017 268.154 171.295C267.689 171.568 267.122 171.705 266.452 171.705C265.34 171.705 264.485 171.361 263.888 170.673C263.296 169.985 263 169.098 263 168.014ZM270.341 168.014V167.795C270.341 166.747 270.612 165.881 271.155 165.197C271.702 164.514 272.438 164.172 273.363 164.172C273.891 164.172 274.343 164.265 274.716 164.452C275.095 164.639 275.398 164.885 275.625 165.19V161H276.692V171.5H275.728L275.687 170.529H275.66C275.459 170.835 275.158 171.097 274.757 171.315C274.356 171.53 273.891 171.637 273.363 171.637C272.438 171.637 271.702 171.295 271.155 170.611C270.612 169.928 270.341 169.062 270.341 168.014ZM271.428 168.014C271.428 168.798 271.604 169.449 271.955 169.969C272.306 170.488 272.855 170.748 273.602 170.748C274.099 170.748 274.52 170.621 274.867 170.365C275.218 170.106 275.471 169.809 275.625 169.477V166.332C275.471 165.999 275.218 165.705 274.867 165.45C274.52 165.19 274.099 165.061 273.602 165.061C272.855 165.061 272.306 165.32 271.955 165.84C271.604 166.359 271.428 167.011 271.428 167.795V168.014ZM278.312 168.014V167.795C278.312 166.71 278.617 165.824 279.228 165.136C279.843 164.448 280.666 164.104 281.696 164.104C282.721 164.104 283.539 164.448 284.15 165.136C284.765 165.824 285.073 166.71 285.073 167.795V168.014C285.073 169.098 284.765 169.985 284.15 170.673C283.539 171.361 282.721 171.705 281.696 171.705C280.666 171.705 279.843 171.361 279.228 170.673C278.617 169.985 278.312 169.098 278.312 168.014ZM279.399 167.795V168.014C279.399 168.807 279.59 169.472 279.973 170.01C280.361 170.548 280.935 170.816 281.696 170.816C282.452 170.816 283.024 170.548 283.412 170.01C283.799 169.472 283.993 168.807 283.993 168.014V167.795C283.993 167.002 283.799 166.337 283.412 165.799C283.024 165.261 282.452 164.992 281.696 164.992C280.935 164.992 280.361 165.261 279.973 165.799C279.59 166.337 279.399 167.002 279.399 167.795ZM286.693 171.5V164.309H287.65L287.698 165.279H287.725C287.926 164.965 288.185 164.691 288.504 164.459C288.828 164.222 289.215 164.104 289.667 164.104C289.771 164.104 289.881 164.115 289.995 164.138C290.113 164.161 290.197 164.181 290.248 164.199V165.19C290.152 165.172 290.049 165.159 289.94 165.149C289.835 165.136 289.721 165.129 289.598 165.129C289.152 165.129 288.771 165.245 288.457 165.478C288.147 165.71 287.912 165.997 287.752 166.339V171.5H286.693ZM294.602 171.5V170.673L298.334 166.804C298.808 166.312 299.173 165.858 299.428 165.443C299.688 165.024 299.818 164.566 299.818 164.069C299.818 163.6 299.647 163.183 299.305 162.818C298.968 162.449 298.492 162.265 297.876 162.265C297.248 162.265 296.726 162.456 296.311 162.839C295.896 163.217 295.689 163.746 295.689 164.425V164.507H294.609V164.425C294.609 163.523 294.917 162.784 295.532 162.21C296.152 161.631 296.933 161.342 297.876 161.342C298.797 161.342 299.531 161.611 300.078 162.148C300.629 162.686 300.905 163.311 300.905 164.022C300.905 164.682 300.729 165.279 300.378 165.813C300.032 166.341 299.588 166.881 299.045 167.433L295.99 170.557H301.212V171.5H294.602Z" fill="#140000"/>
<path d="M500.225 171.5V170.673L503.958 166.804C504.431 166.312 504.796 165.858 505.051 165.443C505.311 165.024 505.441 164.566 505.441 164.069C505.441 163.6 505.27 163.183 504.928 162.818C504.591 162.449 504.115 162.265 503.5 162.265C502.871 162.265 502.349 162.456 501.934 162.839C501.519 163.217 501.312 163.746 501.312 164.425V164.507H500.232V164.425C500.232 163.523 500.54 162.784 501.155 162.21C501.775 161.631 502.556 161.342 503.5 161.342C504.42 161.342 505.154 161.611 505.701 162.148C506.252 162.686 506.528 163.311 506.528 164.022C506.528 164.682 506.352 165.279 506.001 165.813C505.655 166.341 505.211 166.881 504.668 167.433L501.613 170.557H506.835V171.5H500.225ZM508.127 171.5V170.673L511.86 166.804C512.334 166.312 512.698 165.858 512.954 165.443C513.213 165.024 513.343 164.566 513.343 164.069C513.343 163.6 513.172 163.183 512.831 162.818C512.493 162.449 512.017 162.265 511.402 162.265C510.773 162.265 510.251 162.456 509.836 162.839C509.422 163.217 509.214 163.746 509.214 164.425V164.507H508.134V164.425C508.134 163.523 508.442 162.784 509.057 162.21C509.677 161.631 510.458 161.342 511.402 161.342C512.322 161.342 513.056 161.611 513.603 162.148C514.154 162.686 514.43 163.311 514.43 164.022C514.43 164.682 514.255 165.279 513.904 165.813C513.557 166.341 513.113 166.881 512.571 167.433L509.515 170.557H514.738V171.5H508.127ZM516.358 170.871C516.358 170.652 516.426 170.468 516.563 170.317C516.704 170.162 516.905 170.085 517.165 170.085C517.424 170.085 517.623 170.162 517.759 170.317C517.901 170.468 517.971 170.65 517.971 170.864C517.971 171.083 517.901 171.27 517.759 171.425C517.623 171.575 517.424 171.65 517.165 171.65C516.905 171.65 516.704 171.575 516.563 171.425C516.426 171.27 516.358 171.085 516.358 170.871ZM519.68 169.012V168.937H520.733V169.005C520.733 169.556 520.933 169.992 521.334 170.311C521.74 170.625 522.276 170.782 522.941 170.782C523.602 170.782 524.137 170.568 524.547 170.14C524.962 169.707 525.169 169.101 525.169 168.321C525.169 167.565 524.962 166.988 524.547 166.592C524.137 166.191 523.602 165.99 522.941 165.99C522.531 165.99 522.143 166.077 521.779 166.25C521.419 166.423 521.104 166.651 520.835 166.934L520.029 166.551L520.542 161.547H525.744V162.531H521.437L521.088 165.792C521.307 165.605 521.599 165.439 521.963 165.293C522.333 165.143 522.72 165.067 523.125 165.067C524.005 165.067 524.746 165.355 525.347 165.929C525.953 166.498 526.256 167.296 526.256 168.321C526.256 169.37 525.944 170.197 525.32 170.803C524.7 171.404 523.907 171.705 522.941 171.705C521.947 171.705 521.154 171.454 520.562 170.953C519.974 170.452 519.68 169.805 519.68 169.012ZM527.398 164.398V163.687C527.398 162.957 527.578 162.37 527.938 161.923C528.303 161.476 528.838 161.253 529.544 161.253C530.251 161.253 530.784 161.476 531.144 161.923C531.509 162.37 531.691 162.957 531.691 163.687V164.398C531.691 165.127 531.509 165.715 531.144 166.161C530.784 166.608 530.251 166.831 529.544 166.831C528.838 166.831 528.303 166.608 527.938 166.161C527.578 165.715 527.398 165.127 527.398 164.398ZM528.348 164.398C528.348 164.853 528.435 165.227 528.608 165.519C528.786 165.81 529.098 165.956 529.544 165.956C529.991 165.956 530.301 165.81 530.474 165.519C530.652 165.227 530.741 164.853 530.741 164.398V163.687C530.741 163.231 530.652 162.857 530.474 162.565C530.301 162.269 529.991 162.121 529.544 162.121C529.098 162.121 528.786 162.269 528.608 162.565C528.435 162.857 528.348 163.231 528.348 163.687V164.398ZM536.626 161.82L530.194 171.719L529.456 171.206L535.888 161.294L536.626 161.82ZM534.425 169.203V168.492C534.425 167.763 534.605 167.175 534.965 166.729C535.33 166.282 535.865 166.059 536.572 166.059C537.278 166.059 537.811 166.282 538.171 166.729C538.536 167.175 538.718 167.763 538.718 168.492V169.203C538.718 169.932 538.536 170.52 538.171 170.967C537.811 171.413 537.278 171.637 536.572 171.637C535.865 171.637 535.33 171.413 534.965 170.967C534.605 170.52 534.425 169.932 534.425 169.203ZM535.375 169.203C535.375 169.659 535.462 170.033 535.635 170.324C535.813 170.616 536.125 170.762 536.572 170.762C537.018 170.762 537.328 170.616 537.501 170.324C537.679 170.033 537.768 169.659 537.768 169.203V168.492C537.768 168.037 537.679 167.663 537.501 167.371C537.328 167.075 537.018 166.927 536.572 166.927C536.125 166.927 535.813 167.075 535.635 167.371C535.462 167.663 535.375 168.037 535.375 168.492V169.203Z" fill="#140000"/>
<path d="M226 198.5C226 200.157 224.657 201.5 223 201.5C221.344 201.5 220 200.157 220 198.5C220 196.843 221.344 195.5 223 195.5C224.657 195.5 226 196.843 226 198.5Z" fill="#F09393"/>
<path d="M231 193.547H232.176L234.958 201.217C235.018 201.381 235.072 201.538 235.123 201.689C235.177 201.834 235.23 201.987 235.28 202.147H235.334C235.385 201.987 235.435 201.834 235.485 201.689C235.54 201.538 235.597 201.381 235.656 201.217L238.465 193.547H239.586L235.82 203.568H234.76L231 193.547ZM239.962 200.014V199.795C239.962 198.71 240.259 197.824 240.851 197.136C241.444 196.448 242.225 196.104 243.196 196.104C244.167 196.104 244.914 196.42 245.438 197.054C245.962 197.687 246.224 198.56 246.224 199.672V200.116H240.591V199.255H245.151V199.159C245.151 198.503 244.989 197.979 244.666 197.587C244.347 197.19 243.866 196.992 243.223 196.992C242.503 196.992 241.958 197.261 241.589 197.799C241.225 198.332 241.042 198.997 241.042 199.795V200.014C241.042 200.811 241.234 201.479 241.617 202.017C242 202.55 242.599 202.816 243.415 202.816C243.889 202.816 244.294 202.721 244.631 202.529C244.969 202.333 245.249 202.096 245.472 201.818L246.163 202.386C245.935 202.714 245.586 203.017 245.117 203.295C244.652 203.568 244.084 203.705 243.415 203.705C242.303 203.705 241.448 203.361 240.851 202.673C240.259 201.985 239.962 201.098 239.962 200.014ZM247.755 203.5V196.309H248.712L248.76 197.3H248.788C249.061 196.944 249.394 196.669 249.786 196.473C250.182 196.272 250.622 196.172 251.105 196.172C251.83 196.172 252.406 196.377 252.834 196.787C253.263 197.193 253.477 197.872 253.477 198.824V203.5H252.411V198.811C252.411 198.195 252.269 197.753 251.987 197.484C251.704 197.216 251.303 197.081 250.784 197.081C250.342 197.081 249.95 197.2 249.608 197.437C249.271 197.674 249.006 197.974 248.815 198.339V203.5H247.755ZM255.029 200.014V199.795C255.029 198.747 255.3 197.881 255.842 197.197C256.389 196.514 257.125 196.172 258.05 196.172C258.579 196.172 259.03 196.265 259.404 196.452C259.782 196.639 260.085 196.885 260.313 197.19V193H261.379V203.5H260.416L260.375 202.529H260.347C260.147 202.835 259.846 203.097 259.445 203.315C259.044 203.53 258.579 203.637 258.05 203.637C257.125 203.637 256.389 203.295 255.842 202.611C255.3 201.928 255.029 201.062 255.029 200.014ZM256.116 200.014C256.116 200.798 256.291 201.449 256.642 201.969C256.993 202.488 257.542 202.748 258.29 202.748C258.786 202.748 259.208 202.621 259.554 202.365C259.905 202.106 260.158 201.809 260.313 201.477V198.332C260.158 197.999 259.905 197.705 259.554 197.45C259.208 197.19 258.786 197.061 258.29 197.061C257.542 197.061 256.993 197.32 256.642 197.84C256.291 198.359 256.116 199.011 256.116 199.795V200.014ZM263 200.014V199.795C263 198.71 263.296 197.824 263.888 197.136C264.481 196.448 265.262 196.104 266.233 196.104C267.204 196.104 267.951 196.42 268.475 197.054C268.999 197.687 269.261 198.56 269.261 199.672V200.116H263.628V199.255H268.188V199.159C268.188 198.503 268.026 197.979 267.703 197.587C267.384 197.19 266.903 196.992 266.26 196.992C265.54 196.992 264.996 197.261 264.626 197.799C264.262 198.332 264.08 198.997 264.08 199.795V200.014C264.08 200.811 264.271 201.479 264.654 202.017C265.037 202.55 265.636 202.816 266.452 202.816C266.926 202.816 267.331 202.721 267.668 202.529C268.006 202.333 268.286 202.096 268.509 201.818L269.2 202.386C268.972 202.714 268.623 203.017 268.154 203.295C267.689 203.568 267.122 203.705 266.452 203.705C265.34 203.705 264.485 203.361 263.888 202.673C263.296 201.985 263 201.098 263 200.014ZM270.341 200.014V199.795C270.341 198.747 270.612 197.881 271.155 197.197C271.702 196.514 272.438 196.172 273.363 196.172C273.891 196.172 274.343 196.265 274.716 196.452C275.095 196.639 275.398 196.885 275.625 197.19V193H276.692V203.5H275.728L275.687 202.529H275.66C275.459 202.835 275.158 203.097 274.757 203.315C274.356 203.53 273.891 203.637 273.363 203.637C272.438 203.637 271.702 203.295 271.155 202.611C270.612 201.928 270.341 201.062 270.341 200.014ZM271.428 200.014C271.428 200.798 271.604 201.449 271.955 201.969C272.305 202.488 272.855 202.748 273.602 202.748C274.099 202.748 274.52 202.621 274.867 202.365C275.218 202.106 275.471 201.809 275.625 201.477V198.332C275.471 197.999 275.218 197.705 274.867 197.45C274.52 197.19 274.099 197.061 273.602 197.061C272.855 197.061 272.305 197.32 271.955 197.84C271.604 198.359 271.428 199.011 271.428 199.795V200.014ZM278.312 200.014V199.795C278.312 198.71 278.617 197.824 279.228 197.136C279.843 196.448 280.666 196.104 281.696 196.104C282.721 196.104 283.539 196.448 284.15 197.136C284.765 197.824 285.073 198.71 285.073 199.795V200.014C285.073 201.098 284.765 201.985 284.15 202.673C283.539 203.361 282.721 203.705 281.696 203.705C280.666 203.705 279.843 203.361 279.228 202.673C278.617 201.985 278.312 201.098 278.312 200.014ZM279.399 199.795V200.014C279.399 200.807 279.59 201.472 279.973 202.01C280.361 202.548 280.935 202.816 281.696 202.816C282.452 202.816 283.024 202.548 283.412 202.01C283.799 201.472 283.993 200.807 283.993 200.014V199.795C283.993 199.002 283.799 198.337 283.412 197.799C283.024 197.261 282.452 196.992 281.696 196.992C280.935 196.992 280.361 197.261 279.973 197.799C279.59 198.337 279.399 199.002 279.399 199.795ZM286.693 203.5V196.309H287.65L287.698 197.279H287.725C287.926 196.965 288.185 196.691 288.504 196.459C288.828 196.222 289.215 196.104 289.666 196.104C289.771 196.104 289.881 196.115 289.995 196.138C290.113 196.161 290.197 196.181 290.248 196.199V197.19C290.152 197.172 290.049 197.159 289.94 197.149C289.835 197.136 289.721 197.129 289.598 197.129C289.152 197.129 288.771 197.245 288.457 197.478C288.147 197.71 287.912 197.997 287.752 198.339V203.5H286.693ZM294.424 200.902V200.834H295.484V200.902C295.484 201.499 295.691 201.962 296.106 202.29C296.521 202.618 297.056 202.782 297.712 202.782C298.36 202.782 298.89 202.618 299.305 202.29C299.72 201.962 299.927 201.468 299.927 200.807C299.927 200.119 299.693 199.606 299.223 199.269C298.754 198.931 298.161 198.763 297.446 198.763H296.619V197.86H297.371C298.045 197.86 298.581 197.699 298.977 197.375C299.374 197.047 299.572 196.6 299.572 196.035C299.572 195.447 299.401 195.005 299.059 194.709C298.717 194.408 298.268 194.26 297.712 194.265C297.152 194.265 296.687 194.417 296.318 194.723C295.949 195.028 295.764 195.447 295.764 195.981V196.076H294.705V195.981C294.705 195.242 294.987 194.618 295.552 194.107C296.122 193.597 296.842 193.342 297.712 193.342C298.574 193.342 299.28 193.588 299.832 194.08C300.388 194.572 300.666 195.206 300.666 195.981C300.666 196.445 300.531 196.885 300.262 197.3C299.993 197.715 299.579 198.038 299.018 198.271V198.298C299.611 198.435 300.094 198.719 300.467 199.152C300.846 199.581 301.035 200.135 301.035 200.814C301.035 201.689 300.718 202.39 300.084 202.919C299.456 203.443 298.665 203.705 297.712 203.705C296.737 203.71 295.944 203.454 295.333 202.94C294.727 202.42 294.424 201.741 294.424 200.902Z" fill="#140000"/>
<path d="M500.047 200.902V200.834H501.107V200.902C501.107 201.499 501.314 201.962 501.729 202.29C502.144 202.618 502.679 202.782 503.335 202.782C503.983 202.782 504.514 202.618 504.928 202.29C505.343 201.962 505.55 201.468 505.55 200.807C505.55 200.119 505.316 199.606 504.846 199.269C504.377 198.931 503.784 198.763 503.069 198.763H502.242V197.86H502.994C503.668 197.86 504.204 197.699 504.6 197.375C504.997 197.047 505.195 196.6 505.195 196.035C505.195 195.447 505.024 195.005 504.682 194.709C504.34 194.408 503.891 194.26 503.335 194.265C502.775 194.265 502.31 194.417 501.941 194.723C501.572 195.028 501.387 195.447 501.387 195.981V196.076H500.328V195.981C500.328 195.242 500.61 194.618 501.175 194.107C501.745 193.597 502.465 193.342 503.335 193.342C504.197 193.342 504.903 193.588 505.455 194.08C506.011 194.572 506.289 195.206 506.289 195.981C506.289 196.445 506.154 196.885 505.885 197.3C505.616 197.715 505.202 198.038 504.641 198.271V198.298C505.234 198.435 505.717 198.719 506.09 199.152C506.469 199.581 506.658 200.135 506.658 200.814C506.658 201.689 506.341 202.39 505.708 202.919C505.079 203.443 504.288 203.705 503.335 203.705C502.36 203.71 501.567 203.454 500.957 202.94C500.35 202.42 500.047 201.741 500.047 200.902ZM508.168 200.267V196.787C508.168 195.734 508.449 194.898 509.009 194.278C509.574 193.654 510.356 193.342 511.354 193.342C512.347 193.342 513.127 193.654 513.692 194.278C514.257 194.898 514.54 195.734 514.54 196.787V200.267C514.54 201.319 514.257 202.156 513.692 202.775C513.127 203.395 512.347 203.705 511.354 203.705C510.356 203.705 509.574 203.395 509.009 202.775C508.449 202.156 508.168 201.319 508.168 200.267ZM509.276 200.328C509.276 201.053 509.447 201.643 509.789 202.099C510.135 202.554 510.657 202.782 511.354 202.782C512.047 202.782 512.566 202.554 512.913 202.099C513.259 201.643 513.432 201.053 513.432 200.328V196.732C513.432 196.008 513.259 195.415 512.913 194.955C512.571 194.495 512.051 194.265 511.354 194.265C510.657 194.265 510.135 194.495 509.789 194.955C509.447 195.415 509.276 196.008 509.276 196.732V200.328ZM516.358 202.871C516.358 202.652 516.426 202.468 516.563 202.317C516.704 202.162 516.905 202.085 517.165 202.085C517.424 202.085 517.623 202.162 517.759 202.317C517.901 202.468 517.971 202.65 517.971 202.864C517.971 203.083 517.901 203.27 517.759 203.425C517.623 203.575 517.424 203.65 517.165 203.65C516.905 203.65 516.704 203.575 516.563 203.425C516.426 203.27 516.358 203.085 516.358 202.871ZM519.694 200.875C519.694 200.264 519.869 199.749 520.22 199.33C520.576 198.906 521.025 198.596 521.567 198.4V198.373C521.129 198.191 520.76 197.897 520.459 197.491C520.163 197.086 520.015 196.607 520.015 196.056C520.015 195.24 520.3 194.584 520.87 194.087C521.444 193.59 522.146 193.342 522.975 193.342C523.805 193.342 524.504 193.59 525.074 194.087C525.648 194.579 525.935 195.235 525.935 196.056C525.935 196.607 525.787 197.086 525.491 197.491C525.194 197.897 524.825 198.191 524.383 198.373V198.4C524.935 198.587 525.384 198.895 525.73 199.323C526.081 199.747 526.256 200.264 526.256 200.875C526.256 201.773 525.94 202.47 525.306 202.967C524.677 203.459 523.9 203.705 522.975 203.705C522.055 203.705 521.278 203.459 520.644 202.967C520.011 202.47 519.694 201.773 519.694 200.875ZM520.767 200.82C520.767 201.408 520.97 201.885 521.375 202.249C521.781 202.609 522.314 202.787 522.975 202.782C523.64 202.782 524.174 202.607 524.575 202.256C524.98 201.9 525.183 201.422 525.183 200.82C525.183 200.246 524.98 199.777 524.575 199.412C524.174 199.048 523.64 198.865 522.975 198.865C522.314 198.865 521.781 199.048 521.375 199.412C520.97 199.772 520.767 200.242 520.767 200.82ZM521.068 196.11C521.068 196.639 521.243 197.079 521.594 197.43C521.95 197.776 522.41 197.949 522.975 197.949C523.545 197.949 524.003 197.776 524.349 197.43C524.7 197.079 524.875 196.639 524.875 196.11C524.875 195.568 524.7 195.126 524.349 194.784C524.003 194.438 523.545 194.265 522.975 194.265C522.41 194.26 521.95 194.431 521.594 194.777C521.243 195.124 521.068 195.568 521.068 196.11ZM527.398 196.398V195.687C527.398 194.957 527.578 194.37 527.938 193.923C528.303 193.476 528.838 193.253 529.544 193.253C530.251 193.253 530.784 193.476 531.144 193.923C531.509 194.37 531.691 194.957 531.691 195.687V196.398C531.691 197.127 531.509 197.715 531.144 198.161C530.784 198.608 530.251 198.831 529.544 198.831C528.838 198.831 528.303 198.608 527.938 198.161C527.578 197.715 527.398 197.127 527.398 196.398ZM528.348 196.398C528.348 196.853 528.435 197.227 528.608 197.519C528.786 197.81 529.098 197.956 529.544 197.956C529.991 197.956 530.301 197.81 530.474 197.519C530.652 197.227 530.741 196.853 530.741 196.398V195.687C530.741 195.231 530.652 194.857 530.474 194.565C530.301 194.269 529.991 194.121 529.544 194.121C529.098 194.121 528.786 194.269 528.608 194.565C528.435 194.857 528.348 195.231 528.348 195.687V196.398ZM536.626 193.82L530.194 203.719L529.456 203.206L535.888 193.294L536.626 193.82ZM534.425 201.203V200.492C534.425 199.763 534.605 199.175 534.965 198.729C535.33 198.282 535.865 198.059 536.572 198.059C537.278 198.059 537.811 198.282 538.171 198.729C538.536 199.175 538.718 199.763 538.718 200.492V201.203C538.718 201.932 538.536 202.52 538.171 202.967C537.811 203.413 537.278 203.637 536.572 203.637C535.865 203.637 535.33 203.413 534.965 202.967C534.605 202.52 534.425 201.932 534.425 201.203ZM535.375 201.203C535.375 201.659 535.462 202.033 535.635 202.324C535.813 202.616 536.125 202.762 536.572 202.762C537.018 202.762 537.328 202.616 537.501 202.324C537.679 202.033 537.768 201.659 537.768 201.203V200.492C537.768 200.037 537.679 199.663 537.501 199.371C537.328 199.075 537.018 198.927 536.572 198.927C536.125 198.927 535.813 199.075 535.635 199.371C535.462 199.663 535.375 200.037 535.375 200.492V201.203Z" fill="#140000"/>
<path d="M226 230.5C226 232.157 224.657 233.5 223 233.5C221.344 233.5 220 232.157 220 230.5C220 228.843 221.344 227.5 223 227.5C224.657 227.5 226 228.843 226 230.5Z" fill="#F7CCCC"/>
<path d="M231 225.547H232.176L234.958 233.217C235.018 233.381 235.072 233.538 235.123 233.689C235.177 233.834 235.23 233.987 235.28 234.147H235.334C235.385 233.987 235.435 233.834 235.485 233.689C235.54 233.538 235.597 233.381 235.656 233.217L238.465 225.547H239.586L235.82 235.568H234.76L231 225.547ZM239.962 232.014V231.795C239.962 230.71 240.259 229.824 240.851 229.136C241.444 228.448 242.225 228.104 243.196 228.104C244.167 228.104 244.914 228.42 245.438 229.054C245.962 229.687 246.224 230.56 246.224 231.672V232.116H240.591V231.255H245.151V231.159C245.151 230.503 244.989 229.979 244.666 229.587C244.347 229.19 243.866 228.992 243.223 228.992C242.503 228.992 241.958 229.261 241.589 229.799C241.225 230.332 241.042 230.997 241.042 231.795V232.014C241.042 232.811 241.234 233.479 241.617 234.017C242 234.55 242.599 234.816 243.415 234.816C243.889 234.816 244.294 234.721 244.631 234.529C244.969 234.333 245.249 234.096 245.472 233.818L246.163 234.386C245.935 234.714 245.586 235.017 245.117 235.295C244.652 235.568 244.084 235.705 243.415 235.705C242.303 235.705 241.448 235.361 240.851 234.673C240.259 233.985 239.962 233.098 239.962 232.014ZM247.755 235.5V228.309H248.712L248.76 229.3H248.788C249.061 228.944 249.394 228.669 249.786 228.473C250.182 228.272 250.622 228.172 251.105 228.172C251.83 228.172 252.406 228.377 252.834 228.787C253.263 229.193 253.477 229.872 253.477 230.824V235.5H252.411V230.811C252.411 230.195 252.269 229.753 251.987 229.484C251.704 229.216 251.303 229.081 250.784 229.081C250.342 229.081 249.95 229.2 249.608 229.437C249.271 229.674 249.006 229.974 248.815 230.339V235.5H247.755ZM255.029 232.014V231.795C255.029 230.747 255.3 229.881 255.842 229.197C256.389 228.514 257.125 228.172 258.05 228.172C258.579 228.172 259.03 228.265 259.404 228.452C259.782 228.639 260.085 228.885 260.313 229.19V225H261.379V235.5H260.416L260.375 234.529H260.347C260.147 234.835 259.846 235.097 259.445 235.315C259.044 235.53 258.579 235.637 258.05 235.637C257.125 235.637 256.389 235.295 255.842 234.611C255.3 233.928 255.029 233.062 255.029 232.014ZM256.116 232.014C256.116 232.798 256.291 233.449 256.642 233.969C256.993 234.488 257.542 234.748 258.29 234.748C258.786 234.748 259.208 234.621 259.554 234.365C259.905 234.106 260.158 233.809 260.313 233.477V230.332C260.158 229.999 259.905 229.705 259.554 229.45C259.208 229.19 258.786 229.061 258.29 229.061C257.542 229.061 256.993 229.32 256.642 229.84C256.291 230.359 256.116 231.011 256.116 231.795V232.014ZM263 232.014V231.795C263 230.71 263.296 229.824 263.888 229.136C264.481 228.448 265.262 228.104 266.233 228.104C267.204 228.104 267.951 228.42 268.475 229.054C268.999 229.687 269.261 230.56 269.261 231.672V232.116H263.628V231.255H268.188V231.159C268.188 230.503 268.026 229.979 267.703 229.587C267.384 229.19 266.903 228.992 266.26 228.992C265.54 228.992 264.996 229.261 264.626 229.799C264.262 230.332 264.08 230.997 264.08 231.795V232.014C264.08 232.811 264.271 233.479 264.654 234.017C265.037 234.55 265.636 234.816 266.452 234.816C266.926 234.816 267.331 234.721 267.668 234.529C268.006 234.333 268.286 234.096 268.509 233.818L269.2 234.386C268.972 234.714 268.623 235.017 268.154 235.295C267.689 235.568 267.122 235.705 266.452 235.705C265.34 235.705 264.485 235.361 263.888 234.673C263.296 233.985 263 233.098 263 232.014ZM270.341 232.014V231.795C270.341 230.747 270.612 229.881 271.155 229.197C271.702 228.514 272.438 228.172 273.363 228.172C273.891 228.172 274.343 228.265 274.716 228.452C275.095 228.639 275.398 228.885 275.625 229.19V225H276.692V235.5H275.728L275.687 234.529H275.66C275.459 234.835 275.158 235.097 274.757 235.315C274.356 235.53 273.891 235.637 273.363 235.637C272.438 235.637 271.702 235.295 271.155 234.611C270.612 233.928 270.341 233.062 270.341 232.014ZM271.428 232.014C271.428 232.798 271.604 233.449 271.955 233.969C272.305 234.488 272.855 234.748 273.602 234.748C274.099 234.748 274.52 234.621 274.867 234.365C275.218 234.106 275.471 233.809 275.625 233.477V230.332C275.471 229.999 275.218 229.705 274.867 229.45C274.52 229.19 274.099 229.061 273.602 229.061C272.855 229.061 272.305 229.32 271.955 229.84C271.604 230.359 271.428 231.011 271.428 231.795V232.014ZM278.312 232.014V231.795C278.312 230.71 278.617 229.824 279.228 229.136C279.843 228.448 280.666 228.104 281.696 228.104C282.721 228.104 283.539 228.448 284.15 229.136C284.765 229.824 285.073 230.71 285.073 231.795V232.014C285.073 233.098 284.765 233.985 284.15 234.673C283.539 235.361 282.721 235.705 281.696 235.705C280.666 235.705 279.843 235.361 279.228 234.673C278.617 233.985 278.312 233.098 278.312 232.014ZM279.399 231.795V232.014C279.399 232.807 279.59 233.472 279.973 234.01C280.361 234.548 280.935 234.816 281.696 234.816C282.452 234.816 283.024 234.548 283.412 234.01C283.799 233.472 283.993 232.807 283.993 232.014V231.795C283.993 231.002 283.799 230.337 283.412 229.799C283.024 229.261 282.452 228.992 281.696 228.992C280.935 228.992 280.361 229.261 279.973 229.799C279.59 230.337 279.399 231.002 279.399 231.795ZM286.693 235.5V228.309H287.65L287.698 229.279H287.725C287.926 228.965 288.185 228.691 288.504 228.459C288.828 228.222 289.215 228.104 289.666 228.104C289.771 228.104 289.881 228.115 289.995 228.138C290.113 228.161 290.197 228.181 290.248 228.199V229.19C290.152 229.172 290.049 229.159 289.94 229.149C289.835 229.136 289.721 229.129 289.598 229.129C289.152 229.129 288.771 229.245 288.457 229.478C288.147 229.71 287.912 229.997 287.752 230.339V235.5H286.693ZM298.957 235.5V232.793V232.499V227.276H298.881L295.525 232.198H299.216H299.661H301.438V233.121H294.26V232.342L298.991 225.547H299.989V235.5H298.957Z" fill="#140000"/>
<path d="M508.17 232.875C508.17 232.264 508.346 231.749 508.697 231.33C509.052 230.906 509.501 230.596 510.043 230.4V230.373C509.606 230.191 509.237 229.897 508.936 229.491C508.64 229.086 508.492 228.607 508.492 228.056C508.492 227.24 508.777 226.584 509.346 226.087C509.92 225.59 510.622 225.342 511.452 225.342C512.281 225.342 512.981 225.59 513.55 226.087C514.125 226.579 514.412 227.235 514.412 228.056C514.412 228.607 514.264 229.086 513.967 229.491C513.671 229.897 513.302 230.191 512.86 230.373V230.4C513.411 230.587 513.86 230.895 514.207 231.323C514.557 231.747 514.733 232.264 514.733 232.875C514.733 233.773 514.416 234.47 513.783 234.967C513.154 235.459 512.377 235.705 511.452 235.705C510.531 235.705 509.754 235.459 509.121 234.967C508.487 234.47 508.17 233.773 508.17 232.875ZM509.244 232.82C509.244 233.408 509.446 233.885 509.852 234.249C510.258 234.609 510.791 234.787 511.452 234.782C512.117 234.782 512.65 234.607 513.051 234.256C513.457 233.9 513.66 233.422 513.66 232.82C513.66 232.246 513.457 231.777 513.051 231.412C512.65 231.048 512.117 230.865 511.452 230.865C510.791 230.865 510.258 231.048 509.852 231.412C509.446 231.772 509.244 232.242 509.244 232.82ZM509.544 228.11C509.544 228.639 509.72 229.079 510.071 229.43C510.426 229.776 510.887 229.949 511.452 229.949C512.021 229.949 512.479 229.776 512.826 229.43C513.177 229.079 513.352 228.639 513.352 228.11C513.352 227.568 513.177 227.126 512.826 226.784C512.479 226.438 512.021 226.265 511.452 226.265C510.887 226.26 510.426 226.431 510.071 226.777C509.72 227.124 509.544 227.568 509.544 228.11ZM516.456 234.871C516.456 234.652 516.524 234.468 516.661 234.317C516.802 234.162 517.002 234.085 517.262 234.085C517.522 234.085 517.72 234.162 517.857 234.317C517.998 234.468 518.069 234.65 518.069 234.864C518.069 235.083 517.998 235.27 517.857 235.425C517.72 235.575 517.522 235.65 517.262 235.65C517.002 235.65 516.802 235.575 516.661 235.425C516.524 235.27 516.456 235.085 516.456 234.871ZM522.922 235.5V226.702L520.25 227.762V226.702L523.791 225.41H524.023V235.5H522.922ZM527.496 228.398V227.687C527.496 226.957 527.676 226.37 528.036 225.923C528.4 225.476 528.936 225.253 529.642 225.253C530.348 225.253 530.882 225.476 531.242 225.923C531.606 226.37 531.789 226.957 531.789 227.687V228.398C531.789 229.127 531.606 229.715 531.242 230.161C530.882 230.608 530.348 230.831 529.642 230.831C528.936 230.831 528.4 230.608 528.036 230.161C527.676 229.715 527.496 229.127 527.496 228.398ZM528.446 228.398C528.446 228.853 528.532 229.227 528.706 229.519C528.883 229.81 529.195 229.956 529.642 229.956C530.089 229.956 530.399 229.81 530.572 229.519C530.75 229.227 530.838 228.853 530.838 228.398V227.687C530.838 227.231 530.75 226.857 530.572 226.565C530.399 226.269 530.089 226.121 529.642 226.121C529.195 226.121 528.883 226.269 528.706 226.565C528.532 226.857 528.446 227.231 528.446 227.687V228.398ZM536.724 225.82L530.292 235.719L529.553 235.206L535.986 225.294L536.724 225.82ZM534.523 233.203V232.492C534.523 231.763 534.703 231.175 535.063 230.729C535.428 230.282 535.963 230.059 536.669 230.059C537.376 230.059 537.909 230.282 538.269 230.729C538.634 231.175 538.816 231.763 538.816 232.492V233.203C538.816 233.932 538.634 234.52 538.269 234.967C537.909 235.413 537.376 235.637 536.669 235.637C535.963 235.637 535.428 235.413 535.063 234.967C534.703 234.52 534.523 233.932 534.523 233.203ZM535.473 233.203C535.473 233.659 535.56 234.033 535.733 234.324C535.911 234.616 536.223 234.762 536.669 234.762C537.116 234.762 537.426 234.616 537.599 234.324C537.777 234.033 537.866 233.659 537.866 233.203V232.492C537.866 232.037 537.777 231.663 537.599 231.371C537.426 231.075 537.116 230.927 536.669 230.927C536.223 230.927 535.911 231.075 535.733 231.371C535.56 231.663 535.473 232.037 535.473 232.492V233.203Z" fill="#140000"/>
</g>
<defs>
<filter id="filter0_d_3055_32820" x="0.000488281" y="0.500061" width="596.5" height="324" filterUnits="userSpaceOnUse" color-interpolation-filters="sRGB">
<feFlood flood-opacity="0" result="BackgroundImageFix"/>
<feColorMatrix in="SourceAlpha" type="matrix" values="0 0 0 0 0 0 0 0 0 0 0 0 0 0 0 0 0 0 127 0" result="hardAlpha"/>
<feOffset dx="3" dy="5"/>
<feGaussianBlur stdDeviation="5"/>
<feColorMatrix type="matrix" values="0 0 0 0 0 0 0 0 0 0 0 0 0 0 0 0 0 0 0.3 0"/>
<feBlend mode="normal" in2="BackgroundImageFix" result="effect1_dropShadow_3055_32820"/>
<feBlend mode="normal" in="SourceGraphic" in2="effect1_dropShadow_3055_32820" result="shape"/>
</filter>
<linearGradient id="paint0_linear_3055_32820" x1="170.99" y1="122.5" x2="130.363" y2="165.567" gradientUnits="userSpaceOnUse">
<stop/>
<stop offset="1"/>
</linearGradient>
<linearGradient id="paint1_linear_3055_32820" x1="102.69" y1="167.5" x2="78.2889" y2="196.908" gradientUnits="userSpaceOnUse">
<stop/>
<stop offset="1"/>
</linearGradient>
<linearGradient id="paint2_linear_3055_32820" x1="96.1572" y1="130.5" x2="83.6511" y2="151.888" gradientUnits="userSpaceOnUse">
<stop/>
<stop offset="1"/>
</linearGradient>
<linearGradient id="paint3_linear_3055_32820" x1="110.889" y1="122.5" x2="100.419" y2="137.871" gradientUnits="userSpaceOnUse">
<stop/>
<stop offset="1"/>
</linearGradient>
<clipPath id="clip0_3055_32820">
<path d="M428.5 33.5001C428.5 31.2909 430.291 29.5001 432.5 29.5001H551.5C553.71 29.5001 555.5 31.2909 555.5 33.5001V63.5001H428.5V33.5001Z" fill="white"/>
</clipPath>
<clipPath id="clip1_3055_32820">
<rect width="16" height="16" fill="white" transform="translate(473.5 126.5)"/>
</clipPath>
</defs>
</svg>
