<svg width="597" height="325" viewBox="0 0 597 325" fill="none" xmlns="http://www.w3.org/2000/svg">
<g filter="url(#filter0_d_3055_32848)">
<path d="M7.50049 21.5001C7.50049 12.6635 14.6639 5.50006 23.5005 5.50006H568C576.837 5.50006 584 12.6635 584 21.5001V293.5C584 302.337 576.837 309.5 568 309.5H23.5005C14.6639 309.5 7.50049 302.337 7.50049 293.5V21.5001Z" fill="#F8F8F8"/>
<path d="M31.4028 39.2813H33.7466L37.3599 49.6329C37.4315 49.8347 37.4901 50.017 37.5356 50.1797C37.5812 50.3425 37.63 50.5183 37.6821 50.7071H37.7603C37.8123 50.5183 37.8644 50.3425 37.9165 50.1797C37.9686 50.0105 38.0272 49.8282 38.0923 49.6329L41.7544 39.2813H43.9224L38.7563 53.5782H36.5786L31.4028 39.2813ZM44.186 48.5977V48.2852C44.186 46.7488 44.619 45.502 45.4849 44.545C46.3573 43.5879 47.4966 43.1094 48.9028 43.1094C50.3156 43.1094 51.4061 43.5586 52.1743 44.4571C52.9491 45.349 53.3364 46.5697 53.3364 48.1192V48.9297H45.5239V47.4161H51.2173V47.211C51.2173 46.5339 51.022 45.9577 50.6313 45.4825C50.2472 45.0007 49.6841 44.7598 48.9419 44.7598C48.076 44.7598 47.425 45.0886 46.9888 45.7461C46.5526 46.3972 46.3345 47.224 46.3345 48.2266V48.6465C46.3345 49.6557 46.5656 50.489 47.0278 51.1465C47.4901 51.7976 48.1932 52.1231 49.1372 52.1231C49.7492 52.1231 50.2733 51.9864 50.7095 51.7129C51.1522 51.433 51.507 51.1075 51.7739 50.7364L53.229 51.7422C52.91 52.2761 52.4022 52.7514 51.7056 53.168C51.009 53.5782 50.1593 53.7833 49.1567 53.7833C47.5747 53.7833 46.3507 53.3047 45.4849 52.3477C44.619 51.3907 44.186 50.1407 44.186 48.5977ZM55.3579 53.5001V43.4024H57.3403L57.3989 44.6622H57.4575C57.783 44.2129 58.2095 43.8581 58.7368 43.5977C59.2642 43.3308 59.8534 43.1973 60.5044 43.1973C61.52 43.1973 62.3371 43.487 62.9556 44.0665C63.5741 44.6459 63.8833 45.629 63.8833 47.0157V53.5001H61.7544V47.0157C61.7544 46.2605 61.5884 45.7234 61.2563 45.4044C60.9243 45.0788 60.4491 44.9161 59.8306 44.9161C59.3162 44.9161 58.854 45.0593 58.4438 45.3458C58.0337 45.6322 57.7147 46.0131 57.4868 46.4883V53.5001H55.3579ZM65.1431 45.004V43.4024H71.0806V45.004H65.1431ZM66.8521 50.8047V44.252V43.9883V40.7852H68.9712V50.7461C68.9712 51.2409 69.0623 51.5827 69.2446 51.7715C69.4269 51.9603 69.7004 52.0547 70.0649 52.0547C70.2342 52.0547 70.4002 52.0385 70.563 52.0059C70.7323 51.9669 70.8983 51.9148 71.061 51.8497V53.5001C70.8983 53.5717 70.6802 53.6368 70.4067 53.6954C70.1398 53.754 69.8436 53.7833 69.5181 53.7833C68.7043 53.7833 68.0565 53.5456 67.5747 53.0704C67.0929 52.5951 66.8521 51.8399 66.8521 50.8047ZM72.311 50.5411C72.311 49.4864 72.7244 48.6758 73.5513 48.1094C74.3781 47.5365 75.4295 47.2501 76.7056 47.2501H78.9224V46.5665C78.9224 46.0001 78.7759 45.5476 78.4829 45.209C78.1899 44.864 77.6886 44.6915 76.979 44.6915C76.2759 44.6915 75.7681 44.8347 75.4556 45.1211C75.1431 45.4076 74.9868 45.7527 74.9868 46.1563V46.2637L72.8872 46.254V46.1465C72.8872 45.3067 73.2648 44.5938 74.02 44.0079C74.7817 43.4154 75.7941 43.1192 77.0571 43.1192C78.3201 43.1192 79.3 43.4057 79.9966 43.9786C80.6997 44.545 81.0513 45.4109 81.0513 46.5762V51.1758C81.0513 51.599 81.0838 51.9961 81.1489 52.3672C81.214 52.7383 81.3084 53.0639 81.4321 53.3438V53.5001H79.3618C79.2707 53.3373 79.1893 53.1322 79.1177 52.8848C79.0526 52.6309 79.007 52.377 78.981 52.1231C78.7596 52.5333 78.3787 52.8978 77.8384 53.2169C77.298 53.5294 76.6079 53.6856 75.7681 53.6856C74.7915 53.6856 73.9712 53.4187 73.3071 52.8848C72.6431 52.351 72.311 51.5697 72.311 50.5411ZM74.4399 50.3946C74.4399 50.9284 74.5962 51.3484 74.9087 51.6544C75.2212 51.9603 75.703 52.1133 76.354 52.1133C77.0246 52.1133 77.6203 51.8887 78.1411 51.4395C78.6619 50.9838 78.9224 50.4825 78.9224 49.9356V48.6563H76.9985C76.1457 48.6563 75.5044 48.8093 75.0747 49.1153C74.6515 49.4213 74.4399 49.8477 74.4399 50.3946ZM83.1118 50.4336L85.2114 50.4434V50.5411C85.2114 51.101 85.4067 51.5144 85.7974 51.7813C86.188 52.0482 86.7121 52.1817 87.3696 52.1817C88.0337 52.1817 88.548 52.0547 88.9126 51.8008C89.2772 51.5469 89.4595 51.2084 89.4595 50.7852C89.4595 50.362 89.2967 50.043 88.9712 49.8282C88.6522 49.6068 87.9491 49.3724 86.8618 49.1251C85.742 48.8711 84.8794 48.5066 84.2739 48.0313C83.675 47.5495 83.3755 46.8985 83.3755 46.0782C83.3755 45.1993 83.7303 44.4864 84.4399 43.9395C85.1561 43.3861 86.1196 43.1094 87.3306 43.1094C88.5285 43.1094 89.492 43.3894 90.2212 43.9493C90.9504 44.5027 91.3149 45.2611 91.3149 46.2247V46.3028H89.2349V46.1856C89.2349 45.7169 89.0754 45.3555 88.7563 45.1016C88.4438 44.8477 87.9653 44.7208 87.3208 44.7208C86.6763 44.7208 86.2043 44.8347 85.9048 45.0626C85.6118 45.2904 85.4653 45.5866 85.4653 45.9512C85.4653 46.3093 85.6379 46.5958 85.9829 46.8106C86.3345 47.0189 87.0539 47.2468 88.1411 47.4942C89.2609 47.7481 90.1105 48.1159 90.6899 48.5977C91.2759 49.073 91.5688 49.7533 91.5688 50.6387C91.5688 51.5827 91.2173 52.3445 90.5142 52.9239C89.811 53.4968 88.7661 53.7833 87.3794 53.7833C85.9992 53.7833 84.9412 53.4935 84.2056 52.9141C83.4764 52.3282 83.1118 51.5307 83.1118 50.5215V50.4336ZM93.9419 52.4161C93.9419 52.0645 94.0591 51.7618 94.2935 51.5079C94.5278 51.254 94.8631 51.127 95.2993 51.127C95.7355 51.127 96.0708 51.254 96.3052 51.5079C96.5396 51.7618 96.6567 52.0645 96.6567 52.4161C96.6567 52.7741 96.5396 53.0801 96.3052 53.334C96.0708 53.5879 95.7355 53.7149 95.2993 53.7149C94.8631 53.7149 94.5278 53.5879 94.2935 53.334C94.0591 53.0801 93.9419 52.7741 93.9419 52.4161ZM93.9419 44.4571C93.9419 44.1055 94.0591 43.8028 94.2935 43.5489C94.5278 43.295 94.8631 43.168 95.2993 43.168C95.7355 43.168 96.0708 43.295 96.3052 43.5489C96.5396 43.8028 96.6567 44.1055 96.6567 44.4571C96.6567 44.8152 96.5396 45.1211 96.3052 45.3751C96.0708 45.6224 95.7355 45.7461 95.2993 45.7461C94.8631 45.7461 94.5278 45.6224 94.2935 45.3751C94.0591 45.1211 93.9419 44.8152 93.9419 44.4571ZM102.926 53.5001L108.19 39.2032H110.377L115.67 53.5001H113.356L109.606 42.9044C109.528 42.683 109.459 42.4714 109.401 42.2696C109.349 42.0678 109.3 41.8627 109.254 41.6544H109.176C109.131 41.8627 109.079 42.0678 109.02 42.2696C108.968 42.4714 108.903 42.683 108.825 42.9044L105.065 53.5001H102.926ZM105.426 49.9649L106.002 48.2461H112.506L113.083 49.9649H105.426ZM116.92 53.5001V43.4024H118.903L118.961 44.6622H119.02C119.346 44.2129 119.772 43.8581 120.299 43.5977C120.827 43.3308 121.416 43.1973 122.067 43.1973C123.083 43.1973 123.9 43.487 124.518 44.0665C125.137 44.6459 125.446 45.629 125.446 47.0157V53.5001H123.317V47.0157C123.317 46.2605 123.151 45.7234 122.819 45.4044C122.487 45.0788 122.012 44.9161 121.393 44.9161C120.879 44.9161 120.417 45.0593 120.006 45.3458C119.596 45.6322 119.277 46.0131 119.049 46.4883V53.5001H116.92ZM127.936 49.8379V43.4024H130.065V49.8575C130.065 50.6322 130.234 51.1823 130.573 51.5079C130.911 51.8269 131.383 51.9864 131.989 51.9864C132.523 51.9864 132.991 51.8399 133.395 51.5469C133.799 51.2474 134.111 50.8698 134.333 50.4141V43.4024H136.461V53.5001H134.489L134.42 52.2305H134.372C134.033 52.6863 133.6 53.0443 133.073 53.3047C132.545 53.5652 131.956 53.6954 131.305 53.6954C130.29 53.6954 129.472 53.3991 128.854 52.8067C128.242 52.2142 127.936 51.2247 127.936 49.8379ZM138.6 50.5411C138.6 49.4864 139.014 48.6758 139.84 48.1094C140.667 47.5365 141.719 47.2501 142.995 47.2501H145.211V46.5665C145.211 46.0001 145.065 45.5476 144.772 45.209C144.479 44.864 143.978 44.6915 143.268 44.6915C142.565 44.6915 142.057 44.8347 141.745 45.1211C141.432 45.4076 141.276 45.7527 141.276 46.1563V46.2637L139.176 46.254V46.1465C139.176 45.3067 139.554 44.5938 140.309 44.0079C141.071 43.4154 142.083 43.1192 143.346 43.1192C144.609 43.1192 145.589 43.4057 146.286 43.9786C146.989 44.545 147.34 45.4109 147.34 46.5762V51.1758C147.34 51.599 147.373 51.9961 147.438 52.3672C147.503 52.7383 147.597 53.0639 147.721 53.3438V53.5001H145.651C145.56 53.3373 145.478 53.1322 145.407 52.8848C145.342 52.6309 145.296 52.377 145.27 52.1231C145.049 52.5333 144.668 52.8978 144.127 53.2169C143.587 53.5294 142.897 53.6856 142.057 53.6856C141.081 53.6856 140.26 53.4187 139.596 52.8848C138.932 52.351 138.6 51.5697 138.6 50.5411ZM140.729 50.3946C140.729 50.9284 140.885 51.3484 141.198 51.6544C141.51 51.9603 141.992 52.1133 142.643 52.1133C143.314 52.1133 143.909 51.8887 144.43 51.4395C144.951 50.9838 145.211 50.4825 145.211 49.9356V48.6563H143.288C142.435 48.6563 141.793 48.8093 141.364 49.1153C140.941 49.4213 140.729 49.8477 140.729 50.3946ZM150.055 53.5001V38.6172H152.194V53.5001H150.055ZM157.35 54.7208L163.083 39.2813H164.997L159.274 54.7208H157.35ZM170.329 53.5001V39.2813H175.211C176.774 39.2813 177.972 39.6784 178.805 40.4727C179.639 41.2605 180.055 42.3314 180.055 43.6856C180.055 45.0333 179.639 46.1107 178.805 46.918C177.972 47.7188 176.771 48.1192 175.202 48.1192H172.526V53.5001H170.329ZM172.526 46.3907H175.084C176.12 46.3907 176.839 46.1368 177.243 45.629C177.653 45.1146 177.858 44.4669 177.858 43.6856C177.858 42.9109 177.653 42.2728 177.243 41.7715C176.839 41.2702 176.12 41.0196 175.084 41.0196H172.526V46.3907ZM181.862 53.5001V43.4024H183.844L183.913 44.6524H183.961C184.209 44.2357 184.534 43.8777 184.938 43.5782C185.342 43.2722 185.817 43.1192 186.364 43.1192C186.5 43.1192 186.644 43.1355 186.793 43.168C186.95 43.2006 187.06 43.2299 187.125 43.2559V45.1504C187.002 45.1179 186.868 45.0951 186.725 45.0821C186.582 45.0691 186.429 45.0626 186.266 45.0626C185.739 45.0626 185.277 45.209 184.879 45.502C184.482 45.795 184.189 46.1628 184 46.6055V53.5001H181.862ZM187.936 48.5977V48.2852C187.936 46.7422 188.382 45.4955 189.274 44.545C190.172 43.5879 191.364 43.1094 192.848 43.1094C194.326 43.1094 195.514 43.5879 196.413 44.545C197.311 45.4955 197.76 46.7422 197.76 48.2852V48.5977C197.76 50.1472 197.311 51.4004 196.413 52.3575C195.514 53.308 194.326 53.7833 192.848 53.7833C191.364 53.7833 190.172 53.308 189.274 52.3575C188.382 51.4004 187.936 50.1472 187.936 48.5977ZM190.114 48.2364V48.6563C190.114 49.6654 190.345 50.4922 190.807 51.1368C191.269 51.7813 191.95 52.1036 192.848 52.1036C193.747 52.1036 194.427 51.7813 194.889 51.1368C195.351 50.4922 195.583 49.6654 195.583 48.6563V48.2364C195.583 47.2273 195.348 46.4037 194.879 45.7657C194.417 45.1211 193.74 44.7989 192.848 44.7989C191.956 44.7989 191.276 45.1211 190.807 45.7657C190.345 46.4037 190.114 47.2273 190.114 48.2364ZM199.264 48.6075V48.295C199.264 46.8106 199.652 45.5932 200.426 44.6426C201.208 43.6856 202.243 43.2071 203.532 43.2071C204.222 43.2071 204.811 43.3308 205.299 43.5782C205.788 43.8191 206.175 44.1381 206.461 44.5352V38.6172H208.581V53.5001H206.608L206.54 52.211H206.491C206.243 52.6277 205.859 52.9792 205.338 53.2657C204.824 53.5521 204.222 53.6954 203.532 53.6954C202.223 53.6954 201.185 53.2169 200.417 52.2598C199.648 51.3028 199.264 50.0853 199.264 48.6075ZM201.432 48.6465C201.432 49.6166 201.644 50.4206 202.067 51.0586C202.49 51.6967 203.144 52.0157 204.03 52.0157C204.622 52.0157 205.127 51.8529 205.543 51.5274C205.96 51.2019 206.263 50.8275 206.452 50.4044V46.4786C206.269 46.0554 205.97 45.6843 205.553 45.3653C205.143 45.0398 204.635 44.877 204.03 44.877C203.144 44.877 202.49 45.1993 202.067 45.8438C201.644 46.4818 201.432 47.2859 201.432 48.2559V48.6465ZM211.159 49.8379V43.4024H213.288V49.8575C213.288 50.6322 213.457 51.1823 213.795 51.5079C214.134 51.8269 214.606 51.9864 215.211 51.9864C215.745 51.9864 216.214 51.8399 216.618 51.5469C217.021 51.2474 217.334 50.8698 217.555 50.4141V43.4024H219.684V53.5001H217.711L217.643 52.2305H217.594C217.256 52.6863 216.823 53.0443 216.295 53.3047C215.768 53.5652 215.179 53.6954 214.528 53.6954C213.512 53.6954 212.695 53.3991 212.077 52.8067C211.465 52.2142 211.159 51.2247 211.159 49.8379ZM221.784 48.5977V48.2852C221.784 46.7357 222.213 45.4857 223.073 44.5352C223.939 43.5847 225.114 43.1094 226.598 43.1094C227.985 43.1094 229.04 43.4708 229.762 44.1934C230.485 44.9161 230.856 45.7592 230.875 46.7227L230.885 46.8204H228.815V46.7422C228.815 46.2019 228.633 45.7396 228.268 45.3555C227.91 44.9714 227.353 44.7794 226.598 44.7794C225.706 44.7794 225.042 45.1049 224.606 45.7559C224.176 46.4004 223.961 47.2273 223.961 48.2364V48.6563C223.961 49.6589 224.176 50.4857 224.606 51.1368C225.036 51.7878 225.696 52.1133 226.588 52.1133C227.37 52.1133 227.936 51.9213 228.288 51.5372C228.639 51.1465 228.815 50.6843 228.815 50.1504V50.0723H230.885V50.1504C230.879 51.114 230.508 51.9603 229.772 52.6895C229.043 53.4187 227.985 53.7833 226.598 53.7833C225.114 53.7833 223.939 53.308 223.073 52.3575C222.213 51.407 221.784 50.1537 221.784 48.5977ZM231.471 45.004V43.4024H237.409V45.004H231.471ZM233.18 50.8047V44.252V43.9883V40.7852H235.299V50.7461C235.299 51.2409 235.39 51.5827 235.573 51.7715C235.755 51.9603 236.028 52.0547 236.393 52.0547C236.562 52.0547 236.728 52.0385 236.891 52.0059C237.06 51.9669 237.226 51.9148 237.389 51.8497V53.5001C237.226 53.5717 237.008 53.6368 236.735 53.6954C236.468 53.754 236.172 53.7833 235.846 53.7833C235.032 53.7833 234.385 53.5456 233.903 53.0704C233.421 52.5951 233.18 51.8399 233.18 50.8047ZM238.405 48.5977V48.2852C238.405 46.7422 238.851 45.4955 239.743 44.545C240.641 43.5879 241.833 43.1094 243.317 43.1094C244.795 43.1094 245.983 43.5879 246.881 44.545C247.78 45.4955 248.229 46.7422 248.229 48.2852V48.5977C248.229 50.1472 247.78 51.4004 246.881 52.3575C245.983 53.308 244.795 53.7833 243.317 53.7833C241.833 53.7833 240.641 53.308 239.743 52.3575C238.851 51.4004 238.405 50.1472 238.405 48.5977ZM240.583 48.2364V48.6563C240.583 49.6654 240.814 50.4922 241.276 51.1368C241.738 51.7813 242.418 52.1036 243.317 52.1036C244.215 52.1036 244.896 51.7813 245.358 51.1368C245.82 50.4922 246.051 49.6654 246.051 48.6563V48.2364C246.051 47.2273 245.817 46.4037 245.348 45.7657C244.886 45.1211 244.209 44.7989 243.317 44.7989C242.425 44.7989 241.745 45.1211 241.276 45.7657C240.814 46.4037 240.583 47.2273 240.583 48.2364ZM249.713 50.4336L251.813 50.4434V50.5411C251.813 51.101 252.008 51.5144 252.399 51.7813C252.79 52.0482 253.314 52.1817 253.971 52.1817C254.635 52.1817 255.15 52.0547 255.514 51.8008C255.879 51.5469 256.061 51.2084 256.061 50.7852C256.061 50.362 255.898 50.043 255.573 49.8282C255.254 49.6068 254.551 49.3724 253.463 49.1251C252.344 48.8711 251.481 48.5066 250.875 48.0313C250.277 47.5495 249.977 46.8985 249.977 46.0782C249.977 45.1993 250.332 44.4864 251.042 43.9395C251.758 43.3861 252.721 43.1094 253.932 43.1094C255.13 43.1094 256.094 43.3894 256.823 43.9493C257.552 44.5027 257.917 45.2611 257.917 46.2247V46.3028H255.836V46.1856C255.836 45.7169 255.677 45.3555 255.358 45.1016C255.045 44.8477 254.567 44.7208 253.922 44.7208C253.278 44.7208 252.806 44.8347 252.506 45.0626C252.213 45.2904 252.067 45.5866 252.067 45.9512C252.067 46.3093 252.239 46.5958 252.584 46.8106C252.936 47.0189 253.655 47.2468 254.743 47.4942C255.862 47.7481 256.712 48.1159 257.292 48.5977C257.877 49.073 258.17 49.7533 258.17 50.6387C258.17 51.5827 257.819 52.3445 257.116 52.9239C256.413 53.4968 255.368 53.7833 253.981 53.7833C252.601 53.7833 251.543 53.4935 250.807 52.9141C250.078 52.3282 249.713 51.5307 249.713 50.5215V50.4336Z" fill="#140000"/>
<rect x="474.5" y="30.0001" width="85" height="33" rx="7.5" fill="#F8F8F8"/>
<rect x="474.5" y="30.0001" width="85" height="33" rx="7.5" stroke="#9F9F9F"/>
<g clip-path="url(#clip0_3055_32848)">
<path d="M484.657 53.0001V51.6641L488.594 47.2813C489.068 46.7657 489.433 46.3021 489.688 45.8907C489.943 45.4792 490.071 45.0443 490.071 44.586C490.071 44.1433 489.935 43.7709 489.665 43.4688C489.394 43.1667 489.003 43.0157 488.493 43.0157C487.977 43.0157 487.555 43.1876 487.227 43.5313C486.904 43.8751 486.743 44.3777 486.743 45.0391V45.2188H484.625V45.0001C484.625 43.9323 484.982 43.0652 485.696 42.3985C486.409 41.7318 487.339 41.3985 488.485 41.3985C489.678 41.3985 490.594 41.6954 491.235 42.2891C491.881 42.8829 492.204 43.6198 492.204 44.5001C492.204 45.2553 492.003 45.9271 491.602 46.5157C491.206 47.099 490.722 47.7032 490.149 48.3282L487.383 51.3126H492.469V53.0001H484.657ZM493.649 49.1797V45.4454C493.649 44.2318 493.98 43.2553 494.641 42.5157C495.308 41.7709 496.258 41.3985 497.493 41.3985C498.722 41.3985 499.67 41.7683 500.336 42.5079C501.008 43.2474 501.344 44.2266 501.344 45.4454V49.1797C501.344 50.3985 501.008 51.3777 500.336 52.1172C499.665 52.8568 498.717 53.2266 497.493 53.2266C496.258 53.2266 495.308 52.8568 494.641 52.1172C493.98 51.3777 493.649 50.3985 493.649 49.1797ZM495.805 49.3594C495.805 50.0261 495.938 50.5678 496.204 50.9844C496.474 51.4011 496.907 51.6094 497.5 51.6094C498.094 51.6094 498.524 51.4011 498.79 50.9844C499.06 50.5678 499.196 50.0261 499.196 49.3594V45.2735C499.196 44.6016 499.06 44.0599 498.79 43.6485C498.524 43.2318 498.094 43.0235 497.5 43.0235C496.907 43.0235 496.474 43.2318 496.204 43.6485C495.938 44.0599 495.805 44.6016 495.805 45.2735V49.3594ZM502.657 53.0001V51.6641L506.594 47.2813C507.068 46.7657 507.433 46.3021 507.688 45.8907C507.943 45.4792 508.071 45.0443 508.071 44.586C508.071 44.1433 507.935 43.7709 507.665 43.4688C507.394 43.1667 507.003 43.0157 506.493 43.0157C505.977 43.0157 505.555 43.1876 505.227 43.5313C504.904 43.8751 504.743 44.3777 504.743 45.0391V45.2188H502.625V45.0001C502.625 43.9323 502.982 43.0652 503.696 42.3985C504.409 41.7318 505.339 41.3985 506.485 41.3985C507.678 41.3985 508.594 41.6954 509.235 42.2891C509.881 42.8829 510.204 43.6198 510.204 44.5001C510.204 45.2553 510.003 45.9271 509.602 46.5157C509.206 47.099 508.722 47.7032 508.149 48.3282L505.383 51.3126H510.469V53.0001H502.657ZM516.375 53.0001V49.9141L516.383 49.5391V44.5626H516.29L513.407 48.8438H516.907L517.461 48.836H519.743V50.461H511.258V49.0938L516.43 41.6251H518.407V53.0001H516.375Z" fill="#140000"/>
<path fill-rule="evenodd" clip-rule="evenodd" d="M528.469 42.4691C528.539 42.3992 528.622 42.3438 528.713 42.306C528.804 42.2682 528.902 42.2487 529 42.2487C529.099 42.2487 529.197 42.2682 529.288 42.306C529.379 42.3438 529.462 42.3992 529.531 42.4691L538 50.9396L546.469 42.4691C546.539 42.3993 546.622 42.344 546.713 42.3063C546.804 42.2685 546.902 42.2491 547 42.2491C547.099 42.2491 547.197 42.2685 547.288 42.3063C547.379 42.344 547.462 42.3993 547.531 42.4691C547.601 42.5388 547.656 42.6216 547.694 42.7127C547.732 42.8038 547.751 42.9014 547.751 43.0001C547.751 43.0987 547.732 43.1963 547.694 43.2874C547.656 43.3785 547.601 43.4613 547.531 43.5311L538.531 52.5311C538.462 52.6009 538.379 52.6563 538.288 52.6941C538.197 52.7319 538.099 52.7514 538 52.7514C537.902 52.7514 537.804 52.7319 537.713 52.6941C537.622 52.6563 537.539 52.6009 537.469 52.5311L528.469 43.5311C528.4 43.4614 528.344 43.3786 528.306 43.2875C528.268 43.1964 528.249 43.0987 528.249 43.0001C528.249 42.9014 528.268 42.8037 528.306 42.7126C528.344 42.6215 528.4 42.5387 528.469 42.4691Z" fill="#140000"/>
</g>
<path d="M32.7642 88.2618V88.2032H33.7075V88.2618C33.7075 88.7696 33.8853 89.1641 34.2407 89.4454C34.5962 89.7227 35.063 89.8614 35.6411 89.8614C36.2114 89.8614 36.6724 89.7227 37.0239 89.4454C37.3794 89.1641 37.5571 88.7422 37.5571 88.1797C37.5571 87.6016 37.354 87.17 36.9478 86.8848C36.5454 86.5997 36.0317 86.4571 35.4067 86.4571H34.6685V85.6544H35.3423C35.9321 85.6544 36.397 85.5176 36.7368 85.2442C37.0806 84.9669 37.2524 84.588 37.2524 84.1075C37.2524 83.6114 37.104 83.2383 36.8071 82.9883C36.5142 82.7344 36.1255 82.6075 35.6411 82.6075C35.1528 82.6075 34.7485 82.7364 34.4282 82.9942C34.1079 83.252 33.9478 83.6094 33.9478 84.0665V84.1368H33.0103V84.0665C33.0103 83.4297 33.2583 82.8926 33.7544 82.4551C34.2505 82.0137 34.8794 81.793 35.6411 81.793C36.395 81.793 37.0122 82.0059 37.4927 82.4317C37.9731 82.8536 38.2134 83.3965 38.2134 84.0606C38.2134 84.459 38.0962 84.836 37.8618 85.1915C37.6313 85.5469 37.2759 85.8223 36.7954 86.0176V86.0411C37.311 86.1583 37.729 86.4024 38.0493 86.7735C38.3735 87.1407 38.5356 87.6133 38.5356 88.1915C38.5356 88.9454 38.2622 89.5489 37.7153 90.002C37.1685 90.4512 36.4771 90.6758 35.6411 90.6758C34.7935 90.6758 34.1021 90.4532 33.5669 90.0079C33.0317 89.5587 32.7642 88.9766 32.7642 88.2618ZM39.8013 87.6583V84.8047C39.8013 83.879 40.0454 83.1465 40.5337 82.6075C41.0259 82.0645 41.7114 81.793 42.5903 81.793C43.4653 81.793 44.1489 82.0645 44.6411 82.6075C45.1333 83.1465 45.3794 83.879 45.3794 84.8047V87.6583C45.3794 88.588 45.1333 89.3243 44.6411 89.8672C44.1489 90.4063 43.4653 90.6758 42.5903 90.6758C41.7114 90.6758 41.0259 90.4063 40.5337 89.8672C40.0454 89.3243 39.8013 88.588 39.8013 87.6583ZM40.7798 87.7051C40.7798 88.3536 40.9282 88.8751 41.2251 89.2696C41.522 89.6602 41.9771 89.8555 42.5903 89.8555C43.2036 89.8555 43.6587 89.6602 43.9556 89.2696C44.2563 88.8751 44.4067 88.3536 44.4067 87.7051V84.7637C44.4067 84.127 44.2563 83.6094 43.9556 83.211C43.6587 82.8126 43.2036 82.6133 42.5903 82.6133C41.9771 82.6133 41.522 82.8126 41.2251 83.211C40.9282 83.6094 40.7798 84.127 40.7798 84.7637V87.7051ZM47.0083 90.5001V81.9688H47.9751V86.4219L52.1177 81.9688H53.3188L47.9751 87.5938V90.5001H47.0083ZM52.3696 90.5001L48.9243 86.0294L49.5571 85.3555L53.5825 90.5001H52.3696Z" fill="#9F9F9F"/>
<path d="M32.9458 144.5V143.756L36.1978 140.457C36.6001 140.047 36.9165 139.664 37.147 139.309C37.3774 138.949 37.4927 138.563 37.4927 138.148C37.4927 137.742 37.3423 137.385 37.0415 137.076C36.7407 136.768 36.3208 136.613 35.7817 136.613C35.2349 136.613 34.7817 136.777 34.4224 137.106C34.0669 137.434 33.8892 137.883 33.8892 138.453V138.523H32.9341V138.459C32.9341 137.686 33.2017 137.049 33.7368 136.549C34.2759 136.045 34.9556 135.793 35.7759 135.793C36.5923 135.793 37.2407 136.023 37.7212 136.484C38.2056 136.945 38.4478 137.484 38.4478 138.102C38.4478 138.668 38.2954 139.178 37.9907 139.631C37.686 140.08 37.2954 140.541 36.8188 141.014L34.1763 143.668H38.6938V144.5H32.9458ZM39.8013 141.658V138.805C39.8013 137.879 40.0454 137.147 40.5337 136.607C41.0259 136.065 41.7114 135.793 42.5903 135.793C43.4653 135.793 44.1489 136.065 44.6411 136.607C45.1333 137.147 45.3794 137.879 45.3794 138.805V141.658C45.3794 142.588 45.1333 143.324 44.6411 143.867C44.1489 144.406 43.4653 144.676 42.5903 144.676C41.7114 144.676 41.0259 144.406 40.5337 143.867C40.0454 143.324 39.8013 142.588 39.8013 141.658ZM40.7798 141.705C40.7798 142.354 40.9282 142.875 41.2251 143.27C41.522 143.66 41.9771 143.856 42.5903 143.856C43.2036 143.856 43.6587 143.66 43.9556 143.27C44.2563 142.875 44.4067 142.354 44.4067 141.705V138.764C44.4067 138.127 44.2563 137.609 43.9556 137.211C43.6587 136.813 43.2036 136.613 42.5903 136.613C41.9771 136.613 41.522 136.813 41.2251 137.211C40.9282 137.609 40.7798 138.127 40.7798 138.764V141.705ZM47.0083 144.5V135.969H47.9751V140.422L52.1177 135.969H53.3188L47.9751 141.594V144.5H47.0083ZM52.3696 144.5L48.9243 140.029L49.5571 139.356L53.5825 144.5H52.3696Z" fill="#9F9F9F"/>
<path d="M35.6235 198.5V190.982L33.2856 191.902V190.965L36.3677 189.852H36.5903V198.5H35.6235ZM39.8013 195.658V192.805C39.8013 191.879 40.0454 191.147 40.5337 190.607C41.0259 190.065 41.7114 189.793 42.5903 189.793C43.4653 189.793 44.1489 190.065 44.6411 190.607C45.1333 191.147 45.3794 191.879 45.3794 192.805V195.658C45.3794 196.588 45.1333 197.324 44.6411 197.867C44.1489 198.406 43.4653 198.676 42.5903 198.676C41.7114 198.676 41.0259 198.406 40.5337 197.867C40.0454 197.324 39.8013 196.588 39.8013 195.658ZM40.7798 195.705C40.7798 196.354 40.9282 196.875 41.2251 197.27C41.522 197.66 41.9771 197.856 42.5903 197.856C43.2036 197.856 43.6587 197.66 43.9556 197.27C44.2563 196.875 44.4067 196.354 44.4067 195.705V192.764C44.4067 192.127 44.2563 191.609 43.9556 191.211C43.6587 190.813 43.2036 190.613 42.5903 190.613C41.9771 190.613 41.522 190.813 41.2251 191.211C40.9282 191.609 40.7798 192.127 40.7798 192.764V195.705ZM47.0083 198.5V189.969H47.9751V194.422L52.1177 189.969H53.3188L47.9751 195.594V198.5H47.0083ZM52.3696 198.5L48.9243 194.029L49.5571 193.356L53.5825 198.5H52.3696Z" fill="#9F9F9F"/>
<path d="M47.2896 249.658V246.805C47.2896 245.879 47.5337 245.147 48.022 244.607C48.5142 244.065 49.1997 243.793 50.0786 243.793C50.9536 243.793 51.6372 244.065 52.1294 244.607C52.6216 245.147 52.8677 245.879 52.8677 246.805V249.658C52.8677 250.588 52.6216 251.324 52.1294 251.867C51.6372 252.406 50.9536 252.676 50.0786 252.676C49.1997 252.676 48.5142 252.406 48.022 251.867C47.5337 251.324 47.2896 250.588 47.2896 249.658ZM48.2681 249.705C48.2681 250.354 48.4165 250.875 48.7134 251.27C49.0103 251.66 49.4653 251.856 50.0786 251.856C50.6919 251.856 51.147 251.66 51.4438 251.27C51.7446 250.875 51.895 250.354 51.895 249.705V246.764C51.895 246.127 51.7446 245.609 51.4438 245.211C51.147 244.813 50.6919 244.613 50.0786 244.613C49.4653 244.613 49.0103 244.813 48.7134 245.211C48.4165 245.609 48.2681 246.127 48.2681 246.764V249.705Z" fill="#9F9F9F"/>
<path d="M82.7505 179.3C82.7505 174.82 82.7505 172.579 83.6224 170.868C84.3894 169.363 85.6133 168.139 87.1186 167.372C88.8299 166.5 91.0701 166.5 95.5505 166.5H97.9505C102.431 166.5 104.671 166.5 106.382 167.372C107.888 168.139 109.112 169.363 109.879 170.868C110.75 172.579 110.75 174.82 110.75 179.3V188.25H82.7505V179.3Z" fill="#E46666"/>
<rect x="82.7505" y="188.25" width="28" height="21.75" fill="#E46666"/>
<rect x="82.7505" y="210" width="28" height="21.75" fill="#F09393"/>
<path d="M82.7505 231.75H110.75V240.7C110.75 245.18 110.75 247.421 109.879 249.132C109.112 250.637 107.888 251.861 106.382 252.628C104.671 253.5 102.431 253.5 97.9505 253.5H95.5505C91.0701 253.5 88.8299 253.5 87.1186 252.628C85.6133 251.861 84.3894 250.637 83.6224 249.132C82.7505 247.421 82.7505 245.18 82.7505 240.7V231.75Z" fill="#F7CCCC"/>
<path d="M137.25 114.05C137.25 109.57 137.25 107.329 138.122 105.618C138.889 104.113 140.113 102.889 141.619 102.122C143.33 101.25 145.57 101.25 150.05 101.25H152.45C156.931 101.25 159.171 101.25 160.882 102.122C162.388 102.889 163.612 104.113 164.379 105.618C165.25 107.329 165.25 109.57 165.25 114.05V123H137.25V114.05Z" fill="#E46666"/>
<rect x="137.25" y="123" width="28" height="21.75" fill="#E46666"/>
<rect x="137.25" y="144.75" width="28" height="21.75" fill="#E46666"/>
<rect x="137.25" y="166.5" width="28" height="21.75" fill="#E46666"/>
<rect x="137.25" y="188.25" width="28" height="21.75" fill="#F09393"/>
<rect x="137.25" y="210" width="28" height="21.75" fill="#F09393"/>
<path d="M137.25 231.75H165.25V240.7C165.25 245.18 165.25 247.421 164.379 249.132C163.612 250.637 162.388 251.861 160.882 252.628C159.171 253.5 156.931 253.5 152.45 253.5H150.05C145.57 253.5 143.33 253.5 141.619 252.628C140.113 251.861 138.889 250.637 138.122 249.132C137.25 247.421 137.25 245.18 137.25 240.7V231.75Z" fill="#F7CCCC"/>
<path d="M191.75 201.05C191.75 196.57 191.75 194.329 192.622 192.618C193.389 191.113 194.613 189.889 196.119 189.122C197.83 188.25 200.07 188.25 204.55 188.25H206.95C211.431 188.25 213.671 188.25 215.382 189.122C216.888 189.889 218.112 191.113 218.879 192.618C219.75 194.329 219.75 196.57 219.75 201.05V210H191.75V201.05Z" fill="#E46666"/>
<rect x="191.75" y="210" width="28" height="21.75" fill="#F09393"/>
<path d="M191.75 231.75H219.75V240.7C219.75 245.18 219.75 247.421 218.879 249.132C218.112 250.637 216.888 251.861 215.382 252.628C213.671 253.5 211.431 253.5 206.95 253.5H204.55C200.07 253.5 197.83 253.5 196.119 252.628C194.613 251.861 193.389 250.637 192.622 249.132C191.75 247.421 191.75 245.18 191.75 240.7V231.75Z" fill="#F7CCCC"/>
<path d="M246.25 157.55C246.25 153.07 246.25 150.829 247.122 149.118C247.889 147.613 249.113 146.389 250.619 145.622C252.33 144.75 254.57 144.75 259.05 144.75H261.45C265.931 144.75 268.171 144.75 269.882 145.622C271.388 146.389 272.612 147.613 273.379 149.118C274.25 150.829 274.25 153.07 274.25 157.55V166.5H246.25V157.55Z" fill="#E46666"/>
<rect x="246.25" y="166.5" width="28" height="21.75" fill="#F09393"/>
<rect x="246.25" y="188.25" width="28" height="21.75" fill="#F09393"/>
<rect x="246.25" y="210" width="28" height="21.75" fill="#F09393"/>
<path d="M246.25 231.75H274.25V240.7C274.25 245.18 274.25 247.421 273.379 249.132C272.612 250.637 271.388 251.861 269.882 252.628C268.171 253.5 265.931 253.5 261.45 253.5H259.05C254.57 253.5 252.33 253.5 250.619 252.628C249.113 251.861 247.889 250.637 247.122 249.132C246.25 247.421 246.25 245.18 246.25 240.7V231.75Z" fill="#F7CCCC"/>
<path d="M300.75 135.8C300.75 131.32 300.75 129.079 301.622 127.368C302.389 125.863 303.613 124.639 305.119 123.872C306.83 123 309.07 123 313.55 123H315.95C320.431 123 322.671 123 324.382 123.872C325.888 124.639 327.112 125.863 327.879 127.368C328.75 129.079 328.75 131.32 328.75 135.8V144.75H300.75V135.8Z" fill="#E46666"/>
<rect x="300.75" y="144.75" width="28" height="21.75" fill="#E46666"/>
<rect x="300.75" y="166.5" width="28" height="21.75" fill="#F09393"/>
<rect x="300.75" y="188.25" width="28" height="21.75" fill="#F09393"/>
<rect x="300.75" y="210" width="28" height="21.75" fill="#F09393"/>
<path d="M300.75 231.75H328.75V240.7C328.75 245.18 328.75 247.421 327.879 249.132C327.112 250.637 325.888 251.861 324.382 252.628C322.671 253.5 320.431 253.5 315.95 253.5H313.55C309.07 253.5 306.83 253.5 305.119 252.628C303.613 251.861 302.389 250.637 301.622 249.132C300.75 247.421 300.75 245.18 300.75 240.7V231.75Z" fill="#F7CCCC"/>
<path d="M355.25 92.3001C355.25 87.8196 355.25 85.5794 356.122 83.8681C356.889 82.3628 358.113 81.139 359.619 80.372C361.33 79.5001 363.57 79.5001 368.05 79.5001H370.45C374.931 79.5001 377.171 79.5001 378.882 80.372C380.388 81.139 381.612 82.3628 382.379 83.8681C383.25 85.5794 383.25 87.8196 383.25 92.3001V101.25H355.25V92.3001Z" fill="#E46666"/>
<rect x="355.25" y="101.25" width="28" height="21.75" fill="#E46666"/>
<rect x="355.25" y="123" width="28" height="21.75" fill="#E46666"/>
<rect x="355.25" y="144.75" width="28" height="21.75" fill="#E46666"/>
<rect x="355.25" y="166.5" width="28" height="21.75" fill="#F09393"/>
<rect x="355.25" y="188.25" width="28" height="21.75" fill="#F09393"/>
<rect x="355.25" y="210" width="28" height="21.75" fill="#F09393"/>
<path d="M355.25 231.75H383.25V240.7C383.25 245.18 383.25 247.421 382.379 249.132C381.612 250.637 380.388 251.861 378.882 252.628C377.171 253.5 374.931 253.5 370.45 253.5H368.05C363.57 253.5 361.33 253.5 359.619 252.628C358.113 251.861 356.889 250.637 356.122 249.132C355.25 247.421 355.25 245.18 355.25 240.7V231.75Z" fill="#F7CCCC"/>
<path d="M409.75 179.3C409.75 174.82 409.75 172.579 410.622 170.868C411.389 169.363 412.613 168.139 414.119 167.372C415.83 166.5 418.07 166.5 422.55 166.5H424.95C429.431 166.5 431.671 166.5 433.382 167.372C434.888 168.139 436.112 169.363 436.879 170.868C437.75 172.579 437.75 174.82 437.75 179.3V188.25H409.75V179.3Z" fill="#E46666"/>
<rect x="409.75" y="188.25" width="28" height="21.75" fill="#E46666"/>
<rect x="409.75" y="210" width="28" height="21.75" fill="#F09393"/>
<path d="M409.75 231.75H437.75V240.7C437.75 245.18 437.75 247.421 436.879 249.132C436.112 250.637 434.888 251.861 433.382 252.628C431.671 253.5 429.431 253.5 424.95 253.5H422.55C418.07 253.5 415.83 253.5 414.119 252.628C412.613 251.861 411.389 250.637 410.622 249.132C409.75 247.421 409.75 245.18 409.75 240.7V231.75Z" fill="#F7CCCC"/>
<path d="M464.25 201.05C464.25 196.57 464.25 194.329 465.122 192.618C465.889 191.113 467.113 189.889 468.619 189.122C470.33 188.25 472.57 188.25 477.05 188.25H479.45C483.931 188.25 486.171 188.25 487.882 189.122C489.388 189.889 490.612 191.113 491.379 192.618C492.25 194.329 492.25 196.57 492.25 201.05V210H464.25V201.05Z" fill="#E46666"/>
<rect x="464.25" y="210" width="28" height="21.75" fill="#F09393"/>
<path d="M464.25 231.75H492.25V240.7C492.25 245.18 492.25 247.421 491.379 249.132C490.612 250.637 489.388 251.861 487.882 252.628C486.171 253.5 483.931 253.5 479.45 253.5H477.05C472.57 253.5 470.33 253.5 468.619 252.628C467.113 251.861 465.889 250.637 465.122 249.132C464.25 247.421 464.25 245.18 464.25 240.7V231.75Z" fill="#F7CCCC"/>
<path d="M518.75 135.8C518.75 131.32 518.75 129.079 519.622 127.368C520.389 125.863 521.613 124.639 523.119 123.872C524.83 123 527.07 123 531.55 123H533.95C538.431 123 540.671 123 542.382 123.872C543.888 124.639 545.112 125.863 545.879 127.368C546.75 129.079 546.75 131.32 546.75 135.8V144.75H518.75V135.8Z" fill="#E46666"/>
<rect x="518.75" y="144.75" width="28" height="21.75" fill="#E46666"/>
<rect x="518.75" y="166.5" width="28" height="21.75" fill="#E46666"/>
<rect x="518.75" y="188.25" width="28" height="21.75" fill="#F09393"/>
<rect x="518.75" y="210" width="28" height="21.75" fill="#F09393"/>
<path d="M518.75 231.75H546.75V240.7C546.75 245.18 546.75 247.421 545.879 249.132C545.112 250.637 543.888 251.861 542.382 252.628C540.671 253.5 538.431 253.5 533.95 253.5H531.55C527.07 253.5 524.83 253.5 523.119 252.628C521.613 251.861 520.389 250.637 519.622 249.132C518.75 247.421 518.75 245.18 518.75 240.7V231.75Z" fill="#F7CCCC"/>
<path d="M87.2194 294.5V285.773H92.4865V286.71H88.2762V289.659H92.2137V290.597H88.2762V293.563H92.5546V294.5H87.2194ZM95.2606 290.563V294.5H94.2549V287.955H95.2265V288.977H95.3117C95.4652 288.645 95.6981 288.378 96.0106 288.176C96.3231 287.972 96.7265 287.869 97.2208 287.869C97.664 287.869 98.0518 287.96 98.3842 288.142C98.7166 288.321 98.9751 288.594 99.1598 288.96C99.3444 289.324 99.4367 289.784 99.4367 290.341V294.5H98.4311V290.409C98.4311 289.895 98.2975 289.494 98.0305 289.207C97.7635 288.918 97.397 288.773 96.9311 288.773C96.61 288.773 96.3231 288.842 96.0703 288.982C95.8203 289.121 95.6228 289.324 95.4779 289.591C95.3331 289.858 95.2606 290.182 95.2606 290.563ZM104.019 294.636C103.388 294.636 102.844 294.497 102.387 294.219C101.932 293.938 101.581 293.546 101.334 293.043C101.09 292.537 100.968 291.949 100.968 291.278C100.968 290.608 101.09 290.017 101.334 289.506C101.581 288.992 101.925 288.591 102.365 288.304C102.809 288.014 103.326 287.869 103.917 287.869C104.257 287.869 104.594 287.926 104.926 288.04C105.259 288.153 105.561 288.338 105.834 288.594C106.107 288.847 106.324 289.182 106.486 289.599C106.648 290.017 106.729 290.531 106.729 291.142V291.568H101.684V290.699H105.706C105.706 290.33 105.632 290 105.485 289.71C105.34 289.421 105.132 289.192 104.863 289.024C104.595 288.857 104.28 288.773 103.917 288.773C103.516 288.773 103.169 288.872 102.877 289.071C102.587 289.267 102.364 289.523 102.208 289.838C102.051 290.153 101.973 290.492 101.973 290.852V291.432C101.973 291.926 102.059 292.345 102.229 292.689C102.402 293.03 102.642 293.29 102.949 293.469C103.256 293.645 103.613 293.733 104.019 293.733C104.283 293.733 104.522 293.696 104.735 293.622C104.951 293.546 105.137 293.432 105.293 293.281C105.449 293.128 105.57 292.938 105.655 292.71L106.627 292.983C106.524 293.313 106.353 293.602 106.111 293.852C105.87 294.099 105.571 294.293 105.216 294.432C104.861 294.568 104.462 294.636 104.019 294.636Z" fill="#9F9F9F"/>
<path d="M141.807 294.5V285.773H147.04V286.71H142.864V289.659H146.648V290.597H142.864V294.5H141.807ZM150.978 294.636C150.347 294.636 149.803 294.497 149.346 294.219C148.891 293.938 148.54 293.546 148.293 293.043C148.049 292.537 147.927 291.949 147.927 291.278C147.927 290.608 148.049 290.017 148.293 289.506C148.54 288.992 148.884 288.591 149.324 288.304C149.768 288.014 150.285 287.869 150.875 287.869C151.216 287.869 151.553 287.926 151.885 288.04C152.218 288.153 152.52 288.338 152.793 288.594C153.066 288.847 153.283 289.182 153.445 289.599C153.607 290.017 153.688 290.531 153.688 291.142V291.568H148.643V290.699H152.665C152.665 290.33 152.591 290 152.444 289.71C152.299 289.421 152.091 289.192 151.822 289.024C151.554 288.857 151.239 288.773 150.875 288.773C150.475 288.773 150.128 288.872 149.836 289.071C149.546 289.267 149.323 289.523 149.167 289.838C149.01 290.153 148.932 290.492 148.932 290.852V291.432C148.932 291.926 149.018 292.345 149.188 292.689C149.361 293.03 149.601 293.29 149.908 293.469C150.215 293.645 150.572 293.733 150.978 293.733C151.242 293.733 151.481 293.696 151.694 293.622C151.91 293.546 152.096 293.432 152.252 293.281C152.408 293.128 152.529 292.938 152.614 292.71L153.586 292.983C153.483 293.313 153.312 293.602 153.07 293.852C152.829 294.099 152.53 294.293 152.175 294.432C151.82 294.568 151.421 294.636 150.978 294.636ZM155.354 294.5V285.773H156.36V288.994H156.445C156.519 288.881 156.621 288.736 156.752 288.56C156.885 288.381 157.076 288.222 157.323 288.082C157.573 287.94 157.911 287.869 158.337 287.869C158.888 287.869 159.374 288.007 159.795 288.283C160.215 288.558 160.543 288.949 160.779 289.455C161.015 289.96 161.133 290.557 161.133 291.244C161.133 291.938 161.015 292.538 160.779 293.047C160.543 293.553 160.216 293.945 159.799 294.223C159.381 294.499 158.9 294.636 158.354 294.636C157.934 294.636 157.597 294.567 157.344 294.428C157.091 294.286 156.897 294.125 156.76 293.946C156.624 293.764 156.519 293.614 156.445 293.494H156.326V294.5H155.354ZM156.343 291.227C156.343 291.722 156.415 292.158 156.56 292.536C156.705 292.911 156.917 293.205 157.195 293.418C157.473 293.628 157.814 293.733 158.218 293.733C158.638 293.733 158.989 293.622 159.27 293.401C159.554 293.176 159.768 292.875 159.91 292.497C160.054 292.117 160.127 291.693 160.127 291.227C160.127 290.767 160.056 290.352 159.914 289.983C159.775 289.611 159.563 289.317 159.279 289.101C158.998 288.882 158.644 288.773 158.218 288.773C157.809 288.773 157.465 288.876 157.187 289.084C156.908 289.288 156.698 289.575 156.556 289.945C156.414 290.311 156.343 290.739 156.343 291.227Z" fill="#9F9F9F"/>
<path d="M195.51 285.773H196.772L199.738 293.017H199.84L202.806 285.773H204.067V294.5H203.079V287.869H202.993L200.266 294.5H199.312L196.584 287.869H196.499V294.5H195.51V285.773ZM208.521 294.636C207.976 294.636 207.494 294.499 207.077 294.223C206.659 293.945 206.333 293.553 206.097 293.047C205.861 292.538 205.743 291.938 205.743 291.244C205.743 290.557 205.861 289.96 206.097 289.455C206.333 288.949 206.661 288.558 207.081 288.283C207.502 288.007 207.987 287.869 208.538 287.869C208.965 287.869 209.301 287.94 209.548 288.082C209.798 288.222 209.989 288.381 210.119 288.56C210.253 288.736 210.357 288.881 210.431 288.994H210.516V287.955H211.521V294.5H210.55V293.494H210.431C210.357 293.614 210.252 293.764 210.115 293.946C209.979 294.125 209.784 294.286 209.531 294.428C209.279 294.567 208.942 294.636 208.521 294.636ZM208.658 293.733C209.061 293.733 209.402 293.628 209.681 293.418C209.959 293.205 210.171 292.911 210.315 292.536C210.46 292.158 210.533 291.722 210.533 291.227C210.533 290.739 210.462 290.311 210.32 289.945C210.178 289.575 209.967 289.288 209.689 289.084C209.411 288.876 209.067 288.773 208.658 288.773C208.232 288.773 207.877 288.882 207.592 289.101C207.311 289.317 207.1 289.611 206.958 289.983C206.818 290.352 206.749 290.767 206.749 291.227C206.749 291.693 206.82 292.117 206.962 292.497C207.107 292.875 207.32 293.176 207.601 293.401C207.885 293.622 208.237 293.733 208.658 293.733ZM213.503 294.5V287.955H214.475V288.943H214.543C214.662 288.619 214.878 288.357 215.19 288.155C215.503 287.953 215.855 287.852 216.247 287.852C216.321 287.852 216.413 287.854 216.524 287.857C216.635 287.859 216.719 287.864 216.776 287.869V288.892C216.742 288.884 216.663 288.871 216.541 288.854C216.422 288.834 216.296 288.824 216.162 288.824C215.844 288.824 215.56 288.891 215.31 289.024C215.063 289.155 214.867 289.337 214.722 289.57C214.58 289.8 214.509 290.063 214.509 290.358V294.5H213.503Z" fill="#9F9F9F"/>
<path d="M251.652 294.5H250.544L253.748 285.773H254.839L258.044 294.5H256.936L254.328 287.153H254.26L251.652 294.5ZM252.061 291.091H256.527V292.028H252.061V291.091ZM259.403 294.5V285.773H260.409V288.994H260.494C260.568 288.881 260.67 288.736 260.801 288.56C260.934 288.381 261.125 288.222 261.372 288.082C261.622 287.94 261.96 287.869 262.386 287.869C262.937 287.869 263.423 288.007 263.843 288.283C264.264 288.558 264.592 288.949 264.828 289.455C265.064 289.96 265.181 290.557 265.181 291.244C265.181 291.938 265.064 292.538 264.828 293.047C264.592 293.553 264.265 293.945 263.848 294.223C263.43 294.499 262.948 294.636 262.403 294.636C261.983 294.636 261.646 294.567 261.393 294.428C261.14 294.286 260.946 294.125 260.809 293.946C260.673 293.764 260.568 293.614 260.494 293.494H260.375V294.5H259.403ZM260.392 291.227C260.392 291.722 260.464 292.158 260.609 292.536C260.754 292.911 260.966 293.205 261.244 293.418C261.522 293.628 261.863 293.733 262.267 293.733C262.687 293.733 263.038 293.622 263.319 293.401C263.603 293.176 263.816 292.875 263.958 292.497C264.103 292.117 264.176 291.693 264.176 291.227C264.176 290.767 264.105 290.352 263.963 289.983C263.823 289.611 263.612 289.317 263.328 289.101C263.046 288.882 262.693 288.773 262.267 288.773C261.858 288.773 261.514 288.876 261.235 289.084C260.957 289.288 260.747 289.575 260.605 289.945C260.463 290.311 260.392 290.739 260.392 291.227ZM266.72 294.5V287.955H267.691V288.943H267.76C267.879 288.619 268.095 288.357 268.407 288.155C268.72 287.953 269.072 287.852 269.464 287.852C269.538 287.852 269.63 287.854 269.741 287.857C269.852 287.859 269.936 287.864 269.992 287.869V288.892C269.958 288.884 269.88 288.871 269.758 288.854C269.639 288.834 269.512 288.824 269.379 288.824C269.061 288.824 268.777 288.891 268.527 289.024C268.279 289.155 268.083 289.337 267.939 289.57C267.796 289.8 267.725 290.063 267.725 290.358V294.5H266.72Z" fill="#9F9F9F"/>
<path d="M303.403 285.773H304.664L307.63 293.017H307.733L310.698 285.773H311.96V294.5H310.971V287.869H310.886L308.159 294.5H307.204L304.477 287.869H304.392V294.5H303.403V285.773ZM316.414 294.636C315.869 294.636 315.387 294.499 314.969 294.223C314.552 293.945 314.225 293.553 313.989 293.047C313.754 292.538 313.636 291.938 313.636 291.244C313.636 290.557 313.754 289.96 313.989 289.455C314.225 288.949 314.553 288.558 314.974 288.283C315.394 288.007 315.88 287.869 316.431 287.869C316.857 287.869 317.194 287.94 317.441 288.082C317.691 288.222 317.881 288.381 318.012 288.56C318.146 288.736 318.249 288.881 318.323 288.994H318.408V287.955H319.414V294.5H318.442V293.494H318.323C318.249 293.614 318.144 293.764 318.008 293.946C317.871 294.125 317.677 294.286 317.424 294.428C317.171 294.567 316.834 294.636 316.414 294.636ZM316.55 293.733C316.954 293.733 317.295 293.628 317.573 293.418C317.852 293.205 318.063 292.911 318.208 292.536C318.353 292.158 318.425 291.722 318.425 291.227C318.425 290.739 318.354 290.311 318.212 289.945C318.07 289.575 317.86 289.288 317.582 289.084C317.303 288.876 316.959 288.773 316.55 288.773C316.124 288.773 315.769 288.882 315.485 289.101C315.204 289.317 314.992 289.611 314.85 289.983C314.711 290.352 314.641 290.767 314.641 291.227C314.641 291.693 314.712 292.117 314.854 292.497C314.999 292.875 315.212 293.176 315.494 293.401C315.778 293.622 316.13 293.733 316.55 293.733ZM322.043 296.955C321.873 296.955 321.721 296.94 321.587 296.912C321.454 296.886 321.361 296.861 321.31 296.835L321.566 295.949C321.81 296.011 322.026 296.034 322.214 296.017C322.401 296 322.567 295.916 322.712 295.766C322.86 295.618 322.995 295.378 323.117 295.046L323.305 294.534L320.884 287.955H321.975L323.782 293.171H323.85L325.657 287.955H326.748L323.969 295.455C323.844 295.793 323.69 296.073 323.505 296.294C323.32 296.519 323.106 296.685 322.861 296.793C322.62 296.901 322.347 296.955 322.043 296.955Z" fill="#9F9F9F"/>
<path d="M363.394 285.773H364.451V292.011C364.451 292.568 364.349 293.041 364.144 293.43C363.94 293.82 363.651 294.115 363.279 294.317C362.907 294.519 362.468 294.619 361.962 294.619C361.485 294.619 361.061 294.533 360.688 294.359C360.316 294.183 360.024 293.933 359.811 293.609C359.597 293.286 359.491 292.901 359.491 292.455H360.531C360.531 292.702 360.592 292.918 360.714 293.102C360.839 293.284 361.009 293.426 361.225 293.528C361.441 293.631 361.687 293.682 361.962 293.682C362.266 293.682 362.525 293.618 362.738 293.49C362.951 293.362 363.113 293.175 363.224 292.928C363.337 292.678 363.394 292.372 363.394 292.011V285.773ZM370.558 291.824V287.955H371.563V294.5H370.558V293.392H370.489C370.336 293.724 370.097 294.007 369.774 294.24C369.45 294.47 369.041 294.585 368.546 294.585C368.137 294.585 367.774 294.496 367.455 294.317C367.137 294.135 366.887 293.862 366.705 293.499C366.524 293.132 366.433 292.671 366.433 292.114V287.955H367.438V292.046C367.438 292.523 367.572 292.903 367.839 293.188C368.109 293.472 368.453 293.614 368.87 293.614C369.12 293.614 369.374 293.55 369.633 293.422C369.894 293.294 370.113 293.098 370.289 292.834C370.468 292.57 370.558 292.233 370.558 291.824ZM374.411 290.563V294.5H373.405V287.955H374.377V288.977H374.462C374.616 288.645 374.848 288.378 375.161 288.176C375.473 287.972 375.877 287.869 376.371 287.869C376.814 287.869 377.202 287.96 377.535 288.142C377.867 288.321 378.125 288.594 378.31 288.96C378.495 289.324 378.587 289.784 378.587 290.341V294.5H377.581V290.409C377.581 289.895 377.448 289.494 377.181 289.207C376.914 288.918 376.547 288.773 376.081 288.773C375.76 288.773 375.473 288.842 375.221 288.982C374.971 289.121 374.773 289.324 374.628 289.591C374.483 289.858 374.411 290.182 374.411 290.563Z" fill="#9F9F9F"/>
<path d="M419.98 285.773H421.037V292.011C421.037 292.568 420.935 293.041 420.73 293.43C420.526 293.82 420.237 294.115 419.865 294.317C419.493 294.519 419.054 294.619 418.548 294.619C418.071 294.619 417.646 294.533 417.274 294.359C416.902 294.183 416.61 293.933 416.396 293.609C416.183 293.286 416.077 292.901 416.077 292.455H417.117C417.117 292.702 417.178 292.918 417.3 293.102C417.425 293.284 417.595 293.426 417.811 293.528C418.027 293.631 418.273 293.682 418.548 293.682C418.852 293.682 419.111 293.618 419.324 293.49C419.537 293.362 419.699 293.175 419.81 292.928C419.923 292.678 419.98 292.372 419.98 292.011V285.773ZM427.144 291.824V287.955H428.149V294.5H427.144V293.392H427.075C426.922 293.724 426.683 294.007 426.36 294.24C426.036 294.47 425.627 294.585 425.132 294.585C424.723 294.585 424.36 294.496 424.041 294.317C423.723 294.135 423.473 293.862 423.291 293.499C423.11 293.132 423.019 292.671 423.019 292.114V287.955H424.024V292.046C424.024 292.523 424.158 292.903 424.425 293.188C424.695 293.472 425.038 293.614 425.456 293.614C425.706 293.614 425.96 293.55 426.219 293.422C426.48 293.294 426.699 293.098 426.875 292.834C427.054 292.57 427.144 292.233 427.144 291.824ZM430.997 285.773V294.5H429.991V285.773H430.997Z" fill="#9F9F9F"/>
<path d="M468.374 294.5H467.266L470.471 285.773H471.562L474.766 294.5H473.658L471.05 287.153H470.982L468.374 294.5ZM468.783 291.091H473.249V292.028H468.783V291.091ZM478.631 297.091C478.146 297.091 477.728 297.028 477.379 296.903C477.029 296.781 476.738 296.619 476.505 296.418C476.275 296.219 476.092 296.006 475.955 295.778L476.756 295.216C476.847 295.335 476.962 295.472 477.102 295.625C477.241 295.781 477.431 295.916 477.673 296.03C477.917 296.146 478.236 296.205 478.631 296.205C479.16 296.205 479.596 296.077 479.94 295.821C480.283 295.565 480.455 295.165 480.455 294.619V293.29H480.37C480.296 293.409 480.191 293.557 480.055 293.733C479.921 293.906 479.728 294.061 479.475 294.198C479.225 294.331 478.887 294.398 478.461 294.398C477.932 294.398 477.458 294.273 477.038 294.023C476.62 293.773 476.289 293.409 476.045 292.932C475.803 292.455 475.682 291.875 475.682 291.193C475.682 290.523 475.8 289.939 476.036 289.442C476.272 288.942 476.6 288.555 477.021 288.283C477.441 288.007 477.927 287.869 478.478 287.869C478.904 287.869 479.242 287.94 479.492 288.082C479.745 288.222 479.938 288.381 480.072 288.56C480.208 288.736 480.313 288.881 480.387 288.994H480.489V287.955H481.461V294.688C481.461 295.25 481.333 295.707 481.077 296.06C480.825 296.415 480.484 296.675 480.055 296.84C479.629 297.007 479.154 297.091 478.631 297.091ZM478.597 293.494C479.001 293.494 479.342 293.402 479.62 293.217C479.898 293.033 480.11 292.767 480.255 292.421C480.4 292.074 480.472 291.659 480.472 291.176C480.472 290.705 480.401 290.288 480.259 289.928C480.117 289.567 479.907 289.284 479.629 289.08C479.35 288.875 479.006 288.773 478.597 288.773C478.171 288.773 477.816 288.881 477.532 289.097C477.251 289.313 477.039 289.602 476.897 289.966C476.758 290.33 476.688 290.733 476.688 291.176C476.688 291.631 476.759 292.033 476.901 292.382C477.046 292.729 477.259 293.001 477.54 293.2C477.825 293.396 478.177 293.494 478.597 293.494ZM485.961 294.636C485.37 294.636 484.852 294.496 484.405 294.215C483.962 293.933 483.616 293.54 483.366 293.034C483.119 292.528 482.995 291.938 482.995 291.261C482.995 290.58 483.119 289.984 483.366 289.476C483.616 288.967 483.962 288.573 484.405 288.291C484.852 288.01 485.37 287.869 485.961 287.869C486.552 287.869 487.069 288.01 487.512 288.291C487.958 288.573 488.305 288.967 488.552 289.476C488.802 289.984 488.927 290.58 488.927 291.261C488.927 291.938 488.802 292.528 488.552 293.034C488.305 293.54 487.958 293.933 487.512 294.215C487.069 294.496 486.552 294.636 485.961 294.636ZM485.961 293.733C486.41 293.733 486.779 293.618 487.069 293.388C487.359 293.158 487.573 292.855 487.712 292.48C487.852 292.105 487.921 291.699 487.921 291.261C487.921 290.824 487.852 290.416 487.712 290.038C487.573 289.661 487.359 289.355 487.069 289.122C486.779 288.889 486.41 288.773 485.961 288.773C485.512 288.773 485.143 288.889 484.853 289.122C484.563 289.355 484.349 289.661 484.209 290.038C484.07 290.416 484.001 290.824 484.001 291.261C484.001 291.699 484.07 292.105 484.209 292.48C484.349 292.855 484.563 293.158 484.853 293.388C485.143 293.618 485.512 293.733 485.961 293.733Z" fill="#9F9F9F"/>
<path d="M527.605 287.955C527.554 287.523 527.347 287.188 526.983 286.949C526.62 286.71 526.174 286.591 525.645 286.591C525.259 286.591 524.921 286.653 524.631 286.778C524.344 286.903 524.12 287.075 523.958 287.294C523.799 287.513 523.719 287.761 523.719 288.04C523.719 288.273 523.774 288.473 523.885 288.641C523.999 288.805 524.144 288.943 524.32 289.054C524.496 289.162 524.681 289.251 524.874 289.323C525.067 289.391 525.245 289.446 525.407 289.489L526.293 289.727C526.52 289.787 526.773 289.869 527.051 289.974C527.333 290.08 527.601 290.223 527.857 290.405C528.115 290.584 528.328 290.814 528.496 291.095C528.664 291.376 528.747 291.722 528.747 292.131C528.747 292.602 528.624 293.028 528.377 293.409C528.132 293.79 527.774 294.092 527.303 294.317C526.834 294.541 526.265 294.653 525.594 294.653C524.969 294.653 524.428 294.553 523.97 294.351C523.516 294.149 523.158 293.868 522.897 293.507C522.638 293.146 522.492 292.727 522.458 292.25H523.549C523.577 292.58 523.688 292.852 523.881 293.068C524.077 293.281 524.324 293.44 524.622 293.546C524.924 293.648 525.247 293.699 525.594 293.699C525.997 293.699 526.36 293.634 526.681 293.503C527.002 293.369 527.256 293.185 527.443 292.949C527.631 292.71 527.725 292.432 527.725 292.114C527.725 291.824 527.644 291.588 527.482 291.406C527.32 291.224 527.107 291.077 526.843 290.963C526.578 290.849 526.293 290.75 525.986 290.665L524.912 290.358C524.23 290.162 523.691 289.882 523.293 289.519C522.895 289.155 522.696 288.679 522.696 288.091C522.696 287.602 522.828 287.176 523.093 286.813C523.36 286.446 523.718 286.162 524.167 285.96C524.618 285.756 525.122 285.653 525.679 285.653C526.242 285.653 526.742 285.754 527.179 285.956C527.617 286.155 527.963 286.428 528.219 286.774C528.478 287.121 528.614 287.514 528.628 287.955H527.605ZM533.093 294.636C532.462 294.636 531.918 294.497 531.461 294.219C531.006 293.938 530.655 293.546 530.408 293.043C530.164 292.537 530.042 291.949 530.042 291.278C530.042 290.608 530.164 290.017 530.408 289.506C530.655 288.992 530.999 288.591 531.44 288.304C531.883 288.014 532.4 287.869 532.991 287.869C533.332 287.869 533.668 287.926 534.001 288.04C534.333 288.153 534.636 288.338 534.908 288.594C535.181 288.847 535.398 289.182 535.56 289.599C535.722 290.017 535.803 290.531 535.803 291.142V291.568H530.758V290.699H534.78C534.78 290.33 534.707 290 534.559 289.71C534.414 289.421 534.207 289.192 533.937 289.024C533.67 288.857 533.354 288.773 532.991 288.773C532.59 288.773 532.244 288.872 531.951 289.071C531.661 289.267 531.438 289.523 531.282 289.838C531.126 290.153 531.048 290.492 531.048 290.852V291.432C531.048 291.926 531.133 292.345 531.303 292.689C531.477 293.03 531.717 293.29 532.023 293.469C532.33 293.645 532.687 293.733 533.093 293.733C533.357 293.733 533.596 293.696 533.809 293.622C534.025 293.546 534.211 293.432 534.367 293.281C534.523 293.128 534.644 292.938 534.729 292.71L535.701 292.983C535.599 293.313 535.427 293.602 535.185 293.852C534.944 294.099 534.646 294.293 534.29 294.432C533.935 294.568 533.536 294.636 533.093 294.636ZM537.333 296.955V287.955H538.305V288.994H538.424C538.498 288.881 538.6 288.736 538.731 288.56C538.864 288.381 539.055 288.222 539.302 288.082C539.552 287.94 539.89 287.869 540.316 287.869C540.867 287.869 541.353 288.007 541.773 288.283C542.194 288.558 542.522 288.949 542.758 289.455C542.994 289.96 543.111 290.557 543.111 291.244C543.111 291.938 542.994 292.538 542.758 293.047C542.522 293.553 542.195 293.945 541.778 294.223C541.36 294.499 540.879 294.636 540.333 294.636C539.913 294.636 539.576 294.567 539.323 294.428C539.07 294.286 538.876 294.125 538.739 293.946C538.603 293.764 538.498 293.614 538.424 293.494H538.339V296.955H537.333ZM538.322 291.227C538.322 291.722 538.394 292.158 538.539 292.536C538.684 292.911 538.896 293.205 539.174 293.418C539.452 293.628 539.793 293.733 540.197 293.733C540.617 293.733 540.968 293.622 541.249 293.401C541.533 293.176 541.746 292.875 541.888 292.497C542.033 292.117 542.106 291.693 542.106 291.227C542.106 290.767 542.035 290.352 541.893 289.983C541.754 289.611 541.542 289.317 541.258 289.101C540.977 288.882 540.623 288.773 540.197 288.773C539.788 288.773 539.444 288.876 539.165 289.084C538.887 289.288 538.677 289.575 538.535 289.945C538.393 290.311 538.322 290.739 538.322 291.227Z" fill="#9F9F9F"/>
</g>
<defs>
<filter id="filter0_d_3055_32848" x="0.500488" y="0.500061" width="596.5" height="324" filterUnits="userSpaceOnUse" color-interpolation-filters="sRGB">
<feFlood flood-opacity="0" result="BackgroundImageFix"/>
<feColorMatrix in="SourceAlpha" type="matrix" values="0 0 0 0 0 0 0 0 0 0 0 0 0 0 0 0 0 0 127 0" result="hardAlpha"/>
<feOffset dx="3" dy="5"/>
<feGaussianBlur stdDeviation="5"/>
<feColorMatrix type="matrix" values="0 0 0 0 0 0 0 0 0 0 0 0 0 0 0 0 0 0 0.3 0"/>
<feBlend mode="normal" in2="BackgroundImageFix" result="effect1_dropShadow_3055_32848"/>
<feBlend mode="normal" in="SourceGraphic" in2="effect1_dropShadow_3055_32848" result="shape"/>
</filter>
<clipPath id="clip0_3055_32848">
<path d="M478 33.5001C478 31.2909 479.791 29.5001 482 29.5001H552C554.21 29.5001 556 31.2909 556 33.5001V63.5001H478V33.5001Z" fill="white"/>
</clipPath>
</defs>
</svg>
