<svg width="394" height="196" viewBox="0 0 394 196" fill="none" xmlns="http://www.w3.org/2000/svg">
<g filter="url(#filter0_d_3055_32772)">
<rect x="7.00049" y="4.50006" width="375" height="178" rx="14" fill="#F8F8F8"/>
<path d="M21.0005 47.5001C21.0005 31.4838 33.9842 18.5001 50.0005 18.5001C66.0167 18.5001 79.0005 31.4838 79.0005 47.5001V49.5001C79.0005 65.5163 66.0167 78.5001 50.0005 78.5001C33.9842 78.5001 21.0005 65.5163 21.0005 49.5001V47.5001Z" fill="#E46666"/>
<g clip-path="url(#clip0_3055_32772)">
<path d="M40.5692 36.0313C40.7453 35.8255 40.9638 35.6603 41.2098 35.547C41.4558 35.4337 41.7234 35.375 41.9942 35.3751H58.0067C58.2776 35.375 58.5452 35.4337 58.7912 35.547C59.0372 35.6603 59.2557 35.8255 59.4317 36.0313L64.3236 41.7388C64.7604 42.2485 65.0005 42.8976 65.0005 43.5688V44.0469C65.0006 44.975 64.7107 45.8799 64.1714 46.6352C63.6321 47.3905 62.8702 47.9584 61.9924 48.2596C61.1145 48.5607 60.1645 48.5801 59.2751 48.3149C58.3857 48.0498 57.6014 47.5134 57.0317 46.7807C56.6158 47.3165 56.0827 47.75 55.4733 48.048C54.8639 48.3461 54.1945 48.5007 53.5161 48.5001C52.8378 48.5008 52.1682 48.3463 51.5588 48.0482C50.9494 47.7502 50.4164 47.3166 50.0005 46.7807C49.5846 47.3166 49.0515 47.7502 48.4421 48.0482C47.8328 48.3463 47.1632 48.5008 46.4849 48.5001C45.8065 48.5008 45.137 48.3463 44.5276 48.0482C43.9182 47.7502 43.3851 47.3166 42.9692 46.7807C42.3996 47.5134 41.6153 48.0498 40.7259 48.3149C39.8365 48.5801 38.8865 48.5607 38.0086 48.2596C37.1307 47.9584 36.3689 47.3905 35.8296 46.6352C35.2903 45.8799 35.0004 44.975 35.0005 44.0469V43.5688C35.0005 42.8976 35.2406 42.2485 35.6774 41.7388L40.5711 36.0294L40.5692 36.0313ZM43.9067 44.0469C43.9067 44.7307 44.1784 45.3865 44.6619 45.8699C45.1453 46.3534 45.8011 46.6251 46.4849 46.6251C47.1686 46.6251 47.8244 46.3534 48.3079 45.8699C48.7914 45.3865 49.063 44.7307 49.063 44.0469C49.063 43.7983 49.1618 43.5598 49.3376 43.384C49.5134 43.2082 49.7518 43.1094 50.0005 43.1094C50.2491 43.1094 50.4876 43.2082 50.6634 43.384C50.8392 43.5598 50.938 43.7983 50.938 44.0469C50.938 44.7307 51.2096 45.3865 51.6931 45.8699C52.1766 46.3534 52.8324 46.6251 53.5161 46.6251C54.1999 46.6251 54.8556 46.3534 55.3391 45.8699C55.8226 45.3865 56.0942 44.7307 56.0942 44.0469C56.0942 43.7983 56.193 43.5598 56.3688 43.384C56.5446 43.2082 56.7831 43.1094 57.0317 43.1094C57.2804 43.1094 57.5188 43.2082 57.6947 43.384C57.8705 43.5598 57.9692 43.7983 57.9692 44.0469C57.9692 44.7307 58.2409 45.3865 58.7244 45.8699C59.2078 46.3534 59.8636 46.6251 60.5474 46.6251C61.2311 46.6251 61.8869 46.3534 62.3704 45.8699C62.8539 45.3865 63.1255 44.7307 63.1255 44.0469V43.5688C63.1255 43.3454 63.0457 43.1293 62.9005 42.9594L58.0067 37.2501H41.9942L37.1005 42.9594C36.9553 43.1293 36.8755 43.3454 36.8755 43.5688V44.0469C36.8755 44.7307 37.1471 45.3865 37.6306 45.8699C38.1141 46.3534 38.7699 46.6251 39.4536 46.6251C40.1374 46.6251 40.7931 46.3534 41.2766 45.8699C41.7601 45.3865 42.0317 44.7307 42.0317 44.0469C42.0317 43.7983 42.1305 43.5598 42.3063 43.384C42.4821 43.2082 42.7206 43.1094 42.9692 43.1094C43.2179 43.1094 43.4563 43.2082 43.6322 43.384C43.808 43.5598 43.9067 43.7983 43.9067 44.0469ZM37.813 49.4376C38.0616 49.4376 38.3001 49.5363 38.4759 49.7121C38.6517 49.888 38.7505 50.1264 38.7505 50.3751V61.6251H61.2505V50.3751C61.2505 50.1264 61.3493 49.888 61.5251 49.7121C61.7009 49.5363 61.9393 49.4376 62.188 49.4376C62.4366 49.4376 62.6751 49.5363 62.8509 49.7121C63.0267 49.888 63.1255 50.1264 63.1255 50.3751V61.6251H64.063C64.3116 61.6251 64.5501 61.7238 64.7259 61.8996C64.9017 62.0755 65.0005 62.3139 65.0005 62.5626C65.0005 62.8112 64.9017 63.0497 64.7259 63.2255C64.5501 63.4013 64.3116 63.5001 64.063 63.5001H35.938C35.6893 63.5001 35.4509 63.4013 35.2751 63.2255C35.0993 63.0497 35.0005 62.8112 35.0005 62.5626C35.0005 62.3139 35.0993 62.0755 35.2751 61.8996C35.4509 61.7238 35.6893 61.6251 35.938 61.6251H36.8755V50.3751C36.8755 50.1264 36.9743 49.888 37.1501 49.7121C37.3259 49.5363 37.5643 49.4376 37.813 49.4376ZM41.563 50.3751C41.8116 50.3751 42.0501 50.4738 42.2259 50.6496C42.4017 50.8255 42.5005 51.0639 42.5005 51.3126V57.8751H57.5005V51.3126C57.5005 51.0639 57.5993 50.8255 57.7751 50.6496C57.9509 50.4738 58.1893 50.3751 58.438 50.3751C58.6866 50.3751 58.9251 50.4738 59.1009 50.6496C59.2767 50.8255 59.3755 51.0639 59.3755 51.3126V57.8751C59.3755 58.3723 59.1779 58.8493 58.8263 59.2009C58.4747 59.5525 57.9978 59.7501 57.5005 59.7501H42.5005C42.0032 59.7501 41.5263 59.5525 41.1747 59.2009C40.823 58.8493 40.6255 58.3723 40.6255 57.8751V51.3126C40.6255 51.0639 40.7243 50.8255 40.9001 50.6496C41.0759 50.4738 41.3143 50.3751 41.563 50.3751Z" fill="#F8F8F8"/>
</g>
<path d="M34.0552 112.164V111.461C34.0552 109.659 34.5135 108.281 35.4302 107.328C36.3521 106.375 37.5396 105.898 38.9927 105.898C40.3937 105.898 41.4979 106.271 42.3052 107.016C43.1177 107.755 43.5239 108.693 43.5239 109.828V109.992H41.4146V109.797C41.4146 109.104 41.2114 108.557 40.8052 108.156C40.4041 107.75 39.7948 107.547 38.9771 107.547C38.1541 107.547 37.4875 107.844 36.9771 108.438C36.4666 109.026 36.2114 109.971 36.2114 111.273V112.359C36.2114 113.563 36.464 114.484 36.9692 115.125C37.4744 115.76 38.1515 116.078 39.0005 116.078C39.7765 116.078 40.3599 115.87 40.7505 115.453C41.1411 115.031 41.3599 114.484 41.4067 113.813L41.4146 113.633H43.5239L43.5161 113.82C43.4484 114.935 43.0265 115.865 42.2505 116.609C41.4797 117.354 40.3937 117.727 38.9927 117.727C37.5343 117.727 36.3468 117.247 35.4302 116.289C34.5135 115.331 34.0552 113.956 34.0552 112.164ZM45.0942 117.5V105.555H47.1333V117.5H45.0942ZM49.3052 117.5V109.313H51.3442V117.5H49.3052ZM49.1177 106.953C49.1177 106.635 49.2218 106.37 49.4302 106.156C49.6385 105.943 49.938 105.836 50.3286 105.836C50.7192 105.836 51.0187 105.943 51.2271 106.156C51.4354 106.37 51.5396 106.635 51.5396 106.953C51.5396 107.271 51.4328 107.539 51.2192 107.758C51.0109 107.971 50.714 108.078 50.3286 108.078C49.938 108.078 49.6385 107.971 49.4302 107.758C49.2218 107.539 49.1177 107.271 49.1177 106.953ZM53.0317 113.531V113.281C53.0317 112.026 53.3989 111.013 54.1333 110.242C54.8677 109.466 55.8182 109.078 56.9849 109.078C58.1515 109.078 59.063 109.44 59.7192 110.164C60.3755 110.888 60.7036 111.88 60.7036 113.141V113.891H54.3677V112.547H58.688V112.375C58.688 111.875 58.5422 111.453 58.2505 111.109C57.9588 110.766 57.5422 110.594 57.0005 110.594C56.3599 110.594 55.8755 110.833 55.5474 111.313C55.2244 111.792 55.063 112.417 55.063 113.188V113.609C55.063 114.375 55.2375 114.997 55.5864 115.477C55.9354 115.956 56.4588 116.195 57.1567 116.195C57.6203 116.195 58.0187 116.086 58.3521 115.867C58.6906 115.648 58.964 115.393 59.1724 115.102L60.5864 116.047C60.326 116.51 59.8989 116.909 59.3052 117.242C58.7166 117.57 58.0083 117.734 57.1802 117.734C55.8729 117.734 54.8547 117.349 54.1255 116.578C53.3963 115.802 53.0317 114.787 53.0317 113.531ZM62.2661 117.5V109.313H64.1802L64.2349 110.281H64.2739C64.5135 109.948 64.8442 109.677 65.2661 109.469C65.688 109.255 66.1541 109.148 66.6646 109.148C67.5031 109.148 68.1802 109.385 68.6958 109.859C69.2114 110.333 69.4692 111.151 69.4692 112.313V117.5H67.438V112.281C67.438 111.724 67.3156 111.331 67.0708 111.102C66.826 110.867 66.4797 110.75 66.0317 110.75C65.6567 110.75 65.3156 110.854 65.0083 111.063C64.701 111.271 64.464 111.555 64.2974 111.914V117.5H62.2661ZM70.438 110.813V109.313H75.3755V110.813H70.438ZM71.7427 115.195V110.102L71.7505 109.883V107.32H73.7661V115.141C73.7661 115.521 73.8364 115.784 73.9771 115.93C74.1229 116.076 74.3312 116.148 74.6021 116.148C74.7271 116.148 74.8521 116.135 74.9771 116.109C75.1073 116.078 75.2323 116.039 75.3521 115.992V117.492C75.2271 117.555 75.0526 117.609 74.8286 117.656C74.6099 117.703 74.3703 117.727 74.1099 117.727C73.3911 117.727 72.8156 117.523 72.3833 117.117C71.9562 116.711 71.7427 116.07 71.7427 115.195ZM76.313 113.531V113.281C76.313 112.026 76.6802 111.013 77.4146 110.242C78.1489 109.466 79.0994 109.078 80.2661 109.078C81.4328 109.078 82.3442 109.44 83.0005 110.164C83.6567 110.888 83.9849 111.88 83.9849 113.141V113.891H77.6489V112.547H81.9692V112.375C81.9692 111.875 81.8234 111.453 81.5317 111.109C81.2401 110.766 80.8234 110.594 80.2817 110.594C79.6411 110.594 79.1567 110.833 78.8286 111.313C78.5057 111.792 78.3442 112.417 78.3442 113.188V113.609C78.3442 114.375 78.5187 114.997 78.8677 115.477C79.2166 115.956 79.7401 116.195 80.438 116.195C80.9015 116.195 81.3 116.086 81.6333 115.867C81.9718 115.648 82.2453 115.393 82.4536 115.102L83.8677 116.047C83.6073 116.51 83.1802 116.909 82.5864 117.242C81.9979 117.57 81.2896 117.734 80.4614 117.734C79.1541 117.734 78.1359 117.349 77.4067 116.578C76.6776 115.802 76.313 114.787 76.313 113.531ZM85.0396 114.969L87.0396 114.977V115.078C87.0396 115.49 87.1828 115.794 87.4692 115.992C87.7609 116.19 88.1489 116.289 88.6333 116.289C89.1229 116.289 89.4979 116.195 89.7583 116.008C90.0239 115.82 90.1567 115.57 90.1567 115.258C90.1567 114.951 90.0317 114.719 89.7817 114.563C89.5317 114.406 88.964 114.232 88.0786 114.039C87.1411 113.841 86.438 113.544 85.9692 113.148C85.5057 112.747 85.2739 112.214 85.2739 111.547C85.2739 110.802 85.576 110.206 86.1802 109.758C86.7843 109.305 87.5968 109.078 88.6177 109.078C89.6385 109.078 90.4562 109.31 91.0708 109.773C91.6906 110.232 92.0005 110.859 92.0005 111.656V111.734H90.0083V111.625C90.0083 111.281 89.8937 111.013 89.6646 110.82C89.4354 110.628 89.0838 110.531 88.6099 110.531C88.1411 110.531 87.7974 110.615 87.5786 110.781C87.3651 110.948 87.2583 111.162 87.2583 111.422C87.2583 111.688 87.3885 111.898 87.6489 112.055C87.9146 112.206 88.4953 112.378 89.3911 112.57C90.3234 112.768 91.0187 113.065 91.4771 113.461C91.9354 113.857 92.1646 114.409 92.1646 115.117C92.1646 115.919 91.8677 116.557 91.2739 117.031C90.6802 117.5 89.8026 117.734 88.6411 117.734C87.4901 117.734 86.6021 117.497 85.9771 117.023C85.3521 116.55 85.0396 115.891 85.0396 115.047V114.969Z" fill="#E46666"/>
<path d="M39.3481 150.104V135.655L35.1177 137.33V134.998L40.9536 132.83H41.9497V150.104H39.3481ZM54.4067 150.104V145.487L54.4185 144.983V136.909H54.3013L49.5903 144.139H55.1216L55.8599 144.127H59.0708V146.202H46.8599V144.444L54.5122 133.041H56.8794V150.104H54.4067ZM61.2739 148.756C61.2739 148.311 61.4185 147.932 61.7075 147.619C61.9966 147.307 62.4067 147.151 62.938 147.151C63.4771 147.151 63.8911 147.307 64.1802 147.619C64.4692 147.932 64.6138 148.311 64.6138 148.756C64.6138 149.202 64.4692 149.58 64.1802 149.893C63.8911 150.198 63.4771 150.35 62.938 150.35C62.4067 150.35 61.9966 150.194 61.7075 149.881C61.4185 149.569 61.2739 149.194 61.2739 148.756ZM67.4614 144.596V138.549C67.4614 136.768 67.938 135.35 68.8911 134.295C69.8521 133.241 71.1958 132.713 72.9224 132.713C74.6411 132.713 75.981 133.241 76.9419 134.295C77.9106 135.35 78.395 136.768 78.395 138.549V144.596C78.395 146.385 77.9106 147.807 76.9419 148.862C75.9731 149.909 74.6333 150.432 72.9224 150.432C71.1958 150.424 69.8521 149.897 68.8911 148.85C67.938 147.795 67.4614 146.377 67.4614 144.596ZM70.0981 144.83C70.0981 145.893 70.3247 146.752 70.7778 147.409C71.2388 148.057 71.9536 148.381 72.9224 148.381C73.8989 148.381 74.6138 148.057 75.0669 147.409C75.5278 146.752 75.7583 145.893 75.7583 144.83V138.327C75.7583 137.256 75.5278 136.397 75.0669 135.748C74.606 135.092 73.8911 134.764 72.9224 134.764C71.9614 134.764 71.2505 135.092 70.7896 135.748C70.3286 136.397 70.0981 137.256 70.0981 138.327V144.83ZM80.5044 150.104V148.358L86.4106 141.713C87.1294 140.916 87.6919 140.186 88.0981 139.522C88.5122 138.858 88.7192 138.159 88.7192 137.424C88.7192 136.651 88.4771 136.014 87.9927 135.514C87.5161 135.014 86.8638 134.764 86.0356 134.764C85.1919 134.764 84.4888 135.037 83.9263 135.584C83.3638 136.131 83.0825 136.948 83.0825 138.034V138.244H80.481V137.975C80.481 136.405 81.0005 135.135 82.0396 134.166C83.0864 133.198 84.4185 132.713 86.0356 132.713C87.6685 132.713 88.9575 133.155 89.9028 134.037C90.8481 134.912 91.3208 135.998 91.3208 137.295C91.3208 138.389 91.0317 139.377 90.4536 140.26C89.8755 141.135 89.1489 142.057 88.2739 143.026L83.8442 147.948H91.7427V150.104H80.5044ZM93.5825 150.104V148.358L99.4888 141.713C100.208 140.916 100.77 140.186 101.176 139.522C101.59 138.858 101.797 138.159 101.797 137.424C101.797 136.651 101.555 136.014 101.071 135.514C100.594 135.014 99.9419 134.764 99.1138 134.764C98.27 134.764 97.5669 135.037 97.0044 135.584C96.4419 136.131 96.1606 136.948 96.1606 138.034V138.244H93.5591V137.975C93.5591 136.405 94.0786 135.135 95.1177 134.166C96.1646 133.198 97.4966 132.713 99.1138 132.713C100.747 132.713 102.036 133.155 102.981 134.037C103.926 134.912 104.399 135.998 104.399 137.295C104.399 138.389 104.11 139.377 103.532 140.26C102.954 141.135 102.227 142.057 101.352 143.026L96.9224 147.948H104.821V150.104H93.5825Z" fill="#E46666"/>
<g clip-path="url(#clip1_3055_32772)">
<path fill-rule="evenodd" clip-rule="evenodd" d="M324 138.104H325.375V158.729H346V160.104H324V138.104ZM337.75 142.916C337.75 142.734 337.823 142.559 337.952 142.43C338.081 142.301 338.256 142.229 338.438 142.229H343.938C344.12 142.229 344.295 142.301 344.424 142.43C344.553 142.559 344.625 142.734 344.625 142.916V148.416C344.625 148.599 344.553 148.774 344.424 148.902C344.295 149.031 344.12 149.104 343.938 149.104C343.756 149.104 343.581 149.031 343.452 148.902C343.323 148.774 343.25 148.599 343.25 148.416V144.841L338.283 150.915C338.222 150.989 338.146 151.05 338.06 151.093C337.975 151.136 337.881 151.161 337.785 151.166C337.689 151.17 337.594 151.155 337.504 151.121C337.414 151.086 337.333 151.033 337.265 150.966L333.708 147.408L328.681 154.321C328.571 154.46 328.411 154.552 328.235 154.577C328.059 154.601 327.88 154.556 327.736 154.451C327.592 154.347 327.495 154.19 327.464 154.015C327.433 153.84 327.471 153.66 327.57 153.512L333.07 145.95C333.128 145.869 333.203 145.802 333.29 145.754C333.377 145.705 333.473 145.676 333.572 145.668C333.671 145.66 333.771 145.674 333.864 145.708C333.957 145.743 334.042 145.797 334.112 145.867L337.7 149.456L342.487 143.604H338.438C338.256 143.604 338.081 143.531 337.952 143.402C337.823 143.274 337.75 143.099 337.75 142.916Z" fill="#81ACFF"/>
</g>
</g>
<defs>
<filter id="filter0_d_3055_32772" x="0.97784" y="0.19817" width="392.208" height="195.208" filterUnits="userSpaceOnUse" color-interpolation-filters="sRGB">
<feFlood flood-opacity="0" result="BackgroundImageFix"/>
<feColorMatrix in="SourceAlpha" type="matrix" values="0 0 0 0 0 0 0 0 0 0 0 0 0 0 0 0 0 0 127 0" result="hardAlpha"/>
<feOffset dx="2.58113" dy="4.30189"/>
<feGaussianBlur stdDeviation="4.30189"/>
<feColorMatrix type="matrix" values="0 0 0 0 0 0 0 0 0 0 0 0 0 0 0 0 0 0 0.3 0"/>
<feBlend mode="normal" in2="BackgroundImageFix" result="effect1_dropShadow_3055_32772"/>
<feBlend mode="normal" in="SourceGraphic" in2="effect1_dropShadow_3055_32772" result="shape"/>
</filter>
<clipPath id="clip0_3055_32772">
<rect width="30" height="30" fill="white" transform="translate(35.0005 33.5001)"/>
</clipPath>
<clipPath id="clip1_3055_32772">
<rect width="22" height="22" fill="white" transform="translate(324 138.104)"/>
</clipPath>
</defs>
</svg>
