<svg width="394" height="196" viewBox="0 0 394 196" fill="none" xmlns="http://www.w3.org/2000/svg">
<g filter="url(#filter0_d_3055_32770)">
<rect x="7.00049" y="4.50006" width="375" height="178" rx="14" fill="#F8F8F8"/>
<path d="M21.0005 47.5001C21.0005 31.4838 33.9842 18.5001 50.0005 18.5001C66.0167 18.5001 79.0005 31.4838 79.0005 47.5001V49.5001C79.0005 65.5163 66.0167 78.5001 50.0005 78.5001C33.9842 78.5001 21.0005 65.5163 21.0005 49.5001V47.5001Z" fill="#E46666"/>
<g clip-path="url(#clip0_3055_32770)">
<path d="M35.0005 36.3126C35.0005 36.0639 35.0993 35.8255 35.2751 35.6496C35.4509 35.4738 35.6893 35.3751 35.938 35.3751H38.7505C38.9596 35.3751 39.1627 35.4451 39.3275 35.5739C39.4923 35.7026 39.6093 35.8828 39.6599 36.0857L40.4192 39.1251H62.188C62.3266 39.1251 62.4635 39.156 62.5888 39.2153C62.7141 39.2747 62.8247 39.3611 62.9126 39.4684C63.0005 39.5756 63.0634 39.701 63.097 39.8355C63.1306 39.9701 63.1339 40.1104 63.1067 40.2463L61.2317 49.6213C61.1907 49.8257 61.0827 50.0107 60.9248 50.1468C60.7669 50.283 60.5681 50.3627 60.3599 50.3732L42.7405 51.2582L43.2786 54.1251H59.3755C59.6241 54.1251 59.8626 54.2238 60.0384 54.3996C60.2142 54.5755 60.313 54.8139 60.313 55.0626C60.313 55.3112 60.2142 55.5497 60.0384 55.7255C59.8626 55.9013 59.6241 56.0001 59.3755 56.0001H42.5005C42.2819 55.9999 42.0703 55.9233 41.9022 55.7836C41.7341 55.6439 41.6201 55.4499 41.5799 55.2351L38.7692 40.2632L38.0192 37.2501H35.938C35.6893 37.2501 35.4509 37.1513 35.2751 36.9755C35.0993 36.7997 35.0005 36.5612 35.0005 36.3126ZM40.8167 41.0001L42.3917 49.3982L59.5367 48.5376L61.0442 41.0001H40.8167ZM44.3755 56.0001C43.3809 56.0001 42.4271 56.3951 41.7238 57.0984C41.0206 57.8017 40.6255 58.7555 40.6255 59.7501C40.6255 60.7446 41.0206 61.6985 41.7238 62.4017C42.4271 63.105 43.3809 63.5001 44.3755 63.5001C45.3701 63.5001 46.3239 63.105 47.0271 62.4017C47.7304 61.6985 48.1255 60.7446 48.1255 59.7501C48.1255 58.7555 47.7304 57.8017 47.0271 57.0984C46.3239 56.3951 45.3701 56.0001 44.3755 56.0001ZM57.5005 56.0001C56.5059 56.0001 55.5521 56.3951 54.8488 57.0984C54.1456 57.8017 53.7505 58.7555 53.7505 59.7501C53.7505 60.7446 54.1456 61.6985 54.8488 62.4017C55.5521 63.105 56.5059 63.5001 57.5005 63.5001C58.4951 63.5001 59.4489 63.105 60.1521 62.4017C60.8554 61.6985 61.2505 60.7446 61.2505 59.7501C61.2505 58.7555 60.8554 57.8017 60.1521 57.0984C59.4489 56.3951 58.4951 56.0001 57.5005 56.0001ZM44.3755 57.8751C44.8728 57.8751 45.3497 58.0726 45.7013 58.4242C46.0529 58.7759 46.2505 59.2528 46.2505 59.7501C46.2505 60.2473 46.0529 60.7243 45.7013 61.0759C45.3497 61.4275 44.8728 61.6251 44.3755 61.6251C43.8782 61.6251 43.4013 61.4275 43.0497 61.0759C42.698 60.7243 42.5005 60.2473 42.5005 59.7501C42.5005 59.2528 42.698 58.7759 43.0497 58.4242C43.4013 58.0726 43.8782 57.8751 44.3755 57.8751ZM57.5005 57.8751C57.9978 57.8751 58.4747 58.0726 58.8263 58.4242C59.1779 58.7759 59.3755 59.2528 59.3755 59.7501C59.3755 60.2473 59.1779 60.7243 58.8263 61.0759C58.4747 61.4275 57.9978 61.6251 57.5005 61.6251C57.0032 61.6251 56.5263 61.4275 56.1747 61.0759C55.823 60.7243 55.6255 60.2473 55.6255 59.7501C55.6255 59.2528 55.823 58.7759 56.1747 58.4242C56.5263 58.0726 57.0032 57.8751 57.5005 57.8751Z" fill="#F8F8F8"/>
</g>
<path d="M34.6255 117.5V106.125H38.7739C40.0656 106.125 41.0578 106.443 41.7505 107.078C42.4432 107.714 42.7896 108.596 42.7896 109.727C42.7896 110.857 42.4432 111.745 41.7505 112.391C41.0578 113.037 40.0656 113.359 38.7739 113.359H36.7271V117.5H34.6255ZM36.7271 111.766H38.6177C39.3937 111.766 39.9328 111.581 40.2349 111.211C40.5422 110.836 40.6958 110.344 40.6958 109.734C40.6958 109.13 40.5422 108.646 40.2349 108.281C39.9328 107.917 39.3937 107.734 38.6177 107.734H36.7271V111.766ZM43.6802 113.531V113.281C43.6802 112.026 44.0474 111.013 44.7817 110.242C45.5161 109.466 46.4666 109.078 47.6333 109.078C48.8 109.078 49.7114 109.44 50.3677 110.164C51.0239 110.888 51.3521 111.88 51.3521 113.141V113.891H45.0161V112.547H49.3364V112.375C49.3364 111.875 49.1906 111.453 48.8989 111.109C48.6073 110.766 48.1906 110.594 47.6489 110.594C47.0083 110.594 46.5239 110.833 46.1958 111.313C45.8729 111.792 45.7114 112.417 45.7114 113.188V113.609C45.7114 114.375 45.8859 114.997 46.2349 115.477C46.5838 115.956 47.1073 116.195 47.8052 116.195C48.2687 116.195 48.6672 116.086 49.0005 115.867C49.339 115.648 49.6125 115.393 49.8208 115.102L51.2349 116.047C50.9744 116.51 50.5474 116.909 49.9536 117.242C49.3651 117.57 48.6567 117.734 47.8286 117.734C46.5213 117.734 45.5031 117.349 44.7739 116.578C44.0448 115.802 43.6802 114.787 43.6802 113.531ZM52.4614 113.531V113.281C52.4614 112.073 52.7817 111.083 53.4224 110.313C54.0682 109.542 54.9172 109.156 55.9692 109.156C56.5005 109.156 56.9588 109.253 57.3442 109.445C57.7297 109.633 58.0317 109.883 58.2505 110.195V105.555H60.2739V117.5H58.3677L58.313 116.508H58.2739C58.0916 116.831 57.7948 117.104 57.3833 117.328C56.9771 117.547 56.5057 117.656 55.9692 117.656C54.8859 117.656 54.0291 117.271 53.3989 116.5C52.7739 115.729 52.4614 114.74 52.4614 113.531ZM54.5317 113.602C54.5317 114.331 54.6906 114.93 55.0083 115.398C55.326 115.862 55.8078 116.094 56.4536 116.094C56.8911 116.094 57.2635 115.974 57.5708 115.734C57.8781 115.495 58.1021 115.216 58.2427 114.898V111.914C58.1021 111.591 57.8807 111.313 57.5786 111.078C57.2817 110.839 56.9067 110.719 56.4536 110.719C55.813 110.719 55.3312 110.953 55.0083 111.422C54.6906 111.891 54.5317 112.487 54.5317 113.211V113.602ZM62.4067 117.5V109.313H64.4458V117.5H62.4067ZM62.2192 106.953C62.2192 106.635 62.3234 106.37 62.5317 106.156C62.7401 105.943 63.0396 105.836 63.4302 105.836C63.8208 105.836 64.1203 105.943 64.3286 106.156C64.5369 106.37 64.6411 106.635 64.6411 106.953C64.6411 107.271 64.5343 107.539 64.3208 107.758C64.1125 107.971 63.8156 108.078 63.4302 108.078C63.0396 108.078 62.7401 107.971 62.5317 107.758C62.3234 107.539 62.2192 107.271 62.2192 106.953ZM66.1333 113.531V113.281C66.1333 112.073 66.4536 111.083 67.0942 110.313C67.7401 109.542 68.589 109.156 69.6411 109.156C70.1724 109.156 70.6307 109.253 71.0161 109.445C71.4015 109.633 71.7036 109.883 71.9224 110.195V105.555H73.9458V117.5H72.0396L71.9849 116.508H71.9458C71.7635 116.831 71.4666 117.104 71.0552 117.328C70.6489 117.547 70.1776 117.656 69.6411 117.656C68.5578 117.656 67.701 117.271 67.0708 116.5C66.4458 115.729 66.1333 114.74 66.1333 113.531ZM68.2036 113.602C68.2036 114.331 68.3625 114.93 68.6802 115.398C68.9979 115.862 69.4797 116.094 70.1255 116.094C70.563 116.094 70.9354 115.974 71.2427 115.734C71.55 115.495 71.7739 115.216 71.9146 114.898V111.914C71.7739 111.591 71.5526 111.313 71.2505 111.078C70.9536 110.839 70.5786 110.719 70.1255 110.719C69.4849 110.719 69.0031 110.953 68.6802 111.422C68.3625 111.891 68.2036 112.487 68.2036 113.211V113.602ZM75.5864 113.531V113.281C75.5864 112.01 75.9614 110.992 76.7114 110.227C77.4666 109.461 78.4588 109.078 79.688 109.078C80.9172 109.078 81.9067 109.461 82.6567 110.227C83.4119 110.992 83.7896 112.01 83.7896 113.281V113.531C83.7896 114.797 83.4119 115.815 82.6567 116.586C81.9067 117.352 80.9172 117.734 79.688 117.734C78.4588 117.734 77.4666 117.352 76.7114 116.586C75.9614 115.815 75.5864 114.797 75.5864 113.531ZM77.6646 113.195V113.617C77.6646 114.404 77.8364 115.026 78.1802 115.484C78.5291 115.938 79.0317 116.164 79.688 116.164C80.3442 116.164 80.8442 115.938 81.188 115.484C81.5369 115.026 81.7114 114.401 81.7114 113.609V113.195C81.7114 112.409 81.5369 111.789 81.188 111.336C80.839 110.878 80.339 110.648 79.688 110.648C79.0369 110.648 78.5369 110.878 78.188 111.336C77.839 111.789 77.6646 112.409 77.6646 113.195ZM84.9224 114.969L86.9224 114.977V115.078C86.9224 115.49 87.0656 115.794 87.3521 115.992C87.6437 116.19 88.0317 116.289 88.5161 116.289C89.0057 116.289 89.3807 116.195 89.6411 116.008C89.9067 115.82 90.0396 115.57 90.0396 115.258C90.0396 114.951 89.9146 114.719 89.6646 114.563C89.4146 114.406 88.8468 114.232 87.9614 114.039C87.0239 113.841 86.3208 113.544 85.8521 113.148C85.3885 112.747 85.1567 112.214 85.1567 111.547C85.1567 110.802 85.4588 110.206 86.063 109.758C86.6672 109.305 87.4797 109.078 88.5005 109.078C89.5213 109.078 90.339 109.31 90.9536 109.773C91.5734 110.232 91.8833 110.859 91.8833 111.656V111.734H89.8911V111.625C89.8911 111.281 89.7765 111.013 89.5474 110.82C89.3182 110.628 88.9666 110.531 88.4927 110.531C88.0239 110.531 87.6802 110.615 87.4614 110.781C87.2479 110.948 87.1411 111.162 87.1411 111.422C87.1411 111.688 87.2713 111.898 87.5317 112.055C87.7974 112.206 88.3781 112.378 89.2739 112.57C90.2062 112.768 90.9015 113.065 91.3599 113.461C91.8182 113.857 92.0474 114.409 92.0474 115.117C92.0474 115.919 91.7505 116.557 91.1567 117.031C90.563 117.5 89.6854 117.734 88.5239 117.734C87.3729 117.734 86.4849 117.497 85.8599 117.023C85.2349 116.55 84.9224 115.891 84.9224 115.047V114.969ZM96.5239 110.813V109.313H101.461V110.813H96.5239ZM97.8286 115.195V110.102L97.8364 109.883V107.32H99.8521V115.141C99.8521 115.521 99.9224 115.784 100.063 115.93C100.209 116.076 100.417 116.148 100.688 116.148C100.813 116.148 100.938 116.135 101.063 116.109C101.193 116.078 101.318 116.039 101.438 115.992V117.492C101.313 117.555 101.139 117.609 100.915 117.656C100.696 117.703 100.456 117.727 100.196 117.727C99.4771 117.727 98.9015 117.523 98.4692 117.117C98.0422 116.711 97.8286 116.07 97.8286 115.195ZM102.243 113.531V113.281C102.243 112.01 102.618 110.992 103.368 110.227C104.123 109.461 105.115 109.078 106.344 109.078C107.573 109.078 108.563 109.461 109.313 110.227C110.068 110.992 110.446 112.01 110.446 113.281V113.531C110.446 114.797 110.068 115.815 109.313 116.586C108.563 117.352 107.573 117.734 106.344 117.734C105.115 117.734 104.123 117.352 103.368 116.586C102.618 115.815 102.243 114.797 102.243 113.531ZM104.321 113.195V113.617C104.321 114.404 104.493 115.026 104.836 115.484C105.185 115.938 105.688 116.164 106.344 116.164C107 116.164 107.5 115.938 107.844 115.484C108.193 115.026 108.368 114.401 108.368 113.609V113.195C108.368 112.409 108.193 111.789 107.844 111.336C107.495 110.878 106.995 110.648 106.344 110.648C105.693 110.648 105.193 110.878 104.844 111.336C104.495 111.789 104.321 112.409 104.321 113.195ZM111.04 110.813V109.313H115.977V110.813H111.04ZM112.344 115.195V110.102L112.352 109.883V107.32H114.368V115.141C114.368 115.521 114.438 115.784 114.579 115.93C114.724 116.076 114.933 116.148 115.204 116.148C115.329 116.148 115.454 116.135 115.579 116.109C115.709 116.078 115.834 116.039 115.954 115.992V117.492C115.829 117.555 115.654 117.609 115.43 117.656C115.211 117.703 114.972 117.727 114.711 117.727C113.993 117.727 113.417 117.523 112.985 117.117C112.558 116.711 112.344 116.07 112.344 115.195ZM116.946 115.094C116.946 114.208 117.29 113.537 117.977 113.078C118.665 112.62 119.534 112.388 120.586 112.383H122.274V111.891C122.274 111.479 122.167 111.148 121.954 110.898C121.745 110.643 121.378 110.516 120.852 110.516C120.326 110.516 119.951 110.62 119.727 110.828C119.508 111.037 119.399 111.289 119.399 111.586V111.688H117.391V111.586C117.391 110.878 117.717 110.284 118.368 109.805C119.019 109.326 119.873 109.086 120.93 109.086C121.993 109.086 122.821 109.318 123.415 109.781C124.008 110.24 124.305 110.945 124.305 111.898V115.648C124.305 115.982 124.334 116.3 124.391 116.602C124.448 116.898 124.527 117.156 124.625 117.375V117.5H122.633C122.571 117.375 122.514 117.214 122.461 117.016C122.409 116.818 122.373 116.622 122.352 116.43C122.185 116.747 121.881 117.031 121.438 117.281C120.995 117.526 120.435 117.648 119.758 117.648C118.967 117.648 118.3 117.435 117.758 117.008C117.217 116.576 116.946 115.938 116.946 115.094ZM118.977 114.93C118.977 115.326 119.092 115.641 119.321 115.875C119.55 116.109 119.909 116.227 120.399 116.227C120.915 116.227 121.355 116.06 121.719 115.727C122.089 115.388 122.274 115.003 122.274 114.57V113.656H120.868C120.232 113.656 119.758 113.768 119.446 113.992C119.133 114.216 118.977 114.529 118.977 114.93ZM126.446 117.5V105.555H128.485V117.5H126.446ZM130.165 113.531V113.281C130.165 112.026 130.532 111.013 131.266 110.242C132 109.466 132.951 109.078 134.118 109.078C135.284 109.078 136.196 109.44 136.852 110.164C137.508 110.888 137.836 111.88 137.836 113.141V113.891H131.5V112.547H135.821V112.375C135.821 111.875 135.675 111.453 135.383 111.109C135.092 110.766 134.675 110.594 134.133 110.594C133.493 110.594 133.008 110.833 132.68 111.313C132.357 111.792 132.196 112.417 132.196 113.188V113.609C132.196 114.375 132.37 114.997 132.719 115.477C133.068 115.956 133.592 116.195 134.29 116.195C134.753 116.195 135.152 116.086 135.485 115.867C135.823 115.648 136.097 115.393 136.305 115.102L137.719 116.047C137.459 116.51 137.032 116.909 136.438 117.242C135.849 117.57 135.141 117.734 134.313 117.734C133.006 117.734 131.987 117.349 131.258 116.578C130.529 115.802 130.165 114.787 130.165 113.531ZM138.891 114.969L140.891 114.977V115.078C140.891 115.49 141.034 115.794 141.321 115.992C141.612 116.19 142 116.289 142.485 116.289C142.974 116.289 143.349 116.195 143.61 116.008C143.875 115.82 144.008 115.57 144.008 115.258C144.008 114.951 143.883 114.719 143.633 114.563C143.383 114.406 142.816 114.232 141.93 114.039C140.993 113.841 140.29 113.544 139.821 113.148C139.357 112.747 139.125 112.214 139.125 111.547C139.125 110.802 139.428 110.206 140.032 109.758C140.636 109.305 141.448 109.078 142.469 109.078C143.49 109.078 144.308 109.31 144.922 109.773C145.542 110.232 145.852 110.859 145.852 111.656V111.734H143.86V111.625C143.86 111.281 143.745 111.013 143.516 110.82C143.287 110.628 142.935 110.531 142.461 110.531C141.993 110.531 141.649 110.615 141.43 110.781C141.217 110.948 141.11 111.162 141.11 111.422C141.11 111.688 141.24 111.898 141.5 112.055C141.766 112.206 142.347 112.378 143.243 112.57C144.175 112.768 144.87 113.065 145.329 113.461C145.787 113.857 146.016 114.409 146.016 115.117C146.016 115.919 145.719 116.557 145.125 117.031C144.532 117.5 143.654 117.734 142.493 117.734C141.342 117.734 140.454 117.497 139.829 117.023C139.204 116.55 138.891 115.891 138.891 115.047V114.969Z" fill="#E46666"/>
<path d="M39.3481 150.104V135.655L35.1177 137.33V134.998L40.9536 132.83H41.9497V150.104H39.3481ZM47.481 150.104V148.358L53.3872 141.713C54.106 140.916 54.6685 140.186 55.0747 139.522C55.4888 138.858 55.6958 138.159 55.6958 137.424C55.6958 136.651 55.4536 136.014 54.9692 135.514C54.4927 135.014 53.8403 134.764 53.0122 134.764C52.1685 134.764 51.4653 135.037 50.9028 135.584C50.3403 136.131 50.0591 136.948 50.0591 138.034V138.244H47.4575V137.975C47.4575 136.405 47.9771 135.135 49.0161 134.166C50.063 133.198 51.395 132.713 53.0122 132.713C54.645 132.713 55.9341 133.155 56.8794 134.037C57.8247 134.912 58.2974 135.998 58.2974 137.295C58.2974 138.389 58.0083 139.377 57.4302 140.26C56.8521 141.135 56.1255 142.057 55.2505 143.026L50.8208 147.948H58.7192V150.104H47.481ZM61.2739 148.756C61.2739 148.311 61.4185 147.932 61.7075 147.619C61.9966 147.307 62.4067 147.151 62.938 147.151C63.4771 147.151 63.8911 147.307 64.1802 147.619C64.4692 147.932 64.6138 148.311 64.6138 148.756C64.6138 149.202 64.4692 149.58 64.1802 149.893C63.8911 150.198 63.4771 150.35 62.938 150.35C62.4067 150.35 61.9966 150.194 61.7075 149.881C61.4185 149.569 61.2739 149.194 61.2739 148.756ZM74.3521 150.104V145.487L74.3638 144.983V136.909H74.2466L69.5356 144.139H75.0669L75.8052 144.127H79.0161V146.202H66.8052V144.444L74.4575 133.041H76.8247V150.104H74.3521ZM80.3286 145.698V145.487H82.8716V145.686C82.8716 146.545 83.145 147.213 83.6919 147.69C84.2388 148.159 84.981 148.393 85.9185 148.393C86.856 148.393 87.606 148.073 88.1685 147.432C88.7388 146.791 89.0239 145.858 89.0239 144.631C89.0239 143.405 88.7388 142.494 88.1685 141.901C87.606 141.307 86.8716 141.01 85.9653 141.01C85.3091 141.01 84.731 141.139 84.231 141.397C83.731 141.655 83.2896 141.998 82.9067 142.428L80.9146 141.608L81.7817 133.041H90.7466V135.221L83.8677 135.209L83.3755 139.909C83.7349 139.651 84.1763 139.432 84.6997 139.252C85.2231 139.073 85.8052 138.983 86.4458 138.983C87.8911 138.983 89.1138 139.463 90.1138 140.424C91.1216 141.385 91.6255 142.768 91.6255 144.573C91.6255 146.401 91.1021 147.834 90.0552 148.873C89.0083 149.912 87.6294 150.432 85.9185 150.432C84.145 150.432 82.77 149.994 81.7935 149.119C80.8169 148.237 80.3286 147.096 80.3286 145.698ZM93.4067 145.698V145.487H95.9497V145.686C95.9497 146.545 96.2231 147.213 96.77 147.69C97.3169 148.159 98.0591 148.393 98.9966 148.393C99.9341 148.393 100.684 148.073 101.247 147.432C101.817 146.791 102.102 145.858 102.102 144.631C102.102 143.405 101.817 142.494 101.247 141.901C100.684 141.307 99.9497 141.01 99.0435 141.01C98.3872 141.01 97.8091 141.139 97.3091 141.397C96.8091 141.655 96.3677 141.998 95.9849 142.428L93.9927 141.608L94.8599 133.041H103.825V135.221L96.9458 135.209L96.4536 139.909C96.813 139.651 97.2544 139.432 97.7778 139.252C98.3013 139.073 98.8833 138.983 99.5239 138.983C100.969 138.983 102.192 139.463 103.192 140.424C104.2 141.385 104.704 142.768 104.704 144.573C104.704 146.401 104.18 147.834 103.133 148.873C102.086 149.912 100.708 150.432 98.9966 150.432C97.2231 150.432 95.8481 149.994 94.8716 149.119C93.895 148.237 93.4067 147.096 93.4067 145.698Z" fill="#E46666"/>
<g clip-path="url(#clip1_3055_32770)">
<path fill-rule="evenodd" clip-rule="evenodd" d="M324 138.104H325.375V158.729H346V160.104H324V138.104ZM337.75 142.916C337.75 142.734 337.823 142.559 337.952 142.43C338.081 142.301 338.256 142.229 338.438 142.229H343.938C344.12 142.229 344.295 142.301 344.424 142.43C344.553 142.559 344.625 142.734 344.625 142.916V148.416C344.625 148.599 344.553 148.774 344.424 148.902C344.295 149.031 344.12 149.104 343.938 149.104C343.756 149.104 343.581 149.031 343.452 148.902C343.323 148.774 343.25 148.599 343.25 148.416V144.841L338.283 150.915C338.222 150.989 338.146 151.05 338.06 151.093C337.975 151.136 337.881 151.161 337.785 151.166C337.689 151.17 337.594 151.155 337.504 151.121C337.414 151.086 337.333 151.033 337.265 150.966L333.708 147.408L328.681 154.321C328.571 154.46 328.411 154.552 328.235 154.577C328.059 154.601 327.88 154.556 327.736 154.451C327.592 154.347 327.495 154.19 327.464 154.015C327.433 153.84 327.471 153.66 327.57 153.512L333.07 145.95C333.128 145.869 333.203 145.802 333.29 145.754C333.377 145.705 333.473 145.676 333.572 145.668C333.671 145.66 333.771 145.674 333.864 145.708C333.957 145.743 334.042 145.797 334.112 145.867L337.7 149.456L342.487 143.604H338.438C338.256 143.604 338.081 143.531 337.952 143.402C337.823 143.274 337.75 143.099 337.75 142.916Z" fill="#81ACFF"/>
</g>
</g>
<defs>
<filter id="filter0_d_3055_32770" x="0.97784" y="0.19817" width="392.208" height="195.208" filterUnits="userSpaceOnUse" color-interpolation-filters="sRGB">
<feFlood flood-opacity="0" result="BackgroundImageFix"/>
<feColorMatrix in="SourceAlpha" type="matrix" values="0 0 0 0 0 0 0 0 0 0 0 0 0 0 0 0 0 0 127 0" result="hardAlpha"/>
<feOffset dx="2.58113" dy="4.30189"/>
<feGaussianBlur stdDeviation="4.30189"/>
<feColorMatrix type="matrix" values="0 0 0 0 0 0 0 0 0 0 0 0 0 0 0 0 0 0 0.3 0"/>
<feBlend mode="normal" in2="BackgroundImageFix" result="effect1_dropShadow_3055_32770"/>
<feBlend mode="normal" in="SourceGraphic" in2="effect1_dropShadow_3055_32770" result="shape"/>
</filter>
<clipPath id="clip0_3055_32770">
<rect width="30" height="30" fill="white" transform="translate(35.0005 33.5001)"/>
</clipPath>
<clipPath id="clip1_3055_32770">
<rect width="22" height="22" fill="white" transform="translate(324 138.104)"/>
</clipPath>
</defs>
</svg>
