<svg width="394" height="196" viewBox="0 0 394 196" fill="none" xmlns="http://www.w3.org/2000/svg">
<g filter="url(#filter0_d_3055_32771)">
<rect x="7.00049" y="4.50006" width="375" height="178" rx="14" fill="#F8F8F8"/>
<path d="M21.0005 47.5001C21.0005 31.4838 33.9842 18.5001 50.0005 18.5001C66.0167 18.5001 79.0005 31.4838 79.0005 47.5001V49.5001C79.0005 65.5163 66.0167 78.5001 50.0005 78.5001C33.9842 78.5001 21.0005 65.5163 21.0005 49.5001V47.5001Z" fill="#E46666"/>
<g clip-path="url(#clip0_3055_32771)">
<path d="M50.3492 35.587C50.1254 35.4972 49.8756 35.4972 49.6517 35.587L38.4617 40.0626L42.9692 41.8645L54.508 37.2501L50.3492 35.587ZM57.0317 38.2607L45.493 42.8751L50.0005 44.677L61.5392 40.0626L57.0317 38.2607ZM63.1255 41.4482L50.938 46.3232V61.1769L63.1255 56.302V41.4501V41.4482ZM49.063 61.1788V46.3213L36.8755 41.4482V56.3038L49.063 61.1788ZM48.9561 33.8451C49.6265 33.577 50.3744 33.577 51.0449 33.8451L64.4117 39.1926C64.5855 39.2622 64.7345 39.3823 64.8394 39.5374C64.9443 39.6924 65.0004 39.8754 65.0005 40.0626V56.3038C65.0003 56.6785 64.8878 57.0445 64.6776 57.3546C64.4673 57.6648 64.169 57.9048 63.8211 58.0438L50.3492 63.4326C50.1254 63.5223 49.8756 63.5223 49.6517 63.4326L36.1817 58.0438C35.8335 57.9051 35.5348 57.6652 35.3242 57.355C35.1136 57.0449 35.0009 56.6787 35.0005 56.3038V40.0626C35.0005 39.8754 35.0566 39.6924 35.1616 39.5374C35.2665 39.3823 35.4154 39.2622 35.5892 39.1926L48.9561 33.8451Z" fill="#F8F8F8"/>
</g>
<path d="M33.8911 114.32V114.133H36.0161V114.289C36.0161 114.893 36.2114 115.346 36.6021 115.648C36.9927 115.951 37.5396 116.102 38.2427 116.102C38.9458 116.102 39.4823 115.956 39.8521 115.664C40.2271 115.372 40.4146 114.987 40.4146 114.508C40.4146 114.034 40.2349 113.664 39.8755 113.398C39.5213 113.133 38.7791 112.846 37.6489 112.539C36.4458 112.211 35.5526 111.789 34.9692 111.273C34.3859 110.758 34.0916 110.042 34.0864 109.125C34.0864 108.162 34.4536 107.383 35.188 106.789C35.9224 106.195 36.9172 105.898 38.1724 105.898C39.4276 105.898 40.4302 106.208 41.1802 106.828C41.9302 107.443 42.3052 108.253 42.3052 109.258V109.43H40.2192V109.281C40.2192 108.755 40.0474 108.333 39.7036 108.016C39.3599 107.693 38.8521 107.531 38.1802 107.531C37.5031 107.531 37.0057 107.664 36.688 107.93C36.3703 108.19 36.2114 108.544 36.2114 108.992C36.2114 109.419 36.3807 109.747 36.7192 109.977C37.0578 110.206 37.7922 110.477 38.9224 110.789C40.1099 111.117 41.0083 111.55 41.6177 112.086C42.2271 112.622 42.5317 113.388 42.5317 114.383C42.5317 115.414 42.1411 116.229 41.3599 116.828C40.5838 117.427 39.5474 117.727 38.2505 117.727C36.9588 117.727 35.9093 117.432 35.1021 116.844C34.2948 116.25 33.8911 115.409 33.8911 114.32ZM43.0786 110.813V109.313H48.0161V110.813H43.0786ZM44.3833 115.195V110.102L44.3911 109.883V107.32H46.4067V115.141C46.4067 115.521 46.4771 115.784 46.6177 115.93C46.7635 116.076 46.9718 116.148 47.2427 116.148C47.3677 116.148 47.4927 116.135 47.6177 116.109C47.7479 116.078 47.8729 116.039 47.9927 115.992V117.492C47.8677 117.555 47.6932 117.609 47.4692 117.656C47.2505 117.703 47.0109 117.727 46.7505 117.727C46.0317 117.727 45.4562 117.523 45.0239 117.117C44.5968 116.711 44.3833 116.07 44.3833 115.195ZM48.7974 113.531V113.281C48.7974 112.01 49.1724 110.992 49.9224 110.227C50.6776 109.461 51.6698 109.078 52.8989 109.078C54.1281 109.078 55.1177 109.461 55.8677 110.227C56.6229 110.992 57.0005 112.01 57.0005 113.281V113.531C57.0005 114.797 56.6229 115.815 55.8677 116.586C55.1177 117.352 54.1281 117.734 52.8989 117.734C51.6698 117.734 50.6776 117.352 49.9224 116.586C49.1724 115.815 48.7974 114.797 48.7974 113.531ZM50.8755 113.195V113.617C50.8755 114.404 51.0474 115.026 51.3911 115.484C51.7401 115.938 52.2427 116.164 52.8989 116.164C53.5552 116.164 54.0552 115.938 54.3989 115.484C54.7479 115.026 54.9224 114.401 54.9224 113.609V113.195C54.9224 112.409 54.7479 111.789 54.3989 111.336C54.05 110.878 53.55 110.648 52.8989 110.648C52.2479 110.648 51.7479 110.878 51.3989 111.336C51.05 111.789 50.8755 112.409 50.8755 113.195ZM58.188 113.531V113.281C58.188 112.005 58.5526 110.987 59.2817 110.227C60.0109 109.461 60.9901 109.078 62.2192 109.078C63.3807 109.078 64.2635 109.375 64.8677 109.969C65.4771 110.557 65.7974 111.247 65.8286 112.039L65.8364 112.148H63.8521V112.07C63.8521 111.664 63.7166 111.323 63.4458 111.047C63.1802 110.766 62.7687 110.625 62.2114 110.625C61.5604 110.625 61.0734 110.862 60.7505 111.336C60.4276 111.81 60.2661 112.43 60.2661 113.195V113.617C60.2661 114.378 60.425 114.997 60.7427 115.477C61.0604 115.956 61.55 116.195 62.2114 116.195C62.8 116.195 63.2192 116.05 63.4692 115.758C63.7244 115.466 63.8521 115.125 63.8521 114.734V114.664H65.8286V114.742C65.8286 115.534 65.5161 116.232 64.8911 116.836C64.2713 117.435 63.3833 117.734 62.2271 117.734C60.9979 117.734 60.0161 117.352 59.2817 116.586C58.5526 115.82 58.188 114.802 58.188 113.531ZM67.2974 117.5V105.555H69.3286V112.508L72.2896 109.313H74.5474L69.3286 114.875V117.5H67.2974ZM72.5083 117.5L69.5708 113.539L70.8599 112.109L74.8989 117.5H72.5083Z" fill="#E46666"/>
<path d="M34.0747 145.569V145.334H36.6294V145.545C36.6294 146.459 36.9106 147.162 37.4731 147.655C38.0356 148.147 38.7817 148.393 39.7114 148.393C40.6567 148.393 41.4028 148.147 41.9497 147.655C42.5044 147.155 42.7817 146.377 42.7817 145.323C42.7817 144.276 42.4653 143.494 41.8325 142.979C41.2075 142.455 40.3599 142.194 39.2896 142.194H37.7896V140.248H39.1841C40.1372 140.248 40.8833 140.006 41.4224 139.522C41.9614 139.037 42.231 138.327 42.231 137.389C42.231 136.506 42.0044 135.846 41.5513 135.409C41.0981 134.971 40.4771 134.752 39.688 134.752C38.8442 134.752 38.188 134.975 37.7192 135.42C37.2583 135.866 37.0278 136.506 37.0278 137.342V137.518H34.4966V137.33C34.4966 136.002 34.9731 134.901 35.9263 134.026C36.8872 133.151 38.1489 132.713 39.7114 132.713C41.2739 132.713 42.5161 133.127 43.438 133.955C44.3677 134.784 44.8325 135.854 44.8325 137.166C44.8325 138.057 44.6177 138.85 44.188 139.545C43.7583 140.241 43.106 140.768 42.231 141.127V141.174C43.1763 141.401 43.9419 141.881 44.5278 142.616C45.1138 143.342 45.4067 144.264 45.4067 145.381C45.4067 146.936 44.8833 148.166 43.8364 149.073C42.7896 149.979 41.4106 150.432 39.6997 150.432C37.9419 150.432 36.563 149.983 35.563 149.084C34.5708 148.186 34.0747 147.014 34.0747 145.569ZM52.4263 150.104V135.655L48.1958 137.33V134.998L54.0317 132.83H55.0278V150.104H52.4263ZM61.2739 148.756C61.2739 148.311 61.4185 147.932 61.7075 147.619C61.9966 147.307 62.4067 147.151 62.938 147.151C63.4771 147.151 63.8911 147.307 64.1802 147.619C64.4692 147.932 64.6138 148.311 64.6138 148.756C64.6138 149.202 64.4692 149.58 64.1802 149.893C63.8911 150.198 63.4771 150.35 62.938 150.35C62.4067 150.35 61.9966 150.194 61.7075 149.881C61.4185 149.569 61.2739 149.194 61.2739 148.756ZM67.4263 150.104V148.358L73.3325 141.713C74.0513 140.916 74.6138 140.186 75.02 139.522C75.4341 138.858 75.6411 138.159 75.6411 137.424C75.6411 136.651 75.3989 136.014 74.9146 135.514C74.438 135.014 73.7856 134.764 72.9575 134.764C72.1138 134.764 71.4106 135.037 70.8481 135.584C70.2856 136.131 70.0044 136.948 70.0044 138.034V138.244H67.4028V137.975C67.4028 136.405 67.9224 135.135 68.9614 134.166C70.0083 133.198 71.3403 132.713 72.9575 132.713C74.5903 132.713 75.8794 133.155 76.8247 134.037C77.77 134.912 78.2427 135.998 78.2427 137.295C78.2427 138.389 77.9536 139.377 77.3755 140.26C76.7974 141.135 76.0708 142.057 75.1958 143.026L70.7661 147.948H78.6646V150.104H67.4263ZM80.5396 144.596V138.549C80.5396 136.768 81.0161 135.35 81.9692 134.295C82.9302 133.241 84.2739 132.713 86.0005 132.713C87.7192 132.713 89.0591 133.241 90.02 134.295C90.9888 135.35 91.4731 136.768 91.4731 138.549V144.596C91.4731 146.385 90.9888 147.807 90.02 148.862C89.0513 149.909 87.7114 150.432 86.0005 150.432C84.2739 150.424 82.9302 149.897 81.9692 148.85C81.0161 147.795 80.5396 146.377 80.5396 144.596ZM83.1763 144.83C83.1763 145.893 83.4028 146.752 83.856 147.409C84.3169 148.057 85.0317 148.381 86.0005 148.381C86.9771 148.381 87.6919 148.057 88.145 147.409C88.606 146.752 88.8364 145.893 88.8364 144.83V138.327C88.8364 137.256 88.606 136.397 88.145 135.748C87.6841 135.092 86.9692 134.764 86.0005 134.764C85.0396 134.764 84.3286 135.092 83.8677 135.748C83.4067 136.397 83.1763 137.256 83.1763 138.327V144.83ZM93.4067 145.698V145.487H95.9497V145.686C95.9497 146.545 96.2231 147.213 96.77 147.69C97.3169 148.159 98.0591 148.393 98.9966 148.393C99.9341 148.393 100.684 148.073 101.247 147.432C101.817 146.791 102.102 145.858 102.102 144.631C102.102 143.405 101.817 142.494 101.247 141.901C100.684 141.307 99.9497 141.01 99.0435 141.01C98.3872 141.01 97.8091 141.139 97.3091 141.397C96.8091 141.655 96.3677 141.998 95.9849 142.428L93.9927 141.608L94.8599 133.041H103.825V135.221L96.9458 135.209L96.4536 139.909C96.813 139.651 97.2544 139.432 97.7778 139.252C98.3013 139.073 98.8833 138.983 99.5239 138.983C100.969 138.983 102.192 139.463 103.192 140.424C104.2 141.385 104.704 142.768 104.704 144.573C104.704 146.401 104.18 147.834 103.133 148.873C102.086 149.912 100.708 150.432 98.9966 150.432C97.2231 150.432 95.8481 149.994 94.8716 149.119C93.895 148.237 93.4067 147.096 93.4067 145.698Z" fill="#E46666"/>
<g clip-path="url(#clip1_3055_32771)">
<path fill-rule="evenodd" clip-rule="evenodd" d="M324 138.104H325.375V158.729H346V160.104H324V138.104ZM337.75 142.916C337.75 142.734 337.823 142.559 337.952 142.43C338.081 142.301 338.256 142.229 338.438 142.229H343.938C344.12 142.229 344.295 142.301 344.424 142.43C344.553 142.559 344.625 142.734 344.625 142.916V148.416C344.625 148.599 344.553 148.774 344.424 148.902C344.295 149.031 344.12 149.104 343.938 149.104C343.756 149.104 343.581 149.031 343.452 148.902C343.323 148.774 343.25 148.599 343.25 148.416V144.841L338.283 150.915C338.222 150.989 338.146 151.05 338.06 151.093C337.975 151.136 337.881 151.161 337.785 151.166C337.689 151.17 337.594 151.155 337.504 151.121C337.414 151.086 337.333 151.033 337.265 150.966L333.708 147.408L328.681 154.321C328.571 154.46 328.411 154.552 328.235 154.577C328.059 154.601 327.88 154.556 327.736 154.451C327.592 154.347 327.495 154.19 327.464 154.015C327.433 153.84 327.471 153.66 327.57 153.512L333.07 145.95C333.128 145.869 333.203 145.802 333.29 145.754C333.377 145.705 333.473 145.676 333.572 145.668C333.671 145.66 333.771 145.674 333.864 145.708C333.957 145.743 334.042 145.797 334.112 145.867L337.7 149.456L342.487 143.604H338.438C338.256 143.604 338.081 143.531 337.952 143.402C337.823 143.274 337.75 143.099 337.75 142.916Z" fill="#81ACFF"/>
</g>
</g>
<defs>
<filter id="filter0_d_3055_32771" x="0.97784" y="0.19817" width="392.208" height="195.208" filterUnits="userSpaceOnUse" color-interpolation-filters="sRGB">
<feFlood flood-opacity="0" result="BackgroundImageFix"/>
<feColorMatrix in="SourceAlpha" type="matrix" values="0 0 0 0 0 0 0 0 0 0 0 0 0 0 0 0 0 0 127 0" result="hardAlpha"/>
<feOffset dx="2.58113" dy="4.30189"/>
<feGaussianBlur stdDeviation="4.30189"/>
<feColorMatrix type="matrix" values="0 0 0 0 0 0 0 0 0 0 0 0 0 0 0 0 0 0 0.3 0"/>
<feBlend mode="normal" in2="BackgroundImageFix" result="effect1_dropShadow_3055_32771"/>
<feBlend mode="normal" in="SourceGraphic" in2="effect1_dropShadow_3055_32771" result="shape"/>
</filter>
<clipPath id="clip0_3055_32771">
<rect width="30" height="30" fill="white" transform="translate(35.0005 33.5001)"/>
</clipPath>
<clipPath id="clip1_3055_32771">
<rect width="22" height="22" fill="white" transform="translate(324 138.104)"/>
</clipPath>
</defs>
</svg>
