<svg width="288" height="241" viewBox="0 0 288 241" fill="none" xmlns="http://www.w3.org/2000/svg">
<g filter="url(#filter0_d_6678_39913)">
<rect opacity="0.7" x="41.2959" y="14.4375" width="209.651" height="209.651" rx="104.825" fill="#F7CCCC"/>
<path opacity="0.7" d="M31.4756 49.1158C31.4756 38.1129 40.3952 29.1934 51.398 29.1934H53.9573C64.9601 29.1934 73.8797 38.1129 73.8797 49.1158C73.8797 60.1186 64.9601 69.0382 53.9573 69.0382H51.398C40.3952 69.0382 31.4756 60.1186 31.4756 49.1158Z" fill="#F7CCCC"/>
<rect opacity="0.7" x="201.749" y="153.416" width="74.6821" height="74.6821" rx="37.341" fill="#F7CCCC"/>
<path opacity="0.7" d="M212.475 20.0232C212.475 11.0012 219.788 3.6875 228.81 3.6875H230.909C239.931 3.6875 247.244 11.0012 247.244 20.0232C247.244 29.0451 239.931 36.3588 230.909 36.3588H228.81C219.788 36.3588 212.475 29.0451 212.475 20.0232Z" fill="#F7CCCC"/>
<path opacity="0.7" d="M35.7881 76.9469C35.7881 68.1818 42.8937 61.0762 51.6588 61.0762H53.6976C62.4628 61.0762 69.5684 68.1818 69.5684 76.9469C69.5684 85.7121 62.4628 92.8177 53.6976 92.8177H51.6588C42.8937 92.8177 35.7881 85.7121 35.7881 76.9469Z" fill="#F7CCCC"/>
<path opacity="0.7" d="M5.33984 66.7074C5.33984 61.0527 9.92383 56.4688 15.5785 56.4688H16.8937C22.5483 56.4688 27.1323 61.0527 27.1323 66.7074C27.1323 72.362 22.5483 76.946 16.8937 76.946H15.5785C9.92383 76.946 5.33984 72.362 5.33984 66.7074Z" fill="#F7CCCC"/>
</g>
<g filter="url(#filter1_d_6678_39913)">
<path d="M183.556 59.1211H105.071C104.372 59.1211 103.68 59.2513 103.035 59.5042C102.389 59.7571 101.803 60.1277 101.31 60.5949C100.816 61.062 100.425 61.6165 100.159 62.2266C99.8929 62.8366 99.7569 63.4903 99.7588 64.1501V172.341C99.7569 173.001 99.8929 173.654 100.159 174.264C100.425 174.875 100.816 175.429 101.31 175.896C101.803 176.363 102.389 176.734 103.035 176.987C103.68 177.24 104.372 177.37 105.071 177.37H183.556C184.256 177.37 184.948 177.24 185.595 176.987C186.241 176.734 186.828 176.364 187.323 175.897C187.818 175.43 188.21 174.876 188.478 174.265C188.745 173.655 188.883 173.001 188.883 172.341V64.1501C188.883 63.4896 188.745 62.8357 188.478 62.2256C188.21 61.6154 187.818 61.061 187.323 60.594C186.828 60.1271 186.241 59.7566 185.595 59.5039C184.948 59.2512 184.256 59.1211 183.556 59.1211ZM181.197 170.114H107.445V66.3776H181.269L181.197 170.114Z" fill="#E03030"/>
<path d="M167.706 59.1211H120.907V66.3776H167.706V59.1211Z" fill="#E03030"/>
<path d="M181.197 66.377H107.445V170.113H181.197V66.377Z" fill="#F8F8F8"/>
<path d="M164.608 58.4781V61.9082C164.608 62.3757 164.412 62.8241 164.061 63.1547C163.711 63.4853 163.236 63.6711 162.741 63.6711H125.916C125.419 63.6711 124.943 63.4858 124.59 63.1556C124.238 62.8254 124.038 62.377 124.034 61.9082V58.4781C124.034 58.0069 124.232 57.5551 124.585 57.2219C124.938 56.8887 125.417 56.7016 125.916 56.7016H131.634C132.252 56.7034 132.865 56.5897 133.436 56.3672C134.008 56.1446 134.527 55.8175 134.965 55.4048C135.402 54.992 135.748 54.5017 135.984 53.962C136.22 53.4223 136.34 52.844 136.338 52.2602V50.7707C136.338 50.5255 136.39 50.2827 136.489 50.0563C136.589 49.8299 136.736 49.6244 136.92 49.4517C137.104 49.2789 137.323 49.1423 137.563 49.0497C137.804 48.9571 138.062 48.9104 138.321 48.9122H150.336C150.858 48.9122 151.359 49.108 151.728 49.4565C152.097 49.8051 152.304 50.2778 152.304 50.7707V52.3149C152.304 53.4928 152.8 54.6225 153.682 55.4554C154.565 56.2883 155.761 56.7562 157.009 56.7562H162.799C163.276 56.7734 163.727 56.9607 164.063 57.2803C164.399 57.5999 164.594 58.0281 164.608 58.4781Z" fill="#4071D1"/>
<path d="M157.574 80.3438H131.069C129.894 80.3438 128.941 81.2431 128.941 82.3526V107.374C128.941 108.484 129.894 109.383 131.069 109.383H157.574C158.749 109.383 159.701 108.484 159.701 107.374V82.3526C159.701 81.2431 158.749 80.3438 157.574 80.3438Z" fill="#E46666"/>
<path d="M149.612 80.3438H139.03V91.9186H149.612V80.3438Z" fill="#F7CCCC"/>
<path d="M146.297 96.7412H142.331C142.177 96.7412 142.024 96.7125 141.882 96.6569C141.74 96.6013 141.61 96.5198 141.502 96.417C141.393 96.3142 141.306 96.1922 141.247 96.0579C141.189 95.9236 141.158 95.7796 141.158 95.6343C141.162 95.3418 141.287 95.0623 141.506 94.8555C141.725 94.6486 142.021 94.5309 142.331 94.5273H146.297C146.608 94.5273 146.906 94.644 147.126 94.8516C147.346 95.0591 147.469 95.3407 147.469 95.6343C147.469 95.9278 147.346 96.2094 147.126 96.417C146.906 96.6246 146.608 96.7412 146.297 96.7412Z" fill="#F8F8F8"/>
<path d="M147.498 101.606H141.129C140.745 101.606 140.377 101.462 140.106 101.206C139.834 100.95 139.682 100.602 139.682 100.24C139.682 99.8772 139.834 99.5296 140.106 99.2733C140.377 99.017 140.745 98.873 141.129 98.873H147.498C147.882 98.873 148.25 99.017 148.522 99.2733C148.793 99.5296 148.946 99.8772 148.946 100.24C148.946 100.602 148.793 100.95 148.522 101.206C148.25 101.462 147.882 101.606 147.498 101.606Z" fill="#F8F8F8"/>
<path d="M166.939 126.63H121.703C121.319 126.63 120.951 126.486 120.68 126.229C120.408 125.973 120.256 125.625 120.256 125.263C120.256 124.901 120.408 124.553 120.68 124.297C120.951 124.04 121.319 123.896 121.703 123.896H166.939C167.323 123.896 167.691 124.04 167.962 124.297C168.234 124.553 168.386 124.901 168.386 125.263C168.386 125.625 168.234 125.973 167.962 126.229C167.691 126.486 167.323 126.63 166.939 126.63ZM166.939 134.665H121.703C121.319 134.665 120.951 134.521 120.68 134.265C120.408 134.008 120.256 133.661 120.256 133.298C120.256 132.936 120.408 132.588 120.68 132.332C120.951 132.076 121.319 131.932 121.703 131.932H166.939C167.323 131.932 167.691 132.076 167.962 132.332C168.234 132.588 168.386 132.936 168.386 133.298C168.386 133.661 168.234 134.008 167.962 134.265C167.691 134.521 167.323 134.665 166.939 134.665ZM166.939 142.687H121.703C121.319 142.687 120.951 142.543 120.68 142.287C120.408 142.03 120.256 141.683 120.256 141.32C120.256 140.958 120.408 140.61 120.68 140.354C120.951 140.098 121.319 139.954 121.703 139.954H166.939C167.323 139.954 167.691 140.098 167.962 140.354C168.234 140.61 168.386 140.958 168.386 141.32C168.386 141.683 168.234 142.03 167.962 142.287C167.691 142.543 167.323 142.687 166.939 142.687ZM159.701 150.722H121.703C121.319 150.722 120.951 150.578 120.68 150.322C120.408 150.066 120.256 149.718 120.256 149.356C120.256 148.993 120.408 148.646 120.68 148.389C120.951 148.133 121.319 147.989 121.703 147.989H159.701C160.085 147.989 160.453 148.133 160.725 148.389C160.996 148.646 161.149 148.993 161.149 149.356C161.149 149.718 160.996 150.066 160.725 150.322C160.453 150.578 160.085 150.722 159.701 150.722ZM142.794 158.744H121.703C121.319 158.744 120.951 158.6 120.68 158.344C120.408 158.087 120.256 157.74 120.256 157.377C120.256 157.015 120.408 156.667 120.68 156.411C120.951 156.155 121.319 156.011 121.703 156.011H142.794C143.178 156.011 143.546 156.155 143.817 156.411C144.089 156.667 144.241 157.015 144.241 157.377C144.241 157.74 144.089 158.087 143.817 158.344C143.546 158.6 143.178 158.744 142.794 158.744Z" fill="#9F9F9F"/>
<path d="M191.735 177.355C203.119 177.355 212.348 168.643 212.348 157.895C212.348 147.148 203.119 138.436 191.735 138.436C180.351 138.436 171.122 147.148 171.122 157.895C171.122 168.643 180.351 177.355 191.735 177.355Z" fill="#5073B9"/>
<path d="M186.553 165.672L180.024 160.971C179.41 160.529 179.007 159.875 178.904 159.152C178.801 158.429 179.006 157.697 179.474 157.118C179.943 156.538 180.636 156.157 181.402 156.06C182.167 155.962 182.942 156.156 183.556 156.598L188.131 159.919L199.711 149.615C200.275 149.151 201.008 148.912 201.755 148.947C202.503 148.982 203.207 149.289 203.72 149.803C204.233 150.317 204.515 150.999 204.507 151.705C204.499 152.412 204.201 153.088 203.677 153.592L190.302 165.495C189.801 165.94 189.149 166.202 188.462 166.235C187.775 166.267 187.098 166.068 186.553 165.672Z" fill="#F8F8F8"/>
</g>
<defs>
<filter id="filter0_d_6678_39913" x="0.0241656" y="0.143714" width="287.038" height="240.357" filterUnits="userSpaceOnUse" color-interpolation-filters="sRGB">
<feFlood flood-opacity="0" result="BackgroundImageFix"/>
<feColorMatrix in="SourceAlpha" type="matrix" values="0 0 0 0 0 0 0 0 0 0 0 0 0 0 0 0 0 0 127 0" result="hardAlpha"/>
<feOffset dx="2.65784" dy="4.42973"/>
<feGaussianBlur stdDeviation="3.98676"/>
<feComposite in2="hardAlpha" operator="out"/>
<feColorMatrix type="matrix" values="0 0 0 0 0 0 0 0 0 0 0 0 0 0 0 0 0 0 0.4 0"/>
<feBlend mode="normal" in2="BackgroundImageFix" result="effect1_dropShadow_6678_39913"/>
<feBlend mode="normal" in="SourceGraphic" in2="effect1_dropShadow_6678_39913" result="shape"/>
</filter>
<filter id="filter1_d_6678_39913" x="96.215" y="43.5964" width="128.536" height="144.404" filterUnits="userSpaceOnUse" color-interpolation-filters="sRGB">
<feFlood flood-opacity="0" result="BackgroundImageFix"/>
<feColorMatrix in="SourceAlpha" type="matrix" values="0 0 0 0 0 0 0 0 0 0 0 0 0 0 0 0 0 0 127 0" result="hardAlpha"/>
<feOffset dx="4.42973" dy="2.65784"/>
<feGaussianBlur stdDeviation="3.98676"/>
<feComposite in2="hardAlpha" operator="out"/>
<feColorMatrix type="matrix" values="0 0 0 0 0 0 0 0 0 0 0 0 0 0 0 0 0 0 0.4 0"/>
<feBlend mode="normal" in2="BackgroundImageFix" result="effect1_dropShadow_6678_39913"/>
<feBlend mode="normal" in="SourceGraphic" in2="effect1_dropShadow_6678_39913" result="shape"/>
</filter>
</defs>
</svg>
