<svg width="280" height="234" viewBox="0 0 280 234" fill="none" xmlns="http://www.w3.org/2000/svg">
<rect opacity="0.7" x="43.9114" y="23.0008" width="209.651" height="209.651" rx="104.825" fill="#F7CCCC"/>
<path opacity="0.7" d="M28.3704 50.7443C28.3704 38.5145 38.3613 28.6002 50.5911 28.6002C62.821 28.6002 72.8118 38.5145 72.8118 50.7443C72.8118 62.9742 62.821 72.8885 50.5911 72.8885C38.3613 72.8885 28.3704 62.9742 28.3704 50.7443Z" fill="#F7CCCC"/>
<rect opacity="0.7" x="204.365" y="149.978" width="74.6821" height="74.6821" rx="37.341" fill="#F7CCCC"/>
<path opacity="0.7" d="M218.065 18.4074C218.065 8.37933 226.257 0.25 236.285 0.25C246.313 0.25 254.506 8.37933 254.506 18.4074C254.506 28.4354 246.313 36.5647 236.285 36.5647C226.257 36.5647 218.065 28.4354 218.065 18.4074Z" fill="#F7CCCC"/>
<path opacity="0.7" d="M32.8896 81.6787C32.8896 71.9361 40.8487 64.0381 50.5913 64.0381C60.334 64.0381 68.293 71.9361 68.293 81.6787C68.293 91.4214 60.334 99.3193 50.5913 99.3193C40.8487 99.3193 32.8896 91.4214 32.8896 81.6787Z" fill="#F7CCCC"/>
<path opacity="0.7" d="M0.97876 70.2984C0.97876 64.0132 6.11331 58.918 12.3985 58.918C18.6837 58.918 23.8183 64.0132 23.8183 70.2984C23.8183 76.5836 18.6837 81.6788 12.3985 81.6788C6.11331 81.6788 0.97876 76.5836 0.97876 70.2984Z" fill="#F7CCCC"/>
<g filter="url(#filter0_d_4435_57893)">
<path d="M187.758 61.865H105.502C104.769 61.865 104.044 62.0097 103.368 62.2908C102.691 62.5719 102.077 62.9839 101.559 63.5031C101.042 64.0224 100.632 64.6387 100.354 65.3168C100.075 65.9949 99.9321 66.7214 99.9341 67.4548V187.711C99.9321 188.444 100.075 189.171 100.354 189.849C100.632 190.527 101.042 191.143 101.559 191.662C102.077 192.182 102.691 192.594 103.368 192.875C104.044 193.156 104.769 193.301 105.502 193.301H187.758C188.491 193.301 189.217 193.156 189.894 192.875C190.571 192.594 191.187 192.182 191.705 191.663C192.224 191.144 192.635 190.528 192.916 189.85C193.196 189.172 193.341 188.445 193.341 187.711V67.4548C193.341 66.7207 193.196 65.9938 192.916 65.3156C192.635 64.6375 192.224 64.0213 191.705 63.5022C191.187 62.9831 190.571 62.5714 189.894 62.2905C189.217 62.0096 188.491 61.865 187.758 61.865ZM185.285 185.235H107.99V69.9307H185.361L185.285 185.235Z" fill="#E03030"/>
<path d="M171.146 61.865H122.099V69.9307H171.146V61.865Z" fill="#E03030"/>
<path d="M185.285 69.931H107.99V185.235H185.285V69.931Z" fill="#F8F8F8"/>
<path d="M167.899 61.1513V64.9639C167.899 65.4835 167.693 65.9819 167.326 66.3494C166.959 66.7169 166.461 66.9233 165.942 66.9233H127.348C126.827 66.9233 126.328 66.7174 125.959 66.3503C125.589 65.9833 125.38 65.4849 125.376 64.9639V61.1513C125.376 60.6276 125.584 60.1253 125.953 59.755C126.323 59.3847 126.825 59.1766 127.348 59.1766H133.34C133.988 59.1786 134.63 59.0523 135.23 58.8049C135.829 58.5576 136.373 58.194 136.831 57.7352C137.289 57.2764 137.653 56.7314 137.9 56.1315C138.147 55.5317 138.273 54.8889 138.271 54.24V52.5843C138.271 52.3118 138.325 52.0419 138.429 51.7903C138.534 51.5386 138.687 51.3102 138.881 51.1182C139.074 50.9262 139.303 50.7743 139.555 50.6714C139.807 50.5685 140.077 50.5165 140.349 50.5185H152.941C153.488 50.5185 154.013 50.7362 154.4 51.1236C154.787 51.511 155.004 52.0365 155.004 52.5843V54.3008C155.004 55.61 155.524 56.8657 156.448 57.7915C157.373 58.7173 158.627 59.2374 159.935 59.2374H166.003C166.503 59.2564 166.976 59.4646 167.328 59.8199C167.68 60.1752 167.884 60.651 167.899 61.1513Z" fill="#4071D1"/>
<path d="M160.526 85.4545H132.749C131.517 85.4545 130.519 86.4542 130.519 87.6873V115.5C130.519 116.733 131.517 117.732 132.749 117.732H160.526C161.758 117.732 162.756 116.733 162.756 115.5V87.6873C162.756 86.4542 161.758 85.4545 160.526 85.4545Z" fill="#E46666"/>
<path d="M152.182 85.4545H141.093V98.3201H152.182V85.4545Z" fill="#F7CCCC"/>
<path d="M148.708 103.682H144.551C144.39 103.682 144.23 103.65 144.081 103.589C143.932 103.527 143.797 103.436 143.682 103.322C143.568 103.208 143.478 103.072 143.416 102.923C143.354 102.773 143.323 102.613 143.323 102.452C143.326 102.127 143.457 101.816 143.687 101.586C143.916 101.356 144.227 101.225 144.551 101.222H148.708C149.034 101.222 149.347 101.351 149.577 101.582C149.807 101.813 149.937 102.126 149.937 102.452C149.937 102.778 149.807 103.091 149.577 103.322C149.347 103.553 149.034 103.682 148.708 103.682Z" fill="#F8F8F8"/>
<path d="M149.967 109.09H143.292C142.89 109.09 142.504 108.93 142.219 108.645C141.935 108.36 141.775 107.974 141.775 107.571C141.775 107.168 141.935 106.782 142.219 106.497C142.504 106.212 142.89 106.052 143.292 106.052H149.967C150.37 106.052 150.756 106.212 151.04 106.497C151.325 106.782 151.484 107.168 151.484 107.571C151.484 107.974 151.325 108.36 151.04 108.645C150.756 108.93 150.37 109.09 149.967 109.09Z" fill="#F8F8F8"/>
<path d="M170.342 136.902H122.933C122.531 136.902 122.145 136.742 121.86 136.457C121.576 136.172 121.416 135.786 121.416 135.383C121.416 134.98 121.576 134.594 121.86 134.309C122.145 134.024 122.531 133.864 122.933 133.864H170.342C170.744 133.864 171.13 134.024 171.414 134.309C171.699 134.594 171.859 134.98 171.859 135.383C171.859 135.786 171.699 136.172 171.414 136.457C171.13 136.742 170.744 136.902 170.342 136.902ZM170.342 145.833H122.933C122.531 145.833 122.145 145.673 121.86 145.389C121.576 145.104 121.416 144.717 121.416 144.314C121.416 143.912 121.576 143.525 121.86 143.24C122.145 142.956 122.531 142.796 122.933 142.796H170.342C170.744 142.796 171.13 142.956 171.414 143.24C171.699 143.525 171.859 143.912 171.859 144.314C171.859 144.717 171.699 145.104 171.414 145.389C171.13 145.673 170.744 145.833 170.342 145.833ZM170.342 154.75H122.933C122.531 154.75 122.145 154.59 121.86 154.305C121.576 154.02 121.416 153.634 121.416 153.231C121.416 152.828 121.576 152.442 121.86 152.157C122.145 151.872 122.531 151.712 122.933 151.712H170.342C170.744 151.712 171.13 151.872 171.414 152.157C171.699 152.442 171.859 152.828 171.859 153.231C171.859 153.634 171.699 154.02 171.414 154.305C171.13 154.59 170.744 154.75 170.342 154.75ZM162.756 163.681H122.933C122.531 163.681 122.145 163.521 121.86 163.236C121.576 162.951 121.416 162.565 121.416 162.162C121.416 161.759 121.576 161.373 121.86 161.088C122.145 160.803 122.531 160.643 122.933 160.643H162.756C163.159 160.643 163.545 160.803 163.829 161.088C164.114 161.373 164.273 161.759 164.273 162.162C164.273 162.565 164.114 162.951 163.829 163.236C163.545 163.521 163.159 163.681 162.756 163.681ZM145.037 172.598H122.933C122.531 172.598 122.145 172.437 121.86 172.153C121.576 171.868 121.416 171.481 121.416 171.079C121.416 170.676 121.576 170.289 121.86 170.004C122.145 169.72 122.531 169.56 122.933 169.56H145.037C145.439 169.56 145.825 169.72 146.11 170.004C146.394 170.289 146.554 170.676 146.554 171.079C146.554 171.481 146.394 171.868 146.11 172.153C145.825 172.437 145.439 172.598 145.037 172.598Z" fill="#9F9F9F"/>
<path d="M196.329 193.285C208.26 193.285 217.932 183.601 217.932 171.655C217.932 159.71 208.26 150.026 196.329 150.026C184.398 150.026 174.726 159.71 174.726 171.655C174.726 183.601 184.398 193.285 196.329 193.285Z" fill="#5073B9"/>
<path d="M190.898 180.299L184.056 175.074C183.412 174.582 182.99 173.855 182.882 173.052C182.773 172.248 182.989 171.435 183.479 170.79C183.97 170.146 184.697 169.723 185.499 169.614C186.301 169.506 187.114 169.722 187.758 170.213L192.552 173.904L204.688 162.451C205.28 161.936 206.048 161.669 206.831 161.708C207.614 161.747 208.352 162.088 208.889 162.66C209.427 163.232 209.723 163.989 209.714 164.775C209.706 165.56 209.395 166.311 208.845 166.871L194.827 180.101C194.302 180.596 193.619 180.888 192.899 180.924C192.179 180.96 191.47 180.739 190.898 180.299Z" fill="#F8F8F8"/>
</g>
<defs>
<filter id="filter0_d_4435_57893" x="96.3903" y="45.2028" width="133.945" height="158.729" filterUnits="userSpaceOnUse" color-interpolation-filters="sRGB">
<feFlood flood-opacity="0" result="BackgroundImageFix"/>
<feColorMatrix in="SourceAlpha" type="matrix" values="0 0 0 0 0 0 0 0 0 0 0 0 0 0 0 0 0 0 127 0" result="hardAlpha"/>
<feOffset dx="4.42973" dy="2.65784"/>
<feGaussianBlur stdDeviation="3.98676"/>
<feComposite in2="hardAlpha" operator="out"/>
<feColorMatrix type="matrix" values="0 0 0 0 0 0 0 0 0 0 0 0 0 0 0 0 0 0 0.4 0"/>
<feBlend mode="normal" in2="BackgroundImageFix" result="effect1_dropShadow_4435_57893"/>
<feBlend mode="normal" in="SourceGraphic" in2="effect1_dropShadow_4435_57893" result="shape"/>
</filter>
</defs>
</svg>
