<svg width="495" height="390" viewBox="0 0 495 390" fill="none" xmlns="http://www.w3.org/2000/svg">
<g opacity="0.8">
<path opacity="0.3" d="M251.313 255.657C317.4 255.657 370.974 202.151 370.974 136.148C370.974 70.1447 317.4 16.6387 251.313 16.6387C185.226 16.6387 131.652 70.1447 131.652 136.148C131.652 202.151 185.226 255.657 251.313 255.657Z" fill="#D9D9D9"/>
<path opacity="0.3" d="M452.281 162.136V148.279C452.281 146.971 452.023 145.676 451.523 144.467C451.022 143.258 450.288 142.16 449.363 141.235C448.439 140.31 447.341 139.576 446.132 139.075C444.924 138.574 443.628 138.317 442.32 138.317H407.163C404.521 138.317 401.988 137.267 400.12 135.399C398.252 133.53 397.203 130.996 397.203 128.354V114.497C397.203 113.189 397.46 111.893 397.961 110.685C398.461 109.476 399.195 108.378 400.12 107.452C401.045 106.527 402.143 105.793 403.351 105.293C404.56 104.792 405.855 104.534 407.163 104.534H408.273C409.581 104.534 410.876 104.277 412.085 103.776C413.293 103.275 414.391 102.541 415.316 101.616C416.241 100.691 416.975 99.5928 417.476 98.3841C417.976 97.1753 418.234 95.8798 418.234 94.5715V80.7149C418.234 78.0726 417.184 75.5385 415.316 73.6701C413.448 71.8017 410.915 70.7521 408.273 70.7521L109.821 70.752C107.179 70.752 104.646 71.8016 102.778 73.67C100.91 75.5384 99.8604 78.0725 99.8604 80.7148V94.5714C99.8604 95.8797 100.118 97.1752 100.619 98.384C101.119 99.5927 101.853 100.691 102.778 101.616C103.703 102.541 104.801 103.275 106.009 103.776C107.218 104.277 108.513 104.534 109.821 104.534C112.463 104.534 114.996 105.584 116.864 107.452C118.732 109.321 119.781 111.855 119.781 114.497V128.354C119.781 129.662 119.524 130.958 119.023 132.166C118.523 133.375 117.789 134.473 116.864 135.398C115.939 136.324 114.841 137.057 113.633 137.558C112.424 138.059 111.129 138.316 109.821 138.316H71.3027C69.9947 138.316 68.6994 138.574 67.491 139.075C66.2825 139.576 65.1845 140.309 64.2596 141.235C63.3346 142.16 62.601 143.258 62.1004 144.467C61.5998 145.676 61.3422 146.971 61.3422 148.279V162.136C61.3422 163.444 61.5998 164.74 62.1004 165.949C62.601 167.157 63.3347 168.256 64.2596 169.181C65.1845 170.106 66.2825 170.84 67.491 171.34C68.6995 171.841 69.9947 172.099 71.3027 172.099H86.4166C89.0583 172.099 91.5918 173.148 93.4598 175.017C95.3277 176.885 96.3771 179.419 96.3771 182.062V195.918C96.3771 198.561 95.3277 201.095 93.4598 202.963C91.5918 204.831 89.0583 205.881 86.4166 205.881H86.3801C83.7384 205.881 81.2049 206.931 79.337 208.799C77.469 210.668 76.4196 213.202 76.4196 215.844V229.7C76.4196 231.009 76.6772 232.304 77.1778 233.513C77.6784 234.722 78.4121 235.82 79.337 236.745C80.2619 237.67 81.3599 238.404 82.5684 238.905C83.7769 239.406 85.0721 239.663 86.3801 239.663H88.5668C91.2085 239.663 93.742 240.713 95.6099 242.581C97.4779 244.45 98.5273 246.984 98.5273 249.626V263.483C98.5273 264.791 98.2697 266.087 97.7691 267.295C97.2685 268.504 96.5348 269.602 95.6099 270.528C94.685 271.453 93.587 272.187 92.3785 272.687C91.17 273.188 89.8748 273.446 88.5668 273.446H52.6797C51.3716 273.446 50.0764 273.703 48.8679 274.204C47.6595 274.705 46.5614 275.439 45.6365 276.364C44.7116 277.289 43.9779 278.387 43.4773 279.596C42.9768 280.805 42.7191 282.1 42.7191 283.409V297.265C42.7191 298.573 42.9767 299.869 43.4773 301.078C43.9779 302.286 44.7116 303.385 45.6365 304.31C46.5614 305.235 47.6594 305.969 48.8679 306.47C50.0764 306.97 51.3716 307.228 52.6796 307.228L413.621 307.228C416.262 307.228 418.796 306.178 420.664 304.31C422.532 302.442 423.581 299.908 423.581 297.265V283.409C423.581 282.1 423.324 280.805 422.823 279.596C422.322 278.387 421.589 277.289 420.664 276.364C419.739 275.439 418.641 274.705 417.432 274.204C416.224 273.703 414.929 273.446 413.621 273.446H404.984C402.343 273.446 399.809 272.396 397.941 270.528C396.073 268.659 395.024 266.125 395.024 263.483V249.626C395.024 246.984 396.073 244.45 397.941 242.581C399.809 240.713 402.343 239.663 404.984 239.663H425.348C426.656 239.663 427.951 239.406 429.16 238.905C430.368 238.404 431.466 237.671 432.391 236.745C433.316 235.82 434.05 234.722 434.55 233.513C435.051 232.304 435.308 231.009 435.308 229.701V215.844C435.308 214.536 435.051 213.24 434.55 212.031C434.05 210.823 433.316 209.724 432.391 208.799C431.466 207.874 430.368 207.14 429.16 206.64C427.951 206.139 426.656 205.881 425.348 205.881H419.171C417.863 205.881 416.567 205.624 415.359 205.123C414.15 204.622 413.052 203.888 412.127 202.963C411.202 202.038 410.469 200.94 409.968 199.731C409.468 198.522 409.21 197.227 409.21 195.918V182.062C409.21 180.753 409.468 179.458 409.968 178.249C410.469 177.04 411.202 175.942 412.127 175.017C413.052 174.092 414.15 173.358 415.359 172.857C416.567 172.357 417.863 172.099 419.171 172.099H442.32C443.628 172.099 444.924 171.841 446.132 171.341C447.34 170.84 448.439 170.106 449.363 169.181C450.288 168.256 451.022 167.157 451.523 165.949C452.023 164.74 452.281 163.444 452.281 162.136Z" fill="#D9D9D9"/>
<path opacity="0.5" d="M148.793 199.283H201.489C202.331 199.283 203.012 198.601 203.012 197.76V174.65C203.012 173.809 202.331 173.127 201.489 173.127H148.793C147.952 173.127 147.27 173.809 147.27 174.65V197.76C147.27 198.601 147.952 199.283 148.793 199.283Z" fill="#D9D9D9"/>
<path opacity="0.5" d="M176.665 168.41H229.362C230.203 168.41 230.885 167.728 230.885 166.887V143.777C230.885 142.936 230.203 142.254 229.362 142.254H176.665C175.824 142.254 175.142 142.936 175.142 143.777V166.887C175.142 167.728 175.824 168.41 176.665 168.41Z" fill="#D9D9D9"/>
<path opacity="0.5" d="M116.209 168.41H168.905C169.747 168.41 170.428 167.728 170.428 166.887V143.777C170.428 142.936 169.747 142.254 168.905 142.254H116.209C115.368 142.254 114.686 142.936 114.686 143.777V166.887C114.686 167.728 115.368 168.41 116.209 168.41Z" fill="#D9D9D9"/>
<path opacity="0.5" d="M358.774 217.713H306.078C305.236 217.713 304.555 218.395 304.555 219.236V242.346C304.555 243.188 305.236 243.87 306.078 243.87H358.774C359.615 243.87 360.297 243.188 360.297 242.346V219.236C360.297 218.395 359.615 217.713 358.774 217.713Z" fill="#D9D9D9"/>
<path opacity="0.5" d="M330.903 248.584H278.207C277.366 248.584 276.684 249.266 276.684 250.107V273.217C276.684 274.059 277.366 274.741 278.207 274.741H330.903C331.744 274.741 332.426 274.059 332.426 273.217V250.107C332.426 249.266 331.744 248.584 330.903 248.584Z" fill="#D9D9D9"/>
<path opacity="0.5" d="M391.359 248.584H338.663C337.822 248.584 337.14 249.266 337.14 250.107V273.217C337.14 274.059 337.822 274.741 338.663 274.741H391.359C392.2 274.741 392.882 274.059 392.882 273.217V250.107C392.882 249.266 392.2 248.584 391.359 248.584Z" fill="#D9D9D9"/>
<path opacity="0.5" d="M258.035 288.564V298.334C258.035 302.107 256.536 305.726 253.869 308.394C251.201 311.062 247.584 312.561 243.811 312.561H196.028C192.256 312.561 188.638 314.06 185.971 316.728C183.303 319.396 181.805 323.014 181.805 326.787C181.805 330.561 180.306 334.179 177.639 336.847C174.972 339.515 171.354 341.014 167.582 341.014H130.678C126.905 341.014 123.288 339.515 120.62 336.847C117.953 334.179 116.454 330.561 116.454 326.787V301.572C116.454 299.704 116.087 297.854 115.372 296.128C114.657 294.402 113.609 292.834 112.289 291.513C110.968 290.192 109.4 289.144 107.674 288.429C105.949 287.714 104.099 287.346 102.231 287.346H57.9499" stroke="#555555" stroke-width="4" stroke-miterlimit="10" stroke-linecap="round"/>
<path opacity="0.5" d="M329.452 48.9873H187.136C184.192 48.9873 181.805 51.3745 181.805 54.3193V192.282C181.805 195.227 184.192 197.614 187.136 197.614H329.452C332.396 197.614 334.783 195.227 334.783 192.282V54.3193C334.783 51.3745 332.396 48.9873 329.452 48.9873Z" fill="#555555"/>
<path opacity="0.5" d="M291.725 196.975H224.344C223.536 196.975 222.762 197.296 222.19 197.867C221.619 198.438 221.298 199.213 221.298 200.021V230.124C221.298 230.933 221.619 231.708 222.19 232.279C222.762 232.85 223.536 233.171 224.344 233.171H234.607C235.415 233.171 236.19 233.492 236.761 234.064C237.332 234.635 237.653 235.41 237.653 236.218V263.579C237.653 264.387 237.974 265.162 238.545 265.734C239.117 266.305 239.891 266.626 240.699 266.626H275.37C276.178 266.626 276.953 266.305 277.524 265.734C278.095 265.162 278.416 264.387 278.416 263.579V236.218C278.416 235.41 278.737 234.635 279.308 234.064C279.88 233.492 280.654 233.171 281.462 233.171H291.725C292.533 233.171 293.308 232.85 293.879 232.279C294.45 231.708 294.771 230.933 294.771 230.124V200.021C294.771 199.621 294.693 199.225 294.539 198.855C294.386 198.486 294.162 198.15 293.879 197.867C293.596 197.584 293.26 197.36 292.891 197.207C292.521 197.053 292.125 196.975 291.725 196.975Z" fill="#9F9F9F"/>
<path opacity="0.9" d="M283.119 255.656H232.949C229.921 255.656 227.466 258.112 227.466 261.141C227.466 264.17 229.921 266.625 232.949 266.625H283.119C286.148 266.625 288.602 264.17 288.602 261.141C288.602 258.112 286.148 255.656 283.119 255.656Z" fill="#F8F8F8"/>
<path opacity="0.5" d="M237.336 266.627H278.733V272.317C278.733 273.717 278.177 275.06 277.188 276.05C276.198 277.04 274.856 277.596 273.456 277.596H242.614C241.921 277.596 241.234 277.459 240.594 277.194C239.954 276.929 239.372 276.54 238.882 276.05C238.392 275.559 238.003 274.977 237.738 274.337C237.473 273.697 237.336 273.01 237.336 272.317L237.336 266.627Z" fill="#555555"/>
<path opacity="0.5" d="M245.604 277.594H270.466V287.097C270.466 290.395 269.156 293.558 266.825 295.889C264.493 298.221 261.332 299.531 258.035 299.531C254.738 299.531 251.576 298.221 249.245 295.889C246.913 293.558 245.604 290.395 245.604 287.097V277.594Z" fill="#9F9F9F"/>
<path d="M275.55 196.974V164.342" stroke="#F8F8F8" stroke-width="10" stroke-miterlimit="10"/>
<path d="M240.519 196.974V164.342" stroke="#F8F8F8" stroke-width="10" stroke-miterlimit="10"/>
<path d="M258.294 159.497C278.28 159.497 294.482 143.291 294.482 123.3C294.482 103.309 278.28 87.1035 258.294 87.1035C238.308 87.1035 222.106 103.309 222.106 123.3C222.106 143.291 238.308 159.497 258.294 159.497Z" fill="#F8F8F8"/>
<path d="M230.416 132.481C230.414 125.698 232.318 119.051 235.912 113.298C239.505 107.545 244.642 102.918 250.738 99.945C256.833 96.972 263.641 95.7725 270.386 96.4835C277.13 97.1944 283.539 99.7872 288.881 103.966C286.063 99.5036 282.304 95.7117 277.866 92.856C273.429 90.0004 268.421 88.15 263.193 87.4346C257.965 86.7192 252.644 87.1562 247.603 88.7148C242.562 90.2734 237.922 92.916 234.01 96.4574C230.098 99.9987 227.007 104.353 224.955 109.215C222.902 114.077 221.938 119.33 222.129 124.604C222.321 129.878 223.663 135.047 226.062 139.748C228.461 144.448 231.859 148.567 236.018 151.816C232.351 146.034 230.408 139.328 230.416 132.481Z" fill="#D9D9D9"/>
<path d="M240.779 132.074C244.261 132.074 247.084 129.25 247.084 125.767C247.084 122.284 244.261 119.46 240.779 119.46C237.296 119.46 234.473 122.284 234.473 125.767C234.473 129.25 237.296 132.074 240.779 132.074Z" fill="#D9D9D9"/>
<path d="M275.809 132.074C279.292 132.074 282.115 129.25 282.115 125.767C282.115 122.284 279.292 119.46 275.809 119.46C272.327 119.46 269.504 122.284 269.504 125.767C269.504 129.25 272.327 132.074 275.809 132.074Z" fill="#D9D9D9"/>
<path d="M313.972 327.198C320.381 327.198 325.577 322.005 325.577 315.598C325.577 309.192 320.381 303.998 313.972 303.998C307.563 303.998 302.367 309.192 302.367 315.598C302.367 322.005 307.563 327.198 313.972 327.198Z" fill="#CACACA"/>
<path d="M298.499 293.901C301.822 293.901 304.516 291.208 304.516 287.886C304.516 284.564 301.822 281.871 298.499 281.871C295.176 281.871 292.482 284.564 292.482 287.886C292.482 291.208 295.176 293.901 298.499 293.901Z" fill="#CACACA"/>
<path d="M337.86 302.494C342.607 302.494 346.456 298.647 346.456 293.901C346.456 289.156 342.607 285.309 337.86 285.309C333.113 285.309 329.264 289.156 329.264 293.901C329.264 298.647 333.113 302.494 337.86 302.494Z" fill="#CACACA"/>
<path d="M149.185 89.5286C156.811 89.5286 162.993 83.3493 162.993 75.7267C162.993 68.1041 156.811 61.9248 149.185 61.9248C141.56 61.9248 135.378 68.1041 135.378 75.7267C135.378 83.3493 141.56 89.5286 149.185 89.5286Z" fill="#CACACA"/>
<path d="M122.802 73.0844C126.774 73.0844 129.994 69.8657 129.994 65.8952C129.994 61.9248 126.774 58.7061 122.802 58.7061C118.83 58.7061 115.61 61.9248 115.61 65.8952C115.61 69.8657 118.83 73.0844 122.802 73.0844Z" fill="#CACACA"/>
<path d="M129.408 45.6042C131.699 45.6042 133.557 43.7476 133.557 41.4574C133.557 39.1672 131.699 37.3105 129.408 37.3105C127.116 37.3105 125.259 39.1672 125.259 41.4574C125.259 43.7476 127.116 45.6042 129.408 45.6042Z" fill="#CACACA"/>
<path d="M152.373 54.3332C157.866 54.3332 162.318 49.8822 162.318 44.3917C162.318 38.9012 157.866 34.4502 152.373 34.4502C146.88 34.4502 142.428 38.9012 142.428 44.3917C142.428 49.8822 146.88 54.3332 152.373 54.3332Z" fill="#CACACA"/>
<path d="M395.956 125.571C403.581 125.571 409.763 119.391 409.763 111.769C409.763 104.146 403.581 97.9668 395.956 97.9668C388.33 97.9668 382.148 104.146 382.148 111.769C382.148 119.391 388.33 125.571 395.956 125.571Z" fill="#CACACA"/>
<path d="M367.842 120.514C371.814 120.514 375.034 117.295 375.034 113.325C375.034 109.354 371.814 106.136 367.842 106.136C363.87 106.136 360.65 109.354 360.65 113.325C360.65 117.295 363.87 120.514 367.842 120.514Z" fill="#CACACA"/>
<path d="M368.432 71.484C371.87 71.484 374.657 68.6981 374.657 65.2616C374.657 61.825 371.87 59.0391 368.432 59.0391C364.994 59.0391 362.207 61.825 362.207 65.2616C362.207 68.6981 364.994 71.484 368.432 71.484Z" fill="#CACACA"/>
<path d="M364.103 92.4343C366.395 92.4343 368.252 90.5777 368.252 88.2875C368.252 85.9972 366.395 84.1406 364.103 84.1406C361.812 84.1406 359.954 85.9972 359.954 88.2875C359.954 90.5777 361.812 92.4343 364.103 92.4343Z" fill="#CACACA"/>
<path d="M386.321 91.7228C391.814 91.7228 396.266 87.2719 396.266 81.7813C396.266 76.2908 391.814 71.8398 386.321 71.8398C380.828 71.8398 376.376 76.2908 376.376 81.7813C376.376 87.2719 380.828 91.7228 386.321 91.7228Z" fill="#CACACA"/>
</g>
</svg>
