<svg width="622" height="490" viewBox="0 0 622 490" fill="none" xmlns="http://www.w3.org/2000/svg">
<g opacity="0.8">
<path opacity="0.3" d="M304.207 408.069C385.022 408.069 450.535 342.542 450.535 261.71C450.535 180.879 385.022 115.352 304.207 115.352C223.393 115.352 157.88 180.879 157.88 261.71C157.88 342.542 223.393 408.069 304.207 408.069Z" fill="#D9D9D9"/>
<path opacity="0.3" d="M570.974 235.466V218.057C570.974 216.413 570.65 214.785 570.021 213.266C569.392 211.748 568.47 210.368 567.308 209.205C566.146 208.043 564.766 207.121 563.247 206.492C561.729 205.863 560.102 205.539 558.458 205.539H523.85C520.53 205.539 517.347 204.22 515 201.873C512.652 199.525 511.334 196.342 511.334 193.022V175.612C511.334 168.699 526.507 163.095 533.419 163.095H534.814C538.133 163.095 541.317 161.776 543.664 159.429C546.011 157.081 547.33 153.897 547.33 150.577V133.168C547.33 131.524 547.006 129.896 546.377 128.378C545.748 126.859 544.826 125.479 543.664 124.317C542.502 123.154 541.122 122.232 539.604 121.603C538.085 120.974 536.458 120.65 534.814 120.65H111.943C110.299 120.65 108.672 120.974 107.153 121.603C105.635 122.232 104.255 123.154 103.093 124.317C101.93 125.479 101.008 126.859 100.379 128.378C99.7504 129.896 99.4267 131.524 99.4267 133.168V150.577C99.4267 152.221 99.7504 153.849 100.379 155.368C101.008 156.886 101.93 158.266 103.093 159.429C104.255 160.591 105.635 161.513 107.153 162.142C108.672 162.771 110.299 163.095 111.943 163.095C115.262 163.095 118.446 164.414 120.793 166.761C123.14 169.109 124.459 172.292 124.459 175.612V193.022C124.459 196.342 123.14 199.525 120.793 201.873C118.446 204.22 115.262 205.539 111.943 205.539H63.5421C61.8985 205.539 60.271 205.863 58.7525 206.492C57.234 207.121 55.8542 208.043 54.692 209.205C53.5298 210.368 52.6078 211.748 51.9788 213.266C51.3499 214.785 51.0261 216.413 51.0261 218.057V235.466C51.0261 238.786 52.3448 241.97 54.692 244.317C57.0392 246.665 60.2227 247.984 63.5421 247.984H82.5338C85.8533 247.984 89.0368 249.302 91.384 251.65C93.7312 253.997 95.0498 257.181 95.0498 260.501V277.911C95.0498 279.554 94.7261 281.182 94.0971 282.701C93.4681 284.22 92.5462 285.599 91.384 286.762C90.2218 287.924 88.842 288.846 87.3235 289.475C85.805 290.104 84.1774 290.428 82.5338 290.428H82.4879C79.1684 290.428 75.9849 291.747 73.6377 294.094C71.2905 296.442 69.9718 299.626 69.9718 302.946V320.355C69.9718 321.999 70.2956 323.627 70.9246 325.145C71.5536 326.664 72.4755 328.044 73.6377 329.206C74.7999 330.368 76.1797 331.291 77.6982 331.92C79.2167 332.549 80.8442 332.872 82.4879 332.872H85.2356C88.555 332.872 91.7385 334.191 94.0857 336.539C96.433 338.886 97.7516 342.07 97.7516 345.39V362.799C97.7516 366.119 96.433 369.303 94.0858 371.651C91.7386 373.998 88.555 375.317 85.2356 375.317H68.8488C67.2051 375.317 65.5776 375.641 64.0591 376.27C62.5406 376.899 61.1608 377.821 59.9986 378.983C58.8364 380.145 57.9145 381.525 57.2855 383.044C56.6565 384.563 56.3327 386.191 56.3327 387.834V405.244C56.3327 408.564 57.6514 411.748 59.9986 414.095C62.3458 416.443 65.5293 417.761 68.8488 417.761H531.964C535.284 417.761 538.467 416.443 540.814 414.095C543.161 411.748 544.48 408.564 544.48 405.244V387.834C544.48 386.191 544.156 384.563 543.527 383.044C542.898 381.525 541.977 380.145 540.814 378.983C539.652 377.821 538.272 376.899 536.754 376.27C535.235 375.641 533.608 375.317 531.964 375.317H521.112C517.793 375.317 514.609 373.998 512.262 371.651C509.915 369.303 508.596 366.119 508.596 362.799V345.39C508.596 342.07 509.915 338.886 512.262 336.539C514.609 334.191 517.793 332.872 521.112 332.872H546.7C550.02 332.872 553.203 331.554 555.55 329.206C557.897 326.859 559.216 323.675 559.216 320.355V302.946C559.216 299.626 557.897 296.442 555.55 294.094C553.203 291.747 550.02 290.428 546.7 290.428H538.938C535.618 290.428 532.435 289.109 530.088 286.762C527.741 284.414 526.422 281.23 526.422 277.911V260.501C526.422 257.181 527.741 253.997 530.088 251.65C532.435 249.302 535.618 247.984 538.938 247.984H558.458C561.777 247.984 564.961 246.665 567.308 244.317C569.655 241.97 570.974 238.786 570.974 235.466Z" fill="#D9D9D9"/>
<path d="M212.229 204.962C212.226 211.31 209.704 217.397 205.217 221.887C200.73 226.376 194.645 228.901 188.298 228.907H98.873C94.3206 228.907 89.9287 227.224 86.5418 224.182C83.1549 221.14 81.0122 216.953 80.5255 212.426C80.0388 207.899 81.2426 203.352 83.9053 199.659C86.5681 195.966 90.5019 193.388 94.9504 192.421C95.3062 187.034 97.6951 181.983 101.633 178.291C105.572 174.599 110.766 172.541 116.164 172.534C118.35 172.534 120.522 172.881 122.599 173.562C125.75 167.466 130.692 162.481 136.761 159.279C142.83 156.076 149.733 154.81 156.543 155.649C163.354 156.488 169.743 159.392 174.853 163.972C179.963 168.552 183.548 174.587 185.126 181.266C188.505 180.809 191.943 181.081 195.208 182.063C198.474 183.044 201.491 184.714 204.059 186.958C206.626 189.203 208.683 191.97 210.092 195.076C211.501 198.181 212.23 201.552 212.229 204.962Z" fill="#F8F8F8"/>
<path opacity="0.5" d="M367.726 345.565L349.948 319.131C364.281 306.396 373.313 288.746 375.259 269.671C377.206 250.595 371.925 231.484 360.46 216.116C348.996 200.748 332.182 190.241 313.345 186.674C294.508 183.107 275.018 186.738 258.729 196.851C242.44 206.964 230.538 222.821 225.377 241.287C220.216 259.754 222.171 279.485 230.856 296.579C239.54 313.673 254.323 326.886 272.279 333.604C290.236 340.323 310.059 340.058 327.83 332.863L345.161 358.515C346.011 359.997 347.145 361.297 348.497 362.341C349.85 363.384 351.395 364.151 353.043 364.598C354.692 365.044 356.413 365.162 358.107 364.943C359.802 364.725 361.436 364.175 362.918 363.324C364.4 362.474 365.699 361.34 366.743 359.987C367.786 358.635 368.553 357.09 369 355.441C369.446 353.792 369.564 352.071 369.345 350.376C369.127 348.682 368.577 347.047 367.726 345.565Z" fill="#555555"/>
<path opacity="0.5" d="M299.261 316.358C329.411 316.358 353.852 291.914 353.852 261.761C353.852 231.608 329.411 207.164 299.261 207.164C269.112 207.164 244.671 231.608 244.671 261.761C244.671 291.914 269.112 316.358 299.261 316.358Z" fill="#9F9F9F"/>
<path opacity="0.9" d="M299.261 207.164C296.655 207.167 294.053 207.355 291.473 207.726C304.468 209.599 316.352 216.092 324.948 226.016C333.544 235.941 338.275 248.631 338.275 261.761C338.275 274.891 333.544 287.581 324.948 297.505C316.352 307.429 304.468 313.923 291.473 315.795C298.894 316.865 306.456 316.395 313.687 314.413C320.919 312.432 327.664 308.982 333.504 304.278C339.343 299.575 344.151 293.719 347.628 287.075C351.104 280.432 353.176 273.143 353.712 265.663C354.248 258.184 353.238 250.674 350.744 243.603C348.251 236.531 344.328 230.049 339.219 224.56C334.11 219.071 327.926 214.694 321.051 211.701C314.177 208.708 306.759 207.164 299.261 207.164Z" fill="#D9D9D9"/>
<path d="M270.022 271.274C274.688 271.274 278.47 267.491 278.47 262.825C278.47 258.158 274.688 254.375 270.022 254.375C265.356 254.375 261.573 258.158 261.573 262.825C261.573 267.491 265.356 271.274 270.022 271.274Z" fill="#F8F8F8"/>
<path d="M326.578 257.21C329.808 257.21 332.426 254.592 332.426 251.361C332.426 248.131 329.808 245.512 326.578 245.512C323.348 245.512 320.729 248.131 320.729 251.361C320.729 254.592 323.348 257.21 326.578 257.21Z" fill="#D9D9D9"/>
<path d="M293.918 243.77C296.072 243.77 297.817 242.023 297.817 239.87C297.817 237.716 296.072 235.97 293.918 235.97C291.764 235.97 290.019 237.716 290.019 239.87C290.019 242.023 291.764 243.77 293.918 243.77Z" fill="#D9D9D9"/>
<path d="M295.362 295.704C297.516 295.704 299.261 293.958 299.261 291.804C299.261 289.65 297.516 287.904 295.362 287.904C293.208 287.904 291.463 289.65 291.463 291.804C291.463 293.958 293.208 295.704 295.362 295.704Z" fill="#D9D9D9"/>
<path d="M317.897 282.798C320.81 282.798 323.172 280.436 323.172 277.522C323.172 274.608 320.81 272.246 317.897 272.246C314.983 272.246 312.621 274.608 312.621 277.522C312.621 280.436 314.983 282.798 317.897 282.798Z" fill="#F8F8F8"/>
<path d="M258.576 315.161C260.231 315.161 261.573 313.819 261.573 312.163C261.573 310.508 260.231 309.166 258.576 309.166C256.921 309.166 255.579 310.508 255.579 312.163C255.579 313.819 256.921 315.161 258.576 315.161Z" fill="#555555"/>
<path d="M356.849 232.616C358.504 232.616 359.846 231.274 359.846 229.619C359.846 227.963 358.504 226.621 356.849 226.621C355.194 226.621 353.852 227.963 353.852 229.619C353.852 231.274 355.194 232.616 356.849 232.616Z" fill="#555555"/>
<path d="M355.029 293.849C353.21 297.711 350.979 301.365 348.376 304.748C345.684 308.111 342.662 311.196 339.357 313.959C335.982 316.677 332.351 319.06 328.516 321.078C320.759 325.061 312.241 327.344 303.531 327.776C301.36 327.796 299.193 327.876 297.03 327.745C294.869 327.624 292.717 327.383 290.583 327.025C282.084 325.66 274.008 322.374 266.971 317.416C274.547 320.953 282.661 323.2 290.977 324.064C299.169 324.864 307.438 324.186 315.391 322.063C319.346 320.986 323.203 319.572 326.917 317.836C330.619 316.041 334.173 313.955 337.545 311.598C340.891 309.152 344.042 306.45 346.97 303.516C349.878 300.485 352.571 297.255 355.029 293.849ZM236.201 274.524C233.199 263.472 233.439 251.79 236.893 240.871C238.603 235.371 241.062 230.132 244.201 225.303C245.774 222.887 247.512 220.583 249.404 218.409C251.281 216.219 253.303 214.157 255.455 212.238C257.624 210.336 259.908 208.57 262.297 206.953C263.521 206.192 264.701 205.36 265.969 204.672L267.847 203.602L269.78 202.633C271.059 201.971 272.407 201.451 273.72 200.865C275.073 200.371 276.396 199.801 277.776 199.389C280.502 198.478 283.291 197.765 286.12 197.258C291.758 196.262 297.505 196.039 303.203 196.594C308.841 197.169 314.367 198.557 319.607 200.716C314.206 199.332 308.663 198.578 303.089 198.47C297.585 198.387 292.09 198.963 286.723 200.184C281.403 201.437 276.259 203.347 271.411 205.87C268.993 207.123 266.651 208.517 264.398 210.047C262.163 211.6 260.024 213.287 257.993 215.1C249.778 222.355 243.495 231.54 239.71 241.827C235.92 252.283 234.716 263.501 236.201 274.524Z" fill="#555555"/>
<path opacity="0.5" d="M194.513 318.224V340.394C194.513 359.648 195.679 361.107 216.389 363.148V371.317H148.134V363.148C170.011 361.107 171.469 359.356 171.469 340.102V318.224H94.4639V309.472C122.174 270.089 152.218 227.499 181.387 186.949H194.513V304.22H223.098V318.224L194.513 318.224ZM171.469 217.58C153.093 244.418 132.675 274.173 112.549 304.22H171.469V217.58ZM482.697 318.224V340.394C482.697 359.648 483.864 361.107 504.574 363.148V371.317H436.319V363.148C458.195 361.107 459.654 359.356 459.654 340.102V318.224H382.649V309.472C410.359 270.089 440.402 227.499 469.572 186.949H482.697V304.22H511.283V318.224L482.697 318.224ZM459.654 217.58C441.278 244.418 420.859 274.173 400.734 304.22H459.654V217.58Z" fill="#555555"/>
<path d="M528.642 137.524C528.638 145.885 525.316 153.903 519.406 159.816C513.496 165.73 505.48 169.055 497.12 169.063H379.335C373.338 169.063 367.554 166.847 363.093 162.839C358.632 158.832 355.809 153.317 355.168 147.355C354.527 141.392 356.113 135.403 359.62 130.539C363.127 125.675 368.309 122.279 374.168 121.005C374.637 113.909 377.783 107.257 382.971 102.394C388.158 97.5307 394.999 94.8201 402.109 94.8105C404.988 94.8107 407.849 95.2678 410.585 96.1648C414.736 88.1356 421.246 81.5703 429.239 77.3521C437.232 73.1339 446.325 71.4651 455.295 72.5703C464.265 73.6755 472.682 77.5016 479.412 83.5339C486.143 89.5662 490.865 97.5153 492.943 106.312C497.394 105.71 501.922 106.068 506.223 107.362C510.524 108.655 514.499 110.853 517.88 113.81C521.262 116.766 523.971 120.412 525.827 124.502C527.683 128.592 528.643 133.032 528.642 137.524ZM528.476 384.128C528.473 390.476 525.951 396.563 521.464 401.052C516.977 405.542 510.892 408.067 504.545 408.072H415.12C410.568 408.073 406.176 406.39 402.789 403.348C399.402 400.305 397.259 396.118 396.773 391.591C396.286 387.064 397.49 382.518 400.153 378.825C402.815 375.132 406.749 372.554 411.198 371.586C411.554 366.199 413.942 361.149 417.881 357.456C421.819 353.764 427.013 351.706 432.411 351.699C434.597 351.699 436.769 352.046 438.846 352.727C441.997 346.631 446.94 341.647 453.008 338.444C459.077 335.242 465.981 333.975 472.791 334.814C479.601 335.653 485.991 338.558 491.101 343.138C496.211 347.718 499.796 353.753 501.373 360.431C504.753 359.975 508.19 360.246 511.456 361.228C514.721 362.21 517.739 363.879 520.306 366.124C522.873 368.368 524.93 371.136 526.339 374.241C527.749 377.347 528.477 380.718 528.476 384.128Z" fill="#F8F8F8"/>
<path opacity="0.3" d="M77.4285 398.179C86.1106 398.179 93.1488 391.14 93.1488 382.456C93.1488 373.773 86.1106 366.734 77.4285 366.734C68.7464 366.734 61.7081 373.773 61.7081 382.456C61.7081 391.14 68.7464 398.179 77.4285 398.179Z" fill="#9F9F9F"/>
<path opacity="0.3" d="M97.2128 365.418C101.735 365.418 105.401 361.751 105.401 357.228C105.401 352.706 101.735 349.039 97.2128 349.039C92.6905 349.039 89.0244 352.706 89.0244 357.228C89.0244 361.751 92.6905 365.418 97.2128 365.418Z" fill="#9F9F9F"/>
<path opacity="0.3" d="M137.912 400.941C141.826 400.941 144.999 397.768 144.999 393.853C144.999 389.939 141.826 386.766 137.912 386.766C133.998 386.766 130.825 389.939 130.825 393.853C130.825 397.768 133.998 400.941 137.912 400.941Z" fill="#9F9F9F"/>
<path opacity="0.3" d="M121.453 377.567C124.061 377.567 126.176 375.452 126.176 372.843C126.176 370.234 124.061 368.119 121.453 368.119C118.844 368.119 116.729 370.234 116.729 372.843C116.729 375.452 118.844 377.567 121.453 377.567Z" fill="#9F9F9F"/>
<path opacity="0.3" d="M110.334 408.071C116.588 408.071 121.657 403.001 121.657 396.746C121.657 390.492 116.588 385.422 110.334 385.422C104.08 385.422 99.0109 390.492 99.0109 396.746C99.0109 403.001 104.08 408.071 110.334 408.071Z" fill="#9F9F9F"/>
<path opacity="0.3" d="M295.002 171.038C303.684 171.038 310.723 163.999 310.723 155.316C310.723 146.633 303.684 139.594 295.002 139.594C286.32 139.594 279.282 146.633 279.282 155.316C279.282 163.999 286.32 171.038 295.002 171.038Z" fill="#9F9F9F"/>
<path opacity="0.3" d="M263.818 178.126C267.732 178.126 270.905 174.952 270.905 171.038C270.905 167.123 267.732 163.95 263.818 163.95C259.904 163.95 256.731 167.123 256.731 171.038C256.731 174.952 259.904 178.126 263.818 178.126Z" fill="#9F9F9F"/>
<path opacity="0.3" d="M255.13 155.316C261.384 155.316 266.453 150.246 266.453 143.992C266.453 137.737 261.384 132.667 255.13 132.667C248.876 132.667 243.807 137.737 243.807 143.992C243.807 150.246 248.876 155.316 255.13 155.316Z" fill="#9F9F9F"/>
</g>
</svg>
