<svg width="497" height="391" viewBox="0 0 497 391" fill="none" xmlns="http://www.w3.org/2000/svg">
<g opacity="0.8">
<path opacity="0.3" d="M259.447 361.915C351.206 361.915 425.592 287.621 425.592 195.974C425.592 104.327 351.206 30.0322 259.447 30.0322C167.688 30.0322 93.3031 104.327 93.3031 195.974C93.3031 287.621 167.688 361.915 259.447 361.915Z" fill="#D9D9D9"/>
<path opacity="0.3" d="M461.754 162.418V148.526C461.754 145.877 460.701 143.336 458.825 141.463C456.95 139.59 454.406 138.538 451.754 138.538H416.454C415.141 138.538 413.841 138.279 412.627 137.777C411.414 137.275 410.311 136.54 409.383 135.612C408.454 134.685 407.717 133.583 407.215 132.372C406.712 131.16 406.454 129.861 406.454 128.549V114.657C406.454 113.345 406.712 112.047 407.215 110.835C407.717 109.623 408.454 108.522 409.383 107.594C410.311 106.667 411.414 105.931 412.627 105.429C413.841 104.927 415.141 104.669 416.454 104.669H417.569C420.221 104.669 422.765 103.616 424.641 101.743C426.516 99.87 427.57 97.3294 427.57 94.6803V80.7882C427.57 78.1391 426.516 75.5985 424.641 73.7253C422.765 71.8521 420.221 70.7998 417.569 70.7998H102.618C99.966 70.7998 97.4223 71.8521 95.5468 73.7253C93.6713 75.5985 92.6177 78.1391 92.6177 80.7882V94.6803C92.6177 97.3294 93.6713 99.87 95.5468 101.743C97.4223 103.616 99.966 104.669 102.618 104.669C103.932 104.669 105.232 104.927 106.446 105.429C107.659 105.931 108.761 106.667 109.69 107.594C110.619 108.522 111.355 109.623 111.858 110.835C112.36 112.047 112.619 113.345 112.619 114.657V128.549C112.619 129.861 112.36 131.16 111.858 132.372C111.355 133.583 110.619 134.685 109.69 135.612C108.761 136.54 107.659 137.275 106.446 137.777C105.232 138.279 103.932 138.538 102.618 138.538H63.9446C61.2923 138.538 58.7485 139.59 56.873 141.463C54.9975 143.336 53.9439 145.877 53.9439 148.526V162.418C53.9439 165.067 54.9975 167.608 56.873 169.481C58.7485 171.354 61.2923 172.406 63.9446 172.406H79.1196C80.433 172.406 81.7334 172.665 82.9468 173.167C84.1601 173.669 85.2626 174.405 86.1913 175.332C87.1199 176.26 87.8566 177.361 88.3591 178.573C88.8617 179.784 89.1204 181.083 89.1204 182.395V196.287C89.1204 197.599 88.8617 198.898 88.3591 200.109C87.8565 201.321 87.1199 202.422 86.1912 203.35C85.2626 204.277 84.1601 205.013 82.9468 205.515C81.7334 206.017 80.433 206.275 79.1196 206.275H79.0829C76.4306 206.275 73.8869 207.328 72.0114 209.201C70.1359 211.074 69.0822 213.615 69.0822 216.264V230.156C69.0822 231.468 69.3409 232.766 69.8435 233.978C70.3461 235.19 71.0827 236.291 72.0114 237.219C72.94 238.146 74.0425 238.882 75.2559 239.384C76.4692 239.886 77.7697 240.144 79.083 240.144H81.2785C83.9309 240.144 86.4746 241.197 88.3501 243.07C90.2256 244.943 91.2792 247.484 91.2792 250.133V264.025C91.2792 266.674 90.2256 269.215 88.3501 271.088C86.4746 272.961 83.9309 274.013 81.2785 274.013H45.2464C42.594 274.013 40.0503 275.066 38.1748 276.939C36.2993 278.812 35.2456 281.353 35.2456 284.002V297.894C35.2456 300.543 36.2993 303.083 38.1748 304.957C40.0503 306.83 42.594 307.882 45.2464 307.882H422.938C425.59 307.882 428.134 306.83 430.01 304.957C431.885 303.083 432.939 300.543 432.939 297.894V284.002C432.939 281.353 431.885 278.812 430.01 276.939C428.134 275.066 425.59 274.013 422.938 274.013H414.267C411.615 274.013 409.071 272.961 407.195 271.088C405.32 269.215 404.266 266.674 404.266 264.025V250.133C404.266 247.484 405.32 244.943 407.195 243.07C409.071 241.197 411.615 240.144 414.267 240.144H434.713C436.026 240.144 437.326 239.886 438.54 239.384C439.753 238.882 440.856 238.146 441.784 237.219C442.713 236.291 443.45 235.19 443.952 233.978C444.455 232.766 444.713 231.468 444.713 230.156V216.264C444.713 213.615 443.66 211.074 441.784 209.201C439.909 207.328 437.365 206.275 434.713 206.275H428.51C427.197 206.275 425.897 206.017 424.683 205.515C423.47 205.013 422.367 204.277 421.439 203.35C420.51 202.422 419.773 201.321 419.271 200.109C418.768 198.898 418.51 197.599 418.51 196.287V182.395C418.51 181.083 418.768 179.784 419.271 178.573C419.773 177.361 420.51 176.26 421.439 175.332C422.367 174.405 423.47 173.669 424.683 173.167C425.897 172.665 427.197 172.406 428.51 172.406H451.754C454.406 172.406 456.95 171.354 458.825 169.481C460.701 167.608 461.754 165.067 461.754 162.418Z" fill="#D9D9D9"/>
<path opacity="0.5" d="M144.28 142.41C144.355 145.52 144.344 148.628 144.302 151.734C144.29 153.287 144.246 154.84 144.217 156.393L144.082 161.049L143.899 165.705C143.822 167.256 143.761 168.808 143.667 170.358C143.497 173.46 143.296 176.561 143.007 179.659C142.931 176.549 142.941 173.441 142.983 170.335C142.995 168.782 143.041 167.229 143.069 165.677L143.205 161.02L143.388 156.364C143.465 154.813 143.527 153.261 143.621 151.711C143.791 148.609 143.992 145.508 144.28 142.41Z" fill="#555555"/>
<path opacity="0.5" d="M177.998 154.206C176.564 156.823 175.058 159.393 173.526 161.947C172.767 163.229 171.981 164.494 171.208 165.766L168.848 169.559L166.448 173.327C165.634 174.574 164.834 175.83 164.006 177.068C162.365 179.554 160.697 182.023 158.956 184.446C160.388 181.829 161.894 179.258 163.426 176.704C164.185 175.423 164.972 174.158 165.745 172.885L168.106 169.093L170.506 165.326C171.32 164.078 172.121 162.823 172.948 161.585C174.59 159.099 176.257 156.63 177.998 154.206Z" fill="#555555"/>
<path opacity="0.5" d="M161.994 146.266C161.25 149.301 160.423 152.311 159.567 155.312C159.146 156.815 158.696 158.309 158.26 159.807L156.907 164.288L155.508 168.754C155.026 170.238 154.56 171.727 154.062 173.206C153.083 176.17 152.074 179.124 150.981 182.053C151.725 179.017 152.551 176.007 153.407 173.005C153.827 171.502 154.278 170.009 154.714 168.511L156.068 164.031L157.468 159.564C157.95 158.08 158.417 156.592 158.915 155.112C159.894 152.149 160.903 149.195 161.994 146.266Z" fill="#555555"/>
<path d="M163.983 171.519L146.246 166.195C144.628 165.709 142.923 166.625 142.436 168.241L140.212 175.631C139.726 177.247 140.644 178.95 142.261 179.436L159.999 184.76C161.616 185.246 163.322 184.33 163.808 182.714L166.032 175.324C166.518 173.708 165.601 172.005 163.983 171.519Z" fill="#9F9F9F"/>
<path opacity="0.5" d="M144.333 165.62C144.117 166.758 143.846 167.88 143.555 168.996C143.268 170.112 142.947 171.219 142.621 172.325C142.284 173.426 141.94 174.526 141.564 175.616C141.191 176.707 140.798 177.793 140.349 178.861C140.564 177.723 140.835 176.601 141.126 175.485C141.414 174.368 141.734 173.261 142.061 172.156C142.399 171.055 142.743 169.955 143.12 168.865C143.493 167.774 143.886 166.689 144.333 165.62ZM146.992 166.418C146.775 167.556 146.504 168.678 146.213 169.794C145.926 170.91 145.606 172.017 145.279 173.123C144.942 174.224 144.598 175.324 144.222 176.414C143.849 177.505 143.456 178.59 143.007 179.659C143.222 178.52 143.494 177.399 143.785 176.283C144.072 175.166 144.392 174.059 144.719 172.954C145.057 171.853 145.401 170.753 145.778 169.663C146.151 168.572 146.544 167.487 146.992 166.418ZM149.65 167.216C149.433 168.354 149.162 169.476 148.871 170.591C148.584 171.708 148.264 172.815 147.937 173.92C147.6 175.022 147.256 176.122 146.88 177.212C146.507 178.303 146.114 179.388 145.665 180.457C145.881 179.318 146.152 178.197 146.443 177.081C146.73 175.964 147.05 174.857 147.377 173.752C147.715 172.651 148.059 171.551 148.436 170.461C148.809 169.37 149.202 168.284 149.65 167.216ZM152.308 168.014C152.092 169.152 151.82 170.273 151.529 171.389C151.242 172.506 150.922 173.613 150.595 174.718C150.259 175.82 149.914 176.92 149.538 178.01C149.165 179.101 148.772 180.186 148.323 181.255C148.539 180.116 148.81 178.995 149.101 177.879C149.388 176.762 149.708 175.655 150.036 174.55C150.373 173.448 150.717 172.349 151.094 171.259C151.467 170.167 151.86 169.082 152.308 168.014ZM154.966 168.812C154.75 169.95 154.478 171.071 154.187 172.187C153.9 173.304 153.58 174.411 153.253 175.516C152.917 176.618 152.573 177.718 152.196 178.808C151.823 179.899 151.43 180.984 150.981 182.053C151.197 180.914 151.468 179.792 151.759 178.677C152.046 177.56 152.366 176.453 152.694 175.348C153.031 174.246 153.375 173.146 153.752 172.056C154.125 170.965 154.518 169.88 154.966 168.812ZM157.624 169.61C157.408 170.748 157.136 171.869 156.845 172.985C156.558 174.102 156.238 175.209 155.912 176.314C155.575 177.416 155.231 178.516 154.854 179.606C154.481 180.697 154.088 181.782 153.639 182.85C153.855 181.712 154.126 180.59 154.417 179.475C154.704 178.358 155.025 177.251 155.352 176.146C155.689 175.044 156.033 173.944 156.41 172.854C156.783 171.763 157.176 170.678 157.624 169.61ZM160.282 170.407C160.066 171.546 159.794 172.667 159.504 173.783C159.216 174.9 158.896 176.007 158.57 177.112C158.233 178.214 157.889 179.314 157.512 180.404C157.139 181.495 156.746 182.58 156.297 183.648C156.513 182.51 156.784 181.388 157.075 180.272C157.363 179.156 157.683 178.049 158.01 176.944C158.347 175.842 158.691 174.742 159.068 173.652C159.441 172.561 159.834 171.476 160.282 170.407ZM162.94 171.205C162.724 172.344 162.453 173.465 162.162 174.581C161.874 175.698 161.554 176.805 161.228 177.91C160.891 179.012 160.547 180.112 160.17 181.202C159.797 182.293 159.404 183.378 158.956 184.446C159.171 183.308 159.442 182.186 159.733 181.07C160.021 179.954 160.341 178.847 160.668 177.742C161.005 176.64 161.349 175.54 161.726 174.45C162.099 173.359 162.492 172.274 162.94 171.205ZM165.598 172.003C165.382 173.141 165.111 174.263 164.82 175.379C164.532 176.496 164.212 177.603 163.886 178.708C163.549 179.81 163.205 180.909 162.828 181.999C162.455 183.091 162.062 184.176 161.614 185.244C161.829 184.106 162.1 182.984 162.391 181.868C162.679 180.752 162.999 179.645 163.326 178.54C163.664 177.438 164.008 176.338 164.384 175.248C164.758 174.157 165.15 173.072 165.598 172.003Z" fill="#555555"/>
<path opacity="0.5" d="M142.79 167.003C144.791 167.485 146.78 168.004 148.759 168.557C150.74 169.103 152.711 169.682 154.681 170.267C156.647 170.863 158.611 171.465 160.566 172.101C162.522 172.728 164.468 173.391 166.403 174.091C164.403 173.609 162.413 173.091 160.434 172.537C158.453 171.991 156.482 171.412 154.513 170.826C152.547 170.23 150.582 169.628 148.628 168.992C146.671 168.365 144.726 167.702 142.79 167.003ZM142.016 169.577C144.016 170.059 146.006 170.577 147.984 171.131C149.966 171.677 151.937 172.256 153.906 172.841C155.873 173.437 157.837 174.039 159.791 174.674C161.748 175.302 163.694 175.965 165.629 176.665C163.628 176.183 161.638 175.665 159.66 175.111C157.679 174.565 155.707 173.986 153.738 173.4C151.772 172.804 149.808 172.201 147.854 171.566C145.897 170.939 143.951 170.276 142.016 169.577ZM141.241 172.15C143.242 172.633 145.231 173.151 147.21 173.705C149.191 174.251 151.162 174.83 153.132 175.415C155.098 176.01 157.062 176.613 159.016 177.248C160.973 177.875 162.919 178.539 164.854 179.238C162.854 178.756 160.864 178.239 158.885 177.685C156.904 177.139 154.933 176.56 152.964 175.974C150.998 175.378 149.033 174.775 147.079 174.14C145.122 173.512 143.176 172.849 141.241 172.15ZM140.467 174.724C142.467 175.207 144.457 175.725 146.435 176.279C148.417 176.825 150.388 177.404 152.357 177.989C154.324 178.584 156.288 179.187 158.242 179.822C160.199 180.449 162.145 181.113 164.079 181.812C162.079 181.33 160.09 180.812 158.111 180.259C156.13 179.712 154.158 179.134 152.189 178.548C150.223 177.952 148.259 177.349 146.305 176.714C144.348 176.086 142.402 175.423 140.467 174.724ZM139.692 177.298C141.693 177.781 143.682 178.299 145.661 178.852C147.642 179.399 149.613 179.977 151.583 180.562C153.549 181.158 155.513 181.761 157.468 182.396C159.424 183.023 161.37 183.686 163.305 184.386C161.305 183.904 159.315 183.386 157.336 182.832C155.355 182.286 153.384 181.707 151.415 181.121C149.449 180.525 147.484 179.923 145.53 179.287C143.573 178.66 141.628 177.997 139.692 177.298Z" fill="#555555"/>
<path d="M203.613 118.679C208.232 103.327 196.716 86.3009 181.345 81.687C165.975 77.0731 146.968 84.937 142.349 100.289C140.565 106.217 143.887 153.898 143.887 153.898L172.738 162.559C172.738 162.559 201.829 124.607 203.613 118.679Z" fill="#D9D9D9"/>
<path opacity="0.5" d="M181.345 81.6873C178.984 80.9847 176.549 80.5623 174.089 80.4287C185.86 87.2764 193.52 101.476 189.608 114.475C187.824 120.403 158.733 158.355 158.733 158.355L172.738 162.559C172.738 162.559 201.829 124.607 203.613 118.679C208.232 103.327 196.716 86.3012 181.345 81.6873Z" fill="#9F9F9F"/>
<path opacity="0.5" d="M188.094 84.6324C185.968 83.3894 183.703 82.4008 181.345 81.687C165.975 77.0731 146.968 84.937 142.349 100.289C140.565 106.217 143.887 153.898 143.887 153.898L157.892 158.102C157.892 158.102 154.57 110.421 156.354 104.493C160.266 91.4932 174.493 83.8639 188.094 84.6324Z" fill="#9F9F9F"/>
<path opacity="0.5" d="M181.345 81.6873C180.41 81.4066 179.463 81.1719 178.503 80.9834C192.455 86.6861 202.349 102.58 198.011 116.997C196.227 122.925 167.136 160.878 167.136 160.878L172.738 162.559C172.738 162.559 201.829 124.607 203.613 118.679C208.232 103.327 196.716 86.3012 181.345 81.6873Z" fill="#555555"/>
<path opacity="0.5" d="M184.105 82.6647C183.201 82.2953 182.281 81.9694 181.345 81.687C165.975 77.0731 146.968 84.937 142.349 100.289C140.565 106.217 143.887 153.898 143.887 153.898L149.489 155.58C149.489 155.58 146.167 107.898 147.951 101.97C152.289 87.5527 169.317 79.7402 184.105 82.6647Z" fill="#555555"/>
<path d="M317.968 104.731C317.964 112.953 314.693 120.837 308.874 126.653C303.054 132.468 295.161 135.738 286.928 135.746H170.941C165.037 135.746 159.34 133.567 154.947 129.626C150.554 125.685 147.775 120.262 147.144 114.398C146.513 108.534 148.074 102.645 151.528 97.8613C154.981 93.078 160.084 89.7386 165.853 88.4854C166.315 81.5077 169.413 74.9657 174.522 70.1833C179.63 65.401 186.366 62.7354 193.368 62.726C196.203 62.7262 199.02 63.1757 201.714 64.0578C205.802 56.1618 212.212 49.7055 220.083 45.5573C227.955 41.4091 236.909 39.768 245.742 40.8548C254.575 41.9417 262.863 45.7042 269.491 51.6364C276.119 57.5686 280.769 65.3858 282.815 74.0365C301.686 71.4341 317.968 86.2963 317.968 104.731Z" fill="#F8F8F8"/>
<path opacity="0.5" d="M213.615 263.06C213.812 271.191 213.783 279.314 213.674 287.434C213.641 291.496 213.526 295.554 213.45 299.613L213.097 311.787L212.621 323.958C212.419 328.013 212.26 332.069 212.014 336.123C211.569 344.233 211.043 352.339 210.288 360.437C210.088 352.306 210.116 344.183 210.225 336.062C210.257 332.001 210.375 327.943 210.45 323.884L210.806 311.709L211.285 299.539C211.486 295.484 211.648 291.427 211.892 287.374C212.338 279.264 212.863 271.158 213.615 263.06Z" fill="#555555"/>
<path opacity="0.5" d="M301.762 293.897C298.015 300.738 294.077 307.458 290.072 314.136C288.087 317.486 286.033 320.792 284.011 324.119L277.842 334.035L271.569 343.884C269.44 347.145 267.349 350.427 265.184 353.665C260.894 360.164 256.534 366.619 251.982 372.953C255.726 366.111 259.663 359.39 263.669 352.713C265.653 349.363 267.71 346.058 269.73 342.73L275.902 332.816L282.178 322.967C284.305 319.706 286.399 316.425 288.562 313.187C292.854 306.689 297.212 300.233 301.762 293.897Z" fill="#555555"/>
<path opacity="0.5" d="M259.924 273.139C257.979 281.074 255.817 288.943 253.579 296.789C252.481 300.718 251.303 304.624 250.164 308.54L246.625 320.253L242.969 331.93C241.708 335.809 240.489 339.702 239.188 343.568C236.628 351.315 233.99 359.039 231.135 366.695C233.078 358.758 235.238 350.889 237.477 343.043C238.574 339.114 239.754 335.21 240.893 331.293L244.434 319.581L248.093 307.904C249.352 304.024 250.574 300.133 251.875 296.266C254.435 288.519 257.072 280.796 259.924 273.139Z" fill="#555555"/>
<path d="M269.854 340.575L214.026 323.817C212.409 323.331 210.703 324.247 210.217 325.863L201.561 354.627C201.075 356.243 201.992 357.946 203.61 358.432L259.437 375.19C261.055 375.675 262.761 374.759 263.247 373.144L271.902 344.379C272.389 342.764 271.471 341.06 269.854 340.575Z" fill="#9F9F9F"/>
<path opacity="0.5" d="M213.755 323.736C213.191 326.712 212.481 329.644 211.721 332.561C210.969 335.48 210.132 338.374 209.279 341.263C208.398 344.144 207.499 347.019 206.515 349.869C205.539 352.721 204.512 355.558 203.339 358.351C203.902 355.375 204.611 352.443 205.372 349.526C206.123 346.606 206.96 343.712 207.815 340.824C208.698 337.944 209.597 335.069 210.582 332.219C211.558 329.367 212.585 326.53 213.755 323.736ZM220.704 325.822C220.139 328.798 219.43 331.73 218.669 334.647C217.918 337.566 217.082 340.46 216.228 343.349C215.347 346.23 214.448 349.105 213.463 351.955C212.488 354.807 211.461 357.644 210.288 360.437C210.851 357.461 211.56 354.529 212.321 351.612C213.072 348.692 213.909 345.798 214.765 342.91C215.647 340.03 216.546 337.154 217.531 334.305C218.507 331.453 219.533 328.616 220.704 325.822ZM227.653 327.908C227.088 330.883 226.379 333.816 225.618 336.733C224.867 339.652 224.03 342.546 223.177 345.435C222.296 348.316 221.397 351.191 220.413 354.041C219.437 356.893 218.41 359.73 217.237 362.523C217.8 359.547 218.509 356.614 219.27 353.698C220.021 350.778 220.858 347.884 221.713 344.996C222.596 342.116 223.495 339.24 224.48 336.391C225.456 333.538 226.482 330.701 227.653 327.908ZM234.602 329.994C234.037 332.969 233.328 335.901 232.567 338.818C231.816 341.738 230.979 344.632 230.126 347.521C229.245 350.402 228.346 353.277 227.361 356.127C226.386 358.979 225.359 361.816 224.186 364.609C224.749 361.633 225.458 358.7 226.218 355.784C226.97 352.864 227.807 349.97 228.662 347.082C229.545 344.201 230.444 341.326 231.429 338.477C232.404 335.624 233.431 332.787 234.602 329.994ZM241.551 332.08C240.986 335.055 240.276 337.987 239.516 340.904C238.765 343.824 237.928 346.718 237.075 349.607C236.194 352.488 235.295 355.363 234.31 358.213C233.335 361.065 232.308 363.902 231.135 366.695C231.698 363.719 232.407 360.786 233.168 357.87C233.919 354.95 234.756 352.056 235.611 349.168C236.494 346.287 237.393 343.412 238.378 340.562C239.354 337.71 240.38 334.873 241.551 332.08ZM248.5 334.166C247.935 337.141 247.226 340.073 246.465 342.99C245.714 345.91 244.877 348.804 244.024 351.693C243.143 354.574 242.244 357.449 241.259 360.299C240.284 363.151 239.256 365.988 238.084 368.781C238.647 365.805 239.355 362.872 240.116 359.956C240.868 357.036 241.705 354.142 242.56 351.253C243.442 348.373 244.342 345.498 245.327 342.648C246.302 339.796 247.329 336.959 248.5 334.166ZM255.449 336.252C254.884 339.227 254.174 342.159 253.414 345.076C252.663 347.996 251.826 350.89 250.973 353.779C250.092 356.66 249.192 359.535 248.208 362.384C247.233 365.237 246.206 368.073 245.033 370.867C245.596 367.891 246.305 364.958 247.065 362.041C247.817 359.122 248.654 356.228 249.509 353.339C250.392 350.459 251.291 347.584 252.275 344.734C253.251 341.882 254.278 339.045 255.449 336.252ZM262.398 338.337C261.833 341.313 261.123 344.245 260.363 347.162C259.612 350.082 258.775 352.975 257.922 355.865C257.04 358.746 256.141 361.62 255.157 364.47C254.182 367.323 253.154 370.159 251.982 372.953C252.545 369.976 253.253 367.044 254.014 364.127C254.766 361.208 255.603 358.314 256.458 355.425C257.34 352.545 258.24 349.67 259.225 346.82C260.2 343.968 261.227 341.131 262.398 338.337ZM269.347 340.423C268.782 343.399 268.072 346.331 267.312 349.248C266.561 352.167 265.724 355.061 264.87 357.951C263.99 360.831 263.09 363.706 262.106 366.556C261.131 369.409 260.103 372.245 258.93 375.038C259.494 372.062 260.202 369.13 260.963 366.213C261.715 363.294 262.552 360.4 263.407 357.511C264.289 354.631 265.188 351.756 266.173 348.906C267.149 346.054 268.176 343.217 269.347 340.423Z" fill="#555555"/>
<path opacity="0.4" d="M209.721 327.351C214.951 328.612 220.152 329.967 225.325 331.414C230.504 332.842 235.658 334.355 240.806 335.884C245.946 337.441 251.081 339.017 256.19 340.677C261.306 342.317 266.392 344.051 271.451 345.88C266.221 344.62 261.02 343.267 255.847 341.819C250.668 340.391 245.514 338.878 240.366 337.346C235.227 335.788 230.092 334.212 224.983 332.552C219.868 330.911 214.781 329.178 209.721 327.351ZM207.697 334.079C212.926 335.34 218.127 336.695 223.3 338.143C228.479 339.57 233.633 341.083 238.782 342.613C243.922 344.17 249.056 345.745 254.166 347.406C259.281 349.045 264.368 350.78 269.426 352.609C264.196 351.349 258.995 349.995 253.822 348.547C248.643 347.119 243.489 345.606 238.341 344.075C233.202 342.516 228.067 340.941 222.958 339.28C217.843 337.64 212.756 335.906 207.697 334.079ZM205.672 340.807C210.901 342.069 216.102 343.424 221.276 344.871C226.455 346.299 231.608 347.812 236.757 349.342C241.897 350.898 247.032 352.473 252.141 354.134C257.256 355.774 262.343 357.508 267.402 359.337C262.172 358.077 256.97 356.723 251.797 355.275C246.618 353.848 241.465 352.335 236.317 350.803C231.177 349.245 226.042 347.669 220.933 346.008C215.818 344.368 210.731 342.634 205.672 340.807ZM203.647 347.536C208.876 348.798 214.078 350.152 219.251 351.6C224.43 353.027 229.583 354.54 234.732 356.07C239.872 357.627 245.007 359.202 250.116 360.863C255.232 362.502 260.318 364.237 265.377 366.066C260.147 364.806 254.946 363.452 249.773 362.004C244.593 360.576 239.44 359.063 234.292 357.532C229.153 355.973 224.018 354.398 218.909 352.737C213.793 351.096 208.706 349.363 203.647 347.536ZM201.623 354.264C206.852 355.526 212.053 356.88 217.226 358.328C222.405 359.756 227.559 361.269 232.707 362.798C237.847 364.355 242.982 365.931 248.091 367.591C253.207 369.231 258.294 370.965 263.352 372.794C258.122 371.534 252.921 370.18 247.748 368.732C242.569 367.305 237.415 365.791 232.267 364.26C227.128 362.701 221.993 361.126 216.884 359.465C211.769 357.825 206.682 356.091 201.623 354.264Z" fill="#555555"/>
<path d="M368.727 201.019C380.804 160.886 350.697 116.375 310.514 104.313C270.331 92.2514 220.644 112.81 208.567 152.943C203.904 168.44 212.589 293.092 212.589 293.092L288.013 315.732C288.013 315.732 364.063 216.516 368.727 201.019Z" fill="#D9D9D9"/>
<path opacity="0.5" d="M310.514 104.314C304.342 102.477 297.975 101.373 291.544 101.023C322.317 118.925 342.34 156.045 332.114 190.029C327.45 205.526 251.4 304.742 251.4 304.742L288.013 315.733C288.013 315.733 364.063 216.517 368.727 201.019C380.804 160.886 350.697 116.376 310.514 104.314Z" fill="#9F9F9F"/>
<path opacity="0.5" d="M328.157 112.013C322.599 108.764 316.677 106.179 310.514 104.313C270.331 92.2514 220.644 112.81 208.567 152.943C203.904 168.44 212.589 293.092 212.589 293.092L249.202 304.082C249.202 304.082 240.517 179.431 245.18 163.933C255.407 129.949 292.601 110.004 328.157 112.013Z" fill="#9F9F9F"/>
<path opacity="0.5" d="M310.514 104.314C308.069 103.58 305.592 102.966 303.084 102.474C339.558 117.382 365.424 158.932 354.082 196.623C349.418 212.12 273.367 311.337 273.367 311.337L288.013 315.733C288.013 315.733 364.063 216.517 368.727 201.019C380.804 160.886 350.697 116.376 310.514 104.314Z" fill="#555555"/>
<path opacity="0.5" d="M317.729 106.869C315.366 105.903 312.961 105.051 310.514 104.313C270.331 92.2514 220.644 112.81 208.567 152.943C203.904 168.44 212.589 293.092 212.589 293.092L227.234 297.488C227.234 297.488 218.549 172.836 223.212 157.339C234.554 119.648 279.069 99.224 317.729 106.869Z" fill="#555555"/>
<path d="M439.778 202.707C439.776 207.156 438.006 211.422 434.857 214.569C431.708 217.715 427.438 219.485 422.984 219.489H360.227C357.032 219.489 353.95 218.31 351.573 216.177C349.196 214.045 347.692 211.111 347.351 207.938C347.009 204.766 347.854 201.579 349.723 198.991C351.591 196.403 354.352 194.596 357.474 193.918C357.724 190.142 359.4 186.603 362.164 184.015C364.928 181.427 368.573 179.985 372.361 179.98C373.895 179.98 375.419 180.223 376.877 180.701C379.089 176.428 382.557 172.935 386.816 170.691C391.075 168.446 395.92 167.558 400.699 168.146C405.478 168.734 409.963 170.77 413.549 173.98C417.135 177.19 419.651 181.419 420.758 186.1C423.129 185.78 425.542 185.97 427.833 186.658C430.125 187.346 432.243 188.516 434.044 190.089C435.846 191.662 437.29 193.602 438.279 195.779C439.268 197.955 439.779 200.317 439.778 202.707ZM202.43 253.008C202.428 257.456 200.658 261.723 197.509 264.869C194.36 268.015 190.09 269.785 185.635 269.789H122.879C119.684 269.789 116.602 268.61 114.225 266.478C111.848 264.346 110.344 261.411 110.002 258.238C109.661 255.066 110.506 251.879 112.374 249.291C114.243 246.703 117.004 244.896 120.126 244.218C120.375 240.443 122.052 236.903 124.816 234.315C127.58 231.728 131.224 230.285 135.013 230.28C136.547 230.28 138.071 230.524 139.529 231.001C141.74 226.729 145.209 223.235 149.468 220.991C153.727 218.747 158.571 217.859 163.351 218.447C168.13 219.035 172.614 221.071 176.2 224.28C179.787 227.49 182.302 231.72 183.41 236.4C185.781 236.08 188.194 236.27 190.485 236.959C192.777 237.647 194.895 238.817 196.696 240.39C198.498 241.963 199.941 243.902 200.93 246.079C201.919 248.255 202.431 250.618 202.43 253.008Z" fill="#F8F8F8"/>
<path d="M96.0197 170.631C101.85 170.631 106.577 165.91 106.577 160.087C106.577 154.264 101.85 149.543 96.0197 149.543C90.1892 149.543 85.4626 154.264 85.4626 160.087C85.4626 165.91 90.1892 170.631 96.0197 170.631Z" fill="#D9D9D9"/>
<path d="M105.56 186.542C108.583 186.542 111.034 184.094 111.034 181.075C111.034 178.055 108.583 175.607 105.56 175.607C102.537 175.607 100.086 178.055 100.086 181.075C100.086 184.094 102.537 186.542 105.56 186.542Z" fill="#D9D9D9"/>
<path d="M90.7102 202.919C93.7334 202.919 96.1841 200.471 96.1841 197.451C96.1841 194.432 93.7334 191.984 90.7102 191.984C87.6871 191.984 85.2363 194.432 85.2363 197.451C85.2363 200.471 87.6871 202.919 90.7102 202.919Z" fill="#D9D9D9"/>
<path d="M79.1928 184.728C83.5119 184.728 87.0133 181.231 87.0133 176.917C87.0133 172.603 83.5119 169.106 79.1928 169.106C74.8737 169.106 71.3723 172.603 71.3723 176.917C71.3723 181.231 74.8737 184.728 79.1928 184.728Z" fill="#D9D9D9"/>
<path d="M354.31 91.7638C360.14 91.7638 364.867 87.0431 364.867 81.2198C364.867 75.3965 360.14 70.6758 354.31 70.6758C348.479 70.6758 343.753 75.3965 343.753 81.2198C343.753 87.0431 348.479 91.7638 354.31 91.7638Z" fill="#D9D9D9"/>
<path d="M331.257 87.7438C334.28 87.7438 336.73 85.2961 336.73 82.2767C336.73 79.2573 334.28 76.8096 331.257 76.8096C328.233 76.8096 325.783 79.2573 325.783 82.2767C325.783 85.2961 328.233 87.7438 331.257 87.7438Z" fill="#D9D9D9"/>
<path d="M344.908 67.1783C349.227 67.1783 352.729 63.6813 352.729 59.3675C352.729 55.0537 349.227 51.5566 344.908 51.5566C340.589 51.5566 337.088 55.0537 337.088 59.3675C337.088 63.6813 340.589 67.1783 344.908 67.1783Z" fill="#D9D9D9"/>
<path d="M382.81 288.121C388.641 288.121 393.367 283.401 393.367 277.577C393.367 271.754 388.641 267.033 382.81 267.033C376.98 267.033 372.253 271.754 372.253 277.577C372.253 283.401 376.98 288.121 382.81 288.121Z" fill="#D9D9D9"/>
<path d="M354.951 290.654C357.974 290.654 360.424 288.206 360.424 285.187C360.424 282.167 357.974 279.72 354.951 279.72C351.927 279.72 349.477 282.167 349.477 285.187C349.477 288.206 351.927 290.654 354.951 290.654Z" fill="#D9D9D9"/>
<path d="M368.851 259.588C373.17 259.588 376.671 256.09 376.671 251.777C376.671 247.463 373.17 243.966 368.851 243.966C364.531 243.966 361.03 247.463 361.03 251.777C361.03 256.09 364.531 259.588 368.851 259.588Z" fill="#D9D9D9"/>
</g>
</svg>
