<svg width="516" height="407" viewBox="0 0 516 407" fill="none" xmlns="http://www.w3.org/2000/svg">
<g opacity="0.8">
<path opacity="0.3" d="M289.582 382.247C377.481 382.247 448.738 310.893 448.738 222.874C448.738 134.855 377.481 63.502 289.582 63.502C201.682 63.502 130.425 134.855 130.425 222.874C130.425 310.893 201.682 382.247 289.582 382.247Z" fill="#D9D9D9"/>
<path opacity="0.3" d="M78.1752 50.0586H78.137C75.3833 50.0586 72.7423 51.1541 70.7951 53.1039C68.8479 55.0538 67.754 57.6983 67.754 60.4558V74.9162C67.754 77.6737 68.8479 80.3183 70.7951 82.2681C72.7423 84.218 75.3833 85.3134 78.1371 85.3135H80.4166C83.1703 85.3135 85.8112 86.4088 87.7584 88.3586C89.7056 90.3084 90.7995 92.9529 90.7996 95.7103V110.171C90.7991 112.557 89.9796 114.87 88.4783 116.722C86.9771 118.575 84.8854 119.854 82.5541 120.346H62.42C61.7017 120.346 60.9854 120.42 60.2824 120.568H43.007C40.2532 120.568 37.6123 121.664 35.6651 123.613C33.7178 125.563 32.6239 128.208 32.6238 130.965V145.426C32.6238 148.183 33.7177 150.828 35.665 152.778C37.6122 154.728 40.2532 155.823 43.007 155.823H80.3128C82.6441 156.315 84.7358 157.594 86.237 159.446C87.7383 161.299 88.5578 163.612 88.5582 165.997V180.458C88.5583 181.823 88.2897 183.175 87.7679 184.437C87.2461 185.698 86.4813 186.844 85.5171 187.81C84.553 188.775 83.4083 189.541 82.1486 190.064C80.8889 190.586 79.5387 190.855 78.1752 190.855H78.137C76.7735 190.855 75.4234 191.124 74.1637 191.647C72.9039 192.169 71.7593 192.935 70.7952 193.9C69.831 194.866 69.0662 196.012 68.5444 197.273C68.0226 198.535 67.754 199.887 67.754 201.252V215.713C67.754 217.078 68.0226 218.43 68.5444 219.692C69.0662 220.953 69.831 222.099 70.7952 223.065C71.7593 224.03 72.9039 224.796 74.1637 225.318C75.4234 225.841 76.7736 226.11 78.1371 226.11H80.4166C83.1703 226.11 85.8113 227.205 87.7585 229.155C89.7057 231.105 90.7996 233.749 90.7996 236.507V250.968C90.7996 253.725 89.7057 256.37 87.7585 258.32C85.8113 260.27 83.1703 261.365 80.4166 261.365H43.007C41.6434 261.365 40.2933 261.634 39.0335 262.156C37.7738 262.679 36.6292 263.445 35.665 264.41C34.7008 265.376 33.936 266.522 33.4142 267.783C32.8924 269.044 32.6238 270.396 32.6238 271.762V286.223C32.6238 287.588 32.8924 288.94 33.4142 290.201C33.936 291.463 34.7008 292.609 35.665 293.574C36.6292 294.54 37.7738 295.306 39.0335 295.828C40.2933 296.351 41.6434 296.619 43.007 296.619H443.076C444.439 296.619 445.79 296.351 447.049 295.828C448.309 295.306 449.454 294.54 450.418 293.574C451.382 292.609 452.147 291.463 452.669 290.201C453.191 288.94 453.459 287.588 453.459 286.223V271.762C453.459 270.396 453.191 269.044 452.669 267.783C452.147 266.522 451.382 265.376 450.418 264.41C449.454 263.445 448.309 262.679 447.049 262.156C445.79 261.634 444.439 261.365 443.076 261.365H434.073C431.32 261.365 428.679 260.27 426.731 258.32C424.784 256.37 423.69 253.725 423.69 250.968V236.507C423.69 233.75 424.784 231.105 426.731 229.155C428.679 227.205 431.32 226.11 434.073 226.11H455.301C456.664 226.11 458.014 225.841 459.274 225.318C460.534 224.796 461.678 224.03 462.643 223.065C463.607 222.099 464.372 220.953 464.893 219.692C465.415 218.43 465.684 217.078 465.684 215.713V201.252C465.684 199.887 465.415 198.535 464.893 197.273C464.372 196.012 463.607 194.866 462.643 193.9C461.678 192.935 460.534 192.169 459.274 191.647C458.014 191.124 456.664 190.855 455.301 190.855H448.861C446.108 190.855 443.467 189.76 441.519 187.81C439.572 185.86 438.478 183.216 438.478 180.458V165.997C438.478 163.24 439.572 160.595 441.519 158.645C443.467 156.695 446.108 155.6 448.861 155.6H472.993C474.357 155.6 475.707 155.331 476.967 154.809C478.226 154.286 479.371 153.52 480.335 152.555C481.299 151.589 482.064 150.443 482.586 149.182C483.108 147.92 483.376 146.568 483.376 145.203V130.742C483.376 129.377 483.108 128.025 482.586 126.764C482.064 125.502 481.299 124.356 480.335 123.391C479.371 122.425 478.226 121.659 476.967 121.137C475.707 120.614 474.357 120.345 472.993 120.346H436.345C433.591 120.346 430.95 119.25 429.003 117.3C427.055 115.35 425.961 112.706 425.961 109.948V95.4875C425.962 93.1019 426.781 90.7889 428.283 88.9365C429.784 87.0841 431.876 85.8049 434.207 85.3135H455.301C456.664 85.3134 458.014 85.0445 459.274 84.522C460.534 83.9995 461.679 83.2336 462.643 82.2681C463.607 81.3027 464.372 80.1565 464.893 78.895C465.415 77.6336 465.684 76.2816 465.684 74.9162V60.4558C465.684 59.0905 465.415 57.7385 464.893 56.477C464.372 55.2156 463.607 54.0694 462.643 53.1039C461.679 52.1384 460.534 51.3726 459.274 50.8501C458.014 50.3275 456.664 50.0586 455.301 50.0586H78.1752Z" fill="#D9D9D9"/>
<path d="M57.8784 231.326L79.8631 267.121C79.9728 267.299 80.0463 267.497 80.0796 267.703C80.1128 267.91 80.1051 268.121 80.0568 268.324C80.0086 268.528 79.9207 268.72 79.7983 268.889C79.6759 269.059 79.5213 269.202 79.3434 269.312C79.1655 269.421 78.9678 269.495 78.7615 269.528C78.5553 269.561 78.3445 269.553 78.1414 269.504C77.9383 269.455 77.7467 269.367 77.5777 269.244C77.4087 269.121 77.2655 268.966 77.1563 268.788C77.1358 268.755 77.1152 268.717 77.0974 268.683L57.8784 231.326ZM362.351 56.5329L384.336 92.3285C384.445 92.5064 384.518 92.7043 384.552 92.9106C384.585 93.117 384.577 93.3279 384.529 93.5313C384.48 93.7346 384.392 93.9265 384.27 94.0958C384.147 94.2651 383.993 94.4086 383.815 94.5181C383.637 94.6276 383.44 94.701 383.234 94.7339C383.027 94.7669 382.817 94.7589 382.614 94.7103C382.411 94.6617 382.219 94.5736 382.05 94.4509C381.881 94.3282 381.738 94.1733 381.629 93.9951C381.608 93.9618 381.587 93.9245 381.57 93.8903L362.351 56.5329ZM197.791 222.488L219.776 258.284C219.996 258.643 220.065 259.075 219.967 259.485C219.869 259.895 219.612 260.249 219.254 260.47C218.895 260.691 218.464 260.76 218.054 260.663C217.645 260.566 217.29 260.309 217.069 259.951C217.049 259.917 217.028 259.88 217.01 259.845L197.791 222.488ZM126.846 216.808L148.831 252.603C149.051 252.963 149.12 253.395 149.022 253.805C148.925 254.215 148.668 254.57 148.309 254.791C147.951 255.012 147.519 255.081 147.109 254.983C146.7 254.886 146.345 254.629 146.124 254.27C146.104 254.237 146.083 254.199 146.065 254.165L126.846 216.808ZM158.034 136.764L180.018 172.559C180.128 172.737 180.201 172.935 180.234 173.141C180.267 173.347 180.259 173.558 180.211 173.761C180.162 173.965 180.074 174.156 179.952 174.326C179.83 174.495 179.675 174.638 179.497 174.748C179.32 174.857 179.122 174.93 178.916 174.964C178.71 174.997 178.5 174.989 178.297 174.94C178.094 174.892 177.902 174.804 177.733 174.681C177.564 174.559 177.421 174.404 177.312 174.226C177.291 174.193 177.27 174.155 177.252 174.121L158.034 136.764ZM224.885 141.194L246.87 176.99C246.98 177.168 247.053 177.365 247.086 177.572C247.12 177.778 247.112 177.989 247.064 178.193C247.015 178.396 246.928 178.588 246.805 178.758C246.683 178.927 246.528 179.071 246.35 179.18C246.172 179.29 245.975 179.363 245.768 179.396C245.562 179.429 245.351 179.421 245.148 179.373C244.945 179.324 244.754 179.236 244.585 179.113C244.416 178.99 244.272 178.835 244.163 178.657C244.143 178.623 244.122 178.586 244.104 178.551L224.885 141.194ZM68.1794 132.715L90.1641 168.51C90.3841 168.869 90.4526 169.301 90.3547 169.711C90.2568 170.121 90.0004 170.476 89.6418 170.696C89.2832 170.917 88.8518 170.987 88.4422 170.889C88.0326 170.792 87.6784 170.536 87.4573 170.177C87.4368 170.143 87.4158 170.106 87.398 170.072L68.1794 132.715ZM310.263 182.062L332.248 217.857C332.468 218.217 332.536 218.649 332.438 219.059C332.34 219.468 332.084 219.822 331.725 220.043C331.367 220.264 330.936 220.333 330.526 220.236C330.117 220.139 329.762 219.883 329.541 219.525C329.521 219.491 329.5 219.454 329.482 219.42L310.263 182.062ZM258.851 69.7889L280.836 105.584C281.056 105.943 281.125 106.376 281.027 106.786C280.929 107.196 280.672 107.55 280.314 107.771C279.955 107.992 279.524 108.061 279.114 107.963C278.705 107.866 278.35 107.61 278.129 107.251C278.109 107.218 278.088 107.18 278.07 107.146L258.851 69.7889ZM316.413 114.426L338.397 150.222C338.617 150.581 338.685 151.013 338.587 151.423C338.489 151.833 338.233 152.187 337.874 152.407C337.516 152.628 337.085 152.697 336.675 152.6C336.266 152.503 335.912 152.247 335.69 151.889C335.67 151.855 335.649 151.818 335.631 151.784L316.413 114.426ZM393.594 159.482L415.579 195.278C415.688 195.456 415.762 195.654 415.795 195.86C415.828 196.066 415.82 196.277 415.772 196.481C415.724 196.684 415.636 196.876 415.513 197.045C415.391 197.215 415.236 197.358 415.059 197.468C414.881 197.577 414.683 197.65 414.477 197.683C414.271 197.716 414.06 197.708 413.857 197.66C413.654 197.611 413.463 197.523 413.294 197.4C413.125 197.278 412.981 197.123 412.872 196.945C412.852 196.911 412.831 196.874 412.813 196.84L393.594 159.482ZM299.962 24.7539L321.947 60.5491C322.167 60.9085 322.236 61.3406 322.138 61.7506C322.04 62.1606 321.783 62.5149 321.425 62.7357C321.066 62.9566 320.635 63.0259 320.225 62.9285C319.816 62.8311 319.461 62.5749 319.24 62.2161C319.22 62.1828 319.199 62.1455 319.181 62.1114L299.962 24.7539ZM178.635 61.33L200.62 97.1256C200.73 97.3035 200.803 97.5015 200.837 97.708C200.87 97.9146 200.862 98.1256 200.814 98.3292C200.766 98.5328 200.678 98.7248 200.556 98.8943C200.433 99.0639 200.279 99.2075 200.101 99.3171C199.923 99.4267 199.725 99.5001 199.518 99.533C199.312 99.566 199.101 99.5578 198.898 99.5091C198.695 99.4603 198.503 99.3719 198.334 99.2489C198.165 99.1259 198.022 98.9707 197.913 98.7923C197.893 98.7589 197.872 98.722 197.854 98.6875L178.635 61.33ZM97.3606 69.2097L119.345 105.005C119.565 105.365 119.633 105.797 119.535 106.206C119.437 106.616 119.181 106.97 118.822 107.191C118.464 107.412 118.033 107.481 117.623 107.384C117.214 107.286 116.86 107.03 116.639 106.672C116.618 106.639 116.597 106.601 116.579 106.567L97.3606 69.2097Z" fill="#555555"/>
<path d="M201.283 331.897C201.283 331.897 212.484 313.61 214.276 290.628C214.276 290.628 241.428 282.774 258 266.998C258 266.998 291.531 267.783 324.935 245.88C324.935 245.88 369.861 244.547 393.594 235.096C393.594 235.096 413.321 251.462 432.627 247.683L386.587 319.657L318.187 344.556L230.517 343.179L201.283 331.897Z" fill="#F8F8F8"/>
<path d="M214.276 290.628C222.697 294.025 231.189 297.082 239.752 299.801C248.297 302.518 256.981 304.777 265.765 306.57C266.857 306.813 267.96 306.984 269.058 307.194C270.155 307.402 271.255 307.594 272.359 307.753C273.462 307.922 274.562 308.122 275.668 308.266L278.987 308.697C283.417 309.211 287.863 309.55 292.324 309.677C293.439 309.707 294.552 309.679 295.668 309.683C296.786 309.701 297.898 309.643 299.014 309.6C300.127 309.541 301.252 309.561 302.361 309.437L305.705 309.15C310.184 308.654 314.626 307.868 319.004 306.796C314.83 308.661 310.477 310.096 306.013 311.077C301.513 312 296.949 312.569 292.361 312.778C287.77 312.966 283.173 312.855 278.597 312.447C274.031 312.022 269.49 311.361 264.992 310.467C256.029 308.653 247.241 306.059 238.728 302.716C230.212 299.476 222.024 295.429 214.276 290.628ZM258 266.998C263.272 270.428 268.373 274.005 273.485 277.552C278.588 281.108 283.668 284.668 288.791 288.14C293.917 291.605 299.068 295.017 304.373 298.144C307.026 299.703 309.7 301.239 312.482 302.543C315.251 303.933 318.161 305.019 321.163 305.782C317.981 305.818 314.813 305.339 311.783 304.364C308.748 303.431 305.786 302.277 302.92 300.911C297.231 298.181 291.763 295.011 286.566 291.43C281.377 287.893 276.377 284.085 271.588 280.021C266.776 275.986 262.237 271.635 258 266.998Z" fill="#707070"/>
<path d="M393.594 235.096C388.992 242.401 383.992 249.447 378.619 256.203C373.296 262.996 367.67 269.544 361.741 275.847C355.834 282.19 349.495 288.114 342.769 293.577C341.078 294.938 339.351 296.254 337.586 297.527L334.89 299.366C333.985 299.968 333.053 300.537 332.133 301.114C328.447 303.437 324.438 305.2 320.236 306.347C324.074 304.466 327.696 302.17 331.036 299.501C334.421 296.925 337.613 294.099 340.753 291.222C347.008 285.434 352.981 279.326 358.858 273.116C364.738 266.906 370.487 260.557 376.261 254.21C382.004 247.835 387.733 241.436 393.594 235.096Z" fill="#707070"/>
<path d="M324.935 245.879C326.344 250.936 327.335 256.1 327.896 261.32C328.499 266.537 328.753 271.789 328.658 277.041C328.597 282.331 328.024 287.603 326.948 292.783C326.384 295.388 325.609 297.942 324.631 300.421C323.669 302.91 322.294 305.219 320.564 307.249C321.557 304.867 322.295 302.387 322.768 299.85C323.288 297.352 323.593 294.817 323.867 292.284C324.384 287.209 324.582 282.092 324.691 276.96C324.801 271.826 324.794 266.673 324.791 261.5C324.801 256.323 324.77 251.136 324.935 245.879Z" fill="#707070"/>
<path d="M363.982 296.882L322.245 306.009L330.947 300.128L330.503 299.468L321.163 305.781L281.606 207.914L283.445 207.168L275.47 187.438L272.527 188.631L271.423 189.077L269.584 189.823L277.559 209.554L279.398 208.808L319.004 306.795L305.125 310.725L305.342 311.491L316.618 308.297L267.343 333.747L269.761 333.305L318.392 308.276L301.146 326.407L302.457 326.182L319.098 308.687L312.533 324.271L313.477 324.074L320.564 307.25L360.355 309.185L361.843 308.461L323.315 306.588L364.151 297.657L363.982 296.882Z" fill="#9F9F9F"/>
<path d="M273.861 186.581L270.145 188.087C269.332 188.417 268.94 189.343 269.269 190.157L277.1 209.533C277.429 210.347 278.355 210.74 279.168 210.41L282.884 208.904C283.697 208.575 284.089 207.648 283.76 206.834L275.929 187.458C275.6 186.644 274.674 186.251 273.861 186.581Z" fill="#858585"/>
<path d="M201.283 331.896C201.283 331.896 250.994 342.626 286.415 328.514C286.415 328.514 367.315 320.176 387.892 287.514C387.892 287.514 425.691 263.198 432.627 247.682C432.627 247.682 416.474 301.469 372.652 339.345C372.652 339.345 339.869 339.505 316.233 357.041C316.233 357.041 243.243 368.183 201.283 331.896Z" fill="#858585"/>
<path d="M286.415 328.512C288.922 330.991 291.295 333.497 293.692 335.971C296.078 338.452 298.475 340.9 300.882 343.315C303.304 345.725 305.784 348.053 308.309 350.359C310.851 352.651 313.5 354.792 316.232 357.039C312.875 355.921 309.692 354.336 306.774 352.332C303.869 350.326 301.149 348.063 298.646 345.572C296.16 343.084 293.866 340.41 291.786 337.573C289.684 334.749 287.883 331.713 286.415 328.512ZM387.892 287.512C387.756 292.071 387.321 296.617 386.59 301.12C385.914 305.623 385.001 310.087 383.886 314.509C382.787 318.949 381.387 323.31 379.697 327.561C378.848 329.7 377.866 331.785 376.756 333.801C375.673 335.844 374.289 337.712 372.652 339.343C373.734 337.367 374.632 335.296 375.337 333.156C376.085 331.047 376.729 328.902 377.355 326.749C378.574 322.434 379.698 318.086 380.81 313.724C381.922 309.363 383.008 304.988 384.173 300.618C385.316 296.243 386.498 291.87 387.892 287.512Z" fill="#F8F8F8"/>
<path d="M428.159 143.117C435.399 141.182 439.698 133.746 437.762 126.508C435.826 119.269 428.387 114.971 421.148 116.906C413.908 118.841 409.609 126.278 411.545 133.516C413.481 140.754 420.919 145.053 428.159 143.117Z" fill="#CACACA"/>
<path d="M393.731 154.309C397.485 153.306 399.714 149.45 398.71 145.697C397.706 141.944 393.849 139.715 390.096 140.718C386.342 141.722 384.112 145.578 385.116 149.331C386.12 153.084 389.977 155.313 393.731 154.309Z" fill="#CACACA"/>
<path d="M402.374 111.348C407.737 109.914 410.922 104.405 409.488 99.0439C408.053 93.6824 402.543 90.4981 397.181 91.9317C391.818 93.3652 388.634 98.8737 390.068 104.235C391.502 109.597 397.012 112.781 402.374 111.348Z" fill="#CACACA"/>
<path d="M144.793 333.156C153.407 330.853 158.522 322.005 156.218 313.393C153.915 304.781 145.064 299.667 136.451 301.969C127.837 304.272 122.722 313.12 125.025 321.732C127.329 330.344 136.179 335.459 144.793 333.156Z" fill="#CACACA"/>
<path d="M130.743 356.315C135.229 355.116 137.894 350.507 136.694 346.021C135.494 341.535 130.884 338.871 126.397 340.07C121.911 341.27 119.246 345.879 120.446 350.364C121.646 354.85 126.256 357.514 130.743 356.315Z" fill="#CACACA"/>
<path d="M101.374 344.643C103.963 343.951 105.5 341.292 104.808 338.705C104.115 336.117 101.456 334.581 98.8678 335.273C96.2795 335.964 94.7424 338.623 95.4345 341.21C96.1266 343.798 98.786 345.335 101.374 344.643Z" fill="#CACACA"/>
<path d="M107.039 324.41C113.244 322.751 116.928 316.378 115.269 310.175C113.61 303.972 107.235 300.287 101.03 301.946C94.8258 303.605 91.1413 309.978 92.8006 316.181C94.4599 322.384 100.835 326.068 107.039 324.41Z" fill="#CACACA"/>
<path d="M192.131 45.5096C200.745 43.207 205.86 34.3589 203.556 25.7469C201.253 17.1349 192.402 12.0202 183.789 14.3229C175.175 16.6255 170.06 25.4736 172.363 34.0856C174.667 42.6975 183.517 47.8123 192.131 45.5096Z" fill="#CACACA"/>
<path d="M191.364 70.9284C195.851 69.7289 198.515 65.1201 197.315 60.6343C196.115 56.1485 191.505 53.4843 187.019 54.6837C182.532 55.8831 179.867 60.4919 181.067 64.9778C182.267 69.4636 186.877 72.1278 191.364 70.9284Z" fill="#CACACA"/>
<path d="M134.865 68.1357C138.749 67.0976 141.055 63.1085 140.016 59.2258C138.978 55.3432 134.988 53.0372 131.104 54.0754C127.221 55.1135 124.915 59.1026 125.953 62.9852C126.992 66.8679 130.982 69.1738 134.865 68.1357Z" fill="#CACACA"/>
<path d="M161.079 71.3342C163.668 70.6422 165.205 67.9837 164.513 65.3962C163.821 62.8087 161.161 61.2721 158.573 61.964C155.985 62.6559 154.448 65.3144 155.14 67.9019C155.832 70.4894 158.491 72.0261 161.079 71.3342Z" fill="#CACACA"/>
<path d="M155.684 51.779C161.888 50.1204 165.573 43.7471 163.914 37.5439C162.254 31.3407 155.88 27.6566 149.675 29.3152C143.471 30.9738 139.786 37.3471 141.445 43.5503C143.105 49.7535 149.48 53.4376 155.684 51.779Z" fill="#CACACA"/>
</g>
</svg>
