<svg width="622" height="490" viewBox="0 0 622 490" fill="none" xmlns="http://www.w3.org/2000/svg">
<g opacity="0.8">
<path opacity="0.3" d="M330.006 401.697C421.762 401.697 496.145 327.305 496.145 235.539C496.145 143.772 421.762 69.3809 330.006 69.3809C238.25 69.3809 163.867 143.772 163.867 235.539C163.867 327.305 238.25 401.697 330.006 401.697Z" fill="#D9D9D9"/>
<path opacity="0.3" d="M539.613 238.326V220.916C539.613 217.596 538.294 214.412 535.947 212.065C533.6 209.717 530.416 208.399 527.097 208.399H482.92C481.276 208.399 479.648 208.075 478.13 207.446C476.611 206.817 475.232 205.895 474.069 204.732C472.907 203.57 471.985 202.19 471.356 200.671C470.727 199.153 470.404 197.525 470.404 195.881V178.472C470.404 176.828 470.727 175.2 471.356 173.681C471.985 172.163 472.907 170.783 474.069 169.62C475.232 168.458 476.611 167.536 478.13 166.907C479.648 166.278 481.276 165.954 482.92 165.954H484.314C487.634 165.954 490.817 164.635 493.165 162.288C495.512 159.94 496.83 156.757 496.83 153.437V136.027C496.83 132.707 495.512 129.524 493.165 127.176C490.817 124.829 487.634 123.51 484.314 123.51H166.705C163.385 123.51 160.202 124.829 157.855 127.176C155.507 129.524 154.189 132.707 154.189 136.027V153.437C154.189 156.757 155.507 159.94 157.855 162.288C160.202 164.635 163.385 165.954 166.705 165.954C168.348 165.954 169.976 166.278 171.494 166.907C173.013 167.536 174.393 168.458 175.555 169.62C176.717 170.783 177.639 172.163 178.268 173.681C178.897 175.2 179.221 176.828 179.221 178.472V195.881C179.221 197.525 178.897 199.153 178.268 200.671C177.639 202.19 176.717 203.57 175.555 204.732C174.393 205.895 173.013 206.817 171.494 207.446C169.976 208.075 168.348 208.399 166.705 208.399H118.304C114.985 208.399 111.801 209.717 109.454 212.065C107.107 214.412 105.788 217.596 105.788 220.916V238.326C105.788 239.969 106.112 241.597 106.741 243.116C107.37 244.634 108.292 246.014 109.454 247.177C110.616 248.339 111.996 249.261 113.515 249.89C115.033 250.519 116.661 250.843 118.304 250.843H137.296C140.615 250.843 143.799 252.162 146.146 254.509C148.493 256.857 149.812 260.041 149.812 263.36V280.77C149.812 282.414 149.488 284.042 148.859 285.56C148.23 287.079 147.308 288.459 146.146 289.621C144.984 290.784 143.604 291.706 142.086 292.335C140.567 292.964 138.939 293.287 137.296 293.287H137.25C133.93 293.288 130.747 294.606 128.4 296.954C126.053 299.301 124.734 302.485 124.734 305.805V323.214C124.734 324.858 125.058 326.486 125.687 328.005C126.316 329.523 127.238 330.903 128.4 332.065C129.562 333.228 130.942 334.15 132.46 334.779C133.979 335.408 135.606 335.732 137.25 335.732H139.998C143.317 335.732 146.501 337.051 148.848 339.398C151.195 341.746 152.514 344.929 152.514 348.249V365.659C152.514 368.979 151.195 372.163 148.848 374.51C146.501 376.857 143.317 378.176 139.998 378.176H94.9031C93.2595 378.176 91.632 378.5 90.1134 379.129C88.5949 379.758 87.2152 380.68 86.0529 381.843C84.8907 383.005 83.9688 384.385 83.3398 385.903C82.7108 387.422 82.3871 389.05 82.3871 390.694V408.103C82.3871 409.747 82.7108 411.375 83.3398 412.893C83.9688 414.412 84.8907 415.792 86.0529 416.954C87.2152 418.117 88.5949 419.039 90.1134 419.668C91.6319 420.297 93.2595 420.621 94.9031 420.621H491.034C494.353 420.621 497.537 419.302 499.884 416.954C502.231 414.607 503.55 411.423 503.55 408.103V390.694C503.55 387.374 502.231 384.19 499.884 381.843C497.537 379.495 494.353 378.176 491.034 378.176H480.182C476.862 378.176 473.679 376.857 471.332 374.51C468.984 372.163 467.666 368.979 467.666 365.659V348.249C467.666 344.929 468.984 341.746 471.332 339.398C473.679 337.051 476.862 335.732 480.182 335.732H505.77C509.089 335.732 512.273 334.413 514.62 332.065C516.967 329.718 518.286 326.534 518.286 323.214V305.805C518.286 302.485 516.967 299.301 514.62 296.954C512.273 294.606 509.089 293.287 505.77 293.287H498.008C496.364 293.287 494.736 292.964 493.218 292.335C491.699 291.706 490.32 290.783 489.157 289.621C487.995 288.459 487.073 287.079 486.444 285.56C485.815 284.042 485.492 282.414 485.492 280.77V263.36C485.492 260.041 486.81 256.857 489.157 254.509C491.505 252.162 494.688 250.843 498.008 250.843H527.097C530.416 250.843 533.6 249.524 535.947 247.177C538.294 244.829 539.613 241.645 539.613 238.326Z" fill="#D9D9D9"/>
<path d="M375.538 409.652C382.387 409.652 387.94 404.099 387.94 397.249C387.94 390.399 382.387 384.846 375.538 384.846C368.688 384.846 363.136 390.399 363.136 397.249C363.136 404.099 368.688 409.652 375.538 409.652Z" fill="#CACACA"/>
<path d="M359.002 374.05C362.554 374.05 365.433 371.171 365.433 367.619C365.433 364.067 362.554 361.188 359.002 361.188C355.451 361.188 352.572 364.067 352.572 367.619C352.572 371.171 355.451 374.05 359.002 374.05Z" fill="#CACACA"/>
<path d="M401.067 383.238C406.14 383.238 410.253 379.125 410.253 374.051C410.253 368.977 406.14 364.863 401.067 364.863C395.993 364.863 391.88 368.977 391.88 374.051C391.88 379.125 395.993 383.238 401.067 383.238Z" fill="#CACACA"/>
<path d="M199.432 155.529C207.582 155.529 214.188 148.921 214.188 140.771C214.188 132.621 207.582 126.014 199.432 126.014C191.283 126.014 184.677 132.621 184.677 140.771C184.677 148.921 191.283 155.529 199.432 155.529Z" fill="#CACACA"/>
<path d="M171.237 137.946C175.481 137.946 178.923 134.504 178.923 130.259C178.923 126.014 175.481 122.572 171.237 122.572C166.992 122.572 163.551 126.014 163.551 130.259C163.551 134.504 166.992 137.946 171.237 137.946Z" fill="#CACACA"/>
<path d="M178.296 108.563C180.745 108.563 182.73 106.578 182.73 104.129C182.73 101.68 180.745 99.6953 178.296 99.6953C175.848 99.6953 173.862 101.68 173.862 104.129C173.862 106.578 175.848 108.563 178.296 108.563Z" fill="#CACACA"/>
<path d="M202.839 117.896C208.709 117.896 213.468 113.137 213.468 107.266C213.468 101.396 208.709 96.6367 202.839 96.6367C196.969 96.6367 192.21 101.396 192.21 107.266C192.21 113.137 196.969 117.896 202.839 117.896Z" fill="#CACACA"/>
<path d="M463.153 194.066C471.302 194.066 477.908 187.458 477.908 179.308C477.908 171.158 471.302 164.551 463.153 164.551C455.003 164.551 448.397 171.158 448.397 179.308C448.397 187.458 455.003 194.066 463.153 194.066Z" fill="#CACACA"/>
<path d="M433.108 188.659C437.353 188.659 440.794 185.217 440.794 180.972C440.794 176.727 437.353 173.285 433.108 173.285C428.863 173.285 425.422 176.727 425.422 180.972C425.422 185.217 428.863 188.659 433.108 188.659Z" fill="#CACACA"/>
<path d="M433.739 136.234C437.413 136.234 440.391 133.256 440.391 129.581C440.391 125.907 437.413 122.928 433.739 122.928C430.065 122.928 427.086 125.907 427.086 129.581C427.086 133.256 430.065 136.234 433.739 136.234Z" fill="#CACACA"/>
<path d="M429.112 158.635C431.561 158.635 433.546 156.65 433.546 154.201C433.546 151.753 431.561 149.768 429.112 149.768C426.664 149.768 424.679 151.753 424.679 154.201C424.679 156.65 426.664 158.635 429.112 158.635Z" fill="#CACACA"/>
<path d="M452.856 157.875C458.726 157.875 463.485 153.116 463.485 147.245C463.485 141.374 458.726 136.615 452.856 136.615C446.986 136.615 442.228 141.374 442.228 147.245C442.228 153.116 446.986 157.875 452.856 157.875Z" fill="#CACACA"/>
<path d="M358.034 214.261C377.517 214.261 393.311 198.465 393.311 178.98C393.311 159.495 377.517 143.699 358.034 143.699C338.551 143.699 322.757 159.495 322.757 178.98C322.757 198.465 338.551 214.261 358.034 214.261Z" fill="#7F7F7F"/>
<path d="M378.948 167.044C382.005 167.044 384.482 164.566 384.482 161.509C384.482 158.452 382.005 155.975 378.948 155.975C375.892 155.975 373.414 158.452 373.414 161.509C373.414 164.566 375.892 167.044 378.948 167.044Z" fill="#929292"/>
<path d="M471.849 264.971C481.831 244.654 433.639 200.525 364.21 166.406C294.781 132.287 230.405 121.098 220.423 141.415C210.441 161.731 258.633 205.86 328.063 239.98C397.492 274.099 461.868 285.288 471.849 264.971Z" fill="#9F9F9F"/>
<path d="M356.889 181.307C417.596 211.139 462.064 248.624 465.607 271.153C468.283 269.796 470.466 267.634 471.85 264.971C481.832 244.655 433.64 200.525 364.211 166.406C294.781 132.286 230.406 121.097 220.424 141.414C219.162 144.136 218.784 147.185 219.344 150.133C239.343 139.172 296.183 151.474 356.889 181.307Z" fill="#555555"/>
<path d="M389.055 242.494C393.035 234.393 373.82 216.797 346.136 203.193C318.453 189.589 292.784 185.127 288.804 193.228C284.824 201.329 304.04 218.925 331.723 232.529C359.407 246.134 385.075 250.595 389.055 242.494Z" fill="#929292"/>
<path d="M343.217 209.135C367.423 221.03 385.154 235.976 386.567 244.96C387.634 244.419 388.504 243.556 389.056 242.495C393.036 234.394 373.82 216.798 346.137 203.193C318.453 189.589 292.785 185.127 288.805 193.228C288.301 194.314 288.151 195.53 288.374 196.705C296.348 192.335 319.012 197.24 343.217 209.135Z" fill="#818181"/>
<path d="M329.96 412.85H109.728L288.374 196.705L387.596 245.466L329.96 412.85Z" fill="url(#paint0_linear_4097_50401)"/>
</g>
<defs>
<linearGradient id="paint0_linear_4097_50401" x1="368.673" y1="234.299" x2="189.379" y2="446.606" gradientUnits="userSpaceOnUse">
<stop stop-color="#929292"/>
<stop offset="1" stop-color="#F8F8F8" stop-opacity="0"/>
</linearGradient>
</defs>
</svg>
