<svg width="1201" height="392" viewBox="0 0 1201 392" fill="none" xmlns="http://www.w3.org/2000/svg">
<g filter="url(#filter0_d_3771_43599)">
<g filter="url(#filter1_d_3771_43599)">
<rect x="7" y="5.50006" width="1181" height="371" rx="14" fill="#F8F8F8"/>
</g>
<path d="M33.7432 30.2358H36.0869L39.7002 40.5873C39.7718 40.7892 39.8304 40.9715 39.876 41.1342C39.9215 41.297 39.9704 41.4728 40.0225 41.6616H40.1006C40.1527 41.4728 40.2048 41.297 40.2568 41.1342C40.3089 40.9649 40.3675 40.7827 40.4326 40.5873L44.0947 30.2358H46.2627L41.0967 44.5327H38.9189L33.7432 30.2358ZM46.5264 39.5522V39.2397C46.5264 37.7032 46.9593 36.4565 47.8252 35.4995C48.6976 34.5424 49.8369 34.0639 51.2432 34.0639C52.6559 34.0639 53.7464 34.5131 54.5146 35.4116C55.2894 36.3035 55.6768 37.5242 55.6768 39.0737V39.8842H47.8643V38.3705H53.5576V38.1655C53.5576 37.4884 53.3623 36.9122 52.9717 36.437C52.5876 35.9552 52.0244 35.7143 51.2822 35.7143C50.4163 35.7143 49.7653 36.0431 49.3291 36.7006C48.8929 37.3517 48.6748 38.1785 48.6748 39.1811V39.601C48.6748 40.6101 48.9059 41.4435 49.3682 42.101C49.8304 42.7521 50.5335 43.0776 51.4775 43.0776C52.0895 43.0776 52.6136 42.9409 53.0498 42.6674C53.4925 42.3875 53.8473 42.062 54.1143 41.6909L55.5693 42.6967C55.2503 43.2306 54.7425 43.7058 54.0459 44.1225C53.3493 44.5327 52.4997 44.7377 51.4971 44.7377C49.915 44.7377 48.6911 44.2592 47.8252 43.3022C46.9593 42.3452 46.5264 41.0952 46.5264 39.5522ZM57.6982 44.4545V34.3569H59.6807L59.7393 35.6166H59.7979C60.1234 35.1674 60.5498 34.8126 61.0771 34.5522C61.6045 34.2853 62.1937 34.1518 62.8447 34.1518C63.8604 34.1518 64.6774 34.4415 65.2959 35.0209C65.9144 35.6004 66.2236 36.5834 66.2236 37.9702V44.4545H64.0947V37.9702C64.0947 37.2149 63.9287 36.6778 63.5967 36.3588C63.2646 36.0333 62.7894 35.8705 62.1709 35.8705C61.6566 35.8705 61.1943 36.0138 60.7842 36.3002C60.374 36.5867 60.055 36.9675 59.8271 37.4428V44.4545H57.6982ZM67.4834 35.9584V34.3569H73.4209V35.9584H67.4834ZM69.1924 41.7592V35.2065V34.9428V31.7397H71.3115V41.7006C71.3115 42.1954 71.4027 42.5372 71.585 42.726C71.7673 42.9148 72.0407 43.0092 72.4053 43.0092C72.5745 43.0092 72.7406 42.9929 72.9033 42.9604C73.0726 42.9213 73.2386 42.8692 73.4014 42.8041V44.4545C73.2386 44.5261 73.0205 44.5912 72.7471 44.6498C72.4801 44.7084 72.1839 44.7377 71.8584 44.7377C71.0446 44.7377 70.3968 44.5001 69.915 44.0248C69.4333 43.5496 69.1924 42.7944 69.1924 41.7592ZM74.6514 41.4955C74.6514 40.4409 75.0648 39.6303 75.8916 39.0639C76.7184 38.491 77.7699 38.2045 79.0459 38.2045H81.2627V37.5209C81.2627 36.9545 81.1162 36.5021 80.8232 36.1635C80.5303 35.8185 80.029 35.6459 79.3193 35.6459C78.6162 35.6459 78.1084 35.7892 77.7959 36.0756C77.4834 36.3621 77.3271 36.7071 77.3271 37.1108V37.2182L75.2275 37.2084V37.101C75.2275 36.2612 75.6051 35.5483 76.3604 34.9623C77.1221 34.3699 78.1344 34.0737 79.3975 34.0737C80.6605 34.0737 81.6403 34.3601 82.3369 34.933C83.04 35.4995 83.3916 36.3653 83.3916 37.5307V42.1303C83.3916 42.5535 83.4242 42.9506 83.4893 43.3217C83.5544 43.6928 83.6488 44.0183 83.7725 44.2983V44.4545H81.7021C81.611 44.2918 81.5296 44.0867 81.458 43.8393C81.3929 43.5854 81.3473 43.3315 81.3213 43.0776C81.0999 43.4877 80.7191 43.8523 80.1787 44.1713C79.6383 44.4838 78.9482 44.6401 78.1084 44.6401C77.1318 44.6401 76.3115 44.3731 75.6475 43.8393C74.9834 43.3054 74.6514 42.5242 74.6514 41.4955ZM76.7803 41.3491C76.7803 41.8829 76.9365 42.3028 77.249 42.6088C77.5615 42.9148 78.0433 43.0678 78.6943 43.0678C79.3649 43.0678 79.9606 42.8432 80.4814 42.394C81.0023 41.9383 81.2627 41.437 81.2627 40.8901V39.6108H79.3389C78.486 39.6108 77.8447 39.7638 77.415 40.0698C76.9919 40.3758 76.7803 40.8022 76.7803 41.3491ZM85.4521 41.3881L87.5518 41.3979V41.4955C87.5518 42.0554 87.7471 42.4689 88.1377 42.7358C88.5283 43.0027 89.0524 43.1362 89.71 43.1362C90.374 43.1362 90.8883 43.0092 91.2529 42.7553C91.6175 42.5014 91.7998 42.1629 91.7998 41.7397C91.7998 41.3165 91.637 40.9975 91.3115 40.7827C90.9925 40.5613 90.2894 40.3269 89.2021 40.0795C88.0824 39.8256 87.2197 39.461 86.6143 38.9858C86.0153 38.504 85.7158 37.853 85.7158 37.0327C85.7158 36.1537 86.0706 35.4409 86.7803 34.894C87.4964 34.3406 88.46 34.0639 89.6709 34.0639C90.8688 34.0639 91.8324 34.3439 92.5615 34.9037C93.2907 35.4571 93.6553 36.2156 93.6553 37.1791V37.2573H91.5752V37.1401C91.5752 36.6713 91.4157 36.31 91.0967 36.0561C90.7842 35.8022 90.3057 35.6752 89.6611 35.6752C89.0166 35.6752 88.5446 35.7892 88.2451 36.017C87.9521 36.2449 87.8057 36.5411 87.8057 36.9057C87.8057 37.2638 87.9782 37.5502 88.3232 37.7651C88.6748 37.9734 89.3942 38.2013 90.4814 38.4487C91.6012 38.7026 92.4508 39.0704 93.0303 39.5522C93.6162 40.0274 93.9092 40.7078 93.9092 41.5932C93.9092 42.5372 93.5576 43.2989 92.8545 43.8784C92.1514 44.4513 91.1064 44.7377 89.7197 44.7377C88.3395 44.7377 87.2816 44.448 86.5459 43.8686C85.8167 43.2827 85.4521 42.4851 85.4521 41.476V41.3881ZM100.745 44.4545V34.3569H102.728L102.786 35.6362H102.835C103.18 35.1739 103.606 34.8126 104.114 34.5522C104.629 34.2853 105.192 34.1518 105.804 34.1518C106.494 34.1518 107.09 34.295 107.591 34.5815C108.092 34.8614 108.466 35.2976 108.714 35.8901H108.753C109.15 35.2976 109.619 34.8614 110.159 34.5815C110.706 34.295 111.318 34.1518 111.995 34.1518C113.017 34.1518 113.828 34.4513 114.427 35.0502C115.026 35.6427 115.325 36.6323 115.325 38.019V44.4545H113.187V37.9799C113.187 37.2312 113.027 36.6941 112.708 36.3686C112.396 36.0366 111.946 35.8705 111.36 35.8705C110.846 35.8705 110.397 36.017 110.013 36.31C109.629 36.5965 109.323 36.9741 109.095 37.4428V44.4545H106.966V37.9897C106.966 37.2345 106.806 36.6941 106.487 36.3686C106.175 36.0366 105.722 35.8705 105.13 35.8705C104.616 35.8705 104.166 36.0138 103.782 36.3002C103.405 36.5867 103.102 36.9675 102.874 37.4428V44.4545H100.745ZM117.327 39.5522V39.2397C117.327 37.7032 117.76 36.4565 118.626 35.4995C119.498 34.5424 120.638 34.0639 122.044 34.0639C123.457 34.0639 124.547 34.5131 125.315 35.4116C126.09 36.3035 126.478 37.5242 126.478 39.0737V39.8842H118.665V38.3705H124.358V38.1655C124.358 37.4884 124.163 36.9122 123.772 36.437C123.388 35.9552 122.825 35.7143 122.083 35.7143C121.217 35.7143 120.566 36.0431 120.13 36.7006C119.694 37.3517 119.476 38.1785 119.476 39.1811V39.601C119.476 40.6101 119.707 41.4435 120.169 42.101C120.631 42.7521 121.334 43.0776 122.278 43.0776C122.89 43.0776 123.414 42.9409 123.851 42.6674C124.293 42.3875 124.648 42.062 124.915 41.6909L126.37 42.6967C126.051 43.2306 125.543 43.7058 124.847 44.1225C124.15 44.5327 123.3 44.7377 122.298 44.7377C120.716 44.7377 119.492 44.2592 118.626 43.3022C117.76 42.3452 117.327 41.0952 117.327 39.5522ZM128.499 44.4545V34.3569H130.481L130.54 35.6166H130.599C130.924 35.1674 131.351 34.8126 131.878 34.5522C132.405 34.2853 132.994 34.1518 133.646 34.1518C134.661 34.1518 135.478 34.4415 136.097 35.0209C136.715 35.6004 137.024 36.5834 137.024 37.9702V44.4545H134.896V37.9702C134.896 37.2149 134.729 36.6778 134.397 36.3588C134.065 36.0333 133.59 35.8705 132.972 35.8705C132.457 35.8705 131.995 36.0138 131.585 36.3002C131.175 36.5867 130.856 36.9675 130.628 37.4428V44.4545H128.499ZM139.007 41.3881L141.106 41.3979V41.4955C141.106 42.0554 141.302 42.4689 141.692 42.7358C142.083 43.0027 142.607 43.1362 143.265 43.1362C143.929 43.1362 144.443 43.0092 144.808 42.7553C145.172 42.5014 145.354 42.1629 145.354 41.7397C145.354 41.3165 145.192 40.9975 144.866 40.7827C144.547 40.5613 143.844 40.3269 142.757 40.0795C141.637 39.8256 140.774 39.461 140.169 38.9858C139.57 38.504 139.271 37.853 139.271 37.0327C139.271 36.1537 139.625 35.4409 140.335 34.894C141.051 34.3406 142.015 34.0639 143.226 34.0639C144.424 34.0639 145.387 34.3439 146.116 34.9037C146.845 35.4571 147.21 36.2156 147.21 37.1791V37.2573H145.13V37.1401C145.13 36.6713 144.97 36.31 144.651 36.0561C144.339 35.8022 143.86 35.6752 143.216 35.6752C142.571 35.6752 142.099 35.7892 141.8 36.017C141.507 36.2449 141.36 36.5411 141.36 36.9057C141.36 37.2638 141.533 37.5502 141.878 37.7651C142.229 37.9734 142.949 38.2013 144.036 38.4487C145.156 38.7026 146.006 39.0704 146.585 39.5522C147.171 40.0274 147.464 40.7078 147.464 41.5932C147.464 42.5372 147.112 43.2989 146.409 43.8784C145.706 44.4513 144.661 44.7377 143.274 44.7377C141.894 44.7377 140.836 44.448 140.101 43.8686C139.371 43.2827 139.007 42.4851 139.007 41.476V41.3881ZM149.456 40.7924V34.3569H151.585V40.812C151.585 41.5867 151.754 42.1368 152.093 42.4623C152.431 42.7814 152.903 42.9409 153.509 42.9409C154.043 42.9409 154.511 42.7944 154.915 42.5014C155.319 42.2019 155.631 41.8243 155.853 41.3686V34.3569H157.981V44.4545H156.009L155.94 43.185H155.892C155.553 43.6407 155.12 43.9988 154.593 44.2592C154.065 44.5196 153.476 44.6498 152.825 44.6498C151.81 44.6498 150.993 44.3536 150.374 43.7612C149.762 43.1687 149.456 42.1791 149.456 40.7924ZM160.12 41.4955C160.12 40.4409 160.534 39.6303 161.36 39.0639C162.187 38.491 163.239 38.2045 164.515 38.2045H166.731V37.5209C166.731 36.9545 166.585 36.5021 166.292 36.1635C165.999 35.8185 165.498 35.6459 164.788 35.6459C164.085 35.6459 163.577 35.7892 163.265 36.0756C162.952 36.3621 162.796 36.7071 162.796 37.1108V37.2182L160.696 37.2084V37.101C160.696 36.2612 161.074 35.5483 161.829 34.9623C162.591 34.3699 163.603 34.0737 164.866 34.0737C166.129 34.0737 167.109 34.3601 167.806 34.933C168.509 35.4995 168.86 36.3653 168.86 37.5307V42.1303C168.86 42.5535 168.893 42.9506 168.958 43.3217C169.023 43.6928 169.118 44.0183 169.241 44.2983V44.4545H167.171C167.08 44.2918 166.998 44.0867 166.927 43.8393C166.862 43.5854 166.816 43.3315 166.79 43.0776C166.569 43.4877 166.188 43.8523 165.647 44.1713C165.107 44.4838 164.417 44.6401 163.577 44.6401C162.601 44.6401 161.78 44.3731 161.116 43.8393C160.452 43.3054 160.12 42.5242 160.12 41.4955ZM162.249 41.3491C162.249 41.8829 162.405 42.3028 162.718 42.6088C163.03 42.9148 163.512 43.0678 164.163 43.0678C164.834 43.0678 165.429 42.8432 165.95 42.394C166.471 41.9383 166.731 41.437 166.731 40.8901V39.6108H164.808C163.955 39.6108 163.313 39.7638 162.884 40.0698C162.461 40.3758 162.249 40.8022 162.249 41.3491ZM171.575 44.4545V29.5717H173.714V44.4545H171.575Z" fill="#140000"/>
<path d="M89.627 350.389V342.871L87.2891 343.791V342.854L90.3711 341.74H90.5938V350.389H89.627ZM93.5176 347.119V346.246H96.8809V347.119H93.5176ZM99.0723 350.389L102.459 342.695H97.5957V341.857H103.473V342.449L100.074 350.389H99.0723Z" fill="#9F9F9F"/>
<path d="M426.659 348.139C426.659 347.619 426.812 347.178 427.116 346.814C427.425 346.451 427.812 346.186 428.276 346.018V345.994C427.909 345.838 427.595 345.586 427.333 345.238C427.071 344.891 426.94 344.48 426.94 344.008C426.94 343.309 427.192 342.746 427.696 342.32C428.2 341.895 428.815 341.682 429.542 341.682C430.265 341.682 430.876 341.895 431.376 342.32C431.88 342.742 432.132 343.305 432.132 344.008C432.132 344.48 432.003 344.891 431.745 345.238C431.487 345.586 431.171 345.838 430.796 345.994V346.018C431.269 346.178 431.657 346.441 431.962 346.809C432.267 347.172 432.419 347.615 432.419 348.139C432.419 348.908 432.14 349.506 431.581 349.932C431.026 350.354 430.347 350.564 429.542 350.564C428.737 350.564 428.056 350.354 427.497 349.932C426.938 349.506 426.659 348.908 426.659 348.139ZM427.608 348.086C427.608 348.582 427.786 348.984 428.142 349.293C428.497 349.602 428.964 349.754 429.542 349.75C430.116 349.75 430.579 349.6 430.931 349.299C431.286 348.994 431.464 348.59 431.464 348.086C431.464 347.594 431.286 347.195 430.931 346.891C430.579 346.582 430.116 346.428 429.542 346.428C428.964 346.428 428.497 346.582 428.142 346.891C427.786 347.195 427.608 347.594 427.608 348.086ZM427.872 344.055C427.872 344.508 428.026 344.883 428.335 345.18C428.644 345.473 429.046 345.619 429.542 345.619C430.034 345.619 430.433 345.473 430.737 345.18C431.046 344.883 431.2 344.508 431.2 344.055C431.2 343.602 431.046 343.229 430.737 342.936C430.433 342.643 430.034 342.496 429.542 342.496C429.046 342.492 428.644 342.639 428.335 342.936C428.026 343.229 427.872 343.602 427.872 344.055ZM433.304 347.119V346.246H436.667V347.119H433.304ZM440.312 350.389V342.871L437.974 343.791V342.854L441.056 341.74H441.278V350.389H440.312ZM444.396 348.244V348.18H445.327V348.238C445.327 348.707 445.501 349.076 445.849 349.346C446.2 349.615 446.663 349.75 447.237 349.75C447.812 349.75 448.278 349.568 448.638 349.205C449.001 348.838 449.183 348.324 449.183 347.664C449.183 347.016 449.003 346.525 448.644 346.193C448.284 345.857 447.819 345.689 447.249 345.689C446.882 345.686 446.544 345.758 446.235 345.906C445.927 346.055 445.657 346.25 445.427 346.492L444.7 346.147L445.14 341.857H449.687V342.73H445.925L445.632 345.484C445.827 345.328 446.083 345.188 446.399 345.063C446.716 344.934 447.058 344.869 447.425 344.869C448.183 344.869 448.823 345.115 449.347 345.607C449.874 346.096 450.138 346.779 450.138 347.658C450.138 348.557 449.864 349.266 449.317 349.785C448.774 350.305 448.081 350.564 447.237 350.564C446.378 350.564 445.688 350.348 445.169 349.914C444.653 349.477 444.396 348.92 444.396 348.244Z" fill="#9F9F9F"/>
<path d="M776.199 350.389V342.871L773.861 343.791V342.854L776.943 341.74H777.166V350.389H776.199ZM780.213 346.791V346.615C780.213 345.127 780.633 343.934 781.473 343.035C782.316 342.133 783.475 341.682 784.947 341.682H785.07V342.502H784.947C783.807 342.502 782.889 342.836 782.193 343.504C781.502 344.172 781.156 345.189 781.156 346.557V346.85C781.156 347.904 781.359 348.652 781.766 349.094C782.172 349.531 782.686 349.75 783.307 349.75C783.928 349.75 784.406 349.568 784.742 349.205C785.078 348.842 785.246 348.33 785.246 347.67C785.246 347.025 785.078 346.527 784.742 346.176C784.406 345.824 783.93 345.648 783.312 345.648C782.73 345.648 782.219 345.83 781.777 346.193C781.34 346.557 781.121 347.049 781.121 347.67H780.752C780.752 346.826 781.006 346.143 781.514 345.619C782.025 345.096 782.693 344.834 783.518 344.834C784.334 344.834 784.984 345.096 785.469 345.619C785.957 346.139 786.201 346.822 786.201 347.67C786.201 348.529 785.932 349.227 785.393 349.762C784.854 350.297 784.158 350.564 783.307 350.564C782.436 350.564 781.701 350.262 781.104 349.656C780.51 349.047 780.213 348.092 780.213 346.791ZM786.934 347.119V346.246H790.297V347.119H786.934ZM791.264 350.389V349.645L794.516 346.346C794.918 345.936 795.234 345.553 795.465 345.197C795.695 344.838 795.811 344.451 795.811 344.037C795.811 343.631 795.66 343.273 795.359 342.965C795.059 342.656 794.639 342.502 794.1 342.502C793.553 342.502 793.1 342.666 792.74 342.994C792.385 343.322 792.207 343.772 792.207 344.342V344.412H791.252V344.348C791.252 343.574 791.52 342.938 792.055 342.438C792.594 341.934 793.273 341.682 794.094 341.682C794.91 341.682 795.559 341.912 796.039 342.373C796.523 342.834 796.766 343.373 796.766 343.99C796.766 344.557 796.613 345.066 796.309 345.52C796.004 345.969 795.613 346.43 795.137 346.902L792.494 349.557H797.012V350.389H791.264ZM800.785 350.389V342.871L798.447 343.791V342.854L801.529 341.74H801.752V350.389H800.785Z" fill="#9F9F9F"/>
<path d="M1127.31 350.389V349.645L1130.56 346.346C1130.96 345.936 1131.28 345.553 1131.51 345.197C1131.74 344.838 1131.85 344.451 1131.85 344.037C1131.85 343.631 1131.7 343.273 1131.4 342.965C1131.1 342.656 1130.68 342.502 1130.14 342.502C1129.6 342.502 1129.14 342.666 1128.78 342.994C1128.43 343.322 1128.25 343.772 1128.25 344.342V344.412H1127.3V344.348C1127.3 343.574 1127.56 342.938 1128.1 342.438C1128.64 341.934 1129.32 341.682 1130.14 341.682C1130.95 341.682 1131.6 341.912 1132.08 342.373C1132.57 342.834 1132.81 343.373 1132.81 343.99C1132.81 344.557 1132.66 345.066 1132.35 345.52C1132.05 345.969 1131.66 346.43 1131.18 346.902L1128.54 349.557H1133.06V350.389H1127.31ZM1136.83 350.389V342.871L1134.49 343.791V342.854L1137.57 341.74H1137.8V350.389H1136.83ZM1140.72 347.119V346.246H1144.08V347.119H1140.72ZM1144.87 348.15V348.092H1145.81V348.15C1145.81 348.658 1145.99 349.053 1146.34 349.334C1146.7 349.611 1147.17 349.75 1147.75 349.75C1148.32 349.75 1148.78 349.611 1149.13 349.334C1149.48 349.053 1149.66 348.631 1149.66 348.068C1149.66 347.49 1149.46 347.059 1149.05 346.773C1148.65 346.488 1148.14 346.346 1147.51 346.346H1146.77V345.543H1147.45C1148.04 345.543 1148.5 345.406 1148.84 345.133C1149.18 344.855 1149.36 344.477 1149.36 343.996C1149.36 343.5 1149.21 343.127 1148.91 342.877C1148.62 342.623 1148.23 342.496 1147.75 342.496C1147.26 342.496 1146.85 342.625 1146.53 342.883C1146.21 343.141 1146.05 343.498 1146.05 343.955V344.025H1145.11V343.955C1145.11 343.318 1145.36 342.781 1145.86 342.344C1146.35 341.902 1146.98 341.682 1147.75 341.682C1148.5 341.682 1149.12 341.895 1149.6 342.32C1150.08 342.742 1150.32 343.285 1150.32 343.949C1150.32 344.348 1150.2 344.725 1149.97 345.08C1149.74 345.436 1149.38 345.711 1148.9 345.906V345.93C1149.42 346.047 1149.83 346.291 1150.15 346.662C1150.48 347.029 1150.64 347.502 1150.64 348.08C1150.64 348.834 1150.37 349.438 1149.82 349.891C1149.27 350.34 1148.58 350.564 1147.75 350.564C1146.9 350.564 1146.21 350.342 1145.67 349.897C1145.14 349.447 1144.87 348.865 1144.87 348.15ZM1151.91 347.547V344.693C1151.91 343.768 1152.15 343.035 1152.64 342.496C1153.13 341.953 1153.82 341.682 1154.69 341.682C1155.57 341.682 1156.25 341.953 1156.75 342.496C1157.24 343.035 1157.48 343.768 1157.48 344.693V347.547C1157.48 348.477 1157.24 349.213 1156.75 349.756C1156.25 350.295 1155.57 350.564 1154.69 350.564C1153.82 350.564 1153.13 350.295 1152.64 349.756C1152.15 349.213 1151.91 348.477 1151.91 347.547ZM1152.88 347.594C1152.88 348.242 1153.03 348.764 1153.33 349.158C1153.63 349.549 1154.08 349.744 1154.69 349.744C1155.31 349.744 1155.76 349.549 1156.06 349.158C1156.36 348.764 1156.51 348.242 1156.51 347.594V344.652C1156.51 344.016 1156.36 343.498 1156.06 343.1C1155.76 342.701 1155.31 342.502 1154.69 342.502C1154.08 342.502 1153.63 342.701 1153.33 343.1C1153.03 343.498 1152.88 344.016 1152.88 344.652V347.594Z" fill="#9F9F9F"/>
<path d="M89.627 350.389V342.871L87.2891 343.791V342.854L90.3711 341.74H90.5938V350.389H89.627ZM93.5176 347.119V346.246H96.8809V347.119H93.5176ZM99.0723 350.389L102.459 342.695H97.5957V341.857H103.473V342.449L100.074 350.389H99.0723Z" fill="#9F9F9F"/>
<path d="M426.659 348.139C426.659 347.619 426.812 347.178 427.116 346.814C427.425 346.451 427.812 346.186 428.276 346.018V345.994C427.909 345.838 427.595 345.586 427.333 345.238C427.071 344.891 426.94 344.48 426.94 344.008C426.94 343.309 427.192 342.746 427.696 342.32C428.2 341.895 428.815 341.682 429.542 341.682C430.265 341.682 430.876 341.895 431.376 342.32C431.88 342.742 432.132 343.305 432.132 344.008C432.132 344.48 432.003 344.891 431.745 345.238C431.487 345.586 431.171 345.838 430.796 345.994V346.018C431.269 346.178 431.657 346.441 431.962 346.809C432.267 347.172 432.419 347.615 432.419 348.139C432.419 348.908 432.14 349.506 431.581 349.932C431.026 350.354 430.347 350.564 429.542 350.564C428.737 350.564 428.056 350.354 427.497 349.932C426.938 349.506 426.659 348.908 426.659 348.139ZM427.608 348.086C427.608 348.582 427.786 348.984 428.142 349.293C428.497 349.602 428.964 349.754 429.542 349.75C430.116 349.75 430.579 349.6 430.931 349.299C431.286 348.994 431.464 348.59 431.464 348.086C431.464 347.594 431.286 347.195 430.931 346.891C430.579 346.582 430.116 346.428 429.542 346.428C428.964 346.428 428.497 346.582 428.142 346.891C427.786 347.195 427.608 347.594 427.608 348.086ZM427.872 344.055C427.872 344.508 428.026 344.883 428.335 345.18C428.644 345.473 429.046 345.619 429.542 345.619C430.034 345.619 430.433 345.473 430.737 345.18C431.046 344.883 431.2 344.508 431.2 344.055C431.2 343.602 431.046 343.229 430.737 342.936C430.433 342.643 430.034 342.496 429.542 342.496C429.046 342.492 428.644 342.639 428.335 342.936C428.026 343.229 427.872 343.602 427.872 344.055ZM433.304 347.119V346.246H436.667V347.119H433.304ZM440.312 350.389V342.871L437.974 343.791V342.854L441.056 341.74H441.278V350.389H440.312ZM444.396 348.244V348.18H445.327V348.238C445.327 348.707 445.501 349.076 445.849 349.346C446.2 349.615 446.663 349.75 447.237 349.75C447.812 349.75 448.278 349.568 448.638 349.205C449.001 348.838 449.183 348.324 449.183 347.664C449.183 347.016 449.003 346.525 448.644 346.193C448.284 345.857 447.819 345.689 447.249 345.689C446.882 345.686 446.544 345.758 446.235 345.906C445.927 346.055 445.657 346.25 445.427 346.492L444.7 346.147L445.14 341.857H449.687V342.73H445.925L445.632 345.484C445.827 345.328 446.083 345.188 446.399 345.063C446.716 344.934 447.058 344.869 447.425 344.869C448.183 344.869 448.823 345.115 449.347 345.607C449.874 346.096 450.138 346.779 450.138 347.658C450.138 348.557 449.864 349.266 449.317 349.785C448.774 350.305 448.081 350.564 447.237 350.564C446.378 350.564 445.688 350.348 445.169 349.914C444.653 349.477 444.396 348.92 444.396 348.244Z" fill="#9F9F9F"/>
<path d="M776.199 350.389V342.871L773.861 343.791V342.854L776.943 341.74H777.166V350.389H776.199ZM780.213 346.791V346.615C780.213 345.127 780.633 343.934 781.473 343.035C782.316 342.133 783.475 341.682 784.947 341.682H785.07V342.502H784.947C783.807 342.502 782.889 342.836 782.193 343.504C781.502 344.172 781.156 345.189 781.156 346.557V346.85C781.156 347.904 781.359 348.652 781.766 349.094C782.172 349.531 782.686 349.75 783.307 349.75C783.928 349.75 784.406 349.568 784.742 349.205C785.078 348.842 785.246 348.33 785.246 347.67C785.246 347.025 785.078 346.527 784.742 346.176C784.406 345.824 783.93 345.648 783.312 345.648C782.73 345.648 782.219 345.83 781.777 346.193C781.34 346.557 781.121 347.049 781.121 347.67H780.752C780.752 346.826 781.006 346.143 781.514 345.619C782.025 345.096 782.693 344.834 783.518 344.834C784.334 344.834 784.984 345.096 785.469 345.619C785.957 346.139 786.201 346.822 786.201 347.67C786.201 348.529 785.932 349.227 785.393 349.762C784.854 350.297 784.158 350.564 783.307 350.564C782.436 350.564 781.701 350.262 781.104 349.656C780.51 349.047 780.213 348.092 780.213 346.791ZM786.934 347.119V346.246H790.297V347.119H786.934ZM791.264 350.389V349.645L794.516 346.346C794.918 345.936 795.234 345.553 795.465 345.197C795.695 344.838 795.811 344.451 795.811 344.037C795.811 343.631 795.66 343.273 795.359 342.965C795.059 342.656 794.639 342.502 794.1 342.502C793.553 342.502 793.1 342.666 792.74 342.994C792.385 343.322 792.207 343.772 792.207 344.342V344.412H791.252V344.348C791.252 343.574 791.52 342.938 792.055 342.438C792.594 341.934 793.273 341.682 794.094 341.682C794.91 341.682 795.559 341.912 796.039 342.373C796.523 342.834 796.766 343.373 796.766 343.99C796.766 344.557 796.613 345.066 796.309 345.52C796.004 345.969 795.613 346.43 795.137 346.902L792.494 349.557H797.012V350.389H791.264ZM800.785 350.389V342.871L798.447 343.791V342.854L801.529 341.74H801.752V350.389H800.785Z" fill="#9F9F9F"/>
<path d="M1127.31 350.389V349.645L1130.56 346.346C1130.96 345.936 1131.28 345.553 1131.51 345.197C1131.74 344.838 1131.85 344.451 1131.85 344.037C1131.85 343.631 1131.7 343.273 1131.4 342.965C1131.1 342.656 1130.68 342.502 1130.14 342.502C1129.6 342.502 1129.14 342.666 1128.78 342.994C1128.43 343.322 1128.25 343.772 1128.25 344.342V344.412H1127.3V344.348C1127.3 343.574 1127.56 342.938 1128.1 342.438C1128.64 341.934 1129.32 341.682 1130.14 341.682C1130.95 341.682 1131.6 341.912 1132.08 342.373C1132.57 342.834 1132.81 343.373 1132.81 343.99C1132.81 344.557 1132.66 345.066 1132.35 345.52C1132.05 345.969 1131.66 346.43 1131.18 346.902L1128.54 349.557H1133.06V350.389H1127.31ZM1136.83 350.389V342.871L1134.49 343.791V342.854L1137.57 341.74H1137.8V350.389H1136.83ZM1140.72 347.119V346.246H1144.08V347.119H1140.72ZM1144.87 348.15V348.092H1145.81V348.15C1145.81 348.658 1145.99 349.053 1146.34 349.334C1146.7 349.611 1147.17 349.75 1147.75 349.75C1148.32 349.75 1148.78 349.611 1149.13 349.334C1149.48 349.053 1149.66 348.631 1149.66 348.068C1149.66 347.49 1149.46 347.059 1149.05 346.773C1148.65 346.488 1148.14 346.346 1147.51 346.346H1146.77V345.543H1147.45C1148.04 345.543 1148.5 345.406 1148.84 345.133C1149.18 344.855 1149.36 344.477 1149.36 343.996C1149.36 343.5 1149.21 343.127 1148.91 342.877C1148.62 342.623 1148.23 342.496 1147.75 342.496C1147.26 342.496 1146.85 342.625 1146.53 342.883C1146.21 343.141 1146.05 343.498 1146.05 343.955V344.025H1145.11V343.955C1145.11 343.318 1145.36 342.781 1145.86 342.344C1146.35 341.902 1146.98 341.682 1147.75 341.682C1148.5 341.682 1149.12 341.895 1149.6 342.32C1150.08 342.742 1150.32 343.285 1150.32 343.949C1150.32 344.348 1150.2 344.725 1149.97 345.08C1149.74 345.436 1149.38 345.711 1148.9 345.906V345.93C1149.42 346.047 1149.83 346.291 1150.15 346.662C1150.48 347.029 1150.64 347.502 1150.64 348.08C1150.64 348.834 1150.37 349.438 1149.82 349.891C1149.27 350.34 1148.58 350.564 1147.75 350.564C1146.9 350.564 1146.21 350.342 1145.67 349.897C1145.14 349.447 1144.87 348.865 1144.87 348.15ZM1151.91 347.547V344.693C1151.91 343.768 1152.15 343.035 1152.64 342.496C1153.13 341.953 1153.82 341.682 1154.69 341.682C1155.57 341.682 1156.25 341.953 1156.75 342.496C1157.24 343.035 1157.48 343.768 1157.48 344.693V347.547C1157.48 348.477 1157.24 349.213 1156.75 349.756C1156.25 350.295 1155.57 350.564 1154.69 350.564C1153.82 350.564 1153.13 350.295 1152.64 349.756C1152.15 349.213 1151.91 348.477 1151.91 347.547ZM1152.88 347.594C1152.88 348.242 1153.03 348.764 1153.33 349.158C1153.63 349.549 1154.08 349.744 1154.69 349.744C1155.31 349.744 1155.76 349.549 1156.06 349.158C1156.36 348.764 1156.51 348.242 1156.51 347.594V344.652C1156.51 344.016 1156.36 343.498 1156.06 343.1C1155.76 342.701 1155.31 342.502 1154.69 342.502C1154.08 342.502 1153.63 342.701 1153.33 343.1C1153.03 343.498 1152.88 344.016 1152.88 344.652V347.594Z" fill="#9F9F9F"/>
<path d="M49.1709 316.462V313.609C49.1709 312.683 49.415 311.95 49.9033 311.411C50.3955 310.868 51.0811 310.597 51.96 310.597C52.835 310.597 53.5186 310.868 54.0107 311.411C54.5029 311.95 54.749 312.683 54.749 313.609V316.462C54.749 317.392 54.5029 318.128 54.0107 318.671C53.5186 319.21 52.835 319.48 51.96 319.48C51.0811 319.48 50.3955 319.21 49.9033 318.671C49.415 318.128 49.1709 317.392 49.1709 316.462ZM50.1494 316.509C50.1494 317.157 50.2979 317.679 50.5947 318.073C50.8916 318.464 51.3467 318.659 51.96 318.659C52.5732 318.659 53.0283 318.464 53.3252 318.073C53.626 317.679 53.7764 317.157 53.7764 316.509V313.568C53.7764 312.931 53.626 312.413 53.3252 312.015C53.0283 311.616 52.5732 311.417 51.96 311.417C51.3467 311.417 50.8916 311.616 50.5947 312.015C50.2979 312.413 50.1494 312.931 50.1494 313.568V316.509Z" fill="#9F9F9F"/>
<path d="M37.7803 270.444V262.927L35.4424 263.847V262.909L38.5244 261.796H38.7471V270.444H37.7803ZM41.958 267.603V264.749C41.958 263.823 42.2021 263.091 42.6904 262.552C43.1826 262.009 43.8682 261.737 44.7471 261.737C45.6221 261.737 46.3057 262.009 46.7979 262.552C47.29 263.091 47.5361 263.823 47.5361 264.749V267.603C47.5361 268.532 47.29 269.269 46.7979 269.812C46.3057 270.351 45.6221 270.62 44.7471 270.62C43.8682 270.62 43.1826 270.351 42.6904 269.812C42.2021 269.269 41.958 268.532 41.958 267.603ZM42.9365 267.65C42.9365 268.298 43.085 268.819 43.3818 269.214C43.6787 269.605 44.1338 269.8 44.7471 269.8C45.3604 269.8 45.8154 269.605 46.1123 269.214C46.4131 268.819 46.5635 268.298 46.5635 267.65V264.708C46.5635 264.071 46.4131 263.554 46.1123 263.155C45.8154 262.757 45.3604 262.558 44.7471 262.558C44.1338 262.558 43.6787 262.757 43.3818 263.155C43.085 263.554 42.9365 264.071 42.9365 264.708V267.65ZM48.8018 267.603V264.749C48.8018 263.823 49.0459 263.091 49.5342 262.552C50.0264 262.009 50.7119 261.737 51.5908 261.737C52.4658 261.737 53.1494 262.009 53.6416 262.552C54.1338 263.091 54.3799 263.823 54.3799 264.749V267.603C54.3799 268.532 54.1338 269.269 53.6416 269.812C53.1494 270.351 52.4658 270.62 51.5908 270.62C50.7119 270.62 50.0264 270.351 49.5342 269.812C49.0459 269.269 48.8018 268.532 48.8018 267.603ZM49.7803 267.65C49.7803 268.298 49.9287 268.819 50.2256 269.214C50.5225 269.605 50.9775 269.8 51.5908 269.8C52.2041 269.8 52.6592 269.605 52.9561 269.214C53.2568 268.819 53.4072 268.298 53.4072 267.65V264.708C53.4072 264.071 53.2568 263.554 52.9561 263.155C52.6592 262.757 52.2041 262.558 51.5908 262.558C50.9775 262.558 50.5225 262.757 50.2256 263.155C49.9287 263.554 49.7803 264.071 49.7803 264.708V267.65Z" fill="#9F9F9F"/>
<path d="M35.1025 221.585V220.841L38.3545 217.542C38.7568 217.132 39.0732 216.749 39.3037 216.393C39.5342 216.034 39.6494 215.647 39.6494 215.233C39.6494 214.827 39.499 214.47 39.1982 214.161C38.8975 213.852 38.4775 213.698 37.9385 213.698C37.3916 213.698 36.9385 213.862 36.5791 214.19C36.2236 214.518 36.0459 214.968 36.0459 215.538V215.608H35.0908V215.544C35.0908 214.77 35.3584 214.134 35.8936 213.634C36.4326 213.13 37.1123 212.878 37.9326 212.878C38.749 212.878 39.3975 213.108 39.8779 213.569C40.3623 214.03 40.6045 214.569 40.6045 215.186C40.6045 215.753 40.4521 216.263 40.1475 216.716C39.8428 217.165 39.4521 217.626 38.9756 218.099L36.333 220.753H40.8506V221.585H35.1025ZM41.958 218.743V215.89C41.958 214.964 42.2021 214.231 42.6904 213.692C43.1826 213.149 43.8682 212.878 44.7471 212.878C45.6221 212.878 46.3057 213.149 46.7979 213.692C47.29 214.231 47.5361 214.964 47.5361 215.89V218.743C47.5361 219.673 47.29 220.409 46.7979 220.952C46.3057 221.491 45.6221 221.761 44.7471 221.761C43.8682 221.761 43.1826 221.491 42.6904 220.952C42.2021 220.409 41.958 219.673 41.958 218.743ZM42.9365 218.79C42.9365 219.438 43.085 219.96 43.3818 220.354C43.6787 220.745 44.1338 220.94 44.7471 220.94C45.3604 220.94 45.8154 220.745 46.1123 220.354C46.4131 219.96 46.5635 219.438 46.5635 218.79V215.849C46.5635 215.212 46.4131 214.694 46.1123 214.296C45.8154 213.897 45.3604 213.698 44.7471 213.698C44.1338 213.698 43.6787 213.897 43.3818 214.296C43.085 214.694 42.9365 215.212 42.9365 215.849V218.79ZM48.8018 218.743V215.89C48.8018 214.964 49.0459 214.231 49.5342 213.692C50.0264 213.149 50.7119 212.878 51.5908 212.878C52.4658 212.878 53.1494 213.149 53.6416 213.692C54.1338 214.231 54.3799 214.964 54.3799 215.89V218.743C54.3799 219.673 54.1338 220.409 53.6416 220.952C53.1494 221.491 52.4658 221.761 51.5908 221.761C50.7119 221.761 50.0264 221.491 49.5342 220.952C49.0459 220.409 48.8018 219.673 48.8018 218.743ZM49.7803 218.79C49.7803 219.438 49.9287 219.96 50.2256 220.354C50.5225 220.745 50.9775 220.94 51.5908 220.94C52.2041 220.94 52.6592 220.745 52.9561 220.354C53.2568 219.96 53.4072 219.438 53.4072 218.79V215.849C53.4072 215.212 53.2568 214.694 52.9561 214.296C52.6592 213.897 52.2041 213.698 51.5908 213.698C50.9775 213.698 50.5225 213.897 50.2256 214.296C49.9287 214.694 49.7803 215.212 49.7803 215.849V218.79Z" fill="#9F9F9F"/>
<path d="M34.9209 170.487V170.429H35.8643V170.487C35.8643 170.995 36.042 171.39 36.3975 171.671C36.7529 171.948 37.2197 172.087 37.7979 172.087C38.3682 172.087 38.8291 171.948 39.1807 171.671C39.5361 171.39 39.7139 170.968 39.7139 170.405C39.7139 169.827 39.5107 169.396 39.1045 169.11C38.7021 168.825 38.1885 168.683 37.5635 168.683H36.8252V167.88H37.499C38.0889 167.88 38.5537 167.743 38.8936 167.47C39.2373 167.193 39.4092 166.814 39.4092 166.333C39.4092 165.837 39.2607 165.464 38.9639 165.214C38.6709 164.96 38.2822 164.833 37.7979 164.833C37.3096 164.833 36.9053 164.962 36.585 165.22C36.2646 165.478 36.1045 165.835 36.1045 166.292V166.362H35.167V166.292C35.167 165.655 35.415 165.118 35.9111 164.681C36.4072 164.239 37.0361 164.019 37.7979 164.019C38.5518 164.019 39.1689 164.232 39.6494 164.657C40.1299 165.079 40.3701 165.622 40.3701 166.286C40.3701 166.685 40.2529 167.062 40.0186 167.417C39.7881 167.773 39.4326 168.048 38.9521 168.243V168.267C39.4678 168.384 39.8857 168.628 40.2061 168.999C40.5303 169.366 40.6924 169.839 40.6924 170.417C40.6924 171.171 40.4189 171.775 39.8721 172.228C39.3252 172.677 38.6338 172.901 37.7979 172.901C36.9502 172.901 36.2588 172.679 35.7236 172.234C35.1885 171.784 34.9209 171.202 34.9209 170.487ZM41.958 169.884V167.03C41.958 166.105 42.2021 165.372 42.6904 164.833C43.1826 164.29 43.8682 164.019 44.7471 164.019C45.6221 164.019 46.3057 164.29 46.7979 164.833C47.29 165.372 47.5361 166.105 47.5361 167.03V169.884C47.5361 170.814 47.29 171.55 46.7979 172.093C46.3057 172.632 45.6221 172.901 44.7471 172.901C43.8682 172.901 43.1826 172.632 42.6904 172.093C42.2021 171.55 41.958 170.814 41.958 169.884ZM42.9365 169.931C42.9365 170.579 43.085 171.101 43.3818 171.495C43.6787 171.886 44.1338 172.081 44.7471 172.081C45.3604 172.081 45.8154 171.886 46.1123 171.495C46.4131 171.101 46.5635 170.579 46.5635 169.931V166.989C46.5635 166.353 46.4131 165.835 46.1123 165.437C45.8154 165.038 45.3604 164.839 44.7471 164.839C44.1338 164.839 43.6787 165.038 43.3818 165.437C43.085 165.835 42.9365 166.353 42.9365 166.989V169.931ZM48.8018 169.884V167.03C48.8018 166.105 49.0459 165.372 49.5342 164.833C50.0264 164.29 50.7119 164.019 51.5908 164.019C52.4658 164.019 53.1494 164.29 53.6416 164.833C54.1338 165.372 54.3799 166.105 54.3799 167.03V169.884C54.3799 170.814 54.1338 171.55 53.6416 172.093C53.1494 172.632 52.4658 172.901 51.5908 172.901C50.7119 172.901 50.0264 172.632 49.5342 172.093C49.0459 171.55 48.8018 170.814 48.8018 169.884ZM49.7803 169.931C49.7803 170.579 49.9287 171.101 50.2256 171.495C50.5225 171.886 50.9775 172.081 51.5908 172.081C52.2041 172.081 52.6592 171.886 52.9561 171.495C53.2568 171.101 53.4072 170.579 53.4072 169.931V166.989C53.4072 166.353 53.2568 165.835 52.9561 165.437C52.6592 165.038 52.2041 164.839 51.5908 164.839C50.9775 164.839 50.5225 165.038 50.2256 165.437C49.9287 165.835 49.7803 166.353 49.7803 166.989V169.931Z" fill="#9F9F9F"/>
<path d="M38.8994 123.866V121.546V121.294V116.817H38.835L35.8877 121.019H39.1104H39.4971H41.0732V121.833H34.7861V121.13L38.9229 115.335H39.8135V123.866H38.8994ZM41.958 121.024V118.171C41.958 117.245 42.2021 116.513 42.6904 115.974C43.1826 115.431 43.8682 115.159 44.7471 115.159C45.6221 115.159 46.3057 115.431 46.7979 115.974C47.29 116.513 47.5361 117.245 47.5361 118.171V121.024C47.5361 121.954 47.29 122.69 46.7979 123.233C46.3057 123.773 45.6221 124.042 44.7471 124.042C43.8682 124.042 43.1826 123.773 42.6904 123.233C42.2021 122.69 41.958 121.954 41.958 121.024ZM42.9365 121.071C42.9365 121.72 43.085 122.241 43.3818 122.636C43.6787 123.026 44.1338 123.222 44.7471 123.222C45.3604 123.222 45.8154 123.026 46.1123 122.636C46.4131 122.241 46.5635 121.72 46.5635 121.071V118.13C46.5635 117.493 46.4131 116.976 46.1123 116.577C45.8154 116.179 45.3604 115.98 44.7471 115.98C44.1338 115.98 43.6787 116.179 43.3818 116.577C43.085 116.976 42.9365 117.493 42.9365 118.13V121.071ZM48.8018 121.024V118.171C48.8018 117.245 49.0459 116.513 49.5342 115.974C50.0264 115.431 50.7119 115.159 51.5908 115.159C52.4658 115.159 53.1494 115.431 53.6416 115.974C54.1338 116.513 54.3799 117.245 54.3799 118.171V121.024C54.3799 121.954 54.1338 122.69 53.6416 123.233C53.1494 123.773 52.4658 124.042 51.5908 124.042C50.7119 124.042 50.0264 123.773 49.5342 123.233C49.0459 122.69 48.8018 121.954 48.8018 121.024ZM49.7803 121.071C49.7803 121.72 49.9287 122.241 50.2256 122.636C50.5225 123.026 50.9775 123.222 51.5908 123.222C52.2041 123.222 52.6592 123.026 52.9561 122.636C53.2568 122.241 53.4072 121.72 53.4072 121.071V118.13C53.4072 117.493 53.2568 116.976 52.9561 116.577C52.6592 116.179 52.2041 115.98 51.5908 115.98C50.9775 115.98 50.5225 116.179 50.2256 116.577C49.9287 116.976 49.7803 117.493 49.7803 118.13V121.071Z" fill="#9F9F9F"/>
<path d="M35.0205 72.8624V72.7979H35.9521V72.8565C35.9521 73.3253 36.126 73.6944 36.4736 73.9639C36.8252 74.2335 37.2881 74.3682 37.8623 74.3682C38.4365 74.3682 38.9033 74.1866 39.2627 73.8233C39.626 73.4561 39.8076 72.9424 39.8076 72.2823C39.8076 71.6339 39.6279 71.1436 39.2686 70.8116C38.9092 70.4756 38.4443 70.3077 37.874 70.3077C37.5068 70.3038 37.1689 70.376 36.8604 70.5245C36.5518 70.6729 36.2822 70.8682 36.0518 71.1104L35.3252 70.7647L35.7646 66.4756H40.3115V67.3487H36.5498L36.2568 70.1026C36.4521 69.9464 36.708 69.8057 37.0244 69.6807C37.3408 69.5518 37.6826 69.4874 38.0498 69.4874C38.8076 69.4874 39.4482 69.7335 39.9717 70.2256C40.499 70.7139 40.7627 71.3975 40.7627 72.2764C40.7627 73.1749 40.4893 73.8839 39.9424 74.4034C39.3994 74.9229 38.7061 75.1827 37.8623 75.1827C37.0029 75.1827 36.3135 74.9659 35.7939 74.5323C35.2783 74.0948 35.0205 73.5381 35.0205 72.8624ZM41.958 72.1651V69.3116C41.958 68.3858 42.2021 67.6534 42.6904 67.1143C43.1826 66.5714 43.8682 66.2999 44.7471 66.2999C45.6221 66.2999 46.3057 66.5714 46.7979 67.1143C47.29 67.6534 47.5361 68.3858 47.5361 69.3116V72.1651C47.5361 73.0948 47.29 73.8311 46.7979 74.3741C46.3057 74.9131 45.6221 75.1827 44.7471 75.1827C43.8682 75.1827 43.1826 74.9131 42.6904 74.3741C42.2021 73.8311 41.958 73.0948 41.958 72.1651ZM42.9365 72.212C42.9365 72.8604 43.085 73.3819 43.3818 73.7764C43.6787 74.1671 44.1338 74.3624 44.7471 74.3624C45.3604 74.3624 45.8154 74.1671 46.1123 73.7764C46.4131 73.3819 46.5635 72.8604 46.5635 72.212V69.2706C46.5635 68.6339 46.4131 68.1163 46.1123 67.7178C45.8154 67.3194 45.3604 67.1202 44.7471 67.1202C44.1338 67.1202 43.6787 67.3194 43.3818 67.7178C43.085 68.1163 42.9365 68.6339 42.9365 69.2706V72.212ZM48.8018 72.1651V69.3116C48.8018 68.3858 49.0459 67.6534 49.5342 67.1143C50.0264 66.5714 50.7119 66.2999 51.5908 66.2999C52.4658 66.2999 53.1494 66.5714 53.6416 67.1143C54.1338 67.6534 54.3799 68.3858 54.3799 69.3116V72.1651C54.3799 73.0948 54.1338 73.8311 53.6416 74.3741C53.1494 74.9131 52.4658 75.1827 51.5908 75.1827C50.7119 75.1827 50.0264 74.9131 49.5342 74.3741C49.0459 73.8311 48.8018 73.0948 48.8018 72.1651ZM49.7803 72.212C49.7803 72.8604 49.9287 73.3819 50.2256 73.7764C50.5225 74.1671 50.9775 74.3624 51.5908 74.3624C52.2041 74.3624 52.6592 74.1671 52.9561 73.7764C53.2568 73.3819 53.4072 72.8604 53.4072 72.212V69.2706C53.4072 68.6339 53.2568 68.1163 52.9561 67.7178C52.6592 67.3194 52.2041 67.1202 51.5908 67.1202C50.9775 67.1202 50.5225 67.3194 50.2256 67.7178C49.9287 68.1163 49.7803 68.6339 49.7803 69.2706V72.212Z" fill="#9F9F9F"/>
<line x1="87.3823" y1="315.133" x2="1160.02" y2="315.133" stroke="#D9D9D9" stroke-linecap="round" stroke-linejoin="round" stroke-dasharray="3.5 3.5"/>
<line x1="87.3823" y1="266.274" x2="1160.02" y2="266.274" stroke="#D9D9D9" stroke-linecap="round" stroke-linejoin="round" stroke-dasharray="3.5 3.5"/>
<line x1="87.3823" y1="217.414" x2="1160.02" y2="217.414" stroke="#D9D9D9" stroke-linecap="round" stroke-linejoin="round" stroke-dasharray="3.5 3.5"/>
<line x1="87.3823" y1="168.555" x2="1160.02" y2="168.555" stroke="#D9D9D9" stroke-linecap="round" stroke-linejoin="round" stroke-dasharray="3.5 3.5"/>
<line x1="87.3823" y1="119.695" x2="1160.02" y2="119.695" stroke="#D9D9D9" stroke-linecap="round" stroke-linejoin="round" stroke-dasharray="3.5 3.5"/>
<line x1="87.3823" y1="70.8357" x2="1160.02" y2="70.8364" stroke="#D9D9D9" stroke-linecap="round" stroke-linejoin="round" stroke-dasharray="3.5 3.5"/>
<path d="M232.48 210.543C181.934 198.855 123.457 212.981 94.308 223.635C89.7631 225.297 86.8823 229.68 86.8823 234.518V303.144C86.8823 309.772 92.2549 315.144 98.8823 315.144H1147.24C1153.87 315.144 1159.24 309.772 1159.24 303.144V117.447C1159.24 110.82 1164.19 104.922 1157.56 104.949C1134.44 105.045 1060.41 110.13 1051.65 149.071C1044.63 180.231 1044.32 202.45 1007.04 208.953C969.568 215.491 947.784 177.251 910.19 149.071C880.115 126.527 829.463 155.863 810.772 165.256C777.638 181.604 702.315 145.935 669.672 117.897C623.062 77.8615 561.765 74.1997 515.472 117.897C469.178 161.594 423.26 125.768 365.594 149.071C307.928 172.373 301.616 226.529 232.48 210.543Z" fill="url(#paint0_linear_3771_43599)"/>
<path d="M86.8823 226.709C112.37 216.037 177.172 197.896 232.48 210.702C301.616 226.709 307.928 172.483 365.594 149.151C423.26 125.819 469.179 161.69 515.472 117.937C561.765 74.184 623.062 77.8504 669.672 117.937C702.315 146.011 777.638 181.725 810.772 165.357C829.463 155.951 880.115 126.578 910.19 149.151C947.785 177.367 969.568 215.656 1007.04 209.11C1044.32 202.598 1044.63 180.351 1051.65 149.151C1060.25 110.897 1105.72 112.796 1159.24 105.471" stroke="#81ACFF" stroke-width="3"/>
<rect x="784.502" y="21.3085" width="219" height="33" rx="16.5" fill="#F8F8F8"/>
<rect x="784.502" y="21.3085" width="219" height="33" rx="16.5" stroke="#D9D9D9"/>
<g clip-path="url(#clip0_3771_43599)">
<path d="M810.68 40.7385C811.89 39.0869 812.432 37.0391 812.197 35.005C811.963 32.9708 810.969 31.1002 809.414 29.7674C807.86 28.4347 805.859 27.738 803.813 27.8169C801.767 27.8957 799.826 28.7442 798.379 30.1927C796.931 31.6411 796.084 33.5826 796.007 35.6288C795.929 37.675 796.627 39.675 797.961 41.2286C799.295 42.7822 801.167 43.7749 803.201 44.008C805.235 44.2412 807.283 43.6976 808.933 42.486H808.932C808.97 42.536 809.01 42.5835 809.055 42.6298L813.867 47.4423C814.101 47.6768 814.419 47.8087 814.751 47.8088C815.083 47.8089 815.401 47.6773 815.635 47.4429C815.87 47.2085 816.002 46.8906 816.002 46.559C816.002 46.2274 815.87 45.9093 815.636 45.6748L810.823 40.8623C810.779 40.817 810.731 40.7753 810.68 40.7373V40.7385ZM811.002 35.9335C811.002 36.8364 810.824 37.7304 810.479 38.5645C810.133 39.3986 809.627 40.1565 808.988 40.7949C808.35 41.4333 807.592 41.9397 806.758 42.2852C805.924 42.6307 805.03 42.8085 804.127 42.8085C803.224 42.8085 802.33 42.6307 801.496 42.2852C800.662 41.9397 799.904 41.4333 799.266 40.7949C798.627 40.1565 798.121 39.3986 797.775 38.5645C797.43 37.7304 797.252 36.8364 797.252 35.9335C797.252 34.1102 797.976 32.3615 799.266 31.0722C800.555 29.7829 802.304 29.0585 804.127 29.0585C805.95 29.0585 807.699 29.7829 808.988 31.0722C810.278 32.3615 811.002 34.1102 811.002 35.9335Z" fill="#555555"/>
</g>
<path d="M830.255 42.8085V32.8554H833.461C834.445 32.8554 835.215 33.0628 835.771 33.4775C836.332 33.8876 836.612 34.5484 836.612 35.4599C836.612 36.0159 836.473 36.4693 836.195 36.8203C835.917 37.1712 835.571 37.4173 835.156 37.5585V37.5859C835.667 37.7317 836.081 38.0051 836.4 38.4062C836.724 38.8072 836.886 39.3313 836.886 39.9785C836.886 40.8854 836.594 41.5849 836.011 42.0771C835.427 42.5647 834.65 42.8085 833.68 42.8085H830.255ZM831.328 41.8925H833.68C834.409 41.8925 834.944 41.7216 835.286 41.3798C835.628 41.038 835.799 40.5709 835.799 39.9785C835.799 39.3951 835.628 38.9326 835.286 38.5908C834.944 38.249 834.409 38.0781 833.68 38.0781H831.328V41.8925ZM831.328 37.1757H833.461C834.195 37.1757 834.721 37.0253 835.04 36.7245C835.364 36.4192 835.525 35.9977 835.525 35.4599C835.525 34.9085 835.364 34.4892 835.04 34.2021C834.721 33.915 834.195 33.7714 833.461 33.7714H831.328V37.1757ZM838.526 40.2929V35.6171H839.586V40.3066C839.586 40.9218 839.729 41.3639 840.017 41.6328C840.304 41.9016 840.707 42.0361 841.227 42.0361C841.669 42.0361 842.056 41.9199 842.389 41.6874C842.726 41.4505 842.993 41.1474 843.188 40.7783V35.6171H844.255V42.8085H843.291L843.25 41.8173H843.216C842.942 42.1728 842.607 42.4508 842.211 42.6513C841.819 42.8473 841.382 42.9453 840.898 42.9453C840.178 42.9453 839.602 42.7425 839.169 42.3369C838.741 41.9267 838.526 41.2454 838.526 40.2929ZM845.841 40.6894H846.9V40.7236C846.9 41.193 847.069 41.5439 847.406 41.7763C847.748 42.0087 848.195 42.1249 848.746 42.1249C849.302 42.1249 849.737 42.011 850.052 41.7831C850.371 41.5553 850.53 41.2613 850.53 40.9013C850.53 40.5413 850.403 40.2724 850.147 40.0947C849.892 39.9124 849.366 39.7301 848.568 39.5478C847.775 39.3655 847.158 39.1103 846.716 38.7822C846.278 38.4495 846.06 37.996 846.06 37.4218C846.06 36.843 846.301 36.3645 846.784 35.9863C847.267 35.6035 847.912 35.412 848.719 35.412C849.53 35.412 850.182 35.6103 850.674 36.0068C851.166 36.4033 851.412 36.9228 851.412 37.5654V37.5995H850.353V37.5585C850.353 37.1757 850.216 36.8704 849.942 36.6425C849.674 36.4147 849.266 36.3007 848.719 36.3007C848.172 36.3007 847.766 36.3987 847.502 36.5947C847.242 36.7906 847.112 37.0436 847.112 37.3535C847.112 37.6634 847.249 37.9117 847.522 38.0986C847.796 38.2809 848.329 38.4632 849.122 38.6454C849.92 38.8277 850.53 39.0829 850.954 39.4111C851.378 39.7392 851.59 40.2154 851.59 40.8398C851.59 41.4687 851.353 41.9882 850.879 42.3984C850.405 42.8085 849.694 43.0136 848.746 43.0136C847.803 43.0136 847.083 42.8063 846.586 42.3915C846.089 41.9723 845.841 41.4163 845.841 40.7236V40.6894ZM852.725 39.3222V39.1035C852.725 38.0188 853.019 37.1324 853.606 36.4443C854.194 35.7561 855.003 35.412 856.033 35.412C856.986 35.412 857.706 35.6695 858.193 36.1845C858.686 36.6995 858.932 37.2783 858.932 37.9208V37.955H857.906V37.9208C857.906 37.4833 857.756 37.1051 857.455 36.7861C857.159 36.4625 856.685 36.3007 856.033 36.3007C855.272 36.3007 854.709 36.5696 854.345 37.1074C853.985 37.6451 853.805 38.3105 853.805 39.1035V39.3222C853.805 40.1197 853.987 40.7874 854.352 41.3251C854.716 41.8583 855.277 42.1249 856.033 42.1249C856.685 42.1249 857.159 41.9654 857.455 41.6464C857.756 41.3229 857.906 40.9423 857.906 40.5048V40.4706H858.932V40.5048C858.932 41.1474 858.686 41.7262 858.193 42.2411C857.706 42.7561 856.986 43.0136 856.033 43.0136C855.003 43.0136 854.194 42.6695 853.606 41.9814C853.019 41.2932 852.725 40.4068 852.725 39.3222ZM860.046 40.7372C860.046 40.0126 860.333 39.4521 860.907 39.0556C861.486 38.6546 862.22 38.454 863.108 38.454H864.872V37.8867C864.872 37.4081 864.749 37.0208 864.503 36.7245C864.261 36.4283 863.838 36.2802 863.231 36.2802C862.625 36.2802 862.19 36.4055 861.926 36.6562C861.666 36.9023 861.536 37.1985 861.536 37.5449V37.579H860.49V37.5449C860.49 36.9615 860.741 36.4602 861.242 36.041C861.743 35.6217 862.418 35.412 863.266 35.412C864.113 35.412 864.77 35.6194 865.234 36.0341C865.704 36.4488 865.938 37.0663 865.938 37.8867V41.1679C865.938 41.4641 865.961 41.7444 866.007 42.0087C866.057 42.2685 866.125 42.4986 866.212 42.6992V42.8085H865.193C865.12 42.69 865.057 42.5351 865.002 42.3437C864.947 42.1523 864.913 41.9609 864.899 41.7695C864.722 42.0703 864.432 42.3414 864.031 42.5829C863.635 42.8245 863.124 42.9453 862.5 42.9453C861.812 42.9453 861.231 42.7607 860.757 42.3915C860.283 42.0178 860.046 41.4664 860.046 40.7372ZM861.105 40.6826C861.105 41.1337 861.238 41.4801 861.502 41.7216C861.771 41.9586 862.186 42.0771 862.746 42.0771C863.298 42.0771 863.79 41.8948 864.223 41.5302C864.656 41.1656 864.872 40.776 864.872 40.3613V39.2333H863.252C862.55 39.2333 862.017 39.3632 861.652 39.623C861.288 39.8782 861.105 40.2314 861.105 40.6826ZM867.982 42.8085V35.6171H868.939L868.987 36.5878H869.015C869.215 36.2734 869.475 35.9999 869.794 35.7675C870.118 35.5305 870.505 35.412 870.956 35.412C871.061 35.412 871.17 35.4234 871.284 35.4462C871.403 35.469 871.487 35.4895 871.537 35.5078V36.499C871.441 36.4807 871.339 36.4671 871.229 36.4579C871.125 36.4443 871.011 36.4374 870.888 36.4374C870.441 36.4374 870.061 36.5536 869.746 36.7861C869.436 37.0185 869.201 37.3056 869.042 37.6474V42.8085H867.982ZM875.167 35.6171H876.227L878.1 40.7031C878.163 40.8854 878.218 41.0517 878.264 41.2021C878.314 41.3525 878.35 41.4824 878.373 41.5917H878.421C878.444 41.4824 878.478 41.3525 878.523 41.2021C878.569 41.0517 878.626 40.8854 878.694 40.7031L880.561 35.6171H881.6L878.811 42.8085H877.956L875.167 35.6171ZM882.092 39.3222V39.1035C882.092 38.0188 882.388 37.1324 882.98 36.4443C883.573 35.7561 884.354 35.412 885.325 35.412C886.296 35.412 887.043 35.7288 887.567 36.3622C888.091 36.9957 888.354 37.8684 888.354 38.9804V39.4247H882.721V38.5634H887.28V38.4677C887.28 37.8115 887.118 37.2874 886.795 36.8954C886.476 36.499 885.995 36.3007 885.353 36.3007C884.632 36.3007 884.088 36.5696 883.719 37.1074C883.354 37.6406 883.172 38.3059 883.172 39.1035V39.3222C883.172 40.1197 883.363 40.7874 883.746 41.3251C884.129 41.8583 884.728 42.1249 885.544 42.1249C886.018 42.1249 886.424 42.0292 886.761 41.8378C887.098 41.6419 887.378 41.4049 887.602 41.1269L888.292 41.6943C888.064 42.0224 887.715 42.3255 887.246 42.6035C886.781 42.8769 886.214 43.0136 885.544 43.0136C884.432 43.0136 883.577 42.6695 882.98 41.9814C882.388 41.2932 882.092 40.4068 882.092 39.3222ZM889.885 42.8085V35.6171H890.842L890.89 36.6083H890.917C891.19 36.2529 891.523 35.9772 891.915 35.7812C892.312 35.5807 892.751 35.4804 893.234 35.4804C893.959 35.4804 894.535 35.6855 894.964 36.0956C895.392 36.5012 895.606 37.1803 895.606 38.1328V42.8085H894.54V38.1191C894.54 37.5038 894.399 37.0618 894.116 36.7929C893.834 36.524 893.433 36.3896 892.913 36.3896C892.471 36.3896 892.079 36.5081 891.737 36.7451C891.4 36.982 891.136 37.2828 890.944 37.6474V42.8085H889.885ZM897.158 39.3222V39.1035C897.158 38.0553 897.429 37.1894 897.972 36.5058C898.519 35.8222 899.255 35.4804 900.18 35.4804C900.708 35.4804 901.16 35.5738 901.533 35.7607C901.911 35.9475 902.215 36.1936 902.442 36.499V32.3085H903.509V42.8085H902.545L902.504 41.8378H902.477C902.276 42.1432 901.975 42.4052 901.574 42.624C901.173 42.8382 900.708 42.9453 900.18 42.9453C899.255 42.9453 898.519 42.6035 897.972 41.9199C897.429 41.2363 897.158 40.3704 897.158 39.3222ZM898.245 39.3222C898.245 40.1061 898.421 40.7578 898.771 41.2773C899.122 41.7968 899.672 42.0566 900.419 42.0566C900.916 42.0566 901.337 41.929 901.684 41.6738C902.035 41.414 902.287 41.1178 902.442 40.7851V37.6406C902.287 37.3079 902.035 37.0139 901.684 36.7587C901.337 36.499 900.916 36.3691 900.419 36.3691C899.672 36.3691 899.122 36.6288 898.771 37.1484C898.421 37.6679 898.245 38.3196 898.245 39.1035V39.3222ZM905.129 39.3222V39.1035C905.129 38.0188 905.425 37.1324 906.018 36.4443C906.61 35.7561 907.392 35.412 908.362 35.412C909.333 35.412 910.08 35.7288 910.604 36.3622C911.129 36.9957 911.391 37.8684 911.391 38.9804V39.4247H905.758V38.5634H910.317V38.4677C910.317 37.8115 910.156 37.2874 909.832 36.8954C909.513 36.499 909.032 36.3007 908.39 36.3007C907.67 36.3007 907.125 36.5696 906.756 37.1074C906.391 37.6406 906.209 38.3059 906.209 39.1035V39.3222C906.209 40.1197 906.4 40.7874 906.783 41.3251C907.166 41.8583 907.765 42.1249 908.581 42.1249C909.055 42.1249 909.461 42.0292 909.798 41.8378C910.135 41.6419 910.415 41.4049 910.639 41.1269L911.329 41.6943C911.101 42.0224 910.753 42.3255 910.283 42.6035C909.818 42.8769 909.251 43.0136 908.581 43.0136C907.469 43.0136 906.615 42.6695 906.018 41.9814C905.425 41.2932 905.129 40.4068 905.129 39.3222ZM912.471 39.3222V39.1035C912.471 38.0553 912.742 37.1894 913.284 36.5058C913.831 35.8222 914.567 35.4804 915.492 35.4804C916.021 35.4804 916.472 35.5738 916.846 35.7607C917.224 35.9475 917.527 36.1936 917.755 36.499V32.3085H918.821V42.8085H917.857L917.816 41.8378H917.789C917.589 42.1432 917.288 42.4052 916.887 42.624C916.486 42.8382 916.021 42.9453 915.492 42.9453C914.567 42.9453 913.831 42.6035 913.284 41.9199C912.742 41.2363 912.471 40.3704 912.471 39.3222ZM913.558 39.3222C913.558 40.1061 913.733 40.7578 914.084 41.2773C914.435 41.7968 914.984 42.0566 915.731 42.0566C916.228 42.0566 916.65 41.929 916.996 41.6738C917.347 41.414 917.6 41.1178 917.755 40.7851V37.6406C917.6 37.3079 917.347 37.0139 916.996 36.7587C916.65 36.499 916.228 36.3691 915.731 36.3691C914.984 36.3691 914.435 36.6288 914.084 37.1484C913.733 37.6679 913.558 38.3196 913.558 39.1035V39.3222ZM920.441 39.3222V39.1035C920.441 38.0188 920.747 37.1324 921.357 36.4443C921.973 35.7561 922.795 35.412 923.825 35.412C924.851 35.412 925.669 35.7561 926.279 36.4443C926.895 37.1324 927.202 38.0188 927.202 39.1035V39.3222C927.202 40.4068 926.895 41.2932 926.279 41.9814C925.669 42.6695 924.851 43.0136 923.825 43.0136C922.795 43.0136 921.973 42.6695 921.357 41.9814C920.747 41.2932 920.441 40.4068 920.441 39.3222ZM921.528 39.1035V39.3222C921.528 40.1152 921.72 40.7805 922.103 41.3183C922.49 41.8561 923.064 42.1249 923.825 42.1249C924.582 42.1249 925.154 41.8561 925.541 41.3183C925.928 40.7805 926.122 40.1152 926.122 39.3222V39.1035C926.122 38.3105 925.928 37.6451 925.541 37.1074C925.154 36.5696 924.582 36.3007 923.825 36.3007C923.064 36.3007 922.49 36.5696 922.103 37.1074C921.72 37.6451 921.528 38.3105 921.528 39.1035ZM928.822 42.8085V35.6171H929.779L929.827 36.5878H929.854C930.055 36.2734 930.315 35.9999 930.634 35.7675C930.957 35.5305 931.345 35.412 931.796 35.412C931.901 35.412 932.01 35.4234 932.124 35.4462C932.243 35.469 932.327 35.4895 932.377 35.5078V36.499C932.281 36.4807 932.179 36.4671 932.069 36.4579C931.965 36.4443 931.851 36.4374 931.728 36.4374C931.281 36.4374 930.9 36.5536 930.586 36.7861C930.276 37.0185 930.041 37.3056 929.882 37.6474V42.8085H928.822ZM932.808 42.1796C932.808 41.9609 932.876 41.7763 933.013 41.6259C933.154 41.471 933.354 41.3935 933.614 41.3935C933.874 41.3935 934.072 41.471 934.209 41.6259C934.35 41.7763 934.421 41.9586 934.421 42.1728C934.421 42.3915 934.35 42.5784 934.209 42.7333C934.072 42.8837 933.874 42.9589 933.614 42.9589C933.354 42.9589 933.154 42.8837 933.013 42.7333C932.876 42.5784 932.808 42.3938 932.808 42.1796ZM936.526 42.1796C936.526 41.9609 936.595 41.7763 936.731 41.6259C936.873 41.471 937.073 41.3935 937.333 41.3935C937.593 41.3935 937.791 41.471 937.928 41.6259C938.069 41.7763 938.14 41.9586 938.14 42.1728C938.14 42.3915 938.069 42.5784 937.928 42.7333C937.791 42.8837 937.593 42.9589 937.333 42.9589C937.073 42.9589 936.873 42.8837 936.731 42.7333C936.595 42.5784 936.526 42.3938 936.526 42.1796ZM940.245 42.1796C940.245 41.9609 940.313 41.7763 940.45 41.6259C940.591 41.471 940.792 41.3935 941.052 41.3935C941.312 41.3935 941.51 41.471 941.646 41.6259C941.788 41.7763 941.858 41.9586 941.858 42.1728C941.858 42.3915 941.788 42.5784 941.646 42.7333C941.51 42.8837 941.312 42.9589 941.052 42.9589C940.792 42.9589 940.591 42.8837 940.45 42.7333C940.313 42.5784 940.245 42.3938 940.245 42.1796Z" fill="#555555"/>
<g clip-path="url(#clip1_3771_43599)">
<path d="M977.81 33.616C977.868 33.5578 977.937 33.5116 978.013 33.4801C978.088 33.4486 978.17 33.4324 978.252 33.4324C978.334 33.4324 978.416 33.4486 978.492 33.4801C978.568 33.5116 978.637 33.5578 978.695 33.616L982.002 36.9248L985.31 33.616C985.368 33.5579 985.437 33.5118 985.513 33.4804C985.589 33.4489 985.67 33.4327 985.752 33.4327C985.834 33.4327 985.916 33.4489 985.992 33.4804C986.067 33.5118 986.136 33.5579 986.195 33.616C986.253 33.6741 986.299 33.7431 986.33 33.819C986.362 33.895 986.378 33.9763 986.378 34.0585C986.378 34.1407 986.362 34.2221 986.33 34.298C986.299 34.3739 986.253 34.4429 986.195 34.501L982.886 37.8085L986.195 41.116C986.253 41.1741 986.299 41.2431 986.33 41.319C986.362 41.395 986.378 41.4763 986.378 41.5585C986.378 41.6407 986.362 41.7221 986.33 41.798C986.299 41.8739 986.253 41.9429 986.195 42.001C986.136 42.0591 986.067 42.1052 985.992 42.1367C985.916 42.1681 985.834 42.1843 985.752 42.1843C985.67 42.1843 985.589 42.1681 985.513 42.1367C985.437 42.1052 985.368 42.0591 985.31 42.001L982.002 38.6923L978.695 42.001C978.636 42.0591 978.567 42.1052 978.492 42.1367C978.416 42.1681 978.334 42.1843 978.252 42.1843C978.17 42.1843 978.089 42.1681 978.013 42.1367C977.937 42.1052 977.868 42.0591 977.81 42.001C977.751 41.9429 977.705 41.8739 977.674 41.798C977.642 41.7221 977.626 41.6407 977.626 41.5585C977.626 41.4763 977.642 41.395 977.674 41.319C977.705 41.2431 977.751 41.1741 977.81 41.116L981.118 37.8085L977.81 34.501C977.751 34.443 977.705 34.374 977.674 34.2981C977.642 34.2221 977.626 34.1407 977.626 34.0585C977.626 33.9763 977.642 33.8949 977.674 33.819C977.705 33.743 977.751 33.6741 977.81 33.616Z" fill="#555555"/>
</g>
<rect x="1014.5" y="21.3085" width="149" height="33" rx="7.5" fill="#F8F8F8"/>
<rect x="1014.5" y="21.3085" width="149" height="33" rx="7.5" stroke="#9F9F9F"/>
<g clip-path="url(#clip2_3771_43599)">
<path d="M1024.61 41.1288V40.9413H1026.74V41.0976C1026.74 41.7018 1026.93 42.1549 1027.32 42.457C1027.71 42.7591 1028.26 42.9101 1028.96 42.9101C1029.67 42.9101 1030.2 42.7643 1030.57 42.4726C1030.95 42.1809 1031.13 41.7955 1031.13 41.3163C1031.13 40.8424 1030.96 40.4726 1030.6 40.207C1030.24 39.9413 1029.5 39.6549 1028.37 39.3476C1027.17 39.0195 1026.27 38.5976 1025.69 38.082C1025.11 37.5663 1024.81 36.8502 1024.81 35.9335C1024.81 34.97 1025.17 34.1913 1025.91 33.5976C1026.64 33.0038 1027.64 32.707 1028.89 32.707C1030.15 32.707 1031.15 33.0169 1031.9 33.6367C1032.65 34.2512 1033.03 35.0611 1033.03 36.0663V36.2382H1030.94V36.0898C1030.94 35.5637 1030.77 35.1419 1030.42 34.8242C1030.08 34.5012 1029.57 34.3398 1028.9 34.3398C1028.22 34.3398 1027.73 34.4726 1027.41 34.7382C1027.09 34.9986 1026.93 35.3528 1026.93 35.8007C1026.93 36.2278 1027.1 36.5559 1027.44 36.7851C1027.78 37.0143 1028.51 37.2851 1029.64 37.5976C1030.83 37.9257 1031.73 38.358 1032.34 38.8945C1032.95 39.4309 1033.25 40.1966 1033.25 41.1913C1033.25 42.2226 1032.86 43.0377 1032.08 43.6367C1031.3 44.2356 1030.27 44.5351 1028.97 44.5351C1027.68 44.5351 1026.63 44.2408 1025.82 43.6523C1025.01 43.0585 1024.61 42.2174 1024.61 41.1288ZM1034.39 40.3398V40.0898C1034.39 38.8346 1034.76 37.8216 1035.49 37.0507C1036.23 36.2747 1037.18 35.8867 1038.35 35.8867C1039.51 35.8867 1040.42 36.2486 1041.08 36.9726C1041.74 37.6966 1042.06 38.6887 1042.06 39.9492V40.6992H1035.73V39.3554H1040.05V39.1835C1040.05 38.6835 1039.9 38.2617 1039.61 37.9179C1039.32 37.5742 1038.9 37.4023 1038.36 37.4023C1037.72 37.4023 1037.24 37.6419 1036.91 38.121C1036.59 38.6002 1036.42 39.2252 1036.42 39.996V40.4179C1036.42 41.1835 1036.6 41.8059 1036.95 42.2851C1037.3 42.7643 1037.82 43.0038 1038.52 43.0038C1038.98 43.0038 1039.38 42.8945 1039.71 42.6757C1040.05 42.457 1040.32 42.2018 1040.53 41.9101L1041.95 42.8554C1041.69 43.3189 1041.26 43.7174 1040.67 44.0507C1040.08 44.3788 1039.37 44.5429 1038.54 44.5429C1037.23 44.5429 1036.22 44.1575 1035.49 43.3867C1034.76 42.6106 1034.39 41.595 1034.39 40.3398ZM1043.63 47.5663V36.121H1045.52L1045.57 37.0976H1045.61C1045.79 36.7747 1046.1 36.5038 1046.52 36.2851C1046.94 36.0663 1047.43 35.957 1047.96 35.957C1049.01 35.957 1049.85 36.3372 1050.49 37.0976C1051.12 37.8528 1051.44 38.8502 1051.44 40.0898V40.3398C1051.44 41.5689 1051.12 42.5637 1050.49 43.3242C1049.87 44.0846 1049.04 44.4648 1048.01 44.4648C1047.48 44.4648 1047.01 44.3736 1046.6 44.1913C1046.19 44.0091 1045.88 43.7591 1045.66 43.4413V47.5663H1043.63ZM1045.66 41.6835C1045.79 42.0064 1046.02 42.2903 1046.34 42.5351C1046.66 42.7799 1047.04 42.9023 1047.49 42.9023C1048.13 42.9023 1048.6 42.6783 1048.91 42.2304C1049.22 41.7773 1049.37 41.1731 1049.37 40.4179V40.0038C1049.37 39.2538 1049.22 38.6549 1048.91 38.207C1048.6 37.7538 1048.12 37.5273 1047.48 37.5273C1047.03 37.5273 1046.64 37.6471 1046.33 37.8867C1046.02 38.1262 1045.8 38.4049 1045.66 38.7226V41.6835ZM1052.03 37.621V36.121H1056.97V37.621H1052.03ZM1053.34 42.0038V36.9101L1053.35 36.6913V34.1288H1055.36V41.9492C1055.36 42.3294 1055.43 42.5924 1055.57 42.7382C1055.72 42.8841 1055.93 42.957 1056.2 42.957C1056.32 42.957 1056.45 42.9439 1056.57 42.9179C1056.7 42.8867 1056.83 42.8476 1056.95 42.8007V44.3007C1056.82 44.3632 1056.65 44.4179 1056.42 44.4648C1056.21 44.5117 1055.97 44.5351 1055.71 44.5351C1054.99 44.5351 1054.41 44.332 1053.98 43.9257C1053.55 43.5195 1053.34 42.8788 1053.34 42.0038ZM1058.4 44.3085V36.121H1060.44V44.3085H1058.4ZM1058.21 33.7617C1058.21 33.4439 1058.32 33.1783 1058.53 32.9648C1058.73 32.7512 1059.03 32.6445 1059.42 32.6445C1059.81 32.6445 1060.11 32.7512 1060.32 32.9648C1060.53 33.1783 1060.63 33.4439 1060.63 33.7617C1060.63 34.0794 1060.53 34.3476 1060.31 34.5663C1060.11 34.7799 1059.81 34.8867 1059.42 34.8867C1059.03 34.8867 1058.73 34.7799 1058.53 34.5663C1058.32 34.3476 1058.21 34.0794 1058.21 33.7617ZM1062.13 40.3398V40.0898C1062.13 38.8346 1062.49 37.8216 1063.23 37.0507C1063.96 36.2747 1064.91 35.8867 1066.08 35.8867C1067.25 35.8867 1068.16 36.2486 1068.81 36.9726C1069.47 37.6966 1069.8 38.6887 1069.8 39.9492V40.6992H1063.46V39.3554H1067.78V39.1835C1067.78 38.6835 1067.64 38.2617 1067.35 37.9179C1067.05 37.5742 1066.64 37.4023 1066.1 37.4023C1065.46 37.4023 1064.97 37.6419 1064.64 38.121C1064.32 38.6002 1064.16 39.2252 1064.16 39.996V40.4179C1064.16 41.1835 1064.33 41.8059 1064.68 42.2851C1065.03 42.7643 1065.55 43.0038 1066.25 43.0038C1066.72 43.0038 1067.11 42.8945 1067.45 42.6757C1067.79 42.457 1068.06 42.2018 1068.27 41.9101L1069.68 42.8554C1069.42 43.3189 1068.99 43.7174 1068.4 44.0507C1067.81 44.3788 1067.1 44.5429 1066.28 44.5429C1064.97 44.5429 1063.95 44.1575 1063.22 43.3867C1062.49 42.6106 1062.13 41.595 1062.13 40.3398ZM1071.36 44.3085V36.121H1073.27L1073.32 37.1054H1073.37C1073.63 36.746 1073.96 36.4674 1074.37 36.2695C1074.78 36.0663 1075.23 35.9648 1075.71 35.9648C1076.27 35.9648 1076.76 36.082 1077.17 36.3163C1077.59 36.5455 1077.9 36.8971 1078.09 37.371H1078.13C1078.42 36.8971 1078.8 36.5455 1079.26 36.3163C1079.72 36.082 1080.22 35.9648 1080.76 35.9648C1081.59 35.9648 1082.25 36.2148 1082.74 36.7148C1083.24 37.2096 1083.49 38.0403 1083.49 39.207V44.3085H1081.46V39.121C1081.46 38.5794 1081.34 38.1835 1081.11 37.9335C1080.88 37.6835 1080.55 37.5585 1080.11 37.5585C1079.73 37.5533 1079.4 37.6575 1079.11 37.871C1078.83 38.0846 1078.61 38.371 1078.44 38.7304V44.3085H1076.41V39.1367C1076.41 38.5846 1076.29 38.1835 1076.06 37.9335C1075.83 37.6835 1075.49 37.5585 1075.05 37.5585C1074.67 37.5585 1074.35 37.6627 1074.06 37.871C1073.78 38.0794 1073.56 38.3658 1073.39 38.7304V44.3085H1071.36ZM1085.52 44.3085V32.3632H1087.55V37.0117C1087.8 36.6835 1088.13 36.4257 1088.52 36.2382C1088.91 36.0507 1089.37 35.957 1089.9 35.957C1090.95 35.957 1091.79 36.3424 1092.41 37.1132C1093.03 37.8841 1093.34 38.8736 1093.34 40.082V40.332C1093.34 41.5455 1093.03 42.5377 1092.4 43.3085C1091.78 44.0794 1090.95 44.4648 1089.9 44.4648C1089.36 44.4648 1088.88 44.358 1088.45 44.1445C1088.01 43.9309 1087.71 43.6627 1087.53 43.3398H1087.48L1087.42 44.3085H1085.52ZM1087.55 41.6523C1087.68 41.9804 1087.91 42.2721 1088.21 42.5273C1088.52 42.7773 1088.91 42.9023 1089.38 42.9023C1090.02 42.9023 1090.49 42.6679 1090.8 42.1992C1091.11 41.7304 1091.26 41.1314 1091.26 40.4023V40.0195C1091.26 39.2903 1091.11 38.6939 1090.8 38.2304C1090.5 37.7617 1090.02 37.5273 1089.37 37.5273C1088.91 37.5273 1088.53 37.6549 1088.21 37.9101C1087.91 38.1601 1087.68 38.4492 1087.55 38.7773V41.6523ZM1094.97 44.3085V36.121H1096.89L1096.94 37.0742H1096.99C1097.16 36.7564 1097.41 36.4804 1097.71 36.246C1098.03 36.0117 1098.38 35.8945 1098.78 35.8945C1098.88 35.8945 1099 35.9075 1099.11 35.9335C1099.23 35.9596 1099.31 35.983 1099.36 36.0038V37.7851C1099.27 37.7591 1099.17 37.7408 1099.06 37.7304C1098.95 37.72 1098.84 37.7148 1098.71 37.7148C1098.31 37.7148 1097.97 37.8268 1097.67 38.0507C1097.37 38.2695 1097.15 38.5481 1097.01 38.8867V44.3085H1094.97ZM1100.05 40.3398V40.0898C1100.05 38.8346 1100.42 37.8216 1101.15 37.0507C1101.88 36.2747 1102.84 35.8867 1104 35.8867C1105.17 35.8867 1106.08 36.2486 1106.74 36.9726C1107.39 37.6966 1107.72 38.6887 1107.72 39.9492V40.6992H1101.38V39.3554H1105.71V39.1835C1105.71 38.6835 1105.56 38.2617 1105.27 37.9179C1104.98 37.5742 1104.56 37.4023 1104.02 37.4023C1103.38 37.4023 1102.89 37.6419 1102.56 38.121C1102.24 38.6002 1102.08 39.2252 1102.08 39.996V40.4179C1102.08 41.1835 1102.25 41.8059 1102.6 42.2851C1102.95 42.7643 1103.48 43.0038 1104.17 43.0038C1104.64 43.0038 1105.04 42.8945 1105.37 42.6757C1105.71 42.457 1105.98 42.2018 1106.19 41.9101L1107.6 42.8554C1107.34 43.3189 1106.92 43.7174 1106.32 44.0507C1105.73 44.3788 1105.03 44.5429 1104.2 44.5429C1102.89 44.5429 1101.87 44.1575 1101.14 43.3867C1100.41 42.6106 1100.05 41.595 1100.05 40.3398Z" fill="#140000"/>
<path fill-rule="evenodd" clip-rule="evenodd" d="M1132.47 33.7775C1132.54 33.7077 1132.62 33.6523 1132.71 33.6145C1132.81 33.5767 1132.9 33.5572 1133 33.5572C1133.1 33.5572 1133.2 33.5767 1133.29 33.6145C1133.38 33.6523 1133.46 33.7077 1133.53 33.7775L1142 42.248L1150.47 33.7775C1150.54 33.7078 1150.62 33.6525 1150.71 33.6147C1150.81 33.577 1150.9 33.5576 1151 33.5576C1151.1 33.5576 1151.2 33.577 1151.29 33.6147C1151.38 33.6525 1151.46 33.7078 1151.53 33.7775C1151.6 33.8473 1151.66 33.93 1151.7 34.0212C1151.73 34.1123 1151.75 34.2099 1151.75 34.3085C1151.75 34.4071 1151.73 34.5048 1151.7 34.5959C1151.66 34.687 1151.6 34.7698 1151.53 34.8395L1142.53 43.8395C1142.46 43.9094 1142.38 43.9648 1142.29 44.0026C1142.2 44.0404 1142.1 44.0599 1142 44.0599C1141.9 44.0599 1141.81 44.0404 1141.71 44.0026C1141.62 43.9648 1141.54 43.9094 1141.47 43.8395L1132.47 34.8395C1132.4 34.7699 1132.35 34.6871 1132.31 34.596C1132.27 34.5049 1132.25 34.4072 1132.25 34.3085C1132.25 34.2099 1132.27 34.1122 1132.31 34.0211C1132.35 33.93 1132.4 33.8472 1132.47 33.7775Z" fill="#140000"/>
</g>
</g>
<defs>
<filter id="filter0_d_3771_43599" x="0" y="0.500061" width="1201" height="391" filterUnits="userSpaceOnUse" color-interpolation-filters="sRGB">
<feFlood flood-opacity="0" result="BackgroundImageFix"/>
<feColorMatrix in="SourceAlpha" type="matrix" values="0 0 0 0 0 0 0 0 0 0 0 0 0 0 0 0 0 0 127 0" result="hardAlpha"/>
<feOffset dx="3" dy="5"/>
<feGaussianBlur stdDeviation="5"/>
<feColorMatrix type="matrix" values="0 0 0 0 0 0 0 0 0 0 0 0 0 0 0 0 0 0 0.3 0"/>
<feBlend mode="normal" in2="BackgroundImageFix" result="effect1_dropShadow_3771_43599"/>
<feBlend mode="normal" in="SourceGraphic" in2="effect1_dropShadow_3771_43599" result="shape"/>
</filter>
<filter id="filter1_d_3771_43599" x="1.5" y="3.50006" width="1192" height="382" filterUnits="userSpaceOnUse" color-interpolation-filters="sRGB">
<feFlood flood-opacity="0" result="BackgroundImageFix"/>
<feColorMatrix in="SourceAlpha" type="matrix" values="0 0 0 0 0 0 0 0 0 0 0 0 0 0 0 0 0 0 127 0" result="hardAlpha"/>
<feOffset dy="3.5"/>
<feGaussianBlur stdDeviation="2.75"/>
<feColorMatrix type="matrix" values="0 0 0 0 0 0 0 0 0 0 0 0 0 0 0 0 0 0 0.02 0"/>
<feBlend mode="normal" in2="BackgroundImageFix" result="effect1_dropShadow_3771_43599"/>
<feBlend mode="normal" in="SourceGraphic" in2="effect1_dropShadow_3771_43599" result="shape"/>
</filter>
<linearGradient id="paint0_linear_3771_43599" x1="623.062" y1="86.4821" x2="623.062" y2="315.144" gradientUnits="userSpaceOnUse">
<stop stop-color="#81ACFF" stop-opacity="0.54"/>
<stop offset="1" stop-color="#81ACFF" stop-opacity="0"/>
</linearGradient>
<clipPath id="clip0_3771_43599">
<rect width="20" height="20" fill="white" transform="translate(796.002 27.8085)"/>
</clipPath>
<clipPath id="clip1_3771_43599">
<rect width="20" height="20" fill="white" transform="translate(972.002 27.8085)"/>
</clipPath>
<clipPath id="clip2_3771_43599">
<path d="M1018 24.8085C1018 22.5994 1019.79 20.8085 1022 20.8085H1156C1158.21 20.8085 1160 22.5994 1160 24.8085V54.8085H1018V24.8085Z" fill="white"/>
</clipPath>
</defs>
</svg>
