<svg width="21" height="18" viewBox="0 0 21 18" fill="none" xmlns="http://www.w3.org/2000/svg">
<path d="M1.125 11.3742C1.29076 11.3742 1.44973 11.44 1.56694 11.5572C1.68415 11.6744 1.75 11.8334 1.75 11.9992V15.1242C1.75 15.4557 1.8817 15.7736 2.11612 16.008C2.35054 16.2425 2.66848 16.3742 3 16.3742H18C18.3315 16.3742 18.6495 16.2425 18.8839 16.008C19.1183 15.7736 19.25 15.4557 19.25 15.1242V11.9992C19.25 11.8334 19.3158 11.6744 19.4331 11.5572C19.5503 11.44 19.7092 11.3742 19.875 11.3742C20.0408 11.3742 20.1997 11.44 20.3169 11.5572C20.4342 11.6744 20.5 11.8334 20.5 11.9992V15.1242C20.5 15.7872 20.2366 16.4231 19.7678 16.8919C19.2989 17.3608 18.663 17.6242 18 17.6242H3C2.33696 17.6242 1.70107 17.3608 1.23223 16.8919C0.763392 16.4231 0.5 15.7872 0.5 15.1242V11.9992C0.5 11.8334 0.565848 11.6744 0.683058 11.5572C0.800269 11.44 0.95924 11.3742 1.125 11.3742Z" fill="#4071D1"/>
<path d="M10.0575 0.431664C10.1156 0.37346 10.1845 0.327281 10.2605 0.295773C10.3364 0.264265 10.4178 0.248047 10.5 0.248047C10.5822 0.248047 10.6636 0.264265 10.7395 0.295773C10.8155 0.327281 10.8844 0.37346 10.9425 0.431664L14.6925 4.18166C14.8099 4.29902 14.8758 4.45819 14.8758 4.62416C14.8758 4.79013 14.8099 4.94931 14.6925 5.06666C14.5751 5.18402 14.416 5.24995 14.25 5.24995C14.084 5.24995 13.9249 5.18402 13.8075 5.06666L11.125 2.38291V13.3742C11.125 13.5399 11.0592 13.6989 10.9419 13.8161C10.8247 13.9333 10.6658 13.9992 10.5 13.9992C10.3342 13.9992 10.1753 13.9333 10.0581 13.8161C9.94085 13.6989 9.875 13.5399 9.875 13.3742V2.38291L7.1925 5.06666C7.13439 5.12477 7.0654 5.17087 6.98948 5.20232C6.91356 5.23377 6.83218 5.24995 6.75 5.24995C6.66782 5.24995 6.58644 5.23377 6.51052 5.20232C6.4346 5.17087 6.36561 5.12477 6.3075 5.06666C6.24939 5.00855 6.20329 4.93957 6.17185 4.86364C6.1404 4.78772 6.12421 4.70634 6.12421 4.62416C6.12421 4.54198 6.1404 4.46061 6.17185 4.38469C6.20329 4.30876 6.24939 4.23977 6.3075 4.18166L10.0575 0.431664Z" fill="#4071D1"/>
</svg>
