<svg width="41" height="40" viewBox="0 0 41 40" fill="none" xmlns="http://www.w3.org/2000/svg">
<path fill-rule="evenodd" clip-rule="evenodd" d="M37.7498 20C37.7498 19.6685 37.6181 19.3505 37.3837 19.1161C37.1493 18.8817 36.8313 18.75 36.4998 18.75H7.01729L14.8848 10.885C15.001 10.7688 15.0932 10.6308 15.1561 10.479C15.219 10.3271 15.2514 10.1644 15.2514 9.99999C15.2514 9.83563 15.219 9.67288 15.1561 9.52103C15.0932 9.36918 15.001 9.23121 14.8848 9.11499C14.7686 8.99877 14.6306 8.90658 14.4788 8.84368C14.3269 8.78079 14.1642 8.74841 13.9998 8.74841C13.8354 8.74841 13.6727 8.78079 13.5208 8.84368C13.369 8.90658 13.231 8.99877 13.1148 9.11499L3.11479 19.115C2.99838 19.2311 2.90603 19.369 2.84301 19.5209C2.78 19.6728 2.74756 19.8356 2.74756 20C2.74756 20.1644 2.78 20.3272 2.84301 20.4791C2.90603 20.6309 2.99838 20.7689 3.11479 20.885L13.1148 30.885C13.231 31.0012 13.369 31.0934 13.5208 31.1563C13.6727 31.2192 13.8354 31.2516 13.9998 31.2516C14.1642 31.2516 14.3269 31.2192 14.4788 31.1563C14.6306 31.0934 14.7686 31.0012 14.8848 30.885C15.001 30.7688 15.0932 30.6308 15.1561 30.479C15.219 30.3271 15.2514 30.1644 15.2514 30C15.2514 29.8356 15.219 29.6729 15.1561 29.521C15.0932 29.3692 15.001 29.2312 14.8848 29.115L7.01729 21.25H36.4998C36.8313 21.25 37.1493 21.1183 37.3837 20.8839C37.6181 20.6495 37.7498 20.3315 37.7498 20Z" fill="#555555"/>
</svg>
