<svg width="16" height="17" viewBox="0 0 16 17" fill="none" xmlns="http://www.w3.org/2000/svg">
<g clip-path="url(#clip0_4911_58491)">
<path d="M8 16.5009C8.53043 16.5009 9.03914 16.2902 9.41421 15.9151C9.78929 15.54 10 15.0313 10 14.5009H6C6 15.0313 6.21071 15.54 6.58579 15.9151C6.96086 16.2902 7.46957 16.5009 8 16.5009ZM8 2.41887L7.203 2.57987C6.29896 2.76408 5.48633 3.25498 4.90265 3.9695C4.31897 4.68402 4.0001 5.57826 4 6.50087C4 7.12887 3.866 8.69787 3.541 10.2429C3.381 11.0099 3.165 11.8089 2.878 12.5009H13.122C12.835 11.8089 12.62 11.0109 12.459 10.2429C12.134 8.69787 12 7.12887 12 6.50087C11.9997 5.57843 11.6807 4.68442 11.097 3.97011C10.5134 3.2558 9.70087 2.76504 8.797 2.58087L8 2.41787V2.41887ZM14.22 12.5009C14.443 12.9479 14.701 13.3019 15 13.5009H1C1.299 13.3019 1.557 12.9479 1.78 12.5009C2.68 10.7009 3 7.38088 3 6.50087C3 4.08087 4.72 2.06087 7.005 1.59987C6.99104 1.46083 7.00638 1.3204 7.05003 1.18765C7.09368 1.0549 7.16467 0.932765 7.25842 0.829133C7.35217 0.725501 7.4666 0.642669 7.59433 0.585979C7.72206 0.529289 7.86026 0.5 8 0.5C8.13974 0.5 8.27794 0.529289 8.40567 0.585979C8.5334 0.642669 8.64783 0.725501 8.74158 0.829133C8.83533 0.932765 8.90632 1.0549 8.94997 1.18765C8.99362 1.3204 9.00896 1.46083 8.995 1.59987C10.1253 1.82978 11.1414 2.44324 11.8712 3.33638C12.6011 4.22952 12.9999 5.34745 13 6.50087C13 7.38088 13.32 10.7009 14.22 12.5009Z" fill="#F8F8F8"/>
</g>
<defs>
<clipPath id="clip0_4911_58491">
<rect width="16" height="16" fill="white" transform="translate(0 0.5)"/>
</clipPath>
</defs>
</svg>
