<svg width="30" height="31" viewBox="0 0 30 31" fill="none" xmlns="http://www.w3.org/2000/svg">
<g clip-path="url(#clip0_2155_763)">
<path d="M15 30.355C15.9946 30.355 16.9484 29.9599 17.6516 29.2567C18.3549 28.5534 18.75 27.5996 18.75 26.605H11.25C11.25 27.5996 11.6451 28.5534 12.3483 29.2567C13.0516 29.9599 14.0054 30.355 15 30.355ZM15 3.95128L13.5056 4.25316C11.8106 4.59853 10.2869 5.51898 9.19247 6.8587C8.09807 8.19842 7.50019 9.87513 7.5 11.605C7.5 12.7825 7.24875 15.7244 6.63937 18.6213C6.33938 20.0594 5.93437 21.5575 5.39625 22.855H24.6038C24.0656 21.5575 23.6625 20.0613 23.3606 18.6213C22.7512 15.7244 22.5 12.7825 22.5 11.605C22.4994 9.87545 21.9013 8.19919 20.8069 6.85985C19.7126 5.52051 18.1891 4.60034 16.4944 4.25503L15 3.94941V3.95128ZM26.6625 22.855C27.0806 23.6932 27.5644 24.3569 28.125 24.73H1.875C2.43563 24.3569 2.91937 23.6932 3.3375 22.855C5.025 19.48 5.625 13.255 5.625 11.605C5.625 7.06753 8.85 3.28003 13.1344 2.41566C13.1082 2.15495 13.137 1.89165 13.2188 1.64273C13.3007 1.39382 13.4338 1.16483 13.6095 0.970518C13.7853 0.776209 13.9999 0.620899 14.2394 0.514605C14.4789 0.408311 14.738 0.353394 15 0.353394C15.262 0.353394 15.5211 0.408311 15.7606 0.514605C16.0001 0.620899 16.2147 0.776209 16.3905 0.970518C16.5662 1.16483 16.6993 1.39382 16.7812 1.64273C16.863 1.89165 16.8918 2.15495 16.8656 2.41566C18.9849 2.84672 20.8901 3.99696 22.2586 5.6716C23.627 7.34624 24.3747 9.44236 24.375 11.605C24.375 13.255 24.975 19.48 26.6625 22.855Z" fill="#555555"/>
</g>
<defs>
<clipPath id="clip0_2155_763">
<rect width="30" height="30" fill="white" transform="translate(0 0.355042)"/>
</clipPath>
</defs>
</svg>
