<svg width="20" height="21" viewBox="0 0 20 21" fill="none" xmlns="http://www.w3.org/2000/svg">
<g clip-path="url(#clip0_2157_825)">
<path d="M10.2325 2.34529C10.0833 2.28549 9.91673 2.28549 9.7675 2.34529L2.3075 5.32904L5.3125 6.53029L13.005 3.45404L10.2325 2.34529ZM14.6875 4.12779L6.995 7.20404L10 8.40529L17.6925 5.32904L14.6875 4.12779ZM18.75 6.25279L10.625 9.50279V19.4053L18.75 16.1553V6.25404V6.25279ZM9.375 19.4065V9.50154L1.25 6.25279V16.1565L9.375 19.4065ZM9.30375 1.18404C9.75071 1.00529 10.2493 1.00529 10.6962 1.18404L19.6075 4.74904C19.7234 4.79548 19.8227 4.87553 19.8926 4.97891C19.9626 5.08228 20 5.20423 20 5.32904V16.1565C19.9998 16.4063 19.9249 16.6503 19.7847 16.8571C19.6446 17.0638 19.4457 17.2239 19.2138 17.3165L10.2325 20.909C10.0833 20.9688 9.91673 20.9688 9.7675 20.909L0.7875 17.3165C0.555314 17.2241 0.356178 17.0641 0.215803 16.8573C0.0754271 16.6506 0.000257912 16.4065 0 16.1565L0 5.32904C2.90499e-05 5.20423 0.0374297 5.08228 0.107384 4.97891C0.177338 4.87553 0.276641 4.79548 0.3925 4.74904L9.30375 1.18404Z" fill="#212529"/>
</g>
<defs>
<clipPath id="clip0_2157_825">
<rect width="20" height="20" fill="white" transform="translate(0 0.954041)"/>
</clipPath>
</defs>
</svg>
