<svg width="20" height="21" viewBox="0 0 20 21" fill="none" xmlns="http://www.w3.org/2000/svg">
<g clip-path="url(#clip0_2157_815)">
<path d="M8.125 2.20404C7.62772 2.20404 7.15081 2.40158 6.79917 2.75322C6.44754 3.10485 6.25 3.58176 6.25 4.07904V4.70404H1.875C1.37772 4.70404 0.900805 4.90158 0.549175 5.25322C0.197544 5.60485 0 6.08176 0 6.57904L0 16.579C0 17.0763 0.197544 17.5532 0.549175 17.9049C0.900805 18.2565 1.37772 18.454 1.875 18.454H18.125C18.6223 18.454 19.0992 18.2565 19.4508 17.9049C19.8025 17.5532 20 17.0763 20 16.579V6.57904C20 6.08176 19.8025 5.60485 19.4508 5.25322C19.0992 4.90158 18.6223 4.70404 18.125 4.70404H13.75V4.07904C13.75 3.58176 13.5525 3.10485 13.2008 2.75322C12.8492 2.40158 12.3723 2.20404 11.875 2.20404H8.125ZM8.125 3.45404H11.875C12.0408 3.45404 12.1997 3.51989 12.3169 3.6371C12.4342 3.75431 12.5 3.91328 12.5 4.07904V4.70404H7.5V4.07904C7.5 3.91328 7.56585 3.75431 7.68306 3.6371C7.80027 3.51989 7.95924 3.45404 8.125 3.45404ZM10.4825 12.0965L18.75 9.89279V16.579C18.75 16.7448 18.6842 16.9038 18.5669 17.021C18.4497 17.1382 18.2908 17.204 18.125 17.204H1.875C1.70924 17.204 1.55027 17.1382 1.43306 17.021C1.31585 16.9038 1.25 16.7448 1.25 16.579V9.89154L9.5175 12.0965C9.83366 12.1807 10.1663 12.1807 10.4825 12.0965ZM1.875 5.95404H18.125C18.2908 5.95404 18.4497 6.01989 18.5669 6.1371C18.6842 6.25431 18.75 6.41328 18.75 6.57904V8.59904L10.1612 10.889C10.0556 10.9173 9.9444 10.9173 9.83875 10.889L1.25 8.59904V6.57904C1.25 6.41328 1.31585 6.25431 1.43306 6.1371C1.55027 6.01989 1.70924 5.95404 1.875 5.95404Z" fill="#212529"/>
</g>
<defs>
<clipPath id="clip0_2157_815">
<rect width="20" height="20" fill="white" transform="translate(0 0.954041)"/>
</clipPath>
</defs>
</svg>
