<svg width="10" height="11" viewBox="0 0 10 11" fill="none" xmlns="http://www.w3.org/2000/svg">
<path d="M4.0625 1.36914C3.81386 1.36914 3.5754 1.46791 3.39959 1.64373C3.22377 1.81954 3.125 2.058 3.125 2.30664V2.61914H0.9375C0.68886 2.61914 0.450403 2.71791 0.274587 2.89373C0.098772 3.06954 0 3.308 0 3.55664V4.42164L4.75875 5.69039C4.91683 5.73249 5.08317 5.73249 5.24125 5.69039L10 4.42164V3.55664C10 3.308 9.90123 3.06954 9.72541 2.89373C9.5496 2.71791 9.31114 2.61914 9.0625 2.61914H6.875V2.30664C6.875 2.058 6.77623 1.81954 6.60041 1.64373C6.4246 1.46791 6.18614 1.36914 5.9375 1.36914H4.0625ZM4.0625 1.99414H5.9375C6.02038 1.99414 6.09987 2.02706 6.15847 2.08567C6.21708 2.14427 6.25 2.22376 6.25 2.30664V2.61914H3.75V2.30664C3.75 2.22376 3.78292 2.14427 3.84153 2.08567C3.90013 2.02706 3.97962 1.99414 4.0625 1.99414Z" fill="#555555"/>
<path d="M0 8.55664C0 8.80528 0.098772 9.04374 0.274587 9.21955C0.450403 9.39537 0.68886 9.49414 0.9375 9.49414H9.0625C9.31114 9.49414 9.5496 9.39537 9.72541 9.21955C9.90123 9.04374 10 8.80528 10 8.55664V5.02539L5.08062 6.33602C5.0278 6.35012 4.9722 6.35012 4.91937 6.33602L0 5.02539V8.55664Z" fill="#555555"/>
</svg>
