<svg width="10" height="11" viewBox="0 0 10 11" fill="none" xmlns="http://www.w3.org/2000/svg">
<g clip-path="url(#clip0_4911_48496)">
<path d="M2.1875 0.511719C2.27038 0.511719 2.34987 0.544643 2.40847 0.603248C2.46708 0.661853 2.5 0.741339 2.5 0.824219V1.13672H7.5V0.824219C7.5 0.741339 7.53292 0.661853 7.59153 0.603248C7.65013 0.544643 7.72962 0.511719 7.8125 0.511719C7.89538 0.511719 7.97487 0.544643 8.03347 0.603248C8.09208 0.661853 8.125 0.741339 8.125 0.824219V1.13672H8.75C9.08152 1.13672 9.39946 1.26841 9.63388 1.50284C9.8683 1.73726 10 2.0552 10 2.38672V9.26172C10 9.59324 9.8683 9.91118 9.63388 10.1456C9.39946 10.38 9.08152 10.5117 8.75 10.5117H1.25C0.918479 10.5117 0.600537 10.38 0.366117 10.1456C0.131696 9.91118 0 9.59324 0 9.26172V2.38672C0 2.0552 0.131696 1.73726 0.366117 1.50284C0.600537 1.26841 0.918479 1.13672 1.25 1.13672H1.875V0.824219C1.875 0.741339 1.90792 0.661853 1.96653 0.603248C2.02513 0.544643 2.10462 0.511719 2.1875 0.511719V0.511719ZM0.625 3.01172V9.26172C0.625 9.42748 0.690848 9.58645 0.808058 9.70366C0.925268 9.82087 1.08424 9.88672 1.25 9.88672H8.75C8.91576 9.88672 9.07473 9.82087 9.19194 9.70366C9.30915 9.58645 9.375 9.42748 9.375 9.26172V3.01172H0.625Z" fill="#555555"/>
</g>
<defs>
<clipPath id="clip0_4911_48496">
<rect width="10" height="10" fill="white" transform="translate(0 0.511719)"/>
</clipPath>
</defs>
</svg>
