<svg width="17" height="17" viewBox="0 0 17 17" fill="none" xmlns="http://www.w3.org/2000/svg">
<g clip-path="url(#clip0_2154_4189)">
<path d="M15.5 12.099C15.5 12.3642 15.3946 12.6186 15.2071 12.8061C15.0196 12.9936 14.7652 13.099 14.5 13.099H2.5C2.23478 13.099 1.98043 12.9936 1.79289 12.8061C1.60536 12.6186 1.5 12.3642 1.5 12.099V6.099C1.5 5.83378 1.60536 5.57943 1.79289 5.39189C1.98043 5.20436 2.23478 5.099 2.5 5.099H3.672C4.46724 5.09856 5.22977 4.7824 5.792 4.22L6.622 3.392C6.809 3.20494 7.0625 3.09959 7.327 3.099H9.671C9.93619 3.09906 10.1905 3.20445 10.378 3.392L11.206 4.22C11.4846 4.49871 11.8154 4.7198 12.1795 4.87062C12.5436 5.02144 12.9339 5.09905 13.328 5.099H14.5C14.7652 5.099 15.0196 5.20436 15.2071 5.39189C15.3946 5.57943 15.5 5.83378 15.5 6.099V12.099ZM2.5 4.099C1.96957 4.099 1.46086 4.30971 1.08579 4.68479C0.710714 5.05986 0.5 5.56857 0.5 6.099V12.099C0.5 12.6294 0.710714 13.1381 1.08579 13.5132C1.46086 13.8883 1.96957 14.099 2.5 14.099H14.5C15.0304 14.099 15.5391 13.8883 15.9142 13.5132C16.2893 13.1381 16.5 12.6294 16.5 12.099V6.099C16.5 5.56857 16.2893 5.05986 15.9142 4.68479C15.5391 4.30971 15.0304 4.099 14.5 4.099H13.328C12.7976 4.09889 12.289 3.8881 11.914 3.513L11.086 2.685C10.711 2.3099 10.2024 2.09911 9.672 2.099H7.328C6.79761 2.09911 6.28899 2.3099 5.914 2.685L5.086 3.513C4.71101 3.8881 4.20239 4.09889 3.672 4.099H2.5Z" fill="#fff"/>
<path d="M8.5 11.099C7.83696 11.099 7.20107 10.8356 6.73223 10.3668C6.26339 9.89792 6 9.26204 6 8.599C6 7.93596 6.26339 7.30007 6.73223 6.83123C7.20107 6.36239 7.83696 6.099 8.5 6.099C9.16304 6.099 9.79893 6.36239 10.2678 6.83123C10.7366 7.30007 11 7.93596 11 8.599C11 9.26204 10.7366 9.89792 10.2678 10.3668C9.79893 10.8356 9.16304 11.099 8.5 11.099ZM8.5 12.099C9.42826 12.099 10.3185 11.7302 10.9749 11.0739C11.6313 10.4175 12 9.52726 12 8.599C12 7.67074 11.6313 6.7805 10.9749 6.12413C10.3185 5.46775 9.42826 5.099 8.5 5.099C7.57174 5.099 6.6815 5.46775 6.02513 6.12413C5.36875 6.7805 5 7.67074 5 8.599C5 9.52726 5.36875 10.4175 6.02513 11.0739C6.6815 11.7302 7.57174 12.099 8.5 12.099ZM3.5 6.599C3.5 6.73161 3.44732 6.85878 3.35355 6.95255C3.25979 7.04632 3.13261 7.099 3 7.099C2.86739 7.099 2.74021 7.04632 2.64645 6.95255C2.55268 6.85878 2.5 6.73161 2.5 6.599C2.5 6.46639 2.55268 6.33921 2.64645 6.24545C2.74021 6.15168 2.86739 6.099 3 6.099C3.13261 6.099 3.25979 6.15168 3.35355 6.24545C3.44732 6.33921 3.5 6.46639 3.5 6.599Z" fill="#fff"/>
</g>
<defs>
<clipPath id="clip0_2154_4189">
<rect width="16" height="16" fill="white" transform="translate(0.5 0.098999)"/>
</clipPath>
</defs>
</svg>
