<svg width="16" height="16" viewBox="0 0 16 16" fill="none" xmlns="http://www.w3.org/2000/svg">
<path d="M12.7365 3.97C12.8047 3.90036 12.8862 3.84504 12.9761 3.80728C13.0659 3.76951 13.1625 3.75006 13.26 3.75006C13.3575 3.75006 13.454 3.76951 13.5439 3.80728C13.6338 3.84504 13.7152 3.90036 13.7835 3.97C14.0695 4.259 14.0735 4.72599 13.7935 5.01999L7.88047 12.01C7.81333 12.0837 7.73187 12.143 7.64105 12.1841C7.55023 12.2253 7.45197 12.2475 7.35227 12.2493C7.25258 12.2512 7.15356 12.2327 7.06126 12.195C6.96896 12.1573 6.88532 12.1011 6.81547 12.03L3.21747 8.384C3.07871 8.24248 3.00098 8.05219 3.00098 7.854C3.00098 7.6558 3.07871 7.46551 3.21747 7.32399C3.28571 7.25436 3.36717 7.19904 3.45706 7.16128C3.54695 7.12351 3.64347 7.10406 3.74097 7.10406C3.83847 7.10406 3.93499 7.12351 4.02488 7.16128C4.11477 7.19904 4.19622 7.25436 4.26447 7.32399L7.31647 10.417L12.7165 3.992C12.7227 3.98427 12.7294 3.97692 12.7365 3.97Z" fill="#F8F8F8"/>
</svg>
