<svg width="20" height="20" viewBox="0 0 20 20" fill="none" xmlns="http://www.w3.org/2000/svg">
<path fill-rule="evenodd" clip-rule="evenodd" d="M13.5675 8.9325C13.6257 8.99056 13.6719 9.05953 13.7034 9.13546C13.7349 9.21139 13.7511 9.29279 13.7511 9.375C13.7511 9.45721 13.7349 9.53861 13.7034 9.61454C13.6719 9.69047 13.6257 9.75944 13.5675 9.8175L9.8175 13.5675C9.75944 13.6257 9.69047 13.6719 9.61454 13.7034C9.53861 13.7349 9.45721 13.7511 9.375 13.7511C9.29279 13.7511 9.21139 13.7349 9.13546 13.7034C9.05953 13.6719 8.99056 13.6257 8.9325 13.5675L7.0575 11.6925C6.99939 11.6344 6.95329 11.5654 6.92185 11.4895C6.8904 11.4136 6.87421 11.3322 6.87421 11.25C6.87421 11.1678 6.8904 11.0864 6.92185 11.0105C6.95329 10.9346 6.99939 10.8656 7.0575 10.8075C7.17486 10.6901 7.33403 10.6242 7.5 10.6242C7.58218 10.6242 7.66356 10.6404 7.73948 10.6718C7.8154 10.7033 7.88439 10.7494 7.9425 10.8075L9.375 12.2413L12.6825 8.9325C12.7406 8.8743 12.8095 8.82812 12.8855 8.79661C12.9614 8.7651 13.0428 8.74888 13.125 8.74888C13.2072 8.74888 13.2886 8.7651 13.3645 8.79661C13.4405 8.82812 13.5094 8.8743 13.5675 8.9325Z" fill="#140000"/>
<path d="M5 1.875H3.75C3.08696 1.875 2.45107 2.13839 1.98223 2.60723C1.51339 3.07607 1.25 3.71196 1.25 4.375V17.5C1.25 18.163 1.51339 18.7989 1.98223 19.2678C2.45107 19.7366 3.08696 20 3.75 20H16.25C16.913 20 17.5489 19.7366 18.0178 19.2678C18.4866 18.7989 18.75 18.163 18.75 17.5V4.375C18.75 3.71196 18.4866 3.07607 18.0178 2.60723C17.5489 2.13839 16.913 1.875 16.25 1.875H15V3.125H16.25C16.5815 3.125 16.8995 3.2567 17.1339 3.49112C17.3683 3.72554 17.5 4.04348 17.5 4.375V17.5C17.5 17.8315 17.3683 18.1495 17.1339 18.3839C16.8995 18.6183 16.5815 18.75 16.25 18.75H3.75C3.41848 18.75 3.10054 18.6183 2.86612 18.3839C2.6317 18.1495 2.5 17.8315 2.5 17.5V4.375C2.5 4.04348 2.6317 3.72554 2.86612 3.49112C3.10054 3.2567 3.41848 3.125 3.75 3.125H5V1.875Z" fill="#140000"/>
<path d="M11.875 1.25C12.0408 1.25 12.1997 1.31585 12.3169 1.43306C12.4342 1.55027 12.5 1.70924 12.5 1.875V3.125C12.5 3.29076 12.4342 3.44973 12.3169 3.56694C12.1997 3.68415 12.0408 3.75 11.875 3.75H8.125C7.95924 3.75 7.80027 3.68415 7.68306 3.56694C7.56585 3.44973 7.5 3.29076 7.5 3.125V1.875C7.5 1.70924 7.56585 1.55027 7.68306 1.43306C7.80027 1.31585 7.95924 1.25 8.125 1.25H11.875ZM8.125 0C7.62772 0 7.15081 0.197544 6.79917 0.549175C6.44754 0.900805 6.25 1.37772 6.25 1.875V3.125C6.25 3.62228 6.44754 4.09919 6.79917 4.45083C7.15081 4.80246 7.62772 5 8.125 5H11.875C12.3723 5 12.8492 4.80246 13.2008 4.45083C13.5525 4.09919 13.75 3.62228 13.75 3.125V1.875C13.75 1.37772 13.5525 0.900805 13.2008 0.549175C12.8492 0.197544 12.3723 0 11.875 0H8.125Z" fill="#140000"/>
</svg>
