<svg width="16" height="17" viewBox="0 0 16 17" fill="none" xmlns="http://www.w3.org/2000/svg">
<g clip-path="url(#clip0_2854_24076)">
<path fill-rule="evenodd" clip-rule="evenodd" d="M5.43934 0.93934C5.72064 0.658035 6.10218 0.5 6.5 0.5H9.5C9.89782 0.5 10.2794 0.658035 10.5607 0.93934C10.842 1.22064 11 1.60218 11 2V3C11 3.39782 10.842 3.77936 10.5607 4.06066C10.2794 4.34196 9.89782 4.5 9.5 4.5H6.5C6.10218 4.5 5.72064 4.34196 5.43934 4.06066C5.15804 3.77936 5 3.39782 5 3V2C5 1.60218 5.15804 1.22064 5.43934 0.93934ZM9.85355 1.64645C9.75979 1.55268 9.63261 1.5 9.5 1.5H6.5C6.36739 1.5 6.24021 1.55268 6.14645 1.64645C6.05268 1.74021 6 1.86739 6 2V3C6 3.13261 6.05268 3.25979 6.14645 3.35355C6.24021 3.44732 6.36739 3.5 6.5 3.5H9.5C9.63261 3.5 9.75979 3.44732 9.85355 3.35355C9.94732 3.25979 10 3.13261 10 3V2C10 1.86739 9.94732 1.74021 9.85355 1.64645Z" fill="#F8F8F8"/>
<path fill-rule="evenodd" clip-rule="evenodd" d="M3 2H4V3C4 3.66304 4.26339 4.29893 4.73223 4.76777C5.20107 5.23661 5.83696 5.5 6.5 5.5H9.5C9.8283 5.5 10.1534 5.43534 10.4567 5.3097C10.76 5.18406 11.0356 4.99991 11.2678 4.76777C11.4999 4.53562 11.6841 4.26002 11.8097 3.95671C11.9353 3.65339 12 3.3283 12 3V2H13C13.5304 2 14.0391 2.21071 14.4142 2.58579C14.7893 2.96086 15 3.46957 15 4V14.5C15 15.0304 14.7893 15.5391 14.4142 15.9142C14.0391 16.2893 13.5304 16.5 13 16.5H3C2.46957 16.5 1.96086 16.2893 1.58579 15.9142C1.21071 15.5391 1 15.0304 1 14.5V4C1 3.46957 1.21071 2.96086 1.58579 2.58579C1.96086 2.21071 2.46957 2 3 2ZM7.854 12.354L10.854 9.354C10.9479 9.26011 11.0006 9.13278 11.0006 9C11.0006 8.86722 10.9479 8.73989 10.854 8.646C10.7601 8.55211 10.6328 8.49937 10.5 8.49937C10.3672 8.49937 10.2399 8.55211 10.146 8.646L7.5 11.293L6.354 10.146C6.26011 10.0521 6.13278 9.99937 6 9.99937C5.86722 9.99937 5.73989 10.0521 5.646 10.146C5.55211 10.2399 5.49937 10.3672 5.49937 10.5C5.49937 10.6328 5.55211 10.7601 5.646 10.854L7.146 12.354C7.19245 12.4006 7.24762 12.4375 7.30837 12.4627C7.36911 12.4879 7.43423 12.5009 7.5 12.5009C7.56577 12.5009 7.63089 12.4879 7.69163 12.4627C7.75238 12.4375 7.80755 12.4006 7.854 12.354Z" fill="#F8F8F8"/>
</g>
<defs>
<clipPath id="clip0_2854_24076">
<rect width="16" height="16" fill="white" transform="translate(0 0.5)"/>
</clipPath>
</defs>
</svg>
