<svg width="20" height="21" viewBox="0 0 20 21" fill="none" xmlns="http://www.w3.org/2000/svg">
<g clip-path="url(#clip0_3393_17685)">
<path fill-rule="evenodd" clip-rule="evenodd" d="M13.5675 9.88227C13.6257 9.94032 13.6719 10.0093 13.7034 10.0852C13.7349 10.1612 13.7511 10.2426 13.7511 10.3248C13.7511 10.407 13.7349 10.4884 13.7034 10.5643C13.6719 10.6402 13.6257 10.7092 13.5675 10.7673L9.8175 14.5173C9.75944 14.5755 9.69047 14.6217 9.61454 14.6532C9.53861 14.6847 9.45721 14.7009 9.375 14.7009C9.29279 14.7009 9.21139 14.6847 9.13546 14.6532C9.05953 14.6217 8.99056 14.5755 8.9325 14.5173L7.0575 12.6423C6.99939 12.5842 6.95329 12.5152 6.92185 12.4392C6.8904 12.3633 6.87421 12.2819 6.87421 12.1998C6.87421 12.1176 6.8904 12.0362 6.92185 11.9603C6.95329 11.8844 6.99939 11.8154 7.0575 11.7573C7.17486 11.6399 7.33403 11.574 7.5 11.574C7.58218 11.574 7.66356 11.5902 7.73948 11.6216C7.8154 11.6531 7.88439 11.6992 7.9425 11.7573L9.375 13.191L12.6825 9.88227C12.7406 9.82406 12.8095 9.77789 12.8855 9.74638C12.9614 9.71487 13.0428 9.69865 13.125 9.69865C13.2072 9.69865 13.2886 9.71487 13.3645 9.74638C13.4405 9.77789 13.5094 9.82406 13.5675 9.88227Z" fill="#fff"/>
<path d="M5 2.82477H3.75C3.08696 2.82477 2.45107 3.08816 1.98223 3.557C1.51339 4.02584 1.25 4.66173 1.25 5.32477V18.4498C1.25 19.1128 1.51339 19.7487 1.98223 20.2175C2.45107 20.6864 3.08696 20.9498 3.75 20.9498H16.25C16.913 20.9498 17.5489 20.6864 18.0178 20.2175C18.4866 19.7487 18.75 19.1128 18.75 18.4498V5.32477C18.75 4.66173 18.4866 4.02584 18.0178 3.557C17.5489 3.08816 16.913 2.82477 16.25 2.82477H15V4.07477H16.25C16.5815 4.07477 16.8995 4.20646 17.1339 4.44088C17.3683 4.6753 17.5 4.99325 17.5 5.32477V18.4498C17.5 18.7813 17.3683 19.0992 17.1339 19.3337C16.8995 19.5681 16.5815 19.6998 16.25 19.6998H3.75C3.41848 19.6998 3.10054 19.5681 2.86612 19.3337C2.6317 19.0992 2.5 18.7813 2.5 18.4498V5.32477C2.5 4.99325 2.6317 4.6753 2.86612 4.44088C3.10054 4.20646 3.41848 4.07477 3.75 4.07477H5V2.82477Z" fill="#fff"/>
<path d="M11.875 2.19977C12.0408 2.19977 12.1997 2.26562 12.3169 2.38283C12.4342 2.50004 12.5 2.65901 12.5 2.82477V4.07477C12.5 4.24053 12.4342 4.3995 12.3169 4.51671C12.1997 4.63392 12.0408 4.69977 11.875 4.69977H8.125C7.95924 4.69977 7.80027 4.63392 7.68306 4.51671C7.56585 4.3995 7.5 4.24053 7.5 4.07477V2.82477C7.5 2.65901 7.56585 2.50004 7.68306 2.38283C7.80027 2.26562 7.95924 2.19977 8.125 2.19977H11.875ZM8.125 0.949768C7.62772 0.949768 7.15081 1.14731 6.79917 1.49894C6.44754 1.85057 6.25 2.32749 6.25 2.82477V4.07477C6.25 4.57205 6.44754 5.04896 6.79917 5.40059C7.15081 5.75222 7.62772 5.94977 8.125 5.94977H11.875C12.3723 5.94977 12.8492 5.75222 13.2008 5.40059C13.5525 5.04896 13.75 4.57205 13.75 4.07477V2.82477C13.75 2.32749 13.5525 1.85057 13.2008 1.49894C12.8492 1.14731 12.3723 0.949768 11.875 0.949768H8.125Z" fill="#fff"/>
</g>
<defs>
<clipPath id="clip0_3393_17685">
<rect width="20" height="20" fill="white" transform="translate(0 0.949768)"/>
</clipPath>
</defs>
</svg>
