<svg width="24" height="24" viewBox="0 0 24 24" fill="none" xmlns="http://www.w3.org/2000/svg">
<g clip-path="url(#clip0_6808_31299)">
<path d="M9.14996 0.75C9.14996 1.16421 8.81418 1.5 8.39996 1.5L4.64996 1.5C3.82154 1.5 3.14996 2.17157 3.14996 3V21C3.14996 21.8284 3.82154 22.5 4.64996 22.5H8.39996C8.81418 22.5 9.14996 22.8358 9.14996 23.25C9.14996 23.6642 8.81418 24 8.39996 24H4.64996C2.99311 24 1.64996 22.6569 1.64996 21V3C1.64996 1.34315 2.99311 0 4.64996 0L8.39996 0C8.81418 0 9.14996 0.335786 9.14996 0.75Z" fill="#555555"/>
<path d="M22.2803 11.4697C22.5732 11.7626 22.5732 12.2374 22.2803 12.5303L17.7803 17.0303C17.4874 17.3232 17.0126 17.3232 16.7197 17.0303C16.4268 16.7374 16.4268 16.2626 16.7197 15.9697L19.9393 12.75L6.75 12.75C6.33579 12.75 6 12.4142 6 12C6 11.5858 6.33579 11.25 6.75 11.25L19.9393 11.25L16.7197 8.03033C16.4268 7.73744 16.4268 7.26256 16.7197 6.96967C17.0126 6.67678 17.4874 6.67678 17.7803 6.96967L22.2803 11.4697Z" fill="#555555"/>
</g>
<defs>
<clipPath id="clip0_6808_31299">
<rect width="24" height="24" fill="white"/>
</clipPath>
</defs>
</svg>
