<svg width="16" height="17" viewBox="0 0 16 17" fill="none" xmlns="http://www.w3.org/2000/svg">
<g clip-path="url(#clip0_4352_51336)">
<path d="M14 14.5V5L9.5 0.5H4C3.46957 0.5 2.96086 0.710714 2.58579 1.08579C2.21071 1.46086 2 1.96957 2 2.5V14.5C2 15.0304 2.21071 15.5391 2.58579 15.9142C2.96086 16.2893 3.46957 16.5 4 16.5H12C12.5304 16.5 13.0391 16.2893 13.4142 15.9142C13.7893 15.5391 14 15.0304 14 14.5ZM9.5 3.5C9.5 3.89782 9.65804 4.27936 9.93934 4.56066C10.2206 4.84196 10.6022 5 11 5H13V9.5H3V2.5C3 2.23478 3.10536 1.98043 3.29289 1.79289C3.48043 1.60536 3.73478 1.5 4 1.5H9.5V3.5ZM3 12.5V10.5H5V12.5H3ZM3 13.5H5V15.5H4C3.73478 15.5 3.48043 15.3946 3.29289 15.2071C3.10536 15.0196 3 14.7652 3 14.5V13.5ZM6 15.5V13.5H13V14.5C13 14.7652 12.8946 15.0196 12.7071 15.2071C12.5196 15.3946 12.2652 15.5 12 15.5H6ZM13 12.5H6V10.5H13V12.5Z" fill="#F8F8F8"/>
</g>
<defs>
<clipPath id="clip0_4352_51336">
<rect width="16" height="16" fill="white" transform="translate(0 0.5)"/>
</clipPath>
</defs>
</svg>
