<svg width="24" height="25" viewBox="0 0 24 25" fill="none" xmlns="http://www.w3.org/2000/svg">
<path d="M21 16.704C21 16.5051 20.921 16.3144 20.7803 16.1737C20.6397 16.0331 20.4489 15.954 20.25 15.954H15.75C15.5511 15.954 15.3603 16.0331 15.2197 16.1737C15.079 16.3144 15 16.5051 15 16.704C15 16.903 15.079 17.0937 15.2197 17.2344C15.3603 17.375 15.5511 17.454 15.75 17.454H20.25C20.4489 17.454 20.6397 17.375 20.7803 17.2344C20.921 17.0937 21 16.903 21 16.704ZM21 12.204C21 12.0051 20.921 11.8144 20.7803 11.6737C20.6397 11.5331 20.4489 11.454 20.25 11.454H9.75C9.55109 11.454 9.36032 11.5331 9.21967 11.6737C9.07902 11.8144 9 12.0051 9 12.204C9 12.403 9.07902 12.5937 9.21967 12.7344C9.36032 12.875 9.55109 12.954 9.75 12.954H20.25C20.4489 12.954 20.6397 12.875 20.7803 12.7344C20.921 12.5937 21 12.403 21 12.204ZM21 7.70404C21 7.50513 20.921 7.31436 20.7803 7.17371C20.6397 7.03306 20.4489 6.95404 20.25 6.95404H3.75C3.55109 6.95404 3.36032 7.03306 3.21967 7.17371C3.07902 7.31436 3 7.50513 3 7.70404C3 7.90295 3.07902 8.09372 3.21967 8.23437C3.36032 8.37502 3.55109 8.45404 3.75 8.45404H20.25C20.4489 8.45404 20.6397 8.37502 20.7803 8.23437C20.921 8.09372 21 7.90295 21 7.70404Z" fill="#140000"/>
</svg>
