<svg width="30" height="31" viewBox="0 0 30 31" fill="none" xmlns="http://www.w3.org/2000/svg">
<g clip-path="url(#clip0_2155_760)">
<path d="M15 9.2688C14.2008 9.2688 13.4093 9.42622 12.6709 9.73209C11.9325 10.038 11.2616 10.4863 10.6964 11.0514C10.1312 11.6166 9.68294 12.2875 9.37708 13.0259C9.07121 13.7644 8.91379 14.5558 8.91379 15.355C8.91379 16.1543 9.07121 16.9457 9.37708 17.6842C9.68294 18.4226 10.1312 19.0935 10.6964 19.6587C11.2616 20.2238 11.9325 20.6721 12.6709 20.978C13.4093 21.2839 14.2008 21.4413 15 21.4413C16.6142 21.4413 18.1623 20.8001 19.3037 19.6587C20.4451 18.5173 21.0863 16.9692 21.0863 15.355C21.0863 13.7409 20.4451 12.1928 19.3037 11.0514C18.1623 9.91003 16.6142 9.2688 15 9.2688ZM10.7888 15.355C10.7888 14.2382 11.2325 13.167 12.0222 12.3772C12.812 11.5875 13.8831 11.1438 15 11.1438C16.1169 11.1438 17.1881 11.5875 17.9778 12.3772C18.7676 13.167 19.2113 14.2382 19.2113 15.355C19.2113 16.4719 18.7676 17.5431 17.9778 18.3329C17.1881 19.1226 16.1169 19.5663 15 19.5663C13.8831 19.5663 12.812 19.1226 12.0222 18.3329C11.2325 17.5431 10.7888 16.4719 10.7888 15.355Z" fill="#555555"/>
<path d="M18.3675 2.87317C17.3794 -0.483075 12.6207 -0.483075 11.6325 2.87317L11.4563 3.4713C11.3873 3.70559 11.2667 3.92146 11.1034 4.1031C10.9402 4.28473 10.7383 4.42753 10.5127 4.52102C10.287 4.61451 10.0433 4.65633 9.79945 4.6434C9.55556 4.63047 9.31765 4.56312 9.10316 4.4463L8.55566 4.1463C5.48066 2.4738 2.11879 5.83755 3.79316 8.91067L4.09129 9.45817C4.20811 9.67266 4.27545 9.91057 4.28838 10.1545C4.30131 10.3984 4.2595 10.6421 4.16601 10.8677C4.07252 11.0933 3.92972 11.2952 3.74809 11.4585C3.56645 11.6217 3.35057 11.7423 3.11629 11.8113L2.51816 11.9875C-0.838086 12.9757 -0.838086 17.7344 2.51816 18.7225L3.11629 18.8988C3.35057 18.9678 3.56645 19.0884 3.74809 19.2516C3.92972 19.4149 4.07252 19.6168 4.16601 19.8424C4.2595 20.068 4.30131 20.3117 4.28838 20.5556C4.27545 20.7995 4.20811 21.0374 4.09129 21.2519L3.79129 21.7994C2.11879 24.8744 5.48066 28.2382 8.55566 26.5619L9.10316 26.2638C9.31765 26.147 9.55556 26.0796 9.79945 26.0667C10.0433 26.0538 10.287 26.0956 10.5127 26.1891C10.7383 26.2826 10.9402 26.4254 11.1034 26.607C11.2667 26.7886 11.3873 27.0045 11.4563 27.2388L11.6325 27.8369C12.6207 31.1932 17.3794 31.1932 18.3675 27.8369L18.5438 27.2388C18.6128 27.0045 18.7334 26.7886 18.8966 26.607C19.0599 26.4254 19.2618 26.2826 19.4874 26.1891C19.713 26.0956 19.9567 26.0538 20.2006 26.0667C20.4445 26.0796 20.6824 26.147 20.8969 26.2638L21.4444 26.5638C24.5194 28.2382 27.8832 24.8725 26.2069 21.7994L25.9088 21.2519C25.792 21.0374 25.7246 20.7995 25.7117 20.5556C25.6988 20.3117 25.7406 20.068 25.8341 19.8424C25.9276 19.6168 26.0704 19.4149 26.252 19.2516C26.4336 19.0884 26.6495 18.9678 26.8838 18.8988L27.4819 18.7225C30.8382 17.7344 30.8382 12.9757 27.4819 11.9875L26.8838 11.8113C26.6495 11.7423 26.4336 11.6217 26.252 11.4585C26.0704 11.2952 25.9276 11.0933 25.8341 10.8677C25.7406 10.6421 25.6988 10.3984 25.7117 10.1545C25.7246 9.91057 25.792 9.67266 25.9088 9.45817L26.2088 8.91067C27.8832 5.83567 24.5175 2.4738 21.4444 4.14817L20.8969 4.4463C20.6824 4.56312 20.4445 4.63047 20.2006 4.6434C19.9567 4.65633 19.713 4.61451 19.4874 4.52102C19.2618 4.42753 19.0599 4.28473 18.8966 4.1031C18.7334 3.92146 18.6128 3.70559 18.5438 3.4713L18.3675 2.87317ZM13.4307 3.4038C13.8919 1.83817 16.1082 1.83817 16.5694 3.4038L16.7457 4.00192C16.8938 4.50458 17.1526 4.96771 17.503 5.35736C17.8534 5.74701 18.2866 6.05329 18.7708 6.25376C19.255 6.45423 19.7779 6.5438 20.3012 6.51591C20.8245 6.48801 21.3349 6.34336 21.795 6.09255L22.3407 5.79255C23.7732 5.01442 25.3407 6.58005 24.5607 8.01442L24.2625 8.56192C24.0121 9.0221 23.8678 9.53248 23.8402 10.0557C23.8126 10.5788 23.9024 11.1016 24.1031 11.5855C24.3037 12.0695 24.6101 12.5024 24.9997 12.8526C25.3894 13.2028 25.8525 13.4614 26.355 13.6094L26.9513 13.7857C28.5169 14.2469 28.5169 16.4632 26.9513 16.9244L26.3532 17.1007C25.8505 17.2488 25.3874 17.5076 24.9977 17.858C24.6081 18.2085 24.3018 18.6416 24.1013 19.1258C23.9009 19.61 23.8113 20.1329 23.8392 20.6562C23.8671 21.1795 24.0117 21.6899 24.2625 22.15L24.5625 22.6957C25.3407 24.1282 23.775 25.6957 22.3407 24.9157L21.795 24.6175C21.3348 24.3668 20.8242 24.2222 20.3008 24.1944C19.7774 24.1666 19.2545 24.2564 18.7703 24.457C18.286 24.6577 17.8529 24.9642 17.5026 25.354C17.1522 25.7439 16.8936 26.2072 16.7457 26.71L16.5694 27.3063C16.1082 28.8719 13.8919 28.8719 13.4307 27.3063L13.2544 26.7082C13.1062 26.2058 12.8474 25.7429 12.4972 25.3534C12.1469 24.964 11.7139 24.6578 11.23 24.4574C10.746 24.257 10.2234 24.1673 9.70029 24.195C9.17722 24.2227 8.66697 24.3671 8.20691 24.6175L7.65941 24.9175C6.22691 25.6957 4.65941 24.13 5.43941 22.6957L5.73754 22.15C5.9887 21.6899 6.13363 21.1793 6.16171 20.6557C6.18979 20.1322 6.1003 19.6091 5.89981 19.1246C5.69931 18.6402 5.3929 18.2068 5.00306 17.8563C4.61322 17.5057 4.14984 17.2469 3.64691 17.0988L3.04879 16.9226C1.48316 16.4613 1.48316 14.245 3.04879 13.7838L3.64691 13.6075C4.14905 13.4593 4.61167 13.2006 5.00093 12.8504C5.39019 12.5002 5.69622 12.0675 5.89664 11.5838C6.09706 11.1001 6.18678 10.5777 6.15926 10.0548C6.13173 9.53198 5.98764 9.0219 5.73754 8.56192L5.43754 8.01442C4.65941 6.58192 6.22504 5.01442 7.65941 5.79442L8.20691 6.09255C8.66697 6.343 9.17722 6.48737 9.70029 6.51509C10.2234 6.5428 10.746 6.45315 11.23 6.25271C11.7139 6.05226 12.1469 5.7461 12.4972 5.35665C12.8474 4.9672 13.1062 4.50432 13.2544 4.00192L13.4307 3.4038Z" fill="#555555"/>
</g>
<defs>
<clipPath id="clip0_2155_760">
<rect width="30" height="30" fill="white" transform="translate(0 0.355042)"/>
</clipPath>
</defs>
</svg>
