<svg width="17" height="16" viewBox="0 0 17 16" fill="none" xmlns="http://www.w3.org/2000/svg">
<g clip-path="url(#clip0_2985_23736)">
<path d="M12.666 8.94C12.142 10.002 11.432 11.06 10.706 12.01C10.0173 12.9056 9.2809 13.7635 8.5 14.58C7.71908 13.7635 6.98268 12.9056 6.294 12.01C5.568 11.06 4.858 10.002 4.334 8.94C3.804 7.867 3.5 6.862 3.5 6C3.5 4.67392 4.02678 3.40215 4.96447 2.46447C5.90215 1.52678 7.17392 1 8.5 1C9.82608 1 11.0979 1.52678 12.0355 2.46447C12.9732 3.40215 13.5 4.67392 13.5 6C13.5 6.862 13.195 7.867 12.666 8.94ZM8.5 16C8.5 16 14.5 10.314 14.5 6C14.5 4.4087 13.8679 2.88258 12.7426 1.75736C11.6174 0.632141 10.0913 0 8.5 0C6.9087 0 5.38258 0.632141 4.25736 1.75736C3.13214 2.88258 2.5 4.4087 2.5 6C2.5 10.314 8.5 16 8.5 16Z" fill="#140000"/>
<path d="M8.5 8C7.96957 8 7.46086 7.78929 7.08579 7.41421C6.71071 7.03914 6.5 6.53043 6.5 6C6.5 5.46957 6.71071 4.96086 7.08579 4.58579C7.46086 4.21071 7.96957 4 8.5 4C9.03043 4 9.53914 4.21071 9.91421 4.58579C10.2893 4.96086 10.5 5.46957 10.5 6C10.5 6.53043 10.2893 7.03914 9.91421 7.41421C9.53914 7.78929 9.03043 8 8.5 8ZM8.5 9C9.29565 9 10.0587 8.68393 10.6213 8.12132C11.1839 7.55871 11.5 6.79565 11.5 6C11.5 5.20435 11.1839 4.44129 10.6213 3.87868C10.0587 3.31607 9.29565 3 8.5 3C7.70435 3 6.94129 3.31607 6.37868 3.87868C5.81607 4.44129 5.5 5.20435 5.5 6C5.5 6.79565 5.81607 7.55871 6.37868 8.12132C6.94129 8.68393 7.70435 9 8.5 9Z" fill="#140000"/>
</g>
<defs>
<clipPath id="clip0_2985_23736">
<rect width="16" height="16" fill="white" transform="translate(0.5)"/>
</clipPath>
</defs>
</svg>
