<svg width="165" height="65" viewBox="0 0 165 65" fill="none" xmlns="http://www.w3.org/2000/svg">
<g clip-path="url(#clip0_3449_37978)">
<path d="M17.8884 47.6024C19.885 47.6024 21.1033 46.8 21.5347 45.1924H21.5319L23.2239 38.9094C23.4608 38.022 23.2944 37.3075 22.722 36.7688L16.0357 30.4631C15.2912 29.76 14.9923 28.7024 15.2602 27.7101L16.2867 24.4864L15.7157 22.7075L17.5406 17.625L19.755 24.4864L18.7229 27.7101C18.4536 28.7024 18.7541 29.76 19.5026 30.4631L26.2251 36.7688C26.8006 37.3075 26.9679 38.022 26.7298 38.9094L25.0286 45.1924H25.0314C24.5976 46.8 23.3728 47.6024 21.3654 47.6024H17.8884Z" fill="#E03030"/>
<path d="M16.1099 44.0517C16.6757 43.7724 17.1146 43.2587 17.2878 42.6179L17.8151 40.6588C18.0717 39.7061 17.7869 38.6883 17.0734 38.0106L10.3449 31.6313C9.7752 31.0812 9.606 30.3781 9.83443 29.5246L14.0842 17.625L15.7157 22.7075L13.2679 29.5246C13.0382 30.3781 13.2083 31.0812 13.781 31.6313L20.546 38.0106C21.2633 38.6883 21.5497 39.7061 21.2917 40.6588L20.7615 42.6179C20.495 43.599 19.6019 44.2822 18.584 44.2822H17.0898C16.7338 44.2822 16.402 44.1986 16.1099 44.0517Z" fill="#E03030"/>
<path d="M16.1099 44.0517C15.8094 44.2 15.4732 44.2822 15.122 44.2822H13.6358C12.2061 44.2822 11.1683 42.9185 11.5405 41.532L12.2484 38.9094H15.6949L14.9832 41.532C14.7016 42.5751 15.2225 43.6054 16.1099 44.0517Z" fill="#E03030"/>
<path d="M7.30768 38.9094H10.7275L9.02629 45.1924C8.5925 46.8 9.3722 47.6024 11.3682 47.6024H7.94501C5.95971 47.6024 5.1842 46.8 5.61566 45.1924L7.30768 38.9094Z" fill="#E03030"/>
<path fill-rule="evenodd" clip-rule="evenodd" d="M41.6344 47.6024C43.4543 47.6024 44.5616 46.8753 44.9561 45.4189L44.9609 45.4213L46.5034 39.7272C46.7211 38.9237 46.568 38.2756 46.0467 37.7877L38.8531 31.0389L40.0225 26.7175H53.6001L48.5362 45.4189C48.1416 46.8753 48.8375 47.6024 50.6192 47.6024H60.3908C62.2107 47.6024 63.3179 46.8753 63.7125 45.4189L68.9953 25.9092C69.3923 24.4432 68.6797 23.7114 66.8597 23.7114L57.0787 23.7114L39.0468 23.7114C37.2388 23.7114 36.1363 24.4432 35.7394 25.9092L34.2997 31.2207C34.0892 31.9931 34.2447 32.6317 34.7636 33.1291L41.95 39.9066L40.6802 44.5939H35.1798L36.4975 39.7248H31.9967L30.4542 45.4189C30.0596 46.8753 30.7675 47.6024 32.5754 47.6024H41.6344ZM53.2761 44.5341L57.9816 27.1629L58.1003 26.7797H64.2602L59.4509 44.5341H53.2761Z" fill="#E03030"/>
<path fill-rule="evenodd" clip-rule="evenodd" d="M76.8514 26.8706H87.1997L82.1772 45.4189C81.7826 46.8753 82.4785 47.6024 84.2602 47.6024H94.0318C95.8517 47.6024 96.959 46.8753 97.3536 45.4189L102.636 25.9092C103.033 24.4432 102.321 23.7114 100.501 23.7114H75.6055C74.2806 23.7114 72.9174 24.7828 72.5587 26.1077L66.7378 47.6024H71.2386L74.0988 37.0392H80.7543L81.5937 33.9398H74.9382L76.8514 26.8706ZM93.0919 44.5341L97.9012 26.7797H91.7264L86.9171 44.5341H93.0919Z" fill="#E03030"/>
<path d="M112.441 47.6024C114.273 47.6024 115.388 46.8753 115.782 45.4189L115.78 45.4165L117.38 39.5096H112.898L111.537 44.5317H105.709L110.519 26.7773H116.347L115.07 31.4957H119.551L121.065 25.9092C121.462 24.4432 120.745 23.7114 118.91 23.7114H109.524C107.742 23.7114 106.652 24.4432 106.255 25.9092L100.972 45.4189C100.577 46.8753 101.273 47.6024 103.055 47.6024H112.441Z" fill="#E03030"/>
<path fill-rule="evenodd" clip-rule="evenodd" d="M151.088 47.6024H148.833L145.693 32.5647C145.685 33.2965 145.628 33.8728 145.513 34.289L141.909 47.6H137.523L142.904 27.7339L139.29 27.7231L134.498 45.4189C134.104 46.8753 132.996 47.6024 131.176 47.6024H121.405C119.623 47.6024 118.927 46.8753 119.322 45.4189L124.605 25.9092C125.002 24.4432 126.092 23.7114 127.874 23.7114H136.888L136.887 23.7066L146.264 23.7258C147.285 23.7138 148.065 24.2902 148.266 25.2061L151.162 38.4406C151.169 37.7088 151.227 37.1324 151.341 36.7163L154.864 23.709H159.25L153.238 45.9116C152.984 46.8443 152.025 47.6 151.093 47.6L151.088 47.6024ZM135.046 26.7797L130.237 44.5341H124.062L128.871 26.7797H135.046Z" fill="#E03030"/>
</g>
<defs>
<clipPath id="clip0_3449_37978">
<rect width="153.75" height="29.9774" fill="white" transform="translate(5.5 17.625)"/>
</clipPath>
</defs>
</svg>
