<svg width="166" height="64" viewBox="0 0 166 64" fill="none" xmlns="http://www.w3.org/2000/svg">
<path d="M18.7886 5.04077H19.6748L19.8359 5.20667H31.1152L33.7739 5.28963L39.8164 5.37258L39.897 5.53848V7.28047L39.8164 8.44179V12.9212L40.0581 13.5848L40.6221 13.8337L41.6694 13.9996H43.9253L48.0342 13.9166H52.3848L52.5459 13.9996H62.7778L63.9058 14.1655L64.0669 14.5802L63.9058 15.4927L63.5835 16.654L63.3418 16.8199H60.2803L56.252 16.9029H50.5317L50.4512 16.8199H46.2617L41.3472 16.9029L39.897 16.9858V21.9629H39.7358V39.8805L39.8164 43.0327L39.897 43.2815L40.1387 43.3645H42.3945L42.5557 43.2815H45.7783V43.4474H46.7451L47.0674 43.1986H47.5508L47.7119 43.2815L48.5981 43.3645H49.4038L49.4844 43.1986H50.3706L50.854 43.2815H51.4985L51.8208 43.1156H52.3042L52.4653 43.1986V43.3645H56.3325L56.4131 43.6133L55.9297 44.9406L55.7686 45.936L55.124 45.853V46.0189H54.3989L54.4795 45.853L54.7212 45.7701H54.1572V45.936H54.3184V46.1019H53.835L53.6738 45.7701L53.271 45.6871L53.1904 46.1019H52.7876L52.6265 46.0189L52.5459 45.7701L52.1431 45.853L51.9014 46.1019L51.8208 45.7701H51.0151L50.9346 46.1019H50.0483L49.8066 45.853L49.4038 45.7701V46.0189L48.9204 46.1019L48.3564 46.0189L47.9536 45.936H45.0532L40.2192 46.0189L39.8164 46.1019L39.5747 47.8439L39.333 48.0927L39.4136 48.4245L39.4941 48.5075V53.8993L39.333 54.1482L39.2524 55.4754L39.1719 55.5584L38.3662 55.6413L23.4614 55.8902H20.6416L19.7554 55.8072H18.8691L18.3857 55.7243L17.0967 55.8072L4.85059 55.9731H3.80322L3.31982 55.8902L3.23926 55.6413L3.56152 52.2403L3.48096 51.9085L3.64209 51.3278V50.996L3.48096 50.9131L3.72266 50.4154V44.9406L3.80322 44.3599L3.72266 44.194V42.7838L3.64209 42.2031L3.80322 41.4566V39.3828L3.88379 38.2215V36.9772L3.56152 36.8113L3.72266 36.4795H3.88379V26.94L4.04492 26.6912V25.4469L3.88379 25.281V23.539L4.04492 23.2902L3.88379 23.0413V17.4835L3.72266 8.6077V5.37258L4.68945 5.28963L4.93115 5.20667L6.13965 5.12372H8.15381L8.47607 5.20667H10.3291L18.7886 5.04077ZM18.7886 7.61227L18.4663 7.77818L15.9688 7.94408H15.0825L14.6797 7.69523L14.1157 7.77818L13.9546 7.94408H13.3906L13.1489 7.77818H12.7461L12.2627 7.94408H11.2153L11.1348 7.86113H10.168L9.604 8.02703H9.04004L8.71777 7.86113H7.50928L6.54248 7.94408L6.46191 8.02703V13.4189L6.62305 23.7049L6.46191 23.8708L6.54248 26.1935L6.46191 26.2764L6.54248 32.2489V35.8159L6.38135 35.8988V42.1202L6.30078 48.1757L6.05908 48.3416L6.22021 52.6551L6.46191 53.1528L6.78418 53.3187H11.9404L16.0493 53.2357H18.8691L19.1914 53.4846L19.5942 53.4016V53.1528H20.9639L21.2056 53.3187H26.4424L32.5654 53.2357H36.3521L36.916 52.4892L36.9966 52.2403L37.0771 45.936L37.2383 45.7701V45.1894L37.0771 44.8576L37.1577 44.111L36.9966 34.0739V32.9955L37.1577 32.8296V25.5298L37.3994 25.281V24.7833L37.1577 24.3685V23.4561H37.3188L37.3994 23.2072L37.1577 22.8754V21.88L37.2383 21.797V20.138L37.0771 10.7644V9.85197L36.9966 8.52474L36.7549 7.94408H27.9731L27.812 7.77818H25.8784L21.0444 7.86113H19.3525L19.1914 7.61227H18.7886Z" fill="#010000"/>
<path d="M86.1421 13.8335H86.3032L86.6255 14.1653H93.4736L93.7153 14.4142L94.1987 14.4971V14.1653H95.7295L96.1323 14.3312L101.047 14.2483L102.658 14.1653L102.98 14.3312H103.706L103.786 14.1653H104.833L105.397 14.0824L105.639 14.3312H106.848L107.412 13.9994H107.895L108.056 14.3312H116.435L116.516 14.4142H118.127L123.203 14.3312L126.667 14.2483L127.15 14.4142H127.634L127.795 14.3312H128.359L129.003 14.4142L129.487 14.1653L130.051 14.3312L141.652 14.4142L142.941 14.4971L151.804 14.3312H153.012L153.254 14.4971H153.818L153.898 14.2483L154.946 14.3312H155.832L156.235 14.2483L156.557 14.4142H162.841L162.761 14.8289L162.116 16.9027L160.908 21.7139L159.86 26.2763L158.41 32.9124L157.846 35.4839L157.443 37.3918L157.121 38.9679L156.557 42.0371L155.913 44.9404L155.751 45.3551L155.026 45.604H154.865L154.785 45.8529L154.462 45.604L154.301 45.687V45.5211H153.334L153.173 45.8529L153.012 45.9358V45.687L152.69 45.8529L152.609 45.5211H151.401L148.178 45.604H141.169L138.913 45.687H137.866L137.705 45.5211H135.529L134.321 45.604L133.676 45.687L133.273 45.604L133.112 45.5211L133.032 45.687L132.79 45.604H132.307L132.146 45.687L131.42 45.604L131.098 45.687L131.018 45.604L130.776 45.687V45.5211L130.131 45.604L124.331 45.7699L123.767 45.687L123.122 45.7699H120.786L119.738 45.687L118.771 45.7699L118.127 45.687L113.696 45.604L113.615 45.9358L113.212 46.1017H112.81L112.648 45.7699L108.378 45.687L105.639 45.7699L105.156 45.5211H104.753L104.431 45.7699L101.933 45.687H99.5161L92.5068 45.7699H91.1372L90.7344 45.8529L89.9287 45.7699H87.0283L86.8672 46.0188L86.6255 45.9358L86.5449 45.7699L85.5781 45.687L85.4976 45.8529L84.9336 45.7699H75.6685L75.2656 45.687L75.4268 44.8574L75.8296 43.4473L75.9102 43.2814L84.1279 43.1155L84.3696 43.2814H85.981V43.1155L87.0283 43.0325H87.9146L87.9951 43.1984H97.4214V43.4473H97.5825V43.6132H97.8242L97.7437 43.1984L98.7104 43.1155H99.5967L99.7578 43.3643L100.241 43.2814L100.644 43.3643L100.966 43.2814L101.369 43.3643L101.45 43.2814H102.175L102.497 43.3643L102.739 43.1155H103.625L104.35 43.2814L104.753 43.1155L104.833 43.0325H105.478L105.8 43.2814L106.123 43.1984H110.957L111.682 43.2814H113.293L113.454 43.1155H115.791L115.952 43.1984H118.046L118.288 42.9495L118.61 43.0325V43.1984H121.108L125.378 43.1155H126.828L127.15 43.4473L127.312 43.1155L129.326 43.0325L133.032 42.9495L133.757 43.1155L134.401 43.0325L134.643 43.1155L134.724 43.2814L135.046 42.9495L137.866 43.0325L138.107 43.1155H143.022L143.747 43.2814V43.1155L145.842 43.0325H148.017L148.259 43.1984L148.984 43.1155L150.273 43.1984V43.0325H151.079L151.32 43.1155H151.884L152.126 42.9495L152.287 43.0325H153.173L153.415 42.7836L154.06 39.7974L155.349 33.7419L156.315 29.0137L157.282 24.5343L158.007 21.7969L158.571 19.3083L158.894 17.9811L158.732 17.2345L158.571 16.9027L157.604 16.7368L156.96 16.6539H151.643L140.524 16.9027L139.396 16.9857L139.316 16.7368H137.785L137.705 17.0686L137.463 16.9857V16.8198L136.818 16.7368L136.254 16.9027L136.093 17.0686L135.69 16.9857V16.8198H134.724L134.321 17.1516L134.079 16.8198H126.667L126.264 16.6539V16.488L125.861 16.6539L125.458 16.7368L124.895 16.6539L124.733 16.5709V16.7368H124.572V16.5709H124.411L124.331 16.7368L124.008 16.6539H123.364L123.042 16.7368H122.8L122.719 16.9027H122.075L121.833 16.7368V16.5709L121.269 16.8198H120.383L119.738 16.7368L117.241 16.8198H116.596L116.516 16.9027H109.023L108.942 16.8198H108.298L108.217 16.9027H95.3267L95.085 16.6539L94.521 16.7368L88.9619 16.8198L85.8198 16.9027H83L82.6777 16.8198V15.9902L83 14.9119L83.0806 14.2483L83.1611 14.1653H84.5308L84.853 13.9994L84.9336 14.0824L85.981 14.1653L86.1421 13.8335ZM154.704 45.5211L154.785 45.687L154.865 45.5211H154.704Z" fill="#020000"/>
<path d="M33.4517 10.9304V11.1792L32.3237 13.0042L31.6792 13.9166L30.8735 15.1609L30.229 16.2393L29.3428 17.7324L28.2954 19.3914L26.6841 21.88L25.8784 23.0413L24.1865 25.6958L23.7031 26.6082L23.3809 26.94L22.5752 26.1935L21.689 25.1981L20.8833 24.1197L20.561 23.2902L20.7222 22.4606L21.0444 21.9629L21.7695 21.4652L22.3335 21.2164L22.8169 21.1334L23.8643 21.5482L25.1533 22.2118L25.395 22.2947L25.959 21.6311L28.1343 18.2301L28.6177 17.4835V17.0688L28.2954 16.654L26.9258 15.8245L25.7173 15.1609L23.7837 14.4973H21.689L20.0776 14.8291L18.9497 15.5757L18.0635 16.2393L17.2578 17.0688L16.5327 17.9813L15.9688 18.8937L15.2437 20.8846L15.0825 21.6311V24.7003L15.4048 25.8617L16.2104 27.8525L16.9355 29.0968L17.5801 30.0093L18.6274 31.3365L19.3525 32.249L19.8359 32.8296L19.5137 33.4103L18.2246 35.4011L17.4189 36.5624L16.6133 37.8067L16.0493 38.8021L15.0825 40.2123L14.2769 41.4566L13.6323 42.535L12.021 45.0235L10.9736 46.5996L10.2485 47.595L9.76514 48.3416L9.52344 48.5075L9.44287 42.452L9.604 41.8713L9.68457 41.5395L9.52344 41.2907L9.604 40.8759L9.8457 40.5441L9.52344 40.3782V39.6317L9.68457 39.2169L9.604 38.8021L9.44287 38.3874L9.604 37.8897V35.7329L9.76514 35.4841V34.6546L9.52344 34.4057V31.1706L9.604 29.6774V26.1105L9.52344 21.5482V16.9029L9.76514 16.4881L9.68457 14.6632L9.44287 14.4143V11.2622L9.52344 11.1792L10.6514 11.0963H23.9448L28.9399 11.0133H31.1152V11.1792L33.0488 11.0963L33.4517 10.9304Z" fill="#010000"/>
<path d="M60.9248 43.7792L61.4082 43.8621L62.5361 44.7746L63.2612 45.2723L63.9058 45.4382L64.3086 45.6041L65.0337 45.77L65.5977 45.9359L66.8867 46.0189L67.9341 46.1018L68.0952 46.2677H68.3369L68.4175 46.0189L70.6733 45.77L72.6875 45.2723L73.0903 44.8575L73.4932 44.7746L73.6543 44.9405L73.4932 46.1018L72.2847 50.8301L71.1567 54.6459L70.7539 56.4708L70.4316 56.8026L70.2705 58.2957L69.7871 60.0377L69.3037 61.199L68.7397 61.6967L68.2563 61.9456L67.6924 62.6092L67.6118 62.6922H66.4033L65.5977 62.5263L65.356 62.6092L64.8726 62.3604L64.4697 62.2774L61.9722 61.6138L61.5693 61.5308H60.9248L59.3135 61.199L58.9106 60.8672L58.2661 60.6184L58.1855 60.4525V59.7889H57.8633L57.9438 60.2036V60.4525L57.541 60.2866L57.2188 59.623L56.8965 58.7934L57.2993 57.0515L57.4604 56.139L58.105 53.9822L58.7495 51.5766L59.394 49.0881L59.5552 48.5074L59.7969 48.0097L60.8442 43.8621L60.9248 43.7792Z" fill="#FF190E"/>
<path d="M99.355 19.8891L100.322 19.9721H101.208L102.578 20.055L103.625 20.3868L104.592 20.8845L105.317 21.5481L105.8 22.3777L105.961 23.2072L105.72 23.456V24.6173L105.075 27.3548L104.028 31.4194L103.464 33.4102L103.142 34.1568L102.9 35.0693L102.417 35.8988L101.691 36.7283L101.127 37.3919L100.241 38.1385L99.355 38.5532L97.7437 39.0509L95.9712 39.3828L93.3931 39.4657L91.7817 39.0509L90.8149 38.6362L90.0898 37.9726L89.6064 37.1431L89.4453 36.3135L89.5259 34.8204L89.8481 33.4102L90.1704 32.3319L90.4121 31.3364L90.8149 30.0092L91.2983 27.8525L91.7817 26.0275L92.4263 24.2026L92.9902 23.2072L93.5542 22.4606L94.4404 21.5481L95.2461 20.9675L96.0518 20.6357L97.2603 20.3868L98.0659 20.138L99.355 19.8891ZM98.5493 22.3777L98.1465 22.5436L97.7437 23.539L96.8574 26.6082L96.1323 29.3456L95.3267 32.2489L94.6016 35.2352V35.8988L95.085 36.8113L95.7295 37.1431H96.2935L96.938 36.8113L97.4214 36.3965L97.5825 35.9817L97.9048 34.5716L98.4688 32.5807L99.4355 28.599L99.9189 26.4423L100.322 25.8616L100.483 24.6173L100.644 24.2026L100.563 23.456L100.08 22.7095L99.5161 22.3777H98.5493Z" fill="#010000"/>
<path d="M72.8486 24.1194L74.46 24.2024L75.8296 24.4513L77.1992 25.0319L77.9243 25.6955L78.0854 25.9444L78.2466 26.525L78.4883 26.9398L78.3271 28.1841L77.5215 31.5851L77.1187 33.3271L76.313 36.1474L75.6685 38.3871L75.0239 39.7144L74.2183 40.7927L73.4126 41.7052L72.6069 42.2859L70.9956 42.8665L68.1758 43.4472H66.5645L64.8726 43.1983L63.7446 42.7836L63.0195 42.2029L62.5361 41.4564L62.2139 40.378V39.7144L62.6167 37.5576L63.0195 35.7327L63.5029 33.9078L63.7446 32.9123L64.5503 30.4238L64.9531 29.4284L65.1143 28.7647L65.5977 27.6034L66.4033 26.525L67.7729 25.4467L69.062 24.7831L70.1094 24.4513L71.5596 24.2853L72.8486 24.1194ZM71.8013 26.4421L71.2373 26.7739L70.6733 27.4375L70.1899 28.9306L68.9814 33.5759L68.4175 35.5668L67.6924 38.3871L67.5312 39.1337V40.1291L67.8535 40.6268L68.2563 40.8757L68.5786 40.9586H69.1426L69.626 40.5439L70.1094 39.5485L70.6733 37.3917L71.1567 35.7327L71.3179 34.7373L71.6401 33.9078L72.4458 30.9215L73.0098 28.9306L73.0903 28.4329V27.7693L72.8486 27.1057L72.3652 26.525L71.8013 26.4421Z" fill="#FF190E"/>
<path d="M131.501 20.0548H134.401L135.932 20.4696L136.738 20.8843L137.463 21.5479L137.866 22.2116L137.946 22.4604V23.8706L137.221 27.3546L135.852 32.6635L135.368 34.3225L134.724 35.6497L134.16 36.5622L133.837 36.977L133.193 37.5576L132.307 38.1383L131.179 38.7189L129.809 39.1337L128.923 39.2996L126.989 39.3826H125.378L124.572 39.2167L123.605 38.8019L122.558 38.0553L121.994 37.3917L121.833 36.977L121.752 36.2304V35.4838L121.994 34.4884L122.719 31.5851L123.203 29.5943L123.686 27.5205L124.572 24.6172L125.136 23.4558L125.7 22.7093L126.667 21.7138L128.037 20.8843L129.084 20.4696L130.212 20.3037L130.937 20.2207L131.501 20.0548ZM131.179 22.2945L130.695 22.5434L130.212 23.124L129.809 24.0365L129.245 26.1932L128.681 28.1841L128.117 30.5067L127.392 33.0782L126.909 34.9032V35.7327L127.392 36.7281L127.795 37.0599L128.439 37.3088L129.245 37.0599L129.648 36.5622L130.131 34.8202L130.856 31.834L131.582 29.0136L132.065 27.3546L132.629 24.7831L132.709 23.8706L132.79 23.5388L132.548 22.9581L132.146 22.4604L131.904 22.2945H131.179Z" fill="black"/>
<path d="M150.354 20.9673H151.401L152.207 21.2161L152.932 21.6309L153.254 22.0457L153.334 22.2116V23.7876L152.609 26.7739L152.207 28.1011L151.643 30.5897L150.998 33.1612L150.112 36.6452L149.79 37.9724L149.628 38.8019L149.548 38.8849L148.339 38.9678H144.392L144.714 37.3917L144.956 36.3963L145.197 35.235L145.439 33.9907L145.761 32.6635L146.325 30.7556L146.97 28.1011L147.373 26.3591L147.695 25.1149V24.4513L147.453 23.9535L147.05 23.5388L146.325 23.3729L146.164 23.7876L145.52 25.3637L145.117 26.691L144.794 28.1011L143.586 32.9123L142.458 37.4747L142.055 38.8849L141.975 38.9678L141.25 38.8849L140.927 39.0508H140.122L139.558 38.8849L139.477 38.9678H138.51H138.188L136.738 38.8849L137.302 36.894L138.027 33.8248L138.269 32.4976L138.591 31.4192L139.155 28.9306L139.477 28.0182L139.719 26.8569L140.524 24.0365L140.847 22.6263L141.169 21.8798L141.411 21.2161L146.647 21.2991L146.809 22.0457L147.131 22.2945H147.534L148.098 21.6309L148.984 21.2161L149.548 21.0502L150.354 20.9673Z" fill="#010000"/>
<path d="M115.468 19.8891H117.321L118.61 20.055L119.819 20.3039L121.108 21.2163L121.672 21.714L121.994 22.3777L122.075 23.456V24.2855L121.752 25.8616L121.269 27.6036L121.027 28.1013L120.463 28.3502H119.899L119.094 28.1013L118.691 28.3502H117.966L117.644 28.1843L117.241 28.2672L117.16 28.3502L116.274 28.2672L115.871 28.1013L115.791 27.9354V26.7741L116.193 25.8616V24.9492L116.435 24.3685L116.516 24.2855V23.7049L116.113 22.9583L115.791 22.7095H115.227L114.663 22.9583L114.26 23.456L113.857 24.6173L113.535 26.0275L112.407 30.1751L111.118 35.484L111.198 35.9817L111.521 36.4794L111.843 36.7283L112.326 36.8112L113.051 36.3965L113.454 35.7329L114.179 33.2443L114.582 32.083L114.663 32L116.918 31.9171H119.658L120.061 32L119.98 32.6637L119.497 34.1568L119.094 35.2352L118.852 35.8158L118.288 36.6453L117.563 37.4749L116.274 38.3044L115.065 38.8021L114.34 38.968H114.018L113.938 39.2168L113.615 39.2998L112.326 39.3828H109.184L108.54 39.2168L107.734 39.1339L107.492 38.968V38.8021L106.767 38.6362L106.123 38.0555L105.8 37.5578L105.559 36.5624L105.639 34.9034L106.123 32.4148L106.767 29.7604L107.17 28.1843L107.492 26.857L108.298 24.4514L108.942 23.2901L109.829 22.2947L110.554 21.6311L112.084 20.8016L112.89 20.3868L114.26 20.055L115.307 19.9721L115.468 19.8891Z" fill="#010000"/>
<path d="M54.4795 19.8891H58.105L58.5078 20.055L59.6357 20.138L60.6025 20.6357L61.3276 21.2163L61.6499 21.714L61.7305 23.1242L61.4082 24.7833L61.0054 25.5298L60.6025 25.6957L59.4746 25.6128L58.9912 25.4469L58.3467 25.5298H57.3799L56.8159 25.6128L56.4937 25.7787L56.0908 25.6957V24.2855L56.4131 23.7049L56.252 23.2901L55.688 22.7924L54.9629 22.7095L54.3989 23.0413L54.0767 23.456L53.6738 24.8662L53.7544 25.5298L54.0767 26.1934L54.4795 26.6911L55.5269 27.4377L57.1382 28.3502L58.1855 29.0967L58.5884 29.5945L59.2329 30.1751L59.5552 30.5899L59.6357 30.7558V32.3319L59.7163 32.8296L59.2329 34.9034L58.9106 35.8988L58.3467 36.8113L57.7827 37.4749L56.9771 38.0555L56.1714 38.5532L55.3657 38.968L52.0625 39.7146L51.6597 39.6316L51.3374 39.4657L50.854 39.5487L50.6929 39.7146H50.1289L49.5649 39.5487L48.6787 39.3828L47.0674 38.8021L46.4229 38.3044L45.9395 37.6408L45.7783 37.1431V35.6499L45.9395 34.9034L46.1006 33.825L46.3423 33.4102L46.5034 32.6637H47.9536L48.5981 32.7466L48.7593 32.6637H51.4985L51.7402 32.7466L51.6597 33.0784L51.4985 33.3273L51.2568 34.7375L50.9346 35.567L51.0151 36.0647L51.5791 36.5624L52.4653 36.6453L53.1904 36.3965L53.7544 35.4011V34.6545L53.9961 34.0738V33.3273L53.6738 32.6637L53.1099 32.166L51.0957 30.8387L50.0483 30.0092L49.1621 29.3456L48.437 28.599L48.1147 27.9354L48.0342 27.3548V26.3593L48.437 24.2855L49.2427 22.6265L49.5649 22.2117L50.4512 21.4652L51.0957 20.9675L52.5459 20.3868L53.4321 19.9721L54.4795 19.8891Z" fill="#010000"/>
<path d="M71.8013 4.70874H73.4126L74.2183 4.9576L74.5405 5.2894L73.9766 5.70416L74.2988 5.62121L74.5405 5.37235H75.1045L76.2324 5.78711L76.6353 5.62121L77.5215 5.53826H78.6494L79.2134 5.78711L79.5356 6.20187L79.6968 6.53368L79.8579 7.5291L80.1802 7.94386L80.9858 8.52452L81.8721 8.85633L82.3555 9.27109L82.1943 9.68584L81.4692 10.2665H80.9053L80.3413 9.9347L79.7773 9.7688L79.2134 9.85175L79.0522 10.2665L79.1328 11.0131L79.5356 11.5108L80.7441 12.1744L82.0332 12.838V13.9993L81.2275 17.6492L80.5024 20.2207L79.7773 23.0411L79.4551 23.7876L78.8911 23.2899L78.0854 22.5434L77.0381 22.0457L76.2324 21.7968L74.8628 21.465L74.2988 21.382H72.5264L70.8345 21.5479L69.4648 21.8797L67.6118 22.5434L66.8062 23.0411H66.645L66.8062 22.1286L67.2896 20.3037L67.6118 18.9764L68.0146 18.064L68.4175 16.322L68.7397 15.2436L69.626 11.8426L70.1094 10.4324L70.3511 10.0177L70.8345 9.7688L74.2183 9.68584L74.7017 8.35862L74.7822 8.19271V7.695L74.46 7.19729L73.9766 6.78253L73.1709 6.45073L71.8818 6.11892L70.8345 5.87006L70.7539 5.70416L71.1567 5.04055L71.5596 4.79169L71.8013 4.70874Z" fill="#FF190E"/>
<path d="M23.4614 28.0184L23.7837 28.1013L25.1533 29.4286L26.2007 30.424L28.0537 32.3319L29.1011 33.742L30.0679 35.3181L30.6318 36.5624L30.8735 37.5578L31.1152 37.8067L31.1958 39.2169V41.7054L31.0347 42.5349L30.9541 43.1985L30.4707 44.6087L29.8262 45.9359L29.1011 46.8484L27.8926 48.0927L26.7646 48.8393L25.6367 49.4199L23.9448 49.6688L23.542 49.8347H22.3335L20.8027 49.6688L19.8359 49.4199L18.4663 48.7563L17.0967 47.7609L16.2104 46.8484L15.8882 46.3507L15.3242 45.6041L15.8076 44.6087L16.6938 43.1156L17.4189 41.7884L17.6606 41.3736L17.9023 40.71L18.3052 40.2123H18.5469L18.9497 41.2077L19.6748 42.1202L20.2388 42.7008L20.8833 43.2815L21.8501 43.7792L22.5752 43.8622L22.978 43.9451L24.0254 43.8622L24.7505 43.5303L25.395 42.9497L25.8784 42.369L26.2007 41.6225L26.5229 40.9588L26.4424 40.5441L26.2812 40.2123L26.2007 39.4657L25.5562 38.3044L24.9922 37.4749L24.5088 36.7283L23.8643 36.1476L21.689 33.9079L21.0444 33.3273L20.4805 32.6637L20.6416 32.166L21.125 31.3364L21.7695 30.6728L22.6558 29.3456L23.1392 28.3502L23.4614 28.0184Z" fill="#010000"/>
<path d="M83.9668 20.0548L84.3696 20.1378L84.9336 20.3037L90.0093 20.3866H90.1704L90.4121 20.3037H91.4595L91.3789 20.9673L90.7344 23.207L90.5732 23.5388L90.4121 23.6217H87.4312L86.3838 23.5388L86.2227 24.2853L85.8198 26.1932L85.7393 26.7739V27.7693L86.1421 27.8523H87.1089L87.7534 27.7693H88.4785L88.8813 27.8523V28.5988L88.7202 29.4284L88.3979 30.5897L88.2368 30.8385L87.9951 30.9215L84.9336 31.0044L84.6113 31.1703L84.2085 32.1658L83.6445 34.4884L82.9194 36.894L82.6777 38.2212L82.3555 38.8849L81.8721 39.1337L78.0854 39.2167H76.7964L77.0381 38.3042L77.9243 35.235L78.4883 32.9123L79.0522 30.8385L79.7773 27.8523L80.4219 25.6126L81.147 22.7093L81.4692 22.1286L81.5498 21.6309H81.3887V21.2161L81.7109 20.4696L83.4028 20.3866L83.4834 20.1378L83.9668 20.0548Z" fill="#010000"/>
<path d="M120.383 45.7698H120.544L120.463 45.9357L120.383 45.7698Z" fill="#550804"/>
</svg>
