<svg width="484" height="679" viewBox="0 0 484 679" fill="none" xmlns="http://www.w3.org/2000/svg">
<path fill-rule="evenodd" clip-rule="evenodd" d="M363.312 623.797C353.56 660.131 326.026 678.266 280.9 678.266H133.257C88.3487 678.192 70.8184 660.057 80.6028 623.797L119.052 481.793L153.427 481.793L137.429 541.068C129.015 572.404 152.471 603.227 184.785 603.227H218.374C226.311 603.227 233.911 601.369 240.702 598.016C247.304 601.337 254.804 603.227 262.85 603.227H296.621C319.626 603.227 339.812 587.784 345.836 565.612L357.819 521.331C363.65 499.8 357.178 476.795 340.966 461.479L188.067 317.296C175.123 304.864 171.278 288.972 176.469 269.683L231.793 115.606L244.698 155.81L221.498 228.671C215.443 251.1 222.199 275.002 239.025 290.894L390.145 433.411C403.084 445.587 406.844 461.735 401.491 481.793L363.248 623.797H363.312ZM231.793 115.606L273.039 0.733657L323.087 155.811L299.761 228.671C293.674 251.1 300.466 275.002 317.384 290.894L469.321 433.411C482.329 445.587 486.11 461.735 480.727 481.793L442.278 623.797H442.343C432.538 660.132 404.855 678.267 359.485 678.267H133.534C133.442 678.267 133.349 678.266 133.257 678.266H56.1642C11.2934 678.266 -6.23428 660.131 3.51747 623.797L41.7596 481.793H153.427L231.322 481.793L215.238 541.068C208.874 564.644 220.646 587.929 240.702 598.016C253.49 591.703 263.411 580.093 267.324 565.611L279.243 521.331C285.043 499.8 278.606 476.794 262.48 461.479L110.404 317.296C97.5293 304.864 93.7051 288.972 98.8678 269.683L194.919 0.733398L231.793 115.606Z" fill="#E03030"/>
</svg>
