<svg width="55" height="74" viewBox="0 0 55 74" fill="none" xmlns="http://www.w3.org/2000/svg">
<g clip-path="url(#clip0_6664_83065)">
<path d="M54.2944 55.4278L54.1466 59.3495L53.7918 61.8486L53.437 62.2043L53.5553 62.6784L53.6735 62.797V70.5267L53.437 70.8823L53.3188 72.7838L53.2005 72.9024L52.013 73.0209L30.071 73.3765H25.9172L24.6114 73.258H23.3056L22.5961 73.1394L20.699 73.258L2.66942 73.4951H1.12713L0.417575 73.3765L0.299316 73.0209L0.772352 68.146L0.654093 67.6719L0.890611 66.8421V66.3679L0.654093 66.2494L1.00887 65.5382V57.6899L1.12713 56.8552L1.00887 56.6181V54.598L0.890611 53.7683L1.12713 52.6965V49.7231L1.24539 48.0587V46.2756L0.772352 46.0386L1.00887 45.5644H1.24539V31.893L1.48191 31.5373V29.7543L1.24539 29.5173V27.0181L1.48191 26.6624L1.24539 26.3068V18.3401L1.00887 5.61691V0.974154L2.43291 0.855616L2.78768 0.737077L4.56649 0.618539H7.53282L8.00586 0.737077H10.7357L23.1923 0.5H24.4981L24.7346 0.737077H41.3401L45.2525 0.855616L54.1466 0.974154L54.2648 1.21123V3.71042L54.1466 5.3749V11.7957M23.1874 4.18457L22.7143 4.42165L19.0384 4.65873H17.7327L17.1414 4.30311L16.3086 4.42165L16.0721 4.65873H15.2394L14.8846 4.42165H14.2933L13.5837 4.65873H12.0414L11.9232 4.54019H10.4992L9.67134 4.77727H8.8386L8.36556 4.54019H6.58675L5.16272 4.65873L5.04446 4.77727V12.507L5.28098 27.2502L5.04446 27.4873L5.16272 30.8162L5.04446 30.9348L5.16272 39.4942V44.6062L4.9262 44.7248V53.6398L4.80794 62.3179L4.45316 62.5549L4.68968 68.7387L5.04446 69.4499L5.51749 69.687H13.1107L19.1616 69.5685H23.3155L23.7885 69.9241L24.3798 69.8055V69.4499H26.3951L26.7499 69.687H34.4614L43.4737 69.5685H49.0466L49.8745 68.4967L49.9927 68.1411L50.111 59.1074L50.3475 58.8704V58.0406L50.111 57.5664L50.2292 56.4947L49.9927 42.107V40.5611L50.2292 40.324V29.863L50.584 29.5074V28.7961L50.2292 28.2034V26.8946H50.4658L50.584 26.539L50.2292 26.0648V24.6374L50.3475 24.5189V22.1432L50.111 8.7088V7.39993L49.9927 5.49838L49.6379 4.66367H36.7083L36.4718 4.42659H33.6237L26.5085 4.54513H24.0152L23.7786 4.18951H23.1874V4.18457Z" fill="#010000"/>
<path d="M45.0704 9.80029V10.1559L43.4098 12.7736L42.4588 14.0825L41.2713 15.8655L40.3203 17.4115L39.0145 19.5501L37.4722 21.9258L35.1021 25.4918L33.9146 27.1563L31.4213 30.9594L30.7118 32.2683L30.2387 32.7424L29.0512 31.6707L27.7454 30.2433L26.5579 28.6973L26.0849 27.507L26.3214 26.3167L26.7944 25.6054L27.8637 24.8942L28.6964 24.5386L29.406 24.42L30.9483 25.0127L32.8453 25.966L33.2001 26.0845L34.0329 25.1313L37.2357 20.2564L37.9453 19.1846V18.5919L37.4722 17.9992L35.4569 16.8089L33.6781 15.8556L30.83 14.9024H27.7454L25.3753 15.3765L23.7148 16.4483L22.409 17.4016L21.2215 18.5919L20.1522 19.9008L19.3195 21.2096L18.2502 24.0644L18.0137 25.1362V29.537L18.4867 31.2014L19.6743 34.0562L20.7435 35.8393L21.6945 37.1481L23.2368 39.0497L24.3061 40.3585L25.0156 41.1933L24.5426 42.023L22.6455 44.8778L21.458 46.5423L20.2705 48.3253L19.4377 49.7527L18.0137 51.7728L16.8262 53.5558L15.8752 55.1018L13.5051 58.6678L11.9628 60.925L10.8935 62.3524L10.184 63.4242L9.8292 63.6613L9.71094 54.9832L9.94746 54.1535L10.0657 53.6793L9.8292 53.3237L9.94746 52.731L10.3022 52.2569L9.8292 52.0198V50.948L10.0657 50.3553L9.94746 49.7626L9.71094 49.1699L9.94746 48.4587V45.3668L10.184 45.0112V43.8209L9.8292 43.4652V38.8274L9.94746 36.6888V31.5768L9.8292 25.0374V18.3795L10.184 17.7868L10.0657 15.1691L9.71094 14.8135V10.2942L9.8292 10.1757L11.4897 10.0571H31.0616L38.4134 9.93859H41.6162V10.1757L44.4643 10.0571L45.0556 9.82005L45.0704 9.80029Z" fill="#010000"/>
<path d="M30.362 34.2933L30.835 34.4119L32.8503 36.3134L34.3926 37.7408L37.1224 40.4771L38.6647 42.4972L40.0888 44.7544L40.9215 46.5374L41.2763 47.9648L41.631 48.3204L41.7493 50.3405V53.9065L41.5128 55.0968L41.3945 56.0501L40.685 58.0702L39.734 59.9717L38.6647 61.2806L36.8859 63.0636L35.2254 64.1354L33.5648 64.9701L31.0715 65.3257L30.4802 65.5628H28.7014L26.4496 65.3257L25.0255 64.9701L23.0102 64.0169L20.9949 62.5895L19.6891 61.2806L19.216 60.5694L18.3833 59.4976L19.0929 58.0702L20.3986 55.9316L21.4679 54.03L21.8227 53.4373L22.1774 52.4841L22.7687 51.7728H23.1235L23.7148 53.2002L24.7841 54.5091L25.6168 55.3389L26.5678 56.1736L27.9918 56.8848L29.0611 57.0033L29.6524 57.1219L31.1947 57.0033L32.2639 56.5292L33.2149 55.6945L33.9245 54.8647L34.3975 53.7929L34.8706 52.8397L34.7523 52.247L34.5158 51.7728L34.3975 50.701L33.4465 49.0366L32.6138 47.8462L31.9042 46.7744L30.9532 45.9397L27.7504 42.7293L26.7994 41.8946L25.9667 40.9414L26.2032 40.2301L26.9127 39.0398L27.8637 38.0866L29.1695 36.185L29.8791 34.7576L30.3521 34.2834L30.362 34.2933Z" fill="#010000"/>
</g>
<defs>
<clipPath id="clip0_6664_83065">
<rect width="54" height="73" fill="white" transform="translate(0.294434 0.5)"/>
</clipPath>
</defs>
</svg>
