<svg width="21" height="21" viewBox="0 0 21 21" fill="none" xmlns="http://www.w3.org/2000/svg">
<path d="M10.5 5.5C10.6658 5.5 10.8247 5.56585 10.9419 5.68306C11.0592 5.80027 11.125 5.95924 11.125 6.125V9.875H14.875C15.0408 9.875 15.1997 9.94085 15.3169 10.0581C15.4342 10.1753 15.5 10.3342 15.5 10.5C15.5 10.6658 15.4342 10.8247 15.3169 10.9419C15.1997 11.0592 15.0408 11.125 14.875 11.125H11.125V14.875C11.125 15.0408 11.0592 15.1997 10.9419 15.3169C10.8247 15.4342 10.6658 15.5 10.5 15.5C10.3342 15.5 10.1753 15.4342 10.0581 15.3169C9.94085 15.1997 9.875 15.0408 9.875 14.875V11.125H6.125C5.95924 11.125 5.80027 11.0592 5.68306 10.9419C5.56585 10.8247 5.5 10.6658 5.5 10.5C5.5 10.3342 5.56585 10.1753 5.68306 10.0581C5.80027 9.94085 5.95924 9.875 6.125 9.875H9.875V6.125C9.875 5.95924 9.94085 5.80027 10.0581 5.68306C10.1753 5.56585 10.3342 5.5 10.5 5.5Z" fill="#140000"/>
</svg>
