<svg width="31" height="31" viewBox="0 0 31 31" fill="none" xmlns="http://www.w3.org/2000/svg">
<path d="M15.5 8.45404C15.7486 8.45404 15.9871 8.55281 16.1629 8.72863C16.3387 8.90444 16.4375 9.1429 16.4375 9.39154V15.0165H22.0625C22.3111 15.0165 22.5496 15.1153 22.7254 15.2911C22.9012 15.4669 23 15.7054 23 15.954C23 16.2027 22.9012 16.4411 22.7254 16.617C22.5496 16.7928 22.3111 16.8915 22.0625 16.8915H16.4375V22.5165C16.4375 22.7652 16.3387 23.0036 16.1629 23.1795C15.9871 23.3553 15.7486 23.454 15.5 23.454C15.2514 23.454 15.0129 23.3553 14.8371 23.1795C14.6613 23.0036 14.5625 22.7652 14.5625 22.5165V16.8915H8.9375C8.68886 16.8915 8.4504 16.7928 8.27459 16.617C8.09877 16.4411 8 16.2027 8 15.954C8 15.7054 8.09877 15.4669 8.27459 15.2911C8.4504 15.1153 8.68886 15.0165 8.9375 15.0165H14.5625V9.39154C14.5625 9.1429 14.6613 8.90444 14.8371 8.72863C15.0129 8.55281 15.2514 8.45404 15.5 8.45404Z" fill="#F8F8F8"/>
</svg>
