<svg width="20" height="21" viewBox="0 0 20 21" fill="none" xmlns="http://www.w3.org/2000/svg">
<g clip-path="url(#clip0_2142_298)">
<path d="M14.6776 13.285C15.888 11.6334 16.4301 9.58566 16.1955 7.55148C15.9609 5.51731 14.9669 3.64672 13.4123 2.31396C11.8578 0.981196 9.85733 0.28455 7.81119 0.363391C5.76505 0.442232 3.82413 1.29075 2.37673 2.73918C0.929335 4.18761 0.0822089 6.12914 0.0048316 8.17534C-0.0725457 10.2215 0.625532 12.2215 1.95941 13.7751C3.29328 15.3287 5.16458 16.3214 7.19892 16.5545C9.23326 16.7877 11.2806 16.2441 12.9314 15.0325H12.9301C12.9676 15.0825 13.0076 15.13 13.0526 15.1763L17.8651 19.9888C18.0995 20.2233 18.4175 20.3552 18.7491 20.3553C19.0807 20.3554 19.3987 20.2238 19.6333 19.9894C19.8678 19.755 19.9997 19.4371 19.9998 19.1055C19.9999 18.7739 19.8683 18.4558 19.6339 18.2213L14.8214 13.4088C14.7767 13.3636 14.7286 13.3218 14.6776 13.2838V13.285ZM15.0001 8.48005C15.0001 9.38288 14.8223 10.2769 14.4768 11.111C14.1313 11.9451 13.6249 12.703 12.9865 13.3414C12.3481 13.9798 11.5902 14.4862 10.7561 14.8317C9.92198 15.1772 9.02798 15.355 8.12514 15.355C7.22231 15.355 6.32831 15.1772 5.4942 14.8317C4.66008 14.4862 3.90219 13.9798 3.26379 13.3414C2.62538 12.703 2.11897 11.9451 1.77347 11.111C1.42797 10.2769 1.25015 9.38288 1.25015 8.48005C1.25015 6.65668 1.97447 4.908 3.26379 3.61869C4.5531 2.32937 6.30178 1.60505 8.12514 1.60505C9.94851 1.60505 11.6972 2.32937 12.9865 3.61869C14.2758 4.908 15.0001 6.65668 15.0001 8.48005Z" fill="#555555"/>
</g>
<defs>
<clipPath id="clip0_2142_298">
<rect width="20" height="20" fill="white" transform="translate(0 0.355042)"/>
</clipPath>
</defs>
</svg>
