<svg width="20" height="21" viewBox="0 0 20 21" fill="#F8F8F8" xmlns="http://www.w3.org/2000/svg">
<g clip-path="url(#clip0_2157_549)">
<path d="M3.7125 2.64154C3.82986 2.50433 3.97555 2.39418 4.13954 2.31865C4.30354 2.24313 4.48195 2.20403 4.6625 2.20404H15.3375C15.5181 2.20403 15.6965 2.24313 15.8605 2.31865C16.0245 2.39418 16.1701 2.50433 16.2875 2.64154L19.5487 6.44654C19.8399 6.78633 20 7.21906 20 7.66654V7.98529C20.0001 8.60401 19.8068 9.20729 19.4473 9.71082C19.0877 10.2143 18.5798 10.5929 17.9946 10.7937C17.4094 10.9945 16.776 11.0074 16.1831 10.8306C15.5901 10.6539 15.0673 10.2963 14.6875 9.80779C14.4102 10.165 14.0548 10.454 13.6485 10.6527C13.2423 10.8514 12.796 10.9545 12.3438 10.954C11.8915 10.9545 11.4452 10.8515 11.0389 10.6528C10.6326 10.4541 10.2773 10.1651 10 9.80779C9.72274 10.1651 9.36736 10.4541 8.9611 10.6528C8.55485 10.8515 8.10849 10.9545 7.65625 10.954C7.20401 10.9545 6.75765 10.8515 6.3514 10.6528C5.94514 10.4541 5.58976 10.1651 5.3125 9.80779C4.93274 10.2963 4.40985 10.6539 3.81692 10.8306C3.22399 11.0074 2.59065 10.9945 2.00541 10.7937C1.42017 10.5929 0.912278 10.2143 0.552728 9.71082C0.193177 9.20729 -6.82482e-05 8.60401 1.80807e-08 7.98529V7.66654C1.57594e-05 7.21906 0.160071 6.78633 0.45125 6.44654L3.71375 2.64029L3.7125 2.64154ZM5.9375 7.98529C5.9375 8.44113 6.11858 8.8783 6.44091 9.20063C6.76324 9.52296 7.20041 9.70404 7.65625 9.70404C8.11209 9.70404 8.54926 9.52296 8.87159 9.20063C9.19392 8.8783 9.375 8.44113 9.375 7.98529C9.375 7.81953 9.44085 7.66056 9.55806 7.54335C9.67527 7.42614 9.83424 7.36029 10 7.36029C10.1658 7.36029 10.3247 7.42614 10.4419 7.54335C10.5592 7.66056 10.625 7.81953 10.625 7.98529C10.625 8.44113 10.8061 8.8783 11.1284 9.20063C11.4507 9.52296 11.8879 9.70404 12.3438 9.70404C12.7996 9.70404 13.2368 9.52296 13.5591 9.20063C13.8814 8.8783 14.0625 8.44113 14.0625 7.98529C14.0625 7.81953 14.1283 7.66056 14.2456 7.54335C14.3628 7.42614 14.5217 7.36029 14.6875 7.36029C14.8533 7.36029 15.0122 7.42614 15.1294 7.54335C15.2467 7.66056 15.3125 7.81953 15.3125 7.98529C15.3125 8.44113 15.4936 8.8783 15.8159 9.20063C16.1382 9.52296 16.5754 9.70404 17.0312 9.70404C17.4871 9.70404 17.9243 9.52296 18.2466 9.20063C18.5689 8.8783 18.75 8.44113 18.75 7.98529V7.66654C18.75 7.51758 18.6968 7.3735 18.6 7.26029L15.3375 3.45404H4.6625L1.4 7.26029C1.30318 7.3735 1.24999 7.51758 1.25 7.66654V7.98529C1.25 8.44113 1.43108 8.8783 1.75341 9.20063C2.07574 9.52296 2.51291 9.70404 2.96875 9.70404C3.42459 9.70404 3.86176 9.52296 4.18409 9.20063C4.50642 8.8783 4.6875 8.44113 4.6875 7.98529C4.6875 7.81953 4.75335 7.66056 4.87056 7.54335C4.98777 7.42614 5.14674 7.36029 5.3125 7.36029C5.47826 7.36029 5.63723 7.42614 5.75444 7.54335C5.87165 7.66056 5.9375 7.81953 5.9375 7.98529ZM1.875 11.579C2.04076 11.579 2.19973 11.6449 2.31694 11.7621C2.43415 11.8793 2.5 12.0383 2.5 12.204V19.704H17.5V12.204C17.5 12.0383 17.5658 11.8793 17.6831 11.7621C17.8003 11.6449 17.9592 11.579 18.125 11.579C18.2908 11.579 18.4497 11.6449 18.5669 11.7621C18.6842 11.8793 18.75 12.0383 18.75 12.204V19.704H19.375C19.5408 19.704 19.6997 19.7699 19.8169 19.8871C19.9342 20.0043 20 20.1633 20 20.329C20 20.4948 19.9342 20.6538 19.8169 20.771C19.6997 20.8882 19.5408 20.954 19.375 20.954H0.625C0.45924 20.954 0.300269 20.8882 0.183058 20.771C0.0658481 20.6538 1.80807e-08 20.4948 1.80807e-08 20.329C1.80807e-08 20.1633 0.0658481 20.0043 0.183058 19.8871C0.300269 19.7699 0.45924 19.704 0.625 19.704H1.25V12.204C1.25 12.0383 1.31585 11.8793 1.43306 11.7621C1.55027 11.6449 1.70924 11.579 1.875 11.579ZM4.375 12.204C4.54076 12.204 4.69973 12.2699 4.81694 12.3871C4.93415 12.5043 5 12.6633 5 12.829V17.204H15V12.829C15 12.6633 15.0658 12.5043 15.1831 12.3871C15.3003 12.2699 15.4592 12.204 15.625 12.204C15.7908 12.204 15.9497 12.2699 16.0669 12.3871C16.1842 12.5043 16.25 12.6633 16.25 12.829V17.204C16.25 17.5356 16.1183 17.8535 15.8839 18.0879C15.6495 18.3223 15.3315 18.454 15 18.454H5C4.66848 18.454 4.35054 18.3223 4.11612 18.0879C3.8817 17.8535 3.75 17.5356 3.75 17.204V12.829C3.75 12.6633 3.81585 12.5043 3.93306 12.3871C4.05027 12.2699 4.20924 12.204 4.375 12.204Z" fill="#F8F8F8"/>
</g>
<defs>
<clipPath id="clip0_2157_549">
<rect width="20" height="20" fill="F8F8F8" transform="translate(0 0.954041)"/>
</clipPath>
</defs>
</svg>
