<svg width="20" height="20" viewBox="0 0 20 20" fill="none" xmlns="http://www.w3.org/2000/svg">
<path d="M3.125 1.25C2.62772 1.25 2.15081 1.44754 1.79917 1.79917C1.44754 2.15081 1.25 2.62772 1.25 3.125V16.875C1.25 17.3723 1.44754 17.8492 1.79917 18.2008C2.15081 18.5525 2.62772 18.75 3.125 18.75H10.7325C11.2296 18.7496 11.7062 18.5517 12.0575 18.2L18.2013 12.0575C18.5525 11.706 18.7499 11.2294 18.75 10.7325V3.125C18.75 2.62772 18.5525 2.15081 18.2008 1.79917C17.8492 1.44754 17.3723 1.25 16.875 1.25H3.125ZM10.625 11.875C10.625 11.5435 10.7567 11.2255 10.9911 10.9911C11.2255 10.7567 11.5435 10.625 11.875 10.625H17.37C17.4319 10.6249 17.4924 10.6432 17.5439 10.6775C17.5954 10.7118 17.6355 10.7607 17.6592 10.8178C17.6829 10.875 17.6891 10.9379 17.677 10.9986C17.6649 11.0593 17.6351 11.115 17.5912 11.1588L11.1588 17.5912C11.115 17.6351 11.0593 17.6649 10.9986 17.677C10.9379 17.6891 10.875 17.6829 10.8178 17.6592C10.7607 17.6355 10.7118 17.5954 10.6775 17.5439C10.6432 17.4924 10.6249 17.4319 10.625 17.37V11.875Z" fill="#555555"/>
</svg>
