<svg width="20" height="20" viewBox="0 0 20 20" fill="#212529" xmlns="http://www.w3.org/2000/svg">
<g clip-path="url(#clip0_6578_23461)">
<path d="M1.25 0.0011161L0 1.25112L2.75 5.10237C2.86577 5.26455 3.01864 5.3967 3.19585 5.48781C3.37306 5.57891 3.56949 5.62633 3.76875 5.62612H3.85625C4.0206 5.62599 4.18336 5.65827 4.33522 5.72112C4.48708 5.78396 4.62505 5.87614 4.74125 5.99237L8.085 9.33612L4.81375 12.6536C4.25424 12.4889 3.66405 12.4569 3.09 12.56C2.51594 12.6631 1.97382 12.8986 1.50662 13.2478C1.03943 13.5969 0.660026 14.0501 0.398504 14.5714C0.136983 15.0928 0.000540251 15.6679 0 16.2511C0.000749329 16.7885 0.117005 17.3195 0.340889 17.8081C0.564774 18.2967 0.891057 18.7314 1.29763 19.0829C1.70421 19.4343 2.18158 19.6943 2.69739 19.8451C3.21321 19.996 3.75543 20.0342 4.28731 19.9572C4.81919 19.8802 5.3283 19.6898 5.78016 19.3988C6.23201 19.1079 6.61605 18.7232 6.90626 18.2709C7.19646 17.8185 7.38605 17.3091 7.46218 16.7771C7.53831 16.2451 7.4992 15.7029 7.3475 15.1874L10.665 11.9161L11.875 13.1261L11.4937 14.2686C11.4205 14.4888 11.41 14.7251 11.4634 14.9509C11.5168 15.1768 11.6321 15.3833 11.7963 15.5474L15.9913 19.7424C16.2257 19.9767 16.5435 20.1083 16.875 20.1083C17.2065 20.1083 17.5243 19.9767 17.7587 19.7424L19.7413 17.7599C19.9756 17.5255 20.1072 17.2076 20.1072 16.8761C20.1072 16.5447 19.9756 16.2268 19.7413 15.9924L15.5463 11.7974C15.3822 11.6332 15.1757 11.518 14.9498 11.4645C14.724 11.4111 14.4877 11.4216 14.2675 11.4949L13.125 11.8761L11.925 10.6761L15.275 7.37237C15.8307 7.52071 16.4131 7.53945 16.9772 7.42713C17.5414 7.31481 18.0721 7.07444 18.5287 6.72456C18.9852 6.37467 19.3553 5.9246 19.6104 5.40907C19.8655 4.89354 19.9988 4.32631 20 3.75112C20 3.41487 19.9562 3.08862 19.8725 2.77987L17.1975 5.45612L15 5.00112L14.545 2.80487L17.2213 0.128616C16.5846 -0.0425573 15.9141 -0.0428768 15.2773 0.12769C14.6405 0.298256 14.0599 0.633681 13.5941 1.10015C13.1283 1.56662 12.7936 2.14766 12.6239 2.78468C12.4542 3.42171 12.4555 4.09222 12.6275 4.72862L9.3275 8.07612L5.99125 4.74237C5.75681 4.508 5.62507 4.19011 5.625 3.85862V3.76987C5.62502 3.57082 5.5775 3.37464 5.4864 3.19766C5.3953 3.02068 5.26326 2.86801 5.10125 2.75237L1.25 0.0011161ZM13.3075 13.3086C13.3656 13.2504 13.4345 13.2042 13.5105 13.1727C13.5864 13.1412 13.6678 13.125 13.75 13.125C13.8322 13.125 13.9136 13.1412 13.9895 13.1727C14.0655 13.2042 14.1344 13.2504 14.1925 13.3086L17.9425 17.0586C18.0006 17.1167 18.0467 17.1857 18.0782 17.2616C18.1096 17.3376 18.1258 17.4189 18.1258 17.5011C18.1258 17.5833 18.1096 17.6647 18.0782 17.7406C18.0467 17.8165 18.0006 17.8855 17.9425 17.9436C17.8844 18.0017 17.8154 18.0478 17.7395 18.0793C17.6636 18.1107 17.5822 18.1269 17.5 18.1269C17.4178 18.1269 17.3364 18.1107 17.2605 18.0793C17.1846 18.0478 17.1156 18.0017 17.0575 17.9436L13.3075 14.1936C13.2493 14.1356 13.2031 14.0666 13.1716 13.9907C13.1401 13.9147 13.1239 13.8333 13.1239 13.7511C13.1239 13.6689 13.1401 13.5875 13.1716 13.5116C13.2031 13.4356 13.2493 13.3667 13.3075 13.3086ZM3.75 13.7511L4.33875 14.0536L5 14.0861L5.35875 14.6424L5.915 15.0011L5.9475 15.6624L6.25 16.2511L5.9475 16.8399L5.915 17.5011L5.35875 17.8599L5 18.4161L4.33875 18.4486L3.75 18.7511L3.16125 18.4486L2.5 18.4161L2.14125 17.8599L1.585 17.5011L1.5525 16.8399L1.25 16.2511L1.5525 15.6624L1.585 15.0011L2.14125 14.6424L2.5 14.0861L3.16125 14.0536L3.75 13.7511Z" fill="#212529"/>
</g>
<defs>
<clipPath id="clip0_6578_23461">
<rect width="20" height="20" fill="white"/>
</clipPath>
</defs>
</svg>
