<svg width="20" height="21" viewBox="0 0 20 21" fill="none" xmlns="http://www.w3.org/2000/svg">
<g clip-path="url(#clip0_2392_1149)">
<path d="M8.125 1.29596H11.875C12.0408 1.29596 12.1997 1.36181 12.3169 1.47902C12.4342 1.59623 12.5 1.7552 12.5 1.92096V3.17096H7.5V1.92096C7.5 1.7552 7.56585 1.59623 7.68306 1.47902C7.80027 1.36181 7.95924 1.29596 8.125 1.29596ZM13.75 3.17096V1.92096C13.75 1.42368 13.5525 0.946765 13.2008 0.595134C12.8492 0.243504 12.3723 0.0459595 11.875 0.0459595L8.125 0.0459595C7.62772 0.0459595 7.15081 0.243504 6.79917 0.595134C6.44754 0.946765 6.25 1.42368 6.25 1.92096V3.17096H3.1325C3.12833 3.17092 3.12417 3.17092 3.12 3.17096H1.875C1.70924 3.17096 1.55027 3.23681 1.43306 3.35402C1.31585 3.47123 1.25 3.6302 1.25 3.79596C1.25 3.96172 1.31585 4.12069 1.43306 4.2379C1.55027 4.35511 1.70924 4.42096 1.875 4.42096H2.5475L3.61375 17.746C3.66403 18.3725 3.94844 18.957 4.41034 19.3833C4.87224 19.8095 5.47774 20.0461 6.10625 20.046H13.8937C14.5223 20.0461 15.1278 19.8095 15.5897 19.3833C16.0516 18.957 16.336 18.3725 16.3863 17.746L17.4525 4.42096H18.125C18.2908 4.42096 18.4497 4.35511 18.5669 4.2379C18.6842 4.12069 18.75 3.96172 18.75 3.79596C18.75 3.6302 18.6842 3.47123 18.5669 3.35402C18.4497 3.23681 18.2908 3.17096 18.125 3.17096H16.8813C16.8771 3.17092 16.8729 3.17092 16.8687 3.17096H13.75ZM16.1975 4.42096L15.14 17.646C15.1149 17.9592 14.9727 18.2515 14.7417 18.4646C14.5108 18.6777 14.208 18.796 13.8937 18.796H6.10625C5.792 18.796 5.48925 18.6777 5.2583 18.4646C5.02735 18.2515 4.88514 17.9592 4.86 17.646L3.8025 4.42096H16.1975ZM6.83875 5.67096C7.00417 5.6614 7.16661 5.71791 7.29037 5.82808C7.41413 5.93825 7.48908 6.09305 7.49875 6.25846L8.12375 16.8835C8.13032 17.0469 8.07252 17.2065 7.96277 17.3278C7.85302 17.4491 7.70007 17.5226 7.53676 17.5324C7.37345 17.5422 7.2128 17.4876 7.0893 17.3803C6.96581 17.273 6.88932 17.1215 6.87625 16.9585L6.25 6.33346C6.24493 6.25135 6.25611 6.16905 6.28291 6.09127C6.30972 6.01349 6.35161 5.94177 6.40619 5.88022C6.46077 5.81867 6.52697 5.76851 6.60098 5.73259C6.675 5.69668 6.75537 5.67574 6.8375 5.67096H6.83875ZM13.1613 5.67096C13.2434 5.67574 13.3238 5.69668 13.3978 5.73259C13.4718 5.76851 13.538 5.81867 13.5926 5.88022C13.6471 5.94177 13.689 6.01349 13.7158 6.09127C13.7426 6.16905 13.7538 6.25135 13.7487 6.33346L13.1237 16.9585C13.1204 17.0415 13.1005 17.1231 13.0653 17.1984C13.0301 17.2736 12.9802 17.3411 12.9185 17.3969C12.8569 17.4527 12.7847 17.4956 12.7063 17.5231C12.6279 17.5506 12.5447 17.5622 12.4617 17.5572C12.3788 17.5523 12.2976 17.5308 12.2231 17.494C12.1485 17.4573 12.082 17.4061 12.0275 17.3433C11.973 17.2806 11.9315 17.2076 11.9055 17.1286C11.8796 17.0497 11.8696 16.9663 11.8763 16.8835L12.5013 6.25846C12.5109 6.09305 12.5859 5.93825 12.7096 5.82808C12.8334 5.71791 12.9958 5.6614 13.1613 5.67096ZM10 5.67096C10.1658 5.67096 10.3247 5.73681 10.4419 5.85402C10.5592 5.97123 10.625 6.1302 10.625 6.29596V16.921C10.625 17.0867 10.5592 17.2457 10.4419 17.3629C10.3247 17.4801 10.1658 17.546 10 17.546C9.83424 17.546 9.67527 17.4801 9.55806 17.3629C9.44085 17.2457 9.375 17.0867 9.375 16.921V6.29596C9.375 6.1302 9.44085 5.97123 9.55806 5.85402C9.67527 5.73681 9.83424 5.67096 10 5.67096Z" fill="#555555"/>
</g>
<defs>
<clipPath id="clip0_2392_1149">
<rect width="20" height="20" fill="white" transform="translate(0 0.0459595)"/>
</clipPath>
</defs>
</svg>
