<svg width="17" height="17" viewBox="0 0 17 17" fill="none" xmlns="http://www.w3.org/2000/svg">
<g clip-path="url(#clip0_2765_18746)">
<path d="M1 9.99899C1.13261 9.99899 1.25979 10.0517 1.35355 10.1454C1.44732 10.2392 1.5 10.3664 1.5 10.499V12.999C1.5 13.2642 1.60536 13.5186 1.79289 13.7061C1.98043 13.8936 2.23478 13.999 2.5 13.999H14.5C14.7652 13.999 15.0196 13.8936 15.2071 13.7061C15.3946 13.5186 15.5 13.2642 15.5 12.999V10.499C15.5 10.3664 15.5527 10.2392 15.6464 10.1454C15.7402 10.0517 15.8674 9.99899 16 9.99899C16.1326 9.99899 16.2598 10.0517 16.3536 10.1454C16.4473 10.2392 16.5 10.3664 16.5 10.499V12.999C16.5 13.5294 16.2893 14.0381 15.9142 14.4132C15.5391 14.7883 15.0304 14.999 14.5 14.999H2.5C1.96957 14.999 1.46086 14.7883 1.08579 14.4132C0.710714 14.0381 0.5 13.5294 0.5 12.999V10.499C0.5 10.3664 0.552678 10.2392 0.646447 10.1454C0.740215 10.0517 0.867392 9.99899 1 9.99899Z" fill="#140000"/>
<path d="M8.146 1.24499C8.19245 1.19843 8.24762 1.16149 8.30837 1.13628C8.36911 1.11107 8.43423 1.0981 8.5 1.0981C8.56577 1.0981 8.63089 1.11107 8.69163 1.13628C8.75238 1.16149 8.80755 1.19843 8.854 1.24499L11.854 4.24499C11.9479 4.33888 12.0006 4.46622 12.0006 4.59899C12.0006 4.73177 11.9479 4.85911 11.854 4.95299C11.7601 5.04688 11.6328 5.09962 11.5 5.09962C11.3672 5.09962 11.2399 5.04688 11.146 4.95299L9 2.80599V11.599C9 11.7316 8.94732 11.8588 8.85355 11.9525C8.75979 12.0463 8.63261 12.099 8.5 12.099C8.36739 12.099 8.24021 12.0463 8.14645 11.9525C8.05268 11.8588 8 11.7316 8 11.599V2.80599L5.854 4.95299C5.80751 4.99948 5.75232 5.03636 5.69158 5.06152C5.63084 5.08668 5.56574 5.09962 5.5 5.09962C5.43426 5.09962 5.36916 5.08668 5.30842 5.06152C5.24768 5.03636 5.19249 4.99948 5.146 4.95299C5.09951 4.9065 5.06264 4.85132 5.03748 4.79058C5.01232 4.72984 4.99937 4.66474 4.99937 4.59899C4.99937 4.53325 5.01232 4.46815 5.03748 4.40741C5.06264 4.34667 5.09951 4.29148 5.146 4.24499L8.146 1.24499Z" fill="#140000"/>
</g>
<defs>
<clipPath id="clip0_2765_18746">
<rect width="16" height="16" fill="white" transform="translate(0.5 0.098999)"/>
</clipPath>
</defs>
</svg>
