<svg width="20" height="21" viewBox="0 0 20 21" fill="none" xmlns="http://www.w3.org/2000/svg">
<g clip-path="url(#clip0_4360_17187)">
<path d="M10.625 7.11719C10.625 6.95143 10.5592 6.79246 10.4419 6.67525C10.3247 6.55804 10.1658 6.49219 10 6.49219C9.83425 6.49219 9.67527 6.55804 9.55806 6.67525C9.44085 6.79246 9.37501 6.95143 9.37501 7.11719V10.2422H7.50001C7.33425 10.2422 7.17527 10.308 7.05806 10.4252C6.94085 10.5425 6.87501 10.7014 6.87501 10.8672C6.87501 11.0329 6.94085 11.1919 7.05806 11.3091C7.17527 11.4263 7.33425 11.4922 7.50001 11.4922H10C10.1658 11.4922 10.3247 11.4263 10.4419 11.3091C10.5592 11.1919 10.625 11.0329 10.625 10.8672V7.11719Z" fill="#9F9F9F"/>
<path d="M7.08376 20.8672C5.93376 20.8672 5.00001 19.9347 5.00001 18.7834V16.4584C4.21242 15.7556 3.58249 14.894 3.15161 13.9304C2.72074 12.9667 2.49867 11.9228 2.50001 10.8672C2.50001 8.64594 3.46501 6.64969 5.00001 5.27719V2.95094C5.00001 1.80094 5.93251 0.867188 7.08376 0.867188H12.9163C14.0663 0.867188 15 1.79969 15 2.95094V5.27594C16.2708 6.41091 17.1166 7.94538 17.3975 9.62594C17.4869 9.6115 17.5784 9.6166 17.6657 9.64088C17.753 9.66516 17.834 9.70806 17.9031 9.76661C17.9722 9.82516 18.0279 9.89799 18.0662 9.98009C18.1045 10.0622 18.1245 10.1516 18.125 10.2422V11.4922C18.125 11.5829 18.1052 11.6725 18.067 11.7548C18.0288 11.8371 17.9732 11.9102 17.904 11.9688C17.8348 12.0274 17.7536 12.0703 17.6661 12.0944C17.5787 12.1185 17.487 12.1233 17.3975 12.1084C17.1166 13.789 16.2708 15.3235 15 16.4584V18.7834C15 19.9334 14.0675 20.8672 12.9163 20.8672H7.08376ZM16.25 10.8672C16.25 9.20959 15.5915 7.61987 14.4194 6.44777C13.2473 5.27567 11.6576 4.61719 10 4.61719C8.3424 4.61719 6.75269 5.27567 5.58059 6.44777C4.40849 7.61987 3.75001 9.20959 3.75001 10.8672C3.75001 12.5248 4.40849 14.1145 5.58059 15.2866C6.75269 16.4587 8.3424 17.1172 10 17.1172C11.6576 17.1172 13.2473 16.4587 14.4194 15.2866C15.5915 14.1145 16.25 12.5248 16.25 10.8672Z" fill="#9F9F9F"/>
</g>
<defs>
<clipPath id="clip0_4360_17187">
<rect width="20" height="20" fill="white" transform="translate(0 0.867188)"/>
</clipPath>
</defs>
</svg>
