<svg width="21" height="20" viewBox="0 0 21 20" fill="none" xmlns="http://www.w3.org/2000/svg">
<path d="M10.7744 6.25C10.7744 6.08424 10.7086 5.92527 10.5914 5.80806C10.4742 5.69085 10.3152 5.625 10.1494 5.625C9.98366 5.625 9.82469 5.69085 9.70748 5.80806C9.59027 5.92527 9.52442 6.08424 9.52442 6.25V9.375H7.64942C7.48366 9.375 7.32469 9.44085 7.20748 9.55806C7.09027 9.67527 7.02442 9.83424 7.02442 10C7.02442 10.1658 7.09027 10.3247 7.20748 10.4419C7.32469 10.5592 7.48366 10.625 7.64942 10.625H10.1494C10.3152 10.625 10.4742 10.5592 10.5914 10.4419C10.7086 10.3247 10.7744 10.1658 10.7744 10V6.25Z" fill="#E03030"/>
<path d="M7.23317 20C6.08317 20 5.14942 19.0675 5.14942 17.9163V15.5912C4.36184 14.8884 3.7319 14.0268 3.30103 13.0632C2.87015 12.0995 2.64808 11.0556 2.64942 10C2.64942 7.77875 3.61442 5.7825 5.14942 4.41V2.08375C5.14942 0.93375 6.08192 0 7.23317 0H13.0657C14.2157 0 15.1494 0.9325 15.1494 2.08375V4.40875C16.4203 5.54372 17.266 7.0782 17.5469 8.75875C17.6364 8.74431 17.7279 8.74941 17.8151 8.77369C17.9024 8.79798 17.9834 8.84087 18.0525 8.89942C18.1216 8.95798 18.1773 9.0308 18.2156 9.1129C18.2539 9.19499 18.274 9.28441 18.2744 9.375V10.625C18.2744 10.7157 18.2546 10.8054 18.2164 10.8877C18.1782 10.97 18.1226 11.043 18.0534 11.1016C17.9842 11.1603 17.903 11.2031 17.8155 11.2272C17.7281 11.2513 17.6364 11.2561 17.5469 11.2413C17.266 12.9218 16.4203 14.4563 15.1494 15.5912V17.9163C15.1494 19.0662 14.2169 20 13.0657 20H7.23317ZM16.3994 10C16.3994 8.3424 15.7409 6.75269 14.5688 5.58058C13.3967 4.40848 11.807 3.75 10.1494 3.75C8.49182 3.75 6.9021 4.40848 5.73 5.58058C4.5579 6.75269 3.89942 8.3424 3.89942 10C3.89942 11.6576 4.5579 13.2473 5.73 14.4194C6.9021 15.5915 8.49182 16.25 10.1494 16.25C11.807 16.25 13.3967 15.5915 14.5688 14.4194C15.7409 13.2473 16.3994 11.6576 16.3994 10Z" fill="#E03030"/>
</svg>
