<svg width="20" height="20" viewBox="0 0 20 20" fill="none" xmlns="http://www.w3.org/2000/svg">
<path d="M10.625 6.25C10.625 6.08424 10.5592 5.92527 10.4419 5.80806C10.3247 5.69085 10.1658 5.625 10 5.625C9.83425 5.625 9.67527 5.69085 9.55806 5.80806C9.44085 5.92527 9.37501 6.08424 9.37501 6.25V9.375H7.50001C7.33425 9.375 7.17527 9.44085 7.05806 9.55806C6.94085 9.67527 6.87501 9.83424 6.87501 10C6.87501 10.1658 6.94085 10.3247 7.05806 10.4419C7.17527 10.5592 7.33425 10.625 7.50001 10.625H10C10.1658 10.625 10.3247 10.5592 10.4419 10.4419C10.5592 10.3247 10.625 10.1658 10.625 10V6.25Z" fill="#F3A826"/>
<path d="M7.08376 20C5.93376 20 5.00001 19.0675 5.00001 17.9163V15.5912C4.21242 14.8884 3.58249 14.0268 3.15161 13.0632C2.72074 12.0995 2.49867 11.0556 2.50001 10C2.50001 7.77875 3.46501 5.7825 5.00001 4.41V2.08375C5.00001 0.93375 5.93251 0 7.08376 0H12.9163C14.0663 0 15 0.9325 15 2.08375V4.40875C16.2708 5.54372 17.1166 7.0782 17.3975 8.75875C17.4869 8.74431 17.5784 8.74941 17.6657 8.77369C17.753 8.79798 17.834 8.84087 17.9031 8.89942C17.9722 8.95798 18.0279 9.0308 18.0662 9.1129C18.1045 9.19499 18.1245 9.28441 18.125 9.375V10.625C18.125 10.7157 18.1052 10.8054 18.067 10.8877C18.0288 10.97 17.9732 11.043 17.904 11.1016C17.8348 11.1603 17.7536 11.2031 17.6661 11.2272C17.5787 11.2513 17.487 11.2561 17.3975 11.2413C17.1166 12.9218 16.2708 14.4563 15 15.5912V17.9163C15 19.0662 14.0675 20 12.9163 20H7.08376ZM16.25 10C16.25 8.3424 15.5915 6.75269 14.4194 5.58058C13.2473 4.40848 11.6576 3.75 10 3.75C8.3424 3.75 6.75269 4.40848 5.58059 5.58058C4.40849 6.75269 3.75001 8.3424 3.75001 10C3.75001 11.6576 4.40849 13.2473 5.58059 14.4194C6.75269 15.5915 8.3424 16.25 10 16.25C11.6576 16.25 13.2473 15.5915 14.4194 14.4194C15.5915 13.2473 16.25 11.6576 16.25 10Z" fill="#F3A826"/>
</svg>
