<svg width="24" height="25" viewBox="0 0 24 25" fill="none" xmlns="http://www.w3.org/2000/svg">
<path d="M6.96936 7.46839C7.03903 7.39854 7.1218 7.34313 7.21291 7.30532C7.30403 7.26751 7.40171 7.24805 7.50036 7.24805C7.59901 7.24805 7.6967 7.26751 7.78781 7.30532C7.87893 7.34313 7.9617 7.39854 8.03136 7.46839L12.0004 11.4389L15.9694 7.46839C16.0391 7.39866 16.1219 7.34334 16.213 7.3056C16.3041 7.26786 16.4017 7.24844 16.5004 7.24844C16.599 7.24844 16.6966 7.26786 16.7877 7.3056C16.8788 7.34334 16.9616 7.39866 17.0314 7.46839C17.1011 7.53812 17.1564 7.6209 17.1941 7.71201C17.2319 7.80312 17.2513 7.90077 17.2513 7.99939C17.2513 8.098 17.2319 8.19565 17.1941 8.28676C17.1564 8.37787 17.1011 8.46066 17.0314 8.53039L13.0609 12.4994L17.0314 16.4684C17.1011 16.5381 17.1564 16.6209 17.1941 16.712C17.2319 16.8031 17.2513 16.9008 17.2513 16.9994C17.2513 17.098 17.2319 17.1957 17.1941 17.2868C17.1564 17.3779 17.1011 17.4607 17.0314 17.5304C16.9616 17.6001 16.8788 17.6554 16.7877 17.6932C16.6966 17.7309 16.599 17.7503 16.5004 17.7503C16.4017 17.7503 16.3041 17.7309 16.213 17.6932C16.1219 17.6554 16.0391 17.6001 15.9694 17.5304L12.0004 13.5599L8.03136 17.5304C7.96163 17.6001 7.87885 17.6554 7.78774 17.6932C7.69663 17.7309 7.59898 17.7503 7.50036 17.7503C7.40175 17.7503 7.3041 17.7309 7.21299 17.6932C7.12188 17.6554 7.0391 17.6001 6.96936 17.5304C6.89963 17.4607 6.84432 17.3779 6.80658 17.2868C6.76884 17.1957 6.74942 17.098 6.74942 16.9994C6.74942 16.9008 6.76884 16.8031 6.80658 16.712C6.84432 16.6209 6.89963 16.5381 6.96936 16.4684L10.9399 12.4994L6.96936 8.53039C6.89952 8.46072 6.8441 8.37796 6.80629 8.28684C6.76849 8.19572 6.74902 8.09804 6.74902 7.99939C6.74902 7.90074 6.76849 7.80305 6.80629 7.71194C6.8441 7.62082 6.89952 7.53806 6.96936 7.46839Z" fill="#555555"/>
</svg>
