<svg width="16" height="17" viewBox="0 0 16 17" fill="none" xmlns="http://www.w3.org/2000/svg">
<path fill-rule="evenodd" clip-rule="evenodd" d="M11.3539 1.94804C11.4005 1.99449 11.4374 2.04966 11.4626 2.11041C11.4878 2.17115 11.5008 2.23627 11.5008 2.30204C11.5008 2.36781 11.4878 2.43293 11.4626 2.49367C11.4374 2.55442 11.4005 2.6096 11.3539 2.65604L5.70692 8.30204L11.3539 13.948C11.4478 14.0419 11.5005 14.1693 11.5005 14.302C11.5005 14.4348 11.4478 14.5622 11.3539 14.656C11.26 14.7499 11.1327 14.8027 10.9999 14.8027C10.8671 14.8027 10.7398 14.7499 10.6459 14.656L4.64592 8.65604C4.59935 8.6096 4.56241 8.55442 4.5372 8.49367C4.512 8.43293 4.49902 8.36781 4.49902 8.30204C4.49902 8.23627 4.512 8.17115 4.5372 8.11041C4.56241 8.04966 4.59935 7.99449 4.64592 7.94804L10.6459 1.94804C10.6924 1.90148 10.7475 1.86454 10.8083 1.83933C10.869 1.81412 10.9341 1.80115 10.9999 1.80115C11.0657 1.80115 11.1308 1.81412 11.1916 1.83933C11.2523 1.86454 11.3075 1.90148 11.3539 1.94804Z" fill="#140000"/>
</svg>
