<svg width="16" height="17" viewBox="0 0 16 17" fill="none" xmlns="http://www.w3.org/2000/svg">
<path d="M8.354 1.54698C8.30756 1.50042 8.25238 1.46347 8.19163 1.43827C8.13089 1.41306 8.06577 1.40009 8 1.40009C7.93423 1.40009 7.86911 1.41306 7.80837 1.43827C7.74762 1.46347 7.69245 1.50042 7.646 1.54698L1.646 7.54698C1.5996 7.5935 1.56282 7.64871 1.53777 7.70945C1.51272 7.77019 1.49988 7.83527 1.5 7.90098V14.901C1.5 15.0336 1.55268 15.1608 1.64645 15.2545C1.74022 15.3483 1.86739 15.401 2 15.401H6.5C6.63261 15.401 6.75979 15.3483 6.85355 15.2545C6.94732 15.1608 7 15.0336 7 14.901V10.901H9V14.901C9 15.0336 9.05268 15.1608 9.14645 15.2545C9.24022 15.3483 9.36739 15.401 9.5 15.401H14C14.1326 15.401 14.2598 15.3483 14.3536 15.2545C14.4473 15.1608 14.5 15.0336 14.5 14.901V7.90098C14.5001 7.83527 14.4873 7.77019 14.4622 7.70945C14.4372 7.64871 14.4004 7.5935 14.354 7.54698L13 6.19398V2.90098C13 2.76837 12.9473 2.64119 12.8536 2.54743C12.7598 2.45366 12.6326 2.40098 12.5 2.40098H11.5C11.3674 2.40098 11.2402 2.45366 11.1464 2.54743C11.0527 2.64119 11 2.76837 11 2.90098V4.19398L8.354 1.54698ZM2.5 14.401V8.10798L8 2.60798L13.5 8.10798V14.401H10V10.401C10 10.2684 9.94732 10.1412 9.85355 10.0474C9.75979 9.95366 9.63261 9.90098 9.5 9.90098H6.5C6.36739 9.90098 6.24022 9.95366 6.14645 10.0474C6.05268 10.1412 6 10.2684 6 10.401V14.401H2.5Z" fill="#140000"/>
</svg>
