<svg width="21" height="20" viewBox="0 0 21 20" fill="none" xmlns="http://www.w3.org/2000/svg">
<path d="M8.375 18.1249V13.7437C8.375 13.4374 8.6875 13.1249 9 13.1249H11.5C11.8125 13.1249 12.125 13.4374 12.125 13.7499V18.1249C12.125 18.2907 12.1908 18.4497 12.3081 18.5669C12.4253 18.6841 12.5842 18.7499 12.75 18.7499H17.75C17.9158 18.7499 18.0747 18.6841 18.1919 18.5669C18.3092 18.4497 18.375 18.2907 18.375 18.1249V9.37493C18.3751 9.2928 18.3591 9.21144 18.3278 9.13551C18.2965 9.05959 18.2505 8.99058 18.1925 8.93243L16.5 7.24118V3.12493C16.5 2.95917 16.4342 2.8002 16.3169 2.68299C16.1997 2.56578 16.0408 2.49993 15.875 2.49993H14.625C14.4592 2.49993 14.3003 2.56578 14.1831 2.68299C14.0659 2.8002 14 2.95917 14 3.12493V4.74118L10.6925 1.43243C10.6344 1.37422 10.5655 1.32804 10.4895 1.29654C10.4136 1.26503 10.3322 1.24881 10.25 1.24881C10.1678 1.24881 10.0864 1.26503 10.0105 1.29654C9.93453 1.32804 9.86556 1.37422 9.8075 1.43243L2.3075 8.93243C2.2495 8.99058 2.20353 9.05959 2.17221 9.13551C2.1409 9.21144 2.12485 9.2928 2.125 9.37493V18.1249C2.125 18.2907 2.19085 18.4497 2.30806 18.5669C2.42527 18.6841 2.58424 18.7499 2.75 18.7499H7.75C7.91576 18.7499 8.07473 18.6841 8.19194 18.5669C8.30915 18.4497 8.375 18.2907 8.375 18.1249Z" fill="#F8F8F8"/>
</svg>
