<svg width="16" height="17" viewBox="0 0 16 17" fill="none" xmlns="http://www.w3.org/2000/svg">
<path fill-rule="evenodd" clip-rule="evenodd" d="M13.8539 2.64601C13.9005 2.69245 13.9374 2.74763 13.9626 2.80838C13.9878 2.86912 14.0008 2.93424 14.0008 3.00001C14.0008 3.06578 13.9878 3.1309 13.9626 3.19164C13.9374 3.25239 13.9005 3.30756 13.8539 3.35401L2.85392 14.354C2.76003 14.4479 2.63269 14.5006 2.49992 14.5006C2.36714 14.5006 2.2398 14.4479 2.14592 14.354C2.05203 14.2601 1.99929 14.1328 1.99929 14C1.99929 13.8672 2.05203 13.7399 2.14592 13.646L13.1459 2.64601C13.1924 2.59945 13.2475 2.5625 13.3083 2.5373C13.369 2.51209 13.4341 2.49911 13.4999 2.49911C13.5657 2.49911 13.6308 2.51209 13.6916 2.5373C13.7523 2.5625 13.8075 2.59945 13.8539 2.64601Z" fill="#140000"/>
<path fill-rule="evenodd" clip-rule="evenodd" d="M2.14592 2.64601C2.09935 2.69245 2.06241 2.74763 2.0372 2.80838C2.012 2.86912 1.99902 2.93424 1.99902 3.00001C1.99902 3.06578 2.012 3.1309 2.0372 3.19164C2.06241 3.25239 2.09935 3.30756 2.14592 3.35401L13.1459 14.354C13.2398 14.4479 13.3671 14.5006 13.4999 14.5006C13.6327 14.5006 13.76 14.4479 13.8539 14.354C13.9478 14.2601 14.0005 14.1328 14.0005 14C14.0005 13.8672 13.9478 13.7399 13.8539 13.646L2.85392 2.64601C2.80747 2.59945 2.7523 2.5625 2.69155 2.5373C2.63081 2.51209 2.56568 2.49911 2.49992 2.49911C2.43415 2.49911 2.36903 2.51209 2.30828 2.5373C2.24754 2.5625 2.19236 2.59945 2.14592 2.64601Z" fill="#140000"/>
</svg>
