<svg width="18" height="19" viewBox="0 0 18 19" fill="none" xmlns="http://www.w3.org/2000/svg">
<path fill-rule="evenodd" clip-rule="evenodd" d="M1.85178 6.18079C1.90403 6.1284 1.9661 6.08684 2.03444 6.05849C2.10278 6.03013 2.17604 6.01553 2.25003 6.01553C2.32402 6.01553 2.39728 6.03013 2.46562 6.05849C2.53396 6.08684 2.59603 6.1284 2.64828 6.18079L9.00003 12.5337L15.3518 6.18079C15.4041 6.12849 15.4662 6.087 15.5345 6.0587C15.6028 6.0304 15.6761 6.01583 15.75 6.01583C15.824 6.01583 15.8972 6.0304 15.9656 6.0587C16.0339 6.087 16.096 6.12849 16.1483 6.18079C16.2006 6.23309 16.2421 6.29518 16.2704 6.36351C16.2987 6.43184 16.3132 6.50508 16.3132 6.57904C16.3132 6.653 16.2987 6.72624 16.2704 6.79457C16.2421 6.8629 16.2006 6.92499 16.1483 6.97729L9.39828 13.7273C9.34603 13.7797 9.28395 13.8212 9.21562 13.8496C9.14728 13.8779 9.07402 13.8925 9.00003 13.8925C8.92604 13.8925 8.85278 13.8779 8.78444 13.8496C8.7161 13.8212 8.65403 13.7797 8.60178 13.7273L1.85178 6.97729C1.7994 6.92504 1.75783 6.86296 1.72948 6.79463C1.70112 6.72629 1.68652 6.65303 1.68652 6.57904C1.68652 6.50505 1.70112 6.43179 1.72948 6.36345C1.75783 6.29511 1.7994 6.23304 1.85178 6.18079Z" fill="#140000"/>
</svg>
