<svg width="20" height="21" viewBox="0 0 20 21" fill="none" xmlns="http://www.w3.org/2000/svg">
<g clip-path="url(#clip0_2157_820)">
<path d="M10.0001 20.974C12.2732 20.9754 14.4693 20.1508 16.1798 18.6537C17.8903 17.1567 18.9987 15.0892 19.2986 12.836C19.5985 10.5828 19.0696 8.29737 17.8102 6.40504C16.5509 4.5127 14.6469 3.14236 12.4526 2.54904C12.5061 2.36286 12.5155 2.1668 12.4802 1.97634C12.4449 1.78587 12.3659 1.60621 12.2493 1.45154C12.1327 1.29687 11.9817 1.17141 11.8083 1.08507C11.6349 0.998735 11.4438 0.953878 11.2501 0.954041H8.75009C8.55639 0.953878 8.36529 0.998735 8.19189 1.08507C8.01849 1.17141 7.86753 1.29687 7.75092 1.45154C7.63431 1.60621 7.55524 1.78587 7.51995 1.97634C7.48467 2.1668 7.49413 2.36286 7.54759 2.54904C5.35331 3.14236 3.44933 4.5127 2.18998 6.40504C0.93063 8.29737 0.401697 10.5828 0.701615 12.836C1.00153 15.0892 2.10987 17.1567 3.82037 18.6537C5.53087 20.1508 7.72701 20.9754 10.0001 20.974ZM18.1251 11.599C18.1251 13.7539 17.2691 15.8205 15.7453 17.3443C14.2216 18.868 12.155 19.724 10.0001 19.724C7.84521 19.724 5.77858 18.868 4.25485 17.3443C2.73112 15.8205 1.87509 13.7539 1.87509 11.599C1.87509 9.44416 2.73112 7.37753 4.25485 5.8538C5.77858 4.33007 7.84521 3.47404 10.0001 3.47404C12.155 3.47404 14.2216 4.33007 15.7453 5.8538C17.2691 7.37753 18.1251 9.44416 18.1251 11.599Z" fill="#212529"/>
<path d="M8.67509 10.254L14.8626 6.71654L11.3251 12.904L5.13884 16.4415L8.67509 10.254Z" fill="#212529"/>
</g>
<defs>
<clipPath id="clip0_2157_820">
<rect width="20" height="20" fill="white" transform="translate(0 0.954041)"/>
</clipPath>
</defs>
</svg>
