<svg width="20" height="21" viewBox="0 0 20 21" fill="none" xmlns="http://www.w3.org/2000/svg">
<path d="M19.3775 2.94057C19.4943 3.05772 19.5599 3.2164 19.5599 3.38182C19.5599 3.54724 19.4943 3.70591 19.3775 3.82307L18.0737 5.12807L15.5737 2.62807L16.8775 1.32307C16.9947 1.2059 17.1536 1.14008 17.3194 1.14008C17.4851 1.14008 17.644 1.2059 17.7612 1.32307L19.3775 2.93932V2.94057ZM17.19 6.01057L14.69 3.51057L6.17375 12.0281C6.10495 12.0969 6.05316 12.1807 6.0225 12.2731L5.01625 15.2906C4.998 15.3456 4.99541 15.4046 5.00877 15.461C5.02212 15.5174 5.0509 15.569 5.09188 15.6099C5.13287 15.6509 5.18444 15.6797 5.24084 15.6931C5.29724 15.7064 5.35624 15.7038 5.41125 15.6856L8.42875 14.6793C8.52096 14.649 8.60484 14.5977 8.67375 14.5293L17.19 6.01057Z" fill="#140000"/>
<path fill-rule="evenodd" clip-rule="evenodd" d="M1.25 17.3906C1.25 17.8878 1.44754 18.3648 1.79917 18.7164C2.15081 19.068 2.62772 19.2656 3.125 19.2656H16.875C17.3723 19.2656 17.8492 19.068 18.2008 18.7164C18.5525 18.3648 18.75 17.8878 18.75 17.3906V9.89057C18.75 9.72481 18.6842 9.56584 18.5669 9.44863C18.4497 9.33142 18.2908 9.26557 18.125 9.26557C17.9592 9.26557 17.8003 9.33142 17.6831 9.44863C17.5658 9.56584 17.5 9.72481 17.5 9.89057V17.3906C17.5 17.5563 17.4342 17.7153 17.3169 17.8325C17.1997 17.9497 17.0408 18.0156 16.875 18.0156H3.125C2.95924 18.0156 2.80027 17.9497 2.68306 17.8325C2.56585 17.7153 2.5 17.5563 2.5 17.3906V3.64057C2.5 3.47481 2.56585 3.31584 2.68306 3.19863C2.80027 3.08142 2.95924 3.01557 3.125 3.01557H11.25C11.4158 3.01557 11.5747 2.94972 11.6919 2.83251C11.8092 2.7153 11.875 2.55633 11.875 2.39057C11.875 2.22481 11.8092 2.06584 11.6919 1.94863C11.5747 1.83142 11.4158 1.76557 11.25 1.76557H3.125C2.62772 1.76557 2.15081 1.96311 1.79917 2.31474C1.44754 2.66637 1.25 3.14329 1.25 3.64057V17.3906Z" fill="#140000"/>
</svg>
