<svg width="20" height="21" viewBox="0 0 20 21" fill="none" xmlns="http://www.w3.org/2000/svg">
<g clip-path="url(#clip0_2392_1147)">
<path d="M19.3775 2.47096C19.4943 2.58812 19.5599 2.74679 19.5599 2.91221C19.5599 3.07763 19.4943 3.23631 19.3775 3.35346L18.0737 4.65846L15.5737 2.15846L16.8775 0.853463C16.9947 0.736293 17.1536 0.670471 17.3194 0.670471C17.4851 0.670471 17.644 0.736293 17.7612 0.853463L19.3775 2.46971V2.47096ZM17.19 5.54096L14.69 3.04096L6.17375 11.5585C6.10495 11.6272 6.05316 11.7111 6.0225 11.8035L5.01625 14.821C4.998 14.876 4.99541 14.935 5.00877 14.9914C5.02212 15.0478 5.0509 15.0993 5.09188 15.1403C5.13287 15.1813 5.18444 15.2101 5.24084 15.2234C5.29724 15.2368 5.35624 15.2342 5.41125 15.216L8.42875 14.2097C8.52096 14.1794 8.60484 14.1281 8.67375 14.0597L17.19 5.54096Z" fill="#555555"/>
<path fill-rule="evenodd" clip-rule="evenodd" d="M1.25 16.921C1.25 17.4182 1.44754 17.8952 1.79917 18.2468C2.15081 18.5984 2.62772 18.796 3.125 18.796H16.875C17.3723 18.796 17.8492 18.5984 18.2008 18.2468C18.5525 17.8952 18.75 17.4182 18.75 16.921V9.42096C18.75 9.2552 18.6842 9.09623 18.5669 8.97902C18.4497 8.86181 18.2908 8.79596 18.125 8.79596C17.9592 8.79596 17.8003 8.86181 17.6831 8.97902C17.5658 9.09623 17.5 9.2552 17.5 9.42096V16.921C17.5 17.0867 17.4342 17.2457 17.3169 17.3629C17.1997 17.4801 17.0408 17.546 16.875 17.546H3.125C2.95924 17.546 2.80027 17.4801 2.68306 17.3629C2.56585 17.2457 2.5 17.0867 2.5 16.921V3.17096C2.5 3.0052 2.56585 2.84623 2.68306 2.72902C2.80027 2.61181 2.95924 2.54596 3.125 2.54596H11.25C11.4158 2.54596 11.5747 2.48011 11.6919 2.3629C11.8092 2.24569 11.875 2.08672 11.875 1.92096C11.875 1.7552 11.8092 1.59623 11.6919 1.47902C11.5747 1.36181 11.4158 1.29596 11.25 1.29596H3.125C2.62772 1.29596 2.15081 1.49351 1.79917 1.84514C1.44754 2.19677 1.25 2.67368 1.25 3.17096V16.921Z" fill="#555555"/>
</g>
<defs>
<clipPath id="clip0_2392_1147">
<rect width="20" height="20" fill="white" transform="translate(0 0.0459595)"/>
</clipPath>
</defs>
</svg>
